<svg class="main-svg" xmlns="http://www.w3.org/2000/svg" xmlns:xlink="http://www.w3.org/1999/xlink" width="2200" height="1000" style="" viewBox="0 0 1100 500"><rect x="0" y="0" width="1100" height="500" style="fill: rgb(255, 255, 255); fill-opacity: 1;"/><defs id="defs-13a0a6"><g class="clips"><clipPath id="clip13a0a6xyplot" class="plotclip"><rect width="1007" height="385"/></clipPath><clipPath class="axesclip" id="clip13a0a6x"><rect x="71" y="0" width="1007" height="500"/></clipPath><clipPath class="axesclip" id="clip13a0a6y"><rect x="0" y="50" width="1100" height="385"/></clipPath><clipPath class="axesclip" id="clip13a0a6xy"><rect x="71" y="50" width="1007" height="385"/></clipPath></g><g class="gradients"/><g class="patterns"/></defs><g class="bglayer"/><g class="layer-below"><g class="imagelayer"/><g class="shapelayer"/></g><g class="cartesianlayer"><g class="subplot xy"><g class="layer-subplot"><g class="shapelayer"/><g class="imagelayer"/></g><g class="minor-gridlayer"><g class="x"/><g class="y"/></g><g class="gridlayer"><g class="x"><path class="xgrid crisp" transform="translate(269.15999999999997,0)" d="M0,50v385" style="stroke: rgb(0, 0, 0); stroke-opacity: 0.05; stroke-width: 1px;"/><path class="xgrid crisp" transform="translate(471.37,0)" d="M0,50v385" style="stroke: rgb(0, 0, 0); stroke-opacity: 0.05; stroke-width: 1px;"/><path class="xgrid crisp" transform="translate(673.58,0)" d="M0,50v385" style="stroke: rgb(0, 0, 0); stroke-opacity: 0.05; stroke-width: 1px;"/><path class="xgrid crisp" transform="translate(875.79,0)" d="M0,50v385" style="stroke: rgb(0, 0, 0); stroke-opacity: 0.05; stroke-width: 1px;"/></g><g class="y"><path class="ygrid crisp" transform="translate(0,358)" d="M71,0h1007" style="stroke: rgb(0, 0, 0); stroke-opacity: 0.05; stroke-width: 1px;"/><path class="ygrid crisp" transform="translate(0,281)" d="M71,0h1007" style="stroke: rgb(0, 0, 0); stroke-opacity: 0.05; stroke-width: 1px;"/><path class="ygrid crisp" transform="translate(0,204)" d="M71,0h1007" style="stroke: rgb(0, 0, 0); stroke-opacity: 0.05; stroke-width: 1px;"/><path class="ygrid crisp" transform="translate(0,127)" d="M71,0h1007" style="stroke: rgb(0, 0, 0); stroke-opacity: 0.05; stroke-width: 1px;"/></g></g><g class="zerolinelayer"><path class="yzl zl crisp" transform="translate(0,435)" d="M71,0h1007" style="stroke: rgb(0, 0, 0); stroke-opacity: 0.05; stroke-width: 2px;"/></g><g class="layer-between"><g class="shapelayer"/><g class="imagelayer"/></g><path class="xlines-below"/><path class="ylines-below"/><g class="overlines-below"/><g class="xaxislayer-below"/><g class="yaxislayer-below"/><g class="overaxes-below"/><g class="overplot"><g class="xy" transform="translate(71,50)" clip-path="url(#clip13a0a6xyplot)"><g class="scatterlayer mlayer"><g class="trace scatter tracecc9398" style="stroke-miterlimit: 2; opacity: 1;"><g class="fills"/><g class="errorbars"/><g class="lines"><path class="js-line" d="M0,185.04L4.04,188.93L8.09,213.76L12.13,174.18L16.18,177.55L20.22,172.81L24.27,176.95L32.35,177.74L36.4,185L40.44,201.96L44.49,181.67L48.53,186.7L52.57,190.27L56.62,193.84L60.66,6.45L64.71,11.26L68.75,60.15L72.8,372.22L76.84,322.83L80.88,6.49L84.93,6.36L88.97,9.21L93.02,7.82L97.06,48.94L101.1,16.44L105.15,295.81L109.19,365.09L113.24,48.38L117.28,15.9L121.33,283.66L125.37,47.57L129.41,18.56L133.46,320.51L137.5,78.57L141.55,17.37L145.59,33.34L149.63,345.54L153.68,29.41L157.72,343.14L161.77,52.28L165.81,27.4L169.86,348.93L173.9,29.3L177.94,351.51L181.99,17.57L186.03,24.47L190.08,56.16L194.12,344.37L198.16,32.14L202.21,354.63L206.25,19.64L210.3,30.78L214.34,276.39L218.39,114.48L222.43,51.81L226.47,39.36L230.52,348.25L234.56,227.78L238.61,12.14L242.65,15.76L246.69,128.75L250.74,326.12L254.78,11.6L258.83,15.18L262.87,9.84L266.92,10.58L270.96,12.55L275,27.7L279.05,353.58L283.09,49.46L287.14,293.34L291.18,208.73L295.22,88.28L299.27,324.45L303.31,42.46L307.36,202.39L311.4,314.68L315.45,285.21L319.49,176.12L323.53,134.55L327.58,150.18L331.62,152.48L335.67,223.52L339.71,214.23L343.76,165.75L347.8,200.37L351.84,203.91L355.89,165.64L359.93,184.17L363.98,203.93L368.02,179.92L372.06,182.55L376.11,191.23L380.15,182.23L384.2,183.96L388.24,182.98L392.29,188.2L396.33,144.87L400.37,176.26L404.42,198.78L408.46,154.63L412.51,183.87L416.55,185.95L420.59,157.2L424.64,192.67L428.68,209.11L432.73,168.16L436.77,200.72L440.82,195.6L444.86,177.72L448.9,214.71L452.95,200.71L456.99,192.23L461.04,224.19L465.08,189.25L469.12,192L473.17,216.92L477.21,163.13L481.26,189.28L485.3,196.44L489.35,160.46L493.39,179.86L497.43,194.85L501.48,140.25L505.52,190.55L509.57,187.73L513.61,137.47L517.65,192.82L521.7,180.03L525.74,140.42L529.79,193.94L537.88,139.7L541.92,190.54L545.96,185.27L550.01,114.35L554.05,196.18L558.1,184.4L562.14,122.5L566.18,197.52L570.23,181.53L574.27,109.88L578.32,205.23L582.36,200.52L586.41,117.57L590.45,210.61L594.49,204L598.54,115L602.58,226.09L606.63,194.45L610.67,116.55L614.71,246.47L618.76,194.34L622.8,127.83L626.85,242.61L630.89,202.6L634.94,103.67L638.98,255.37L643.02,201.32L647.07,103.3L651.11,237.1L655.16,230.78L659.2,100.65L663.24,226.08L667.29,227.31L671.33,106.79L675.38,224.04L679.42,243.02L683.47,103.41L687.51,217.64L691.55,232.43L695.6,96.78L699.64,206.97L703.69,254.64L707.73,105.82L711.78,198.26L715.82,255.5L719.86,101.44L723.91,195.14L727.95,247.22L732,107.34L736.04,187.92L740.08,258.2L744.13,97.18L752.22,264.45L756.26,101.35L760.31,175.61L764.35,263.86L768.39,93.23L772.44,203.9L776.48,251.13L780.53,96.61L784.57,178.6L788.61,228.94L792.66,91.95L796.7,178.78L800.75,217.87L804.79,94.17L808.84,184.57L812.88,204.03L816.92,92.85L820.97,186.62L825.01,204.33L829.06,114.01L833.1,202.81L837.14,202.92L841.19,115.83L845.23,201.02L849.28,195.86L853.32,106.91L857.37,202.97L861.41,195.75L865.45,128.05L869.5,205.97L873.54,204.39L877.59,145.15L881.63,195.27L885.67,209.18L889.72,161.26L893.76,206.54L897.81,224.31L901.85,160.66L905.9,207.48L909.94,220.52L913.98,197.88L918.03,206.38L922.07,210.2L926.12,186.42L930.16,186.48L934.2,199.67L938.25,205.13L942.29,192.11L946.34,210.11L950.38,215L954.43,203.6L958.47,232.1L962.51,204.76L966.56,197.35L970.6,225.27L974.65,215.95L978.69,201.2L982.73,207.71L986.78,190.71L990.82,206L994.87,219.15L998.91,187.04L1002.96,197.93L1007,212.05" style="vector-effect: none; fill: none; stroke: rgb(124, 181, 236); stroke-opacity: 1; stroke-width: 2px; opacity: 1;"/></g><g class="points"/><g class="text"/></g><g class="trace scatter trace49d94e" style="stroke-miterlimit: 2; opacity: 1;"><g class="fills"/><g class="errorbars"/><g class="lines"><path class="js-line" d="M0,187.28L4.04,189.38L8.09,214.58L12.13,174.83L16.18,177.75L20.22,172.78L24.27,177.9L32.35,177.66L36.4,184.98L40.44,202.24L44.49,182.55L56.62,194.47L60.66,5.27L64.71,10.41L68.75,56.79L72.8,372.95L76.84,326.12L80.88,5.44L84.93,5.24L88.97,8.18L93.02,6.63L97.06,45.33L101.1,15.47L105.15,299.77L109.19,365.91L113.24,46.86L117.28,14.98L121.33,287.39L125.37,46.12L129.41,17.61L133.46,320.82L137.5,78.96L141.55,15.72L145.59,32.13L149.63,346.99L153.68,27.32L157.72,343.32L161.77,49.72L165.81,25.9L169.86,349.39L173.9,27.52L177.94,353.42L181.99,15.12L186.03,22.37L190.08,53.95L194.12,344.47L198.16,30.92L202.21,355.63L206.25,17.24L210.3,27.94L214.34,279.49L218.39,110.09L222.43,48.33L226.47,37.21L230.52,349L234.56,230.39L238.61,10.55L242.65,13.95L246.69,123.61L250.74,328.09L254.78,10.43L258.83,14.32L262.87,8.35L270.96,10.51L275,26.11L279.05,354.97L283.09,47.19L287.14,289.44L291.18,209.15L295.22,88.31L299.27,325.28L303.31,41.36L307.36,201.16L311.4,322.08L315.45,290.71L319.49,176.83L323.53,133.59L327.58,149.26L331.62,149.02L335.67,220.74L339.71,207.57L343.76,170.06L347.8,202.99L351.84,205.97L355.89,173.67L359.93,184.74L363.98,199.59L368.02,180.21L372.06,176.42L376.11,193.78L380.15,182.48L384.2,182.15L388.24,180.42L392.29,190.95L396.33,147.73L400.37,175.26L404.42,196.97L408.46,155.26L412.51,183.89L416.55,183.89L420.59,156.9L424.64,195.49L428.68,210.45L432.73,169.98L436.77,206.68L440.82,195.87L444.86,175.05L448.9,210.89L452.95,199.1L456.99,190.78L461.04,218.44L465.08,188.09L469.12,196.47L473.17,214.13L477.21,165.98L481.26,186.46L485.3,198.16L489.35,156.87L493.39,180.7L497.43,196.85L501.48,140.81L505.52,187.22L509.57,186.86L513.61,138.15L517.65,195.63L521.7,184.84L525.74,139.68L529.79,196.08L533.83,162.57L537.88,137.84L541.92,184.22L545.96,187.74L550.01,107.14L554.05,193.33L558.1,180.41L562.14,117.01L566.18,203.52L570.23,179.47L574.27,108.61L578.32,209.8L582.36,200.44L586.41,116.94L590.45,212.68L594.49,205.65L598.54,115.2L602.58,227.98L606.63,194.77L610.67,118.34L614.71,238.62L618.76,202.23L622.8,128.03L626.85,241.99L630.89,207.77L634.94,101.32L638.98,252.48L643.02,201.3L647.07,101.27L651.11,237.03L655.16,228.55L659.2,98.73L663.24,224.68L667.29,222.9L671.33,107.16L675.38,231.71L679.42,244.81L683.47,102.02L687.51,218.04L691.55,228.85L695.6,98.64L699.64,204.92L703.69,257.18L707.73,102.31L711.78,201.72L715.82,256.68L719.86,100.33L723.91,198.51L727.95,248.8L732,105.75L736.04,185.54L740.08,259.57L744.13,95.24L748.17,188.53L752.22,261.9L756.26,106.51L760.31,179L764.35,260.9L768.39,97.79L772.44,201.17L776.48,257.49L780.53,94.44L784.57,180.45L788.61,228.18L792.66,91.64L796.7,178.77L800.75,214.44L804.79,92.49L808.84,185.78L812.88,205.79L816.92,91.39L820.97,191.35L825.01,204.83L829.06,121.55L833.1,205.47L837.14,197.27L841.19,116.54L845.23,199.49L849.28,197.95L853.32,111.31L857.37,200.22L861.41,195.34L865.45,132.2L869.5,201.96L873.54,202.32L877.59,139.57L881.63,199.23L885.67,215.16L889.72,153.66L893.76,208.52L897.81,221.17L901.85,165.42L905.9,200.61L909.94,223.4L913.98,197.65L922.07,215.15L926.12,187.16L930.16,188.09L934.2,198.36L938.25,209.39L942.29,188.39L946.34,219.06L950.38,203.73L954.43,204.78L958.47,233.18L966.56,188.22L970.6,224.43L974.65,222.73L978.69,196.89L982.73,207.69L986.78,195.7L990.82,216.28L994.87,218.21L998.91,185.93L1002.96,191.42L1007,214.95" style="vector-effect: none; fill: none; stroke: rgb(67, 67, 72); stroke-opacity: 1; stroke-width: 2px; opacity: 1;"/></g><g class="points"/><g class="text"/></g><g class="trace scatter trace3c5e60" style="stroke-miterlimit: 2; opacity: 1;"><g class="fills"/><g class="errorbars"/><g class="lines"><path class="js-line" d="M0,184.76L4.04,188.26L8.09,214.22L12.13,172.8L16.18,175.79L20.22,171.06L24.27,175.75L28.31,175.76L32.35,176.85L36.4,183.61L40.44,201L44.49,180.91L48.53,185.7L56.62,192.26L60.66,4.2L64.71,9.63L68.75,54.12L72.8,373.46L76.84,328.46L80.88,4.39L84.93,4.08L88.97,7.61L93.02,5.48L97.06,42.46L101.1,14.79L105.15,308.92L109.19,366.07L113.24,39.97L117.28,14.34L121.33,296.02L125.37,38.8L129.41,16.72L133.46,319.25L137.5,70.63L141.55,16.47L145.59,32.11L149.63,345.66L153.68,28.73L157.72,343.29L161.77,51.58L165.81,26.34L169.86,349.51L173.9,27.89L177.94,352.41L181.99,15.44L186.03,22.88L190.08,54.49L194.12,343.31L198.16,31.31L202.21,355.55L206.25,18.03L210.3,28.34L214.34,276.2L218.39,115.59L222.43,50.77L226.47,39.29L230.52,347.46L234.56,227.06L238.61,10.76L242.65,14.27L246.69,130.07L250.74,331.28L254.78,10.05L258.83,14.46L262.87,7.89L270.96,10.57L275,26.67L279.05,353.91L283.09,47.74L287.14,291.67L291.18,211.58L295.22,88.06L299.27,324.37L303.31,42.83L307.36,200.38L311.4,320.3L315.45,290.49L319.49,175.61L323.53,132.58L327.58,148.13L331.62,149.35L335.67,223.1L339.71,206.61L343.76,170.73L347.8,204.31L351.84,207.06L355.89,167.75L359.93,183.25L363.98,203.1L368.02,179.66L372.06,178.9L376.11,195.56L380.15,181.64L384.2,179.93L388.24,183.2L392.29,189.63L396.33,149.76L404.42,196.97L408.46,150.78L412.51,178.35L416.55,185.16L420.59,154.44L424.64,190.26L428.68,213.65L432.73,166.11L436.77,205.97L440.82,196.35L444.86,178.33L448.9,213.7L452.95,206.77L456.99,193.38L461.04,228L465.08,185.35L469.12,197.37L473.17,212.95L477.21,168.09L481.26,184.76L485.3,201.27L489.35,157.14L493.39,185.66L497.43,196.67L501.48,137.56L505.52,187.98L509.57,183.97L513.61,133.3L517.65,197.8L521.7,180.32L525.74,139.48L529.79,194.72L533.83,159.34L537.88,136.89L541.92,185.96L545.96,186.11L550.01,110.77L554.05,200.69L558.1,178.71L562.14,117.69L566.18,202.59L570.23,178.63L574.27,106.26L578.32,207.48L582.36,199.61L586.41,114.69L590.45,214.08L594.49,211.48L598.54,118.95L602.58,231.51L606.63,195.5L610.67,119.51L614.71,239.88L618.76,200.94L622.8,132.54L626.85,244.1L630.89,206.19L634.94,97.68L638.98,258.35L643.02,200.11L647.07,105.11L651.11,237.91L655.16,226.81L659.2,97.77L663.24,225.39L667.29,224.31L671.33,108.7L675.38,231.42L679.42,251.04L683.47,100.78L687.51,211.95L691.55,230.16L695.6,100.61L699.64,206.88L703.69,259.26L707.73,100.46L711.78,204.25L715.82,260.24L719.86,97.76L723.91,195.49L727.95,247.96L732,102.19L740.08,258.26L744.13,98.96L752.22,263.64L756.26,102.2L760.31,175.16L764.35,267.43L768.39,94.21L772.44,201.94L776.48,256.77L780.53,93.15L784.57,170.34L788.61,232.17L792.66,88.55L796.7,178.5L800.75,212.83L804.79,89.32L808.84,185.4L812.88,209.63L816.92,87.85L820.97,192.61L825.01,201.85L829.06,123.44L833.1,205.88L837.14,200.34L841.19,116.74L845.23,197.73L849.28,197.76L853.32,115.47L857.37,201.52L861.41,196.93L865.45,130.64L869.5,204.64L873.54,199.95L877.59,140.35L881.63,195.15L885.67,217.98L889.72,158.21L893.76,215.67L897.81,218.84L901.85,171.28L905.9,207.54L909.94,220.62L913.98,200.72L918.03,210.64L922.07,218L926.12,191.38L930.16,191.89L934.2,196.47L938.25,215.53L942.29,185.68L946.34,214.84L950.38,210.56L954.43,204.93L958.47,232.36L962.51,209.2L966.56,192.28L970.6,227.13L974.65,220.23L978.69,196.94L982.73,200.69L986.78,197.3L990.82,215.6L994.87,218.88L998.91,187.55L1002.96,195.07L1007,211.79" style="vector-effect: none; fill: none; stroke: rgb(144, 237, 125); stroke-opacity: 1; stroke-width: 2px; opacity: 1;"/></g><g class="points"/><g class="text"/></g><g class="trace scatter traceed3f3a" style="stroke-miterlimit: 2; opacity: 1;"><g class="fills"/><g class="errorbars"/><g class="lines"><path class="js-line" d="M0,196.77L4.04,182.63L8.09,215.45L12.13,183.17L16.18,188L20.22,169.15L24.27,182.2L28.31,197.97L32.35,202.31L36.4,181.55L40.44,190.42L44.49,203.93L48.53,205.77L52.57,210.18L56.62,198.19L60.66,12.38L64.71,33.42L72.8,346.73L76.84,183.13L80.88,10.46L84.93,10.82L88.97,26.88L93.02,23.21L97.06,178.63L101.1,19L109.19,342.09L113.24,42.95L117.28,17.23L121.33,178.09L125.37,37.23L129.41,21.86L133.46,190.96L137.5,136.33L141.55,130.08L145.59,129.08L149.63,167.11L153.68,147.6L157.72,219.97L161.77,104.56L165.81,112.01L169.86,194.12L173.9,129.75L177.94,193.98L181.99,161.04L186.03,98.16L194.12,185.71L198.16,146.09L202.21,201.45L206.25,167.57L210.3,111.73L214.34,167.24L222.43,94.97L226.47,113.8L230.52,223.77L234.56,168.89L238.61,108.19L242.65,144.76L246.69,138.06L250.74,196.68L254.78,140.84L258.83,96.03L262.87,162.15L266.92,83.2L270.96,139L275,121.64L279.05,201.82L283.09,92.46L287.14,221.04L291.18,203.83L295.22,146.36L299.27,183.99L303.31,158.69L307.36,157.94L311.4,190.4L315.45,169.93L319.49,121.1L323.53,166.11L327.58,181.1L331.62,118.65L335.67,165.03L339.71,194.71L343.76,164.19L347.8,151.67L351.84,144.23L355.89,215.8L359.93,169.33L363.98,147.63L372.06,179.57L376.11,170.65L380.15,205.69L384.2,200.31L388.24,134.91L392.29,222.84L396.33,186.62L400.37,142.8L404.42,174.55L408.46,221.68L412.51,175.91L416.55,180.59L420.59,160.11L424.64,197.78L428.68,201.15L432.73,185.65L436.77,203.51L440.82,159.29L444.86,167.67L448.9,189.29L452.95,196.74L456.99,202.27L461.04,216.46L465.08,165.41L469.12,126.46L473.17,166.67L477.21,142.95L481.26,161.99L485.3,177.69L489.35,166.57L493.39,174.29L497.43,193.61L501.48,167.49L505.52,163.11L509.57,140.63L513.61,150.74L517.65,188.37L521.7,159.12L525.74,141.56L529.79,185.65L533.83,172.07L537.88,167.78L541.92,133.21L545.96,206.49L550.01,143.35L554.05,132.38L558.1,214.22L562.14,131.86L570.23,181.44L574.27,199.93L578.32,194.22L582.36,211.65L586.41,175.47L590.45,167.06L594.49,142.44L598.54,176.03L606.63,148L610.67,187.91L614.71,163.78L618.76,175.16L622.8,144.89L626.85,155.57L630.89,198.83L634.94,138.74L638.98,153.34L643.02,184.04L647.07,147.63L651.11,199.03L655.16,195.73L659.2,146.19L663.24,144.51L667.29,150.98L671.33,158.49L675.38,146.53L679.42,163.81L683.47,197.07L687.51,169.3L691.55,162.72L695.6,179.08L699.64,180.24L703.69,139.73L707.73,181.64L711.78,152.03L715.82,158.27L719.86,146.14L723.91,138.15L727.95,176.46L732,157.15L736.04,156.48L740.08,162.47L744.13,148.73L748.17,143.42L752.22,214.09L756.26,152.27L760.31,191.55L764.35,199.46L768.39,114.51L772.44,154.26L776.48,174.81L780.53,166.77L784.57,138.21L788.61,135.47L792.66,146.27L796.7,154.41L800.75,176.99L804.79,158.28L808.84,171.25L812.88,178.91L816.92,133.9L820.97,133.67L825.01,201.09L829.06,122.39L833.1,184.03L837.14,178.78L841.19,156.09L845.23,149.13L849.28,195.91L853.32,165.23L857.37,166.43L861.41,165.82L865.45,149.55L869.5,173.48L873.54,187L877.59,129.39L881.63,193.44L885.67,165.72L889.72,166.35L893.76,169L897.81,202.59L901.85,133.46L905.9,171.71L909.94,195.01L913.98,217.6L918.03,165.21L922.07,213.91L926.12,184.72L934.2,146.25L938.25,188.71L942.29,174.07L946.34,201.23L950.38,153.3L954.43,169.25L958.47,183.76L962.51,138.16L966.56,190.48L970.6,141.16L974.65,191.73L978.69,209.91L982.73,176.6L986.78,200.66L990.82,144.67L994.87,130.66L998.91,181.81L1002.96,172.28L1007,169.28" style="vector-effect: none; fill: none; stroke: rgb(247, 163, 92); stroke-opacity: 1; stroke-width: 2px; opacity: 1;"/></g><g class="points"/><g class="text"/></g><g class="trace scatter trace6c271a" style="stroke-miterlimit: 2; opacity: 1;"><g class="fills"/><g class="errorbars"/><g class="lines"><path class="js-line" d="M0,184.93L4.04,189.83L8.09,214.17L12.13,174.64L16.18,180.35L20.22,174.9L24.27,179L32.35,177.59L36.4,184.43L40.44,203.98L44.49,181.66L48.53,185.1L52.57,192.64L56.62,201.05L60.66,8.19L64.71,12.43L68.75,41.58L72.8,371.61L76.84,341.65L80.88,7.75L84.93,7.52L88.97,10.67L93.02,8.9L97.06,31.88L101.1,19.3L105.15,344.76L109.19,362.47L113.24,20.94L117.28,18.61L121.33,332.36L125.37,19.12L129.41,19.8L133.46,332.37L137.5,103.68L141.55,11.94L145.59,26.23L149.63,351.07L153.68,24.27L157.72,352.57L161.77,52.11L165.81,23.57L169.86,358.45L173.9,25.75L177.94,358.62L181.99,12.96L186.03,26.21L190.08,45.66L194.12,354.34L198.16,25.76L202.21,359.29L206.25,19.73L210.3,25.91L214.34,291.67L218.39,104.17L222.43,51.89L226.47,34.48L230.52,355.58L234.56,241.83L238.61,10.93L242.65,14L246.69,117.91L250.74,338.88L254.78,11.32L258.83,12.3L262.87,9.38L270.96,11.19L275,23.54L279.05,360.65L283.09,50.2L287.14,295.8L291.18,226.75L295.22,89.99L299.27,322.25L303.31,40.09L307.36,217.84L311.4,318.01L315.45,289.87L319.49,172.19L323.53,143.59L327.58,164.21L331.62,144.14L335.67,211.7L339.71,199.5L343.76,152.88L347.8,182.23L351.84,191.49L355.89,163.99L359.93,178.39L363.98,199.42L368.02,180.12L372.06,179.18L376.11,195.11L380.15,203.51L384.2,164.91L388.24,182.55L392.29,201.88L396.33,159.92L400.37,187.47L404.42,187.18L408.46,152.14L412.51,184.35L416.55,206.48L420.59,155.27L424.64,214.36L428.68,194.11L432.73,176.94L436.77,203.33L440.82,200.18L444.86,175.58L448.9,211.2L452.95,196.03L456.99,186.63L461.04,224.85L465.08,192.78L469.12,184.15L473.17,221.72L477.21,167.31L481.26,195.45L485.3,212.5L489.35,151.22L493.39,192.28L497.43,198.05L501.48,146.92L509.57,201.32L513.61,132.9L517.65,192.29L521.7,184.41L525.74,133.75L529.79,199.29L533.83,173.28L537.88,131.87L541.92,204.9L545.96,174.67L550.01,121.37L554.05,192.42L558.1,181.9L562.14,121.85L566.18,196.54L570.23,188.09L574.27,115.65L578.32,208.18L582.36,195.8L586.41,112.15L590.45,216.53L594.49,206.98L598.54,108.16L602.58,234.82L606.63,212.16L610.67,102.65L614.71,235.99L618.76,229.96L622.8,118.8L626.85,245.7L630.89,211.63L634.94,98.76L638.98,248.41L643.02,218.36L647.07,105.6L651.11,230.56L655.16,227.56L659.2,102.54L663.24,237.15L667.29,232.33L671.33,113.16L675.38,227.65L679.42,241.12L683.47,103.11L687.51,221.87L691.55,245.68L695.6,97.87L699.64,205.93L703.69,249.33L707.73,102.09L715.82,252.57L719.86,104.54L723.91,198.01L727.95,248.54L732,95.23L736.04,194.22L740.08,255.24L744.13,104.16L748.17,190.86L752.22,252.37L756.26,107.57L760.31,191L764.35,252.24L768.39,103.88L772.44,182.77L776.48,237.68L780.53,103.64L784.57,190.82L788.61,218.83L792.66,110.59L796.7,198.77L800.75,227.3L804.79,111.94L808.84,182.99L812.88,216.33L816.92,116.47L820.97,193.85L825.01,210.98L829.06,115.75L833.1,204.69L837.14,202.06L841.19,119.35L845.23,198.67L849.28,206.57L853.32,122.55L857.37,211.43L861.41,213.9L865.45,142.16L869.5,206.58L873.54,209.21L877.59,162.61L881.63,198.08L885.67,218.51L889.72,156.76L893.76,214.3L897.81,226.73L901.85,169.31L905.9,202.76L909.94,230.22L913.98,183.31L918.03,200.81L922.07,224.38L926.12,201.7L930.16,186.72L934.2,210.73L938.25,206.69L942.29,195.18L946.34,227.68L950.38,202.43L954.43,202.11L958.47,236.12L962.51,211.66L966.56,202.65L970.6,215.14L974.65,209.07L978.69,208.74L982.73,225.12L986.78,185.19L990.82,203.91L994.87,213.47L998.91,184.24L1002.96,206.76L1007,209.57" style="vector-effect: none; fill: none; stroke: rgb(128, 133, 233); stroke-opacity: 1; stroke-width: 2px; opacity: 1;"/></g><g class="points"/><g class="text"/></g><g class="trace scatter trace6bcaf0" style="stroke-miterlimit: 2; opacity: 1;"><g class="fills"/><g class="errorbars"/><g class="lines"><path class="js-line" d="M0,186.57L4.04,191.15L8.09,215.7L12.13,175.82L16.18,181.11L20.22,175.72L24.27,180.07L28.31,178.64L32.35,178.44L36.4,184.54L40.44,204.89L44.49,181.78L48.53,185.45L56.62,201.48L60.66,7.73L64.71,10.53L68.75,36.1L72.8,373.52L76.84,347.21L80.88,7.34L84.93,7L88.97,8.84L93.02,8.41L97.06,27.74L101.1,18.48L105.15,349.84L109.19,363.81L113.24,19.04L117.28,17.67L121.33,337.97L125.37,17.5L129.41,18.8L133.46,334.85L137.5,108.41L141.55,10.37L145.59,24.79L149.63,352.47L153.68,22.16L157.72,353.76L161.77,49.38L165.81,21.66L169.86,360.57L173.9,24.04L177.94,360.74L181.99,11.83L186.03,27.04L190.08,47.47L194.12,356.23L198.16,23.53L202.21,361.48L206.25,20.29L210.3,25.37L214.34,293.81L218.39,100.7L222.43,48.3L226.47,30.94L230.52,357.26L234.56,245.9L238.61,9.65L242.65,12.24L246.69,111.07L250.74,341.64L254.78,10.01L258.83,11.48L262.87,8.36L270.96,9.91L275,21.42L279.05,362.93L283.09,48.25L287.14,295.18L291.18,224.6L295.22,86.01L299.27,322.77L303.31,39.11L307.36,216.92L311.4,315.47L315.45,290.36L319.49,171.3L323.53,143.18L327.58,163.08L331.62,145.2L335.67,211.45L339.71,198.7L343.76,152L347.8,180.08L351.84,192.55L355.89,164.38L359.93,174.95L363.98,194.24L372.06,175.94L376.11,192.78L380.15,205.53L384.2,167.02L388.24,179.47L392.29,200.46L396.33,157.65L400.37,193.77L404.42,186.94L408.46,151.89L416.55,206.67L420.59,154.22L424.64,218.48L428.68,191.82L432.73,181.57L436.77,205.95L440.82,204.31L444.86,179.3L448.9,215.57L452.95,191.58L456.99,191.4L461.04,230.27L465.08,190.74L469.12,186.67L473.17,218.78L477.21,161.86L481.26,194.51L485.3,212.5L489.35,150.11L493.39,192.53L497.43,191.3L501.48,144.28L505.52,177.11L509.57,199.65L513.61,129.64L517.65,192.16L521.7,182.59L525.74,135.99L529.79,197.71L533.83,176.94L537.88,127.16L541.92,210.84L545.96,174.93L550.01,119.49L554.05,193.97L558.1,187.15L562.14,123.53L566.18,196.52L570.23,191.81L574.27,111.21L578.32,207.03L582.36,199.3L586.41,111.31L590.45,217.96L594.49,206.69L598.54,102.99L602.58,233.6L606.63,212.42L610.67,101.75L614.71,237.73L618.76,231.79L622.8,113.69L626.85,247.52L630.89,209.73L634.94,97.52L638.98,243.29L643.02,223.22L647.07,99.23L651.11,223.99L655.16,230.62L659.2,99.34L663.24,231.93L667.29,239.09L671.33,114.12L675.38,222.29L679.42,242.86L683.47,102.58L687.51,215.3L691.55,253.07L695.6,95.29L699.64,199.95L703.69,251.57L707.73,100.8L711.78,183.13L715.82,248.56L719.86,103.24L723.91,193.77L727.95,249.28L732,98.07L736.04,195.26L740.08,255.59L744.13,104.9L748.17,187.99L752.22,248.14L756.26,107.11L760.31,190.12L764.35,246.72L768.39,106.75L772.44,181.43L776.48,233.61L780.53,103.34L784.57,193.71L788.61,210.83L792.66,113.16L796.7,198.67L800.75,220.03L804.79,111.93L808.84,185.96L812.88,214.94L816.92,119.06L820.97,195.66L825.01,209.28L829.06,117.05L833.1,208.53L837.14,195.66L841.19,121.19L845.23,198.51L849.28,206.95L853.32,121.09L857.37,215.44L861.41,216.4L865.45,145.39L869.5,205.93L873.54,208.17L877.59,166.62L881.63,195.58L885.67,216.58L889.72,163.03L893.76,210.41L897.81,224.1L901.85,173.83L905.9,199.67L909.94,225.7L913.98,185.31L922.07,220.09L926.12,204.1L930.16,182.24L934.2,207.55L938.25,207.43L942.29,190.06L946.34,226.1L950.38,201.81L954.43,200.74L958.47,235.13L962.51,209.52L966.56,203.74L970.6,216.67L974.65,202.04L978.69,210.21L982.73,225.16L986.78,180.64L990.82,199.56L994.87,209.73L998.91,176.81L1002.96,208.69L1007,208.9" style="vector-effect: none; fill: none; stroke: rgb(241, 92, 128); stroke-opacity: 1; stroke-width: 2px; opacity: 1;"/></g><g class="points"/><g class="text"/></g><g class="trace scatter tracefd22e9" style="stroke-miterlimit: 2; opacity: 1;"><g class="fills"/><g class="errorbars"/><g class="lines"><path class="js-line" d="M0,184.08L4.04,188.85L8.09,213.26L12.13,173.5L16.18,179.12L20.22,174.08L24.27,178.07L32.35,176.7L36.4,183.29L40.44,203.04L44.49,180.87L48.53,184.26L52.57,191.87L56.62,200.12L60.66,7.48L64.71,11.98L68.75,39.68L72.8,372.03L76.84,343.49L80.88,7.11L84.93,6.81L88.97,10.18L93.02,8.2L97.06,30.1L101.1,18.68L105.15,347.58L109.19,362.85L113.24,19.47L117.28,17.97L121.33,335.18L125.37,17.51L129.41,19.26L133.46,334.98L137.5,106.16L141.55,11.19L145.59,25.31L149.63,350.34L153.68,23.59L157.72,353.18L161.77,52.4L165.81,23.53L169.86,358.53L173.9,24.77L177.94,359.12L181.99,12.63L186.03,25.81L190.08,48.07L194.12,354.9L198.16,24.84L202.21,359.83L206.25,19.34L210.3,25.4L214.34,290.08L218.39,104.9L222.43,51.89L226.47,33.24L230.52,356.38L234.56,240.83L238.61,10.1L242.65,13.47L246.69,116.17L250.74,340.18L254.78,10.58L258.83,11.96L262.87,8.87L270.96,10.62L275,22.81L279.05,361.39L283.09,48.24L287.14,297.03L291.18,225.78L295.22,88.47L299.27,321.06L303.31,40.09L307.36,216.11L311.4,316.65L315.45,290.28L319.49,173.52L323.53,139.64L327.58,161.68L331.62,147.74L335.67,209.1L339.71,197.77L343.76,152.02L347.8,180.19L351.84,190.23L355.89,166.68L359.93,178.22L363.98,196.17L368.02,179.95L372.06,175.73L380.15,201.72L384.2,167.45L388.24,180.82L392.29,198.46L396.33,159.25L400.37,190.55L404.42,185.32L408.46,150.96L412.51,182.47L416.55,203.34L420.59,155.44L424.64,213.86L428.68,193.24L432.73,179.85L436.77,205.72L440.82,203.28L444.86,181.15L448.9,213.81L452.95,194.98L456.99,190.07L461.04,224.85L465.08,192.84L469.12,183.56L473.17,222.21L477.21,161.56L481.26,195.43L485.3,209.83L489.35,151.6L493.39,191.5L497.43,197.13L501.48,142.47L505.52,178.31L509.57,199.28L513.61,133.3L517.65,193.6L521.7,182.1L525.74,136.24L529.79,198.83L533.83,172.91L537.88,130.11L541.92,206.42L545.96,174.64L550.01,121.3L554.05,196.24L558.1,186.21L562.14,120.78L566.18,199.98L570.23,190.63L574.27,114.85L578.32,211.55L582.36,198.99L586.41,113.12L590.45,220.68L594.49,207.66L598.54,108.38L602.58,236.67L606.63,217.27L610.67,103.74L614.71,237.09L618.76,230.13L622.8,116.39L626.85,248.17L630.89,212.61L634.94,100.43L638.98,248.32L643.02,220.34L647.07,103.59L651.11,229.39L655.16,227.24L659.2,101.43L663.24,235.1L667.29,233.24L671.33,113.53L675.38,227.89L679.42,243.83L683.47,105.03L687.51,217.47L691.55,250.11L695.6,95.73L699.64,203.31L703.69,250.45L707.73,103.23L715.82,252.69L719.86,101.08L723.91,195.12L727.95,247.56L732,95.09L736.04,194.78L740.08,257.79L744.13,101.54L748.17,191.08L752.22,252.24L756.26,107.02L760.31,193.11L764.35,252.64L768.39,103.33L772.44,180.84L776.48,236.51L780.53,102.01L784.57,189.87L788.61,214.26L792.66,108.02L796.7,197.53L800.75,224.93L804.79,109.21L808.84,185.11L812.88,216.63L816.92,115.39L820.97,195.23L825.01,211.77L829.06,115.59L833.1,206.97L837.14,199.02L841.19,122.49L845.23,198.27L849.28,205.41L853.32,125.05L857.37,212.41L861.41,214.24L865.45,144.08L869.5,207.35L873.54,210.04L877.59,164.68L881.63,199.77L885.67,216.56L889.72,162.75L893.76,211.81L897.81,226.39L901.85,174.86L905.9,202.73L909.94,226.5L913.98,188.48L918.03,201.39L922.07,221.73L926.12,207.12L930.16,185.25L934.2,208.33L938.25,208.21L942.29,195.65L946.34,225.35L950.38,204.91L954.43,201.39L958.47,236.95L962.51,210.83L966.56,206.02L970.6,216.77L974.65,209.67L978.69,209.14L982.73,222.58L986.78,185.85L990.82,203.44L994.87,207.79L998.91,182.08L1002.96,205.79L1007,207.72" style="vector-effect: none; fill: none; stroke: rgb(228, 211, 84); stroke-opacity: 1; stroke-width: 2px; opacity: 1;"/></g><g class="points"/><g class="text"/></g><g class="trace scatter trace79f598" style="stroke-miterlimit: 2; opacity: 1;"><g class="fills"/><g class="errorbars"/><g class="lines"><path class="js-line" d="M0,193.09L4.04,190.33L8.09,223.27L12.13,189.66L16.18,181.36L20.22,185.75L24.27,186.53L32.35,175.23L36.4,192.55L40.44,214.99L44.49,187.22L48.53,188.64L52.57,198.82L56.62,206.87L60.66,7.89L64.71,21.57L68.75,109.78L72.8,362.07L76.84,271.34L80.88,8.01L84.93,10.19L88.97,19.12L93.02,10.67L97.06,91.88L101.1,20.56L105.15,281.55L109.19,355.56L113.24,23.96L117.28,18.16L121.33,270.16L125.37,22.46L129.41,20.95L133.46,277.14L137.5,87.54L141.55,51.95L145.59,56.58L149.63,280.93L153.68,65.95L157.72,306.75L161.77,46.76L165.81,57.57L169.86,308.75L173.9,56.09L177.94,300.61L181.99,60.74L186.03,53.57L190.08,129.63L194.12,292.28L198.16,64.7L202.21,304.03L206.25,64.2L210.3,47.96L214.34,177.68L218.39,182.36L222.43,60.77L226.47,51.83L230.52,300.44L238.61,46.83L242.65,55.29L246.69,185.06L250.74,290.21L254.78,55.74L258.83,41.21L262.87,62.11L266.92,42.65L270.96,53.87L275,59.53L279.05,310.98L283.09,54.61L287.14,257.91L291.18,140.49L295.22,72.7L299.27,273.53L303.31,67.34L307.36,149.54L311.4,303.33L315.45,300.07L323.53,139.63L327.58,133.94L331.62,165.33L335.67,206.72L339.71,224.08L343.76,179.35L347.8,152.4L351.84,174.9L355.89,105.94L359.93,204.23L363.98,256.8L368.02,122.12L372.06,235.56L376.11,187.54L380.15,147.49L384.2,187.82L388.24,196.58L392.29,259.81L396.33,158.51L400.37,157.66L404.42,199.79L408.46,249.94L412.51,175.46L416.55,190.47L420.59,184.24L424.64,158.12L428.68,212.83L432.73,180.08L436.77,189.52L440.82,207.55L444.86,217.44L448.9,251.28L452.95,183.1L456.99,174.43L461.04,265.21L465.08,180.57L469.12,200.49L473.17,281L477.21,161.24L481.26,268.65L485.3,207.9L489.35,252.79L497.43,105.95L501.48,195.21L505.52,127.68L509.57,241.71L513.61,158.04L517.65,191.36L521.7,120.16L525.74,141.78L529.79,202.95L533.83,141.87L537.88,167.9L541.92,157.43L545.96,237.28L550.01,159.32L554.05,178.44L558.1,224.9L562.14,186.96L566.18,219.74L570.23,174.03L574.27,179.32L578.32,193.43L582.36,192.16L586.41,148.68L590.45,212.46L594.49,255.12L598.54,160.2L602.58,269.12L606.63,153.65L610.67,117.92L614.71,206.69L618.76,103.31L622.8,94.82L626.85,197.3L630.89,197.03L634.94,151.29L638.98,202.61L643.02,210.54L647.07,76.19L651.11,275.53L655.16,141.76L659.2,148.33L663.24,114.96L667.29,237.93L671.33,131.24L675.38,224.14L679.42,268.16L683.47,85.07L687.51,282.75L691.55,205.75L695.6,159.76L699.64,153.48L703.69,215.58L707.73,111.31L711.78,181.31L715.82,230.96L719.86,132.61L723.91,253.29L727.95,194.11L732,121.51L736.04,222.87L740.08,214.9L744.13,134.35L752.22,224.58L756.26,115.23L760.31,252.84L764.35,261.86L768.39,71.81L772.44,94.27L776.48,195.31L780.53,143.06L784.57,144.19L788.61,214.18L792.66,74.89L796.7,167.63L800.75,215.7L804.79,109.44L808.84,206.11L812.88,184.53L816.92,132.86L820.97,134.38L825.01,263.12L829.06,78.84L833.1,168.19L837.14,210.84L841.19,108.38L845.23,226.46L849.28,208.8L853.32,87.1L857.37,143.26L861.41,237L865.45,136.32L869.5,160.66L873.54,240.57L877.59,176.96L881.63,219.86L885.67,188.88L889.72,132.45L893.76,132.49L897.81,197.24L901.85,137.29L905.9,243.61L909.94,200L913.98,184.87L918.03,203.05L922.07,189.55L926.12,181.58L930.16,110.32L934.2,169.5L938.25,144.73L942.29,219.05L946.34,129.36L950.38,209.75L954.43,263.39L958.47,205.89L962.51,195L966.56,275.2L970.6,282.04L974.65,127.28L978.69,232.79L982.73,195.85L986.78,245.57L990.82,206.47L994.87,199.01L998.91,172.18L1002.96,230.94L1007,184.79" style="vector-effect: none; fill: none; stroke: rgb(43, 144, 143); stroke-opacity: 1; stroke-width: 2px; opacity: 1;"/></g><g class="points"/><g class="text"/></g><g class="trace scatter trace255b5b" style="stroke-miterlimit: 2; opacity: 1;"><g class="fills"/><g class="errorbars"/><g class="lines"><path class="js-line" d="M0,183.44L4.04,191.88L8.09,217.08L12.13,179.05L16.18,187.62L20.22,183.01L24.27,182.48L28.31,179.75L32.35,184.56L36.4,196.17L40.44,210.13L44.49,169.71L48.53,191.81L52.57,194.26L56.62,202.2L60.66,6.69L64.71,9.68L68.75,76.32L72.8,374.74L76.84,307.86L80.88,7.12L84.93,7.02L88.97,8.9L93.02,8.7L97.06,67.83L101.1,14.65L105.15,304.22L109.19,366.3L113.24,22.83L117.28,15.06L121.33,296.18L125.37,21L129.41,18.69L133.46,320.68L137.5,74.59L141.55,18.25L145.59,25.01L149.63,288.46L153.68,29.71L157.72,342.07L161.77,28.79L165.81,48.81L169.86,350.82L173.9,28.85L177.94,350.34L181.99,24.03L186.03,18.9L190.08,52.25L194.12,319.19L198.16,31.23L202.21,349.45L206.25,25.8L210.3,23.27L214.34,192.37L218.39,157.11L222.43,23.68L226.47,34.86L230.52,354.19L234.56,190.28L238.61,15.75L242.65,24.09L246.69,161.25L250.74,342.63L254.78,22.01L258.83,15.31L262.87,18.64L266.92,16.43L270.96,18.68L275,23.9L279.05,350.91L283.09,28.31L287.14,304.77L291.18,143.56L295.22,57.58L299.27,337.17L303.31,32.5L307.36,153.28L311.4,354.8L315.45,333.08L319.49,184.78L323.53,146.75L327.58,150.51L331.62,191.88L335.67,205.84L339.71,186.23L343.76,110.89L347.8,188.91L351.84,246.4L355.89,86.78L359.93,199.47L363.98,283.47L368.02,115.58L372.06,247.31L376.11,250.39L380.15,136.01L384.2,209.34L388.24,163.84L392.29,271.31L396.33,95.96L400.37,217.73L404.42,180.09L408.46,304.75L412.51,138.74L416.55,192.26L420.59,221.95L424.64,117.99L428.68,198.7L432.73,112.26L436.77,149.25L440.82,224.05L444.86,205.64L448.9,237.93L452.95,205.27L456.99,204.2L461.04,299.98L465.08,128.87L469.12,194.07L473.17,293.39L477.21,230.58L481.26,266.48L485.3,237.41L489.35,273.04L493.39,131.09L497.43,108.63L501.48,212.55L505.52,112.71L509.57,302.03L513.61,179.06L517.65,277L521.7,117.86L525.74,143.37L529.79,254.32L533.83,102.13L537.88,212.89L541.92,110.33L545.96,219.6L550.01,113.69L558.1,171.13L562.14,180.44L566.18,193.94L570.23,180.18L574.27,100.69L578.32,250.39L582.36,213.81L586.41,217.05L590.45,225.45L594.49,293.54L598.54,169.08L602.58,284.38L606.63,143.8L610.67,109.84L614.71,176.51L618.76,105.71L622.8,65.4L626.85,204.68L630.89,235.28L634.94,108.45L638.98,288.97L643.02,185.32L647.07,67.23L651.11,293.46L655.16,139.91L659.2,198.58L663.24,167.17L667.29,261.79L671.33,166.71L675.38,225.74L679.42,268.54L683.47,85.35L687.51,317.44L691.55,190.26L695.6,108.79L699.64,117.29L703.69,271.76L707.73,88.25L711.78,169.9L715.82,303.62L719.86,77.34L723.91,269.91L727.95,154L732,118.53L736.04,256.42L740.08,170.67L744.13,78.92L748.17,205.8L752.22,230.23L756.26,108.26L760.31,290.6L764.35,305.84L768.39,79.18L772.44,125.2L776.48,186.58L780.53,173.58L784.57,126.47L788.61,280.12L792.66,60.03L796.7,137.34L800.75,252.31L804.79,52.97L808.84,211.34L812.88,225.27L816.92,91.33L820.97,128.98L825.01,315.01L829.06,68.83L833.1,172.06L837.14,217.59L841.19,52.23L845.23,198.37L849.28,175.6L853.32,49.84L857.37,121.79L861.41,250.58L865.45,95.22L869.5,144.17L873.54,226.75L877.59,170.32L881.63,264.04L885.67,270.19L889.72,92.31L893.76,159.63L897.81,239.93L901.85,122.62L905.9,253.03L909.94,154.56L913.98,203.67L918.03,146.29L922.07,243.85L926.12,144.08L930.16,117.37L934.2,154.5L938.25,149.24L942.29,242.31L946.34,125.04L950.38,264.33L954.43,277.17L958.47,263.81L962.51,179.77L966.56,266.38L970.6,304.73L974.65,134L978.69,262.73L982.73,168.42L986.78,274.18L990.82,200L994.87,190.8L998.91,251.68L1002.96,220.8L1007,213.16" style="vector-effect: none; fill: none; stroke: rgb(244, 91, 91); stroke-opacity: 1; stroke-width: 2px; opacity: 1;"/></g><g class="points"/><g class="text"/></g><g class="trace scatter trace541d36" style="stroke-miterlimit: 2; opacity: 1;"><g class="fills"/><g class="errorbars"/><g class="lines"><path class="js-line" d="M0,190.89L4.04,195.92L8.09,219.54L12.13,182.31L16.18,193.99L20.22,183.12L24.27,183.2L28.31,188.73L32.35,189.53L36.4,194.24L40.44,215.8L44.49,184.67L48.53,193.61L52.57,206.38L56.62,210.39L60.66,8L64.71,12.8L68.75,92.02L72.8,371.3L76.84,291.01L80.88,6.64L84.93,6.52L88.97,9.63L93.02,9.65L97.06,81.2L101.1,19.24L105.15,284.81L109.19,361.44L113.24,29.32L117.28,16.19L121.33,272.14L125.37,28.4L129.41,18.77L133.46,317.87L137.5,81.32L141.55,20.18L145.59,31.55L149.63,319.87L153.68,35.65L157.72,341.25L161.77,25.5L165.81,47.31L169.86,343.8L173.9,32.46L177.94,344.99L181.99,23.55L186.03,21.08L190.08,76.65L194.12,323.51L198.16,38.52L202.21,345.35L206.25,28.57L210.3,27.7L214.34,197.98L218.39,160.11L222.43,24.08L226.47,31.31L230.52,339.88L234.56,170.34L238.61,18.74L242.65,25.25L246.69,168.21L250.74,339.4L254.78,23.04L258.83,14.96L262.87,20.09L266.92,15.22L270.96,19.39L275,33.18L279.05,348.94L283.09,29.9L287.14,310.56L291.18,115.69L295.22,72.1L299.27,337.32L303.31,29.36L307.36,125.32L311.4,353.92L315.45,324.38L319.49,219.76L323.53,148.75L327.58,136.73L331.62,201.39L339.71,207.44L343.76,139.05L347.8,176.57L351.84,255.39L355.89,122.11L359.93,215.72L363.98,252.65L368.02,100.63L372.06,246.62L376.11,231.64L380.15,99.13L384.2,242.94L388.24,145.77L392.29,318.66L396.33,99.17L400.37,171.57L404.42,204.75L408.46,299.16L412.51,142.39L416.55,233.16L420.59,251.41L424.64,146.46L428.68,216.52L432.73,134.5L436.77,117.36L440.82,231.51L444.86,189.76L448.9,277.77L452.95,173.5L456.99,218.06L461.04,308.71L465.08,179.51L469.12,233.72L473.17,323.05L477.21,200.24L481.26,287.44L485.3,207.99L489.35,284.91L493.39,114.14L497.43,87.88L501.48,183.62L505.52,95.99L509.57,310.82L513.61,191.41L517.65,267.3L521.7,114.94L525.74,141.77L529.79,255.55L533.83,100.21L537.88,202.24L541.92,111.27L545.96,185.96L550.01,140.56L554.05,105.83L558.1,224.15L562.14,178.97L566.18,229.48L570.23,159.48L574.27,137.16L578.32,217.24L582.36,216.93L586.41,158.53L590.45,212.03L594.49,290.62L598.54,166.19L602.58,285.26L606.63,169.01L610.67,99.27L614.71,201.65L618.76,85.22L622.8,82.65L626.85,210.3L630.89,226.27L634.94,137.12L638.98,249.47L643.02,188.58L647.07,51.38L651.11,314.46L655.16,149.9L659.2,233.27L663.24,135.89L667.29,265.22L671.33,141.77L675.38,236.83L679.42,271.03L683.47,84.92L687.51,327.3L691.55,206.02L695.6,119.13L699.64,146.18L703.69,254.38L707.73,103.64L711.78,163.3L715.82,282.88L719.86,100.99L723.91,306.92L727.95,160.82L732,136.66L736.04,255.31L740.08,203.48L744.13,75.6L748.17,163.55L752.22,233.59L756.26,132.75L760.31,298.94L764.35,326.66L768.39,50.9L772.44,136.78L776.48,195.98L780.53,176.4L784.57,154L788.61,254.13L792.66,52.75L796.7,117.61L800.75,236.37L804.79,72.7L808.84,228.68L812.88,214.57L816.92,89.72L820.97,120.98L825.01,315.47L829.06,54.52L833.1,185.84L837.14,211.66L841.19,65.17L845.23,196.11L849.28,205.67L853.32,38.02L857.37,116.54L861.41,214.48L865.45,98.28L869.5,145.6L873.54,249L877.59,188.53L881.63,285.51L885.67,243.89L889.72,121.21L893.76,149.86L897.81,245.69L901.85,102.07L905.9,270.01L909.94,175.86L913.98,199L918.03,155.57L922.07,240.09L926.12,156.74L930.16,100.59L934.2,159.41L938.25,152.85L942.29,213.89L946.34,100.5L950.38,248.24L954.43,282.48L958.47,237.78L962.51,190.41L966.56,281.53L970.6,286.46L974.65,164.25L978.69,236.57L982.73,200.75L986.78,287.37L990.82,211.63L994.87,183.89L998.91,219.35L1002.96,202.07L1007,180.61" style="vector-effect: none; fill: none; stroke: rgb(145, 232, 225); stroke-opacity: 1; stroke-width: 2px; opacity: 1;"/></g><g class="points"/><g class="text"/></g></g></g></g><path class="xlines-above crisp" d="M0,0" style="fill: none;"/><path class="ylines-above crisp" d="M0,0" style="fill: none;"/><g class="overlines-above"/><g class="xaxislayer-above"><g class="xtick"><text text-anchor="middle" x="0" y="451" transform="translate(269.15999999999997,0)" style="font-family: 'Lucida Grande', 'Open Sans', verdana, arial, sans-serif; font-size: 10px; fill: rgb(0, 0, 0); fill-opacity: 1; white-space: pre; opacity: 1;">50</text></g><g class="xtick"><text text-anchor="middle" x="0" y="451" style="font-family: 'Lucida Grande', 'Open Sans', verdana, arial, sans-serif; font-size: 10px; fill: rgb(0, 0, 0); fill-opacity: 1; white-space: pre; opacity: 1;" transform="translate(471.37,0)">100</text></g><g class="xtick"><text text-anchor="middle" x="0" y="451" style="font-family: 'Lucida Grande', 'Open Sans', verdana, arial, sans-serif; font-size: 10px; fill: rgb(0, 0, 0); fill-opacity: 1; white-space: pre; opacity: 1;" transform="translate(673.58,0)">150</text></g><g class="xtick"><text text-anchor="middle" x="0" y="451" style="font-family: 'Lucida Grande', 'Open Sans', verdana, arial, sans-serif; font-size: 10px; fill: rgb(0, 0, 0); fill-opacity: 1; white-space: pre; opacity: 1;" transform="translate(875.79,0)">200</text></g><g class="xtick"><text text-anchor="middle" x="0" y="451" style="font-family: 'Lucida Grande', 'Open Sans', verdana, arial, sans-serif; font-size: 10px; fill: rgb(0, 0, 0); fill-opacity: 1; white-space: pre; opacity: 1;" transform="translate(1078,0)">250</text></g></g><g class="yaxislayer-above"><g class="ytick"><text text-anchor="end" x="65" y="3.5" transform="translate(0,435)" style="font-family: 'Lucida Grande', 'Open Sans', verdana, arial, sans-serif; font-size: 10px; fill: rgb(0, 0, 0); fill-opacity: 1; white-space: pre; opacity: 1;">0%</text></g><g class="ytick"><text text-anchor="end" x="65" y="3.5" style="font-family: 'Lucida Grande', 'Open Sans', verdana, arial, sans-serif; font-size: 10px; fill: rgb(0, 0, 0); fill-opacity: 1; white-space: pre; opacity: 1;" transform="translate(0,358)">20%</text></g><g class="ytick"><text text-anchor="end" x="65" y="3.5" style="font-family: 'Lucida Grande', 'Open Sans', verdana, arial, sans-serif; font-size: 10px; fill: rgb(0, 0, 0); fill-opacity: 1; white-space: pre; opacity: 1;" transform="translate(0,281)">40%</text></g><g class="ytick"><text text-anchor="end" x="65" y="3.5" style="font-family: 'Lucida Grande', 'Open Sans', verdana, arial, sans-serif; font-size: 10px; fill: rgb(0, 0, 0); fill-opacity: 1; white-space: pre; opacity: 1;" transform="translate(0,204)">60%</text></g><g class="ytick"><text text-anchor="end" x="65" y="3.5" style="font-family: 'Lucida Grande', 'Open Sans', verdana, arial, sans-serif; font-size: 10px; fill: rgb(0, 0, 0); fill-opacity: 1; white-space: pre; opacity: 1;" transform="translate(0,127)">80%</text></g><g class="ytick"><text text-anchor="end" x="65" y="3.5" style="font-family: 'Lucida Grande', 'Open Sans', verdana, arial, sans-serif; font-size: 10px; fill: rgb(0, 0, 0); fill-opacity: 1; white-space: pre; opacity: 1;" transform="translate(0,50)">100%</text></g></g><g class="overaxes-above"/></g></g><g class="polarlayer"/><g class="smithlayer"/><g class="ternarylayer"/><g class="geolayer"/><g class="funnelarealayer"/><g class="pielayer"/><g class="iciclelayer"/><g class="treemaplayer"/><g class="sunburstlayer"/><g class="glimages"/><defs id="topdefs-13a0a6"><g class="clips"/></defs><g class="layer-above"><g class="imagelayer"/><g class="shapelayer"/></g><g class="infolayer"><g class="g-gtitle"><text class="gtitle" x="550" y="25" text-anchor="middle" dy="0em" style="opacity: 1; font-family: 'Lucida Grande', 'Open Sans', verdana, arial, sans-serif; font-size: 20px; fill: rgb(42, 63, 95); fill-opacity: 1; white-space: pre;"><tspan class="line" dy="0em" x="550" y="25">Fastp: Read GC Content</tspan><tspan class="line" dy="1.3em" x="550" y="25">​<tspan style="font-size:70%" dy="-0.6em">Read 1: Before filtering, 10 samples</tspan><tspan dy="0.42em">​</tspan></tspan></text></g><g class="g-xtitle"><text class="xtitle" x="574.5" y="472.3" text-anchor="middle" style="opacity: 0.3; font-family: 'Lucida Grande', 'Open Sans', verdana, arial, sans-serif; font-size: 14px; fill: rgb(0, 0, 0); fill-opacity: 1; white-space: pre;">Read Position</text></g><g class="g-ytitle"><text class="ytitle" transform="rotate(-90,22.00625,242.5)" x="22.00625" y="242.5" text-anchor="middle" style="opacity: 0.3; font-family: 'Lucida Grande', 'Open Sans', verdana, arial, sans-serif; font-size: 14px; fill: rgb(0, 0, 0); fill-opacity: 1; white-space: pre;">R1 Before filtering: Base Content Percent</text></g></g></svg>