<svg class="main-svg" xmlns="http://www.w3.org/2000/svg" xmlns:xlink="http://www.w3.org/1999/xlink" width="2200" height="1000" style="" viewBox="0 0 1100 500"><rect x="0" y="0" width="1100" height="500" style="fill: rgb(255, 255, 255); fill-opacity: 1;"/><defs id="defs-3c3266"><g class="clips"><clipPath id="clip3c3266xyplot" class="plotclip"><rect width="1018" height="385"/></clipPath><clipPath class="axesclip" id="clip3c3266x"><rect x="60" y="0" width="1018" height="500"/></clipPath><clipPath class="axesclip" id="clip3c3266y"><rect x="0" y="50" width="1100" height="385"/></clipPath><clipPath class="axesclip" id="clip3c3266xy"><rect x="60" y="50" width="1018" height="385"/></clipPath></g><g class="gradients"/><g class="patterns"/></defs><g class="bglayer"/><g class="layer-below"><g class="imagelayer"/><g class="shapelayer"/></g><g class="cartesianlayer"><g class="subplot xy"><g class="layer-subplot"><g class="shapelayer"/><g class="imagelayer"/></g><g class="minor-gridlayer"><g class="x"/><g class="y"/></g><g class="gridlayer"><g class="x"><path class="xgrid crisp" transform="translate(260.33000000000004,0)" d="M0,50v385" style="stroke: rgb(0, 0, 0); stroke-opacity: 0.05; stroke-width: 1px;"/><path class="xgrid crisp" transform="translate(464.75,0)" d="M0,50v385" style="stroke: rgb(0, 0, 0); stroke-opacity: 0.05; stroke-width: 1px;"/><path class="xgrid crisp" transform="translate(669.16,0)" d="M0,50v385" style="stroke: rgb(0, 0, 0); stroke-opacity: 0.05; stroke-width: 1px;"/><path class="xgrid crisp" transform="translate(873.58,0)" d="M0,50v385" style="stroke: rgb(0, 0, 0); stroke-opacity: 0.05; stroke-width: 1px;"/></g><g class="y"><path class="ygrid crisp" transform="translate(0,358)" d="M60,0h1018" style="stroke: rgb(0, 0, 0); stroke-opacity: 0.05; stroke-width: 1px;"/><path class="ygrid crisp" transform="translate(0,281)" d="M60,0h1018" style="stroke: rgb(0, 0, 0); stroke-opacity: 0.05; stroke-width: 1px;"/><path class="ygrid crisp" transform="translate(0,204)" d="M60,0h1018" style="stroke: rgb(0, 0, 0); stroke-opacity: 0.05; stroke-width: 1px;"/><path class="ygrid crisp" transform="translate(0,127)" d="M60,0h1018" style="stroke: rgb(0, 0, 0); stroke-opacity: 0.05; stroke-width: 1px;"/></g></g><g class="zerolinelayer"><path class="yzl zl crisp" transform="translate(0,435)" d="M60,0h1018" style="stroke: rgb(0, 0, 0); stroke-opacity: 0.05; stroke-width: 2px;"/></g><g class="layer-between"><g class="shapelayer"/><g class="imagelayer"/></g><path class="xlines-below"/><path class="ylines-below"/><g class="overlines-below"/><g class="xaxislayer-below"/><g class="yaxislayer-below"/><g class="overaxes-below"/><g class="overplot"><g class="xy" transform="translate(60,50)" clip-path="url(#clip3c3266xyplot)"><g class="scatterlayer mlayer"><g class="trace scatter tracecd87c1" style="stroke-miterlimit: 2; opacity: 1;"><g class="fills"/><g class="errorbars"/><g class="lines"><path class="js-line" d="M0,383.29L4.09,384.65L8.18,384.96L57.24,385L61.33,384.52L69.5,385L73.59,385L1018,385" style="vector-effect: none; fill: none; stroke: rgb(124, 181, 236); stroke-opacity: 1; stroke-width: 2px; opacity: 1;"/></g><g class="points"/><g class="text"/></g><g class="trace scatter trace6b13d7" style="stroke-miterlimit: 2; opacity: 1;"><g class="fills"/><g class="errorbars"/><g class="lines"><path class="js-line" d="M0,383.23L4.09,384.56L8.18,384.95L1018,384.98" style="vector-effect: none; fill: none; stroke: rgb(67, 67, 72); stroke-opacity: 1; stroke-width: 2px; opacity: 1;"/></g><g class="points"/><g class="text"/></g><g class="trace scatter trace3bf8d7" style="stroke-miterlimit: 2; opacity: 1;"><g class="fills"/><g class="errorbars"/><g class="lines"><path class="js-line" d="M0,383.18L4.09,384.55L8.18,384.97L57.24,385L61.33,384.52L69.5,385L73.59,385L1018,384.99" style="vector-effect: none; fill: none; stroke: rgb(144, 237, 125); stroke-opacity: 1; stroke-width: 2px; opacity: 1;"/></g><g class="points"/><g class="text"/></g><g class="trace scatter tracea66f4f" style="stroke-miterlimit: 2; opacity: 1;"><g class="fills"/><g class="errorbars"/><g class="lines"><path class="js-line" d="M0,383.9L4.09,385L8.18,385L134.92,384.88L139,383.05L147.18,383.29L151.27,383.54L155.36,383.9L159.45,383.41L163.53,383.17L167.62,383.9L208.51,384.76L212.59,384.76L241.21,384.63L245.3,383.78L261.65,383.17L265.74,382.19L269.83,382.56L273.92,381.46L282.1,381.58L286.18,380.61L290.27,379.38L294.36,380.48L306.63,380.48L310.71,378.9L314.8,379.99L318.89,378.29L331.16,378.53L335.24,379.87L339.33,382.8L343.42,383.41L347.51,383.29L351.6,384.63L359.78,384.39L363.86,384.88L523.31,384.39L527.4,384.02L617.34,384.63L621.43,384.76L633.69,384.76L637.78,383.78L645.96,384.51L650.05,384.39L654.14,384.02L658.22,384.76L662.31,384.27L666.4,384.88L674.58,384.88L678.67,383.66L695.02,384.63L699.11,384.39L874.91,384.27L879,383.78L883.08,382.68L887.17,383.54L907.61,384.63L911.7,383.66L919.88,383.41L923.97,384.39L928.06,384.76L932.14,384.15L936.23,384.76L940.32,383.66L948.5,384.88L952.59,384.76L981.2,384.88L985.29,384.88L1018,385" style="vector-effect: none; fill: none; stroke: rgb(247, 163, 92); stroke-opacity: 1; stroke-width: 2px; opacity: 1;"/></g><g class="points"/><g class="text"/></g><g class="trace scatter tracef17a11" style="stroke-miterlimit: 2; opacity: 1;"><g class="fills"/><g class="errorbars"/><g class="lines"><path class="js-line" d="M0,370.78L4.09,384.91L8.18,384.97L163.53,384.92L167.62,384.99L363.86,384.88L367.95,384.64L384.31,384.91L388.39,384.89L494.69,384.56L498.78,384.7L543.75,384.7L547.84,384.79L564.19,384.87L568.28,384.84L674.58,384.88L678.67,384.89L707.29,384.98L711.37,384.97L784.96,384.67L789.05,384.22L805.41,381.83L809.49,384.66L821.76,384.6L825.85,384.89L870.82,384.98L874.91,384.94L883.08,384.66L887.17,384.06L895.35,382.51L899.44,380.3L903.53,382.25L907.61,381.25L911.7,381.4L915.79,379.98L919.88,379.7L923.97,384.98L1018,385" style="vector-effect: none; fill: none; stroke: rgb(128, 133, 233); stroke-opacity: 1; stroke-width: 2px; opacity: 1;"/></g><g class="points"/><g class="text"/></g><g class="trace scatter trace31c3db" style="stroke-miterlimit: 2; opacity: 1;"><g class="fills"/><g class="errorbars"/><g class="lines"><path class="js-line" d="M0,371.11L4.09,384.91L8.18,384.99L163.53,384.92L167.62,384.99L372.04,384.88L376.13,384.67L388.39,384.88L392.48,384.86L404.75,384.79L408.84,384.93L433.37,384.58L437.45,384.71L457.9,384.55L461.98,384.25L474.25,384.66L478.34,384.5L789.05,384.34L793.14,383.82L797.23,382.59L801.32,382.7L805.41,381.92L809.49,384.71L821.76,384.64L825.85,384.9L883.08,384.67L887.17,384.15L895.35,382.52L899.44,380.42L903.53,382.3L907.61,381.3L911.7,381.57L915.79,380.36L919.88,379.93L923.97,385L1018,385" style="vector-effect: none; fill: none; stroke: rgb(241, 92, 128); stroke-opacity: 1; stroke-width: 2px; opacity: 1;"/></g><g class="points"/><g class="text"/></g><g class="trace scatter traceaa7242" style="stroke-miterlimit: 2; opacity: 1;"><g class="fills"/><g class="errorbars"/><g class="lines"><path class="js-line" d="M0,370.78L4.09,384.91L8.18,384.98L163.53,384.94L167.62,384.99L363.86,384.86L367.95,384.7L388.39,384.9L392.48,384.82L404.75,384.72L408.84,384.93L441.54,384.75L445.63,384.75L519.22,384.66L523.31,384.77L568.28,384.86L572.37,384.87L613.25,384.81L617.34,384.87L784.96,384.59L789.05,384.27L805.41,381.73L809.49,384.65L821.76,384.6L825.85,384.86L883.08,384.6L887.17,384.13L895.35,382.5L899.44,380.3L903.53,382.13L907.61,381.23L911.7,381.33L915.79,380.13L919.88,379.87L923.97,384.98L1018,385" style="vector-effect: none; fill: none; stroke: rgb(228, 211, 84); stroke-opacity: 1; stroke-width: 2px; opacity: 1;"/></g><g class="points"/><g class="text"/></g><g class="trace scatter tracefc2756" style="stroke-miterlimit: 2; opacity: 1;"><g class="fills"/><g class="errorbars"/><g class="lines"><path class="js-line" d="M0,384.07L4.09,384.94L8.18,385L57.24,385L61.33,385L134.92,384.83L139,382.88L155.36,383.78L159.45,382.76L175.8,384.51L179.89,384.07L188.06,384.53L192.15,384.21L216.68,384.68L220.77,384.42L228.95,384.68L233.04,384.51L257.57,383.66L261.65,382.93L265.74,382.09L269.83,382.24L273.92,381.02L278.01,381.25L286.18,380.29L290.27,378.75L294.36,379.79L298.45,379.65L306.63,379.88L310.71,378.8L314.8,379.76L318.89,378.46L327.07,377.7L331.16,378.14L335.24,379.3L339.33,381.83L343.42,382.96L347.51,382.82L351.6,384.39L355.69,384.07L421.1,384.88L425.19,384.94L527.4,384.19L531.49,384.13L556.02,383.87L560.1,383.89L588.72,384.74L592.81,384.59L654.14,384.01L658.22,384.59L662.31,384.16L666.4,384.71L682.76,383.89L686.84,384.62L703.2,384.45L707.29,384.39L735.9,384.74L739.99,384.74L784.96,384.48L789.05,384.24L801.32,384.71L805.41,384.56L821.76,384.74L825.85,384.74L854.47,384.53L858.55,384.33L870.82,384.59L874.91,384.33L879,383.98L883.08,382.59L907.61,384.74L911.7,383.55L919.88,383.6L923.97,384.39L928.06,384.74L932.14,384.1L936.23,384.74L940.32,383.98L948.5,384.8L952.59,384.88L1018,384.97" style="vector-effect: none; fill: none; stroke: rgb(43, 144, 143); stroke-opacity: 1; stroke-width: 2px; opacity: 1;"/></g><g class="points"/><g class="text"/></g><g class="trace scatter traced64af1" style="stroke-miterlimit: 2; opacity: 1;"><g class="fills"/><g class="errorbars"/><g class="lines"><path class="js-line" d="M0,383.52L4.09,384.91L8.18,385L57.24,384.88L61.33,385L134.92,384.71L139,383.08L143.09,383.46L147.18,383.08L155.36,383.81L159.45,383.11L175.8,384.45L179.89,384.22L188.06,384.62L192.15,384.25L245.3,384.07L249.39,383.96L261.65,383.46L265.74,382.18L269.83,382.13L273.92,381.05L282.1,381.2L286.18,380.12L290.27,378.76L294.36,380.36L302.54,379.83L306.63,380.21L310.71,378.76L314.8,380.33L318.89,378.61L322.98,378.61L327.07,378.24L331.16,378.76L335.24,379.78L339.33,382.13L343.42,383L347.51,382.85L351.6,384.3L355.69,383.93L376.13,384.59L380.22,384.48L412.92,384.71L417.01,384.68L437.45,384.65L441.54,384.48L470.16,384.68L474.25,384.59L535.57,383.9L539.66,383.64L568.28,383.84L572.37,384.25L629.61,384.36L633.69,384.59L637.78,384.07L641.87,384.45L686.84,384.56L690.93,384.68L719.55,384.33L723.64,384.56L874.91,384.27L879,383.49L883.08,382.01L887.17,382.74L899.44,384.65L903.53,384.83L907.61,384.77L911.7,383.23L919.88,383.43L923.97,384.42L928.06,384.77L932.14,384.16L936.23,384.77L940.32,383.75L944.41,384.62L948.5,384.62L960.76,384.8L964.85,384.74L1018,384.91" style="vector-effect: none; fill: none; stroke: rgb(244, 91, 91); stroke-opacity: 1; stroke-width: 2px; opacity: 1;"/></g><g class="points"/><g class="text"/></g><g class="trace scatter trace754133" style="stroke-miterlimit: 2; opacity: 1;"><g class="fills"/><g class="errorbars"/><g class="lines"><path class="js-line" d="M0,383.71L4.09,384.98L8.18,385L134.92,384.58L139,382.5L155.36,383.31L159.45,382.43L183.98,384.47L188.06,384.5L196.24,384.23L200.33,384.33L216.68,384.77L220.77,384.27L228.95,384.57L233.04,384.35L245.3,383.86L249.39,383.31L261.65,382.75L265.74,381.84L269.83,381.79L273.92,380.81L282.1,380.78L286.18,380.16L290.27,378.4L294.36,379.37L306.63,379.37L310.71,378.39L314.8,379.22L318.89,378.12L327.07,377.19L331.16,377.85L335.24,379.17L339.33,381.74L343.42,382.65L347.51,382.65L351.6,384.17L355.69,383.61L367.95,384.32L372.04,384.38L429.28,384.75L433.37,384.6L494.69,384.62L498.78,384.12L547.84,383.4L551.93,383.63L568.28,383.88L572.37,384.08L588.72,384.48L592.81,384.47L654.14,384.01L658.22,384.52L662.31,384.15L666.4,384.58L682.76,383.83L686.84,384.35L695.02,384.5L699.11,384.35L719.55,384.23L723.64,384.42L752.26,384.67L756.35,384.77L768.61,384.57L772.7,384.47L805.41,384.47L809.49,384.62L854.47,384.38L858.55,384.06L870.82,384.48L874.91,384L879,383.58L883.08,381.94L899.44,384.52L903.53,384.7L907.61,384.67L911.7,383.33L919.88,383.4L923.97,384.37L928.06,384.67L932.14,384.01L936.23,384.67L940.32,383.83L948.5,384.72L952.59,384.78L1018,385" style="vector-effect: none; fill: none; stroke: rgb(145, 232, 225); stroke-opacity: 1; stroke-width: 2px; opacity: 1;"/></g><g class="points"/><g class="text"/></g></g></g></g><path class="xlines-above crisp" d="M0,0" style="fill: none;"/><path class="ylines-above crisp" d="M0,0" style="fill: none;"/><g class="overlines-above"/><g class="xaxislayer-above"><g class="xtick"><text text-anchor="middle" x="0" y="451" transform="translate(260.33000000000004,0)" style="font-family: 'Lucida Grande', 'Open Sans', verdana, arial, sans-serif; font-size: 10px; fill: rgb(0, 0, 0); fill-opacity: 1; white-space: pre; opacity: 1;">50</text></g><g class="xtick"><text text-anchor="middle" x="0" y="451" style="font-family: 'Lucida Grande', 'Open Sans', verdana, arial, sans-serif; font-size: 10px; fill: rgb(0, 0, 0); fill-opacity: 1; white-space: pre; opacity: 1;" transform="translate(464.75,0)">100</text></g><g class="xtick"><text text-anchor="middle" x="0" y="451" style="font-family: 'Lucida Grande', 'Open Sans', verdana, arial, sans-serif; font-size: 10px; fill: rgb(0, 0, 0); fill-opacity: 1; white-space: pre; opacity: 1;" transform="translate(669.16,0)">150</text></g><g class="xtick"><text text-anchor="middle" x="0" y="451" style="font-family: 'Lucida Grande', 'Open Sans', verdana, arial, sans-serif; font-size: 10px; fill: rgb(0, 0, 0); fill-opacity: 1; white-space: pre; opacity: 1;" transform="translate(873.58,0)">200</text></g><g class="xtick"><text text-anchor="middle" x="0" y="451" style="font-family: 'Lucida Grande', 'Open Sans', verdana, arial, sans-serif; font-size: 10px; fill: rgb(0, 0, 0); fill-opacity: 1; white-space: pre; opacity: 1;" transform="translate(1078,0)">250</text></g></g><g class="yaxislayer-above"><g class="ytick"><text text-anchor="end" x="54" y="3.5" transform="translate(0,435)" style="font-family: 'Lucida Grande', 'Open Sans', verdana, arial, sans-serif; font-size: 10px; fill: rgb(0, 0, 0); fill-opacity: 1; white-space: pre; opacity: 1;">0%</text></g><g class="ytick"><text text-anchor="end" x="54" y="3.5" style="font-family: 'Lucida Grande', 'Open Sans', verdana, arial, sans-serif; font-size: 10px; fill: rgb(0, 0, 0); fill-opacity: 1; white-space: pre; opacity: 1;" transform="translate(0,358)">1%</text></g><g class="ytick"><text text-anchor="end" x="54" y="3.5" style="font-family: 'Lucida Grande', 'Open Sans', verdana, arial, sans-serif; font-size: 10px; fill: rgb(0, 0, 0); fill-opacity: 1; white-space: pre; opacity: 1;" transform="translate(0,281)">2%</text></g><g class="ytick"><text text-anchor="end" x="54" y="3.5" style="font-family: 'Lucida Grande', 'Open Sans', verdana, arial, sans-serif; font-size: 10px; fill: rgb(0, 0, 0); fill-opacity: 1; white-space: pre; opacity: 1;" transform="translate(0,204)">3%</text></g><g class="ytick"><text text-anchor="end" x="54" y="3.5" style="font-family: 'Lucida Grande', 'Open Sans', verdana, arial, sans-serif; font-size: 10px; fill: rgb(0, 0, 0); fill-opacity: 1; white-space: pre; opacity: 1;" transform="translate(0,127)">4%</text></g><g class="ytick"><text text-anchor="end" x="54" y="3.5" style="font-family: 'Lucida Grande', 'Open Sans', verdana, arial, sans-serif; font-size: 10px; fill: rgb(0, 0, 0); fill-opacity: 1; white-space: pre; opacity: 1;" transform="translate(0,50)">5%</text></g></g><g class="overaxes-above"/></g></g><g class="polarlayer"/><g class="smithlayer"/><g class="ternarylayer"/><g class="geolayer"/><g class="funnelarealayer"/><g class="pielayer"/><g class="iciclelayer"/><g class="treemaplayer"/><g class="sunburstlayer"/><g class="glimages"/><defs id="topdefs-3c3266"><g class="clips"/></defs><g class="layer-above"><g class="imagelayer"/><g class="shapelayer"/></g><g class="infolayer"><g class="g-gtitle"><text class="gtitle" x="550" y="25" text-anchor="middle" dy="0em" style="opacity: 1; font-family: 'Lucida Grande', 'Open Sans', verdana, arial, sans-serif; font-size: 20px; fill: rgb(42, 63, 95); fill-opacity: 1; white-space: pre;"><tspan class="line" dy="0em" x="550" y="25">Fastp: Read N Content</tspan><tspan class="line" dy="1.3em" x="550" y="25">​<tspan style="font-size:70%" dy="-0.6em">Read 1: Before filtering, 10 samples</tspan><tspan dy="0.42em">​</tspan></tspan></text></g><g class="g-xtitle"><text class="xtitle" x="569" y="472.3" text-anchor="middle" style="opacity: 0.3; font-family: 'Lucida Grande', 'Open Sans', verdana, arial, sans-serif; font-size: 14px; fill: rgb(0, 0, 0); fill-opacity: 1; white-space: pre;">Read Position</text></g><g class="g-ytitle"><text class="ytitle" transform="rotate(-90,23.725,242.5)" x="23.725" y="242.5" text-anchor="middle" style="opacity: 0.3; font-family: 'Lucida Grande', 'Open Sans', verdana, arial, sans-serif; font-size: 14px; fill: rgb(0, 0, 0); fill-opacity: 1; white-space: pre;">R1 Before filtering: Base Content Percent</text></g></g></svg>