<svg class="main-svg" xmlns="http://www.w3.org/2000/svg" xmlns:xlink="http://www.w3.org/1999/xlink" width="2200" height="1000" style="" viewBox="0 0 1100 500"><rect x="0" y="0" width="1100" height="500" style="fill: rgb(255, 255, 255); fill-opacity: 1;"/><defs id="defs-3b9bc8"><g class="clips"><clipPath id="clip3b9bc8xyplot" class="plotclip"><rect width="1020" height="385"/></clipPath><clipPath class="axesclip" id="clip3b9bc8x"><rect x="65" y="0" width="1020" height="500"/></clipPath><clipPath class="axesclip" id="clip3b9bc8y"><rect x="0" y="50" width="1100" height="385"/></clipPath><clipPath class="axesclip" id="clip3b9bc8xy"><rect x="65" y="50" width="1020" height="385"/></clipPath></g><g class="gradients"/><g class="patterns"/></defs><g class="bglayer"/><g class="layer-below"><g class="imagelayer"/><g class="shapelayer"/></g><g class="cartesianlayer"><g class="subplot xy"><g class="layer-subplot"><g class="shapelayer"/><g class="imagelayer"/></g><g class="minor-gridlayer"><g class="x"/><g class="y"/></g><g class="gridlayer"><g class="x"><path class="xgrid crisp" transform="translate(171.57,0)" d="M0,50v385" style="stroke: rgb(0, 0, 0); stroke-opacity: 0.05; stroke-width: 1px;"/><path class="xgrid crisp" transform="translate(280.31,0)" d="M0,50v385" style="stroke: rgb(0, 0, 0); stroke-opacity: 0.05; stroke-width: 1px;"/><path class="xgrid crisp" transform="translate(389.05,0)" d="M0,50v385" style="stroke: rgb(0, 0, 0); stroke-opacity: 0.05; stroke-width: 1px;"/><path class="xgrid crisp" transform="translate(497.79,0)" d="M0,50v385" style="stroke: rgb(0, 0, 0); stroke-opacity: 0.05; stroke-width: 1px;"/><path class="xgrid crisp" transform="translate(606.54,0)" d="M0,50v385" style="stroke: rgb(0, 0, 0); stroke-opacity: 0.05; stroke-width: 1px;"/><path class="xgrid crisp" transform="translate(715.28,0)" d="M0,50v385" style="stroke: rgb(0, 0, 0); stroke-opacity: 0.05; stroke-width: 1px;"/><path class="xgrid crisp" transform="translate(824.02,0)" d="M0,50v385" style="stroke: rgb(0, 0, 0); stroke-opacity: 0.05; stroke-width: 1px;"/><path class="xgrid crisp" transform="translate(932.76,0)" d="M0,50v385" style="stroke: rgb(0, 0, 0); stroke-opacity: 0.05; stroke-width: 1px;"/><path class="xgrid crisp" transform="translate(1041.5,0)" d="M0,50v385" style="stroke: rgb(0, 0, 0); stroke-opacity: 0.05; stroke-width: 1px;"/></g><g class="y"><path class="ygrid crisp" transform="translate(0,367.56)" d="M65,0h1020" style="stroke: rgb(0, 0, 0); stroke-opacity: 0.05; stroke-width: 1px;"/><path class="ygrid crisp" transform="translate(0,300.11)" d="M65,0h1020" style="stroke: rgb(0, 0, 0); stroke-opacity: 0.05; stroke-width: 1px;"/><path class="ygrid crisp" transform="translate(0,232.67)" d="M65,0h1020" style="stroke: rgb(0, 0, 0); stroke-opacity: 0.05; stroke-width: 1px;"/><path class="ygrid crisp" transform="translate(0,165.22)" d="M65,0h1020" style="stroke: rgb(0, 0, 0); stroke-opacity: 0.05; stroke-width: 1px;"/><path class="ygrid crisp" transform="translate(0,97.78)" d="M65,0h1020" style="stroke: rgb(0, 0, 0); stroke-opacity: 0.05; stroke-width: 1px;"/></g></g><g class="zerolinelayer"><path class="yzl zl crisp" transform="translate(0,435)" d="M65,0h1020" style="stroke: rgb(0, 0, 0); stroke-opacity: 0.05; stroke-width: 2px;"/></g><g class="layer-between"><g class="shapelayer"/><g class="imagelayer"/></g><path class="xlines-below"/><path class="ylines-below"/><g class="overlines-below"/><g class="xaxislayer-below"/><g class="yaxislayer-below"/><g class="overaxes-below"/><g class="overplot"><g class="xy" transform="translate(65,50)" clip-path="url(#clip3b9bc8xyplot)"><g class="scatterlayer mlayer"><g class="trace scatter trace5024b7" style="stroke-miterlimit: 2; opacity: 1;"><g class="fills"/><g class="errorbars"/><g class="lines"><path class="js-line" d="M0,385L641.58,384.75L643.75,384.02L654.63,384.67L658.98,384.79L661.15,383.59L665.5,384.89L667.68,384.53L672.03,384.8L695.95,384.79L700.3,383.77L702.47,384.82L706.82,382.2L709,384.79L713.35,384.37L715.52,384.45L719.87,383.74L724.22,379.16L726.4,384.33L730.75,383.23L732.92,384.36L809.04,384.47L811.22,381.28L815.57,384.43L817.74,382.4L822.09,384.05L826.44,384.32L828.61,383.38L832.96,384.1L835.14,382.47L839.49,383.21L841.66,380.06L846.01,383.01L850.36,319.28L852.54,382.7L856.89,271.37L859.06,381.79L863.41,251.27L865.59,381.76L869.94,246.3L874.29,377.33L876.46,269.82L880.81,379.65L882.99,296.62L887.33,378.27L889.51,282.51L893.86,379.99L898.21,383.41L900.38,380.97L904.73,383.65L906.91,381.38L911.26,383.75L913.43,382.93L917.78,384.37L922.13,373.88L924.31,384.53L928.66,362.43L930.83,384.51L935.18,378.01L937.36,384.75L941.71,381L943.88,384.79L948.23,377.59L952.58,384.87L954.75,384.35L959.1,384.84L961.28,383.93L967.8,384.7L972.15,384.9L1020,384.95" style="vector-effect: none; fill: none; stroke: rgb(124, 181, 236); stroke-opacity: 1; stroke-width: 2px; opacity: 1;"/></g><g class="points"/><g class="text"/></g><g class="trace scatter tracef72457" style="stroke-miterlimit: 2; opacity: 1;"><g class="fills"/><g class="errorbars"/><g class="lines"><path class="js-line" d="M0,385L658.98,384.78L661.15,383.4L667.68,384.62L672.03,384.73L695.95,384.85L700.3,383.96L702.47,384.8L706.82,382.9L709,384.67L713.35,384.4L719.87,383.54L724.22,379.37L726.4,384.43L730.75,384.32L743.8,384.77L748.14,384.26L750.32,384.72L754.67,384.61L767.72,384.74L769.89,384.66L793.82,384.66L798.17,384.59L809.04,384.48L811.22,381.3L815.57,384.56L817.74,382.06L822.09,383.73L826.44,384.32L828.61,383.49L832.96,383.88L835.14,382.21L839.49,383.05L841.66,378.91L846.01,382.67L850.36,315.85L852.54,382.49L856.89,264.92L859.06,382.19L863.41,264.43L865.59,381.82L869.94,251.11L874.29,377.9L876.46,274.79L880.81,379.15L882.99,287.7L887.33,378.96L889.51,286.56L893.86,380.3L898.21,383.52L900.38,382.14L904.73,383.5L906.91,381.02L911.26,383.84L913.43,383.12L917.78,384.5L922.13,371.31L924.31,384.53L928.66,361.15L930.83,384.56L935.18,378.19L937.36,384.75L941.71,381.16L943.88,384.83L948.23,377.43L952.58,384.89L954.75,384.19L959.1,384.79L961.28,383.28L965.63,384.89L967.8,384.72L985.2,384.95L989.55,384.97L1020,384.95" style="vector-effect: none; fill: none; stroke: rgb(67, 67, 72); stroke-opacity: 1; stroke-width: 2px; opacity: 1;"/></g><g class="points"/><g class="text"/></g><g class="trace scatter trace458836" style="stroke-miterlimit: 2; opacity: 1;"><g class="fills"/><g class="errorbars"/><g class="lines"><path class="js-line" d="M0,385L306.65,384.96L311,384.22L313.18,384.98L317.53,385L635.05,384.77L637.23,384.23L641.58,384.72L643.75,384.14L658.98,384.82L661.15,383.24L665.5,384.83L667.68,384.3L678.55,384.66L682.9,384.79L695.95,384.8L700.3,384.03L702.47,384.87L706.82,382.27L709,384.55L713.35,384.29L715.52,384.11L719.87,382.89L724.22,379.05L726.4,384.4L730.75,383.67L732.92,384.26L743.8,384.82L748.14,383.85L750.32,384.78L754.67,384.77L763.37,384.76L767.72,384.73L780.77,384.66L785.12,384.54L804.69,384.62L809.04,384.45L811.22,380.66L815.57,384.54L817.74,380.74L822.09,383.67L826.44,384.36L828.61,383.65L832.96,384.03L835.14,382.4L839.49,383.58L841.66,379.71L846.01,383.13L850.36,314.84L852.54,382.32L856.89,260.86L859.06,381.95L863.41,254.07L865.59,381.91L869.94,245.47L874.29,378.03L876.46,280.05L880.81,377.76L882.99,275.83L887.33,378.75L889.51,288.92L893.86,380.58L898.21,383.65L900.38,381.49L904.73,383.65L906.91,380.91L911.26,383.87L913.43,383.21L917.78,384.41L922.13,373.58L924.31,384.45L928.66,364.18L930.83,384.68L935.18,379.75L937.36,384.73L941.71,381.99L943.88,384.81L948.23,378.42L952.58,384.88L954.75,384.07L959.1,384.91L961.28,383.65L965.63,384.93L967.8,384.59L972.15,384.94L1020,384.98" style="vector-effect: none; fill: none; stroke: rgb(144, 237, 125); stroke-opacity: 1; stroke-width: 2px; opacity: 1;"/></g><g class="points"/><g class="text"/></g><g class="trace scatter tracede5675" style="stroke-miterlimit: 2; opacity: 1;"><g class="fills"/><g class="errorbars"/><g class="lines"><path class="js-line" d="M0,385L65.25,385L67.42,384.14L76.12,384.89L78.29,384.89L95.69,385L97.87,383.92L102.22,384.78L106.57,384.78L115.27,385L119.62,385L167.46,384.78L169.64,384.24L187.04,385L191.39,384.78L197.91,384.89L202.26,384.89L217.48,384.24L221.83,384.89L250.11,384.89L252.28,384.78L263.16,385L265.33,384.35L269.68,380.36L271.86,384.24L282.73,384.78L287.08,384.24L289.25,384.68L293.6,383.81L295.78,382.2L300.13,384.68L306.65,384.89L311,384.35L313.18,385L317.53,384.89L328.4,385L330.58,384.57L347.97,385L352.32,384.78L382.77,385L384.95,384.24L389.3,385L391.47,383.06L395.82,384.46L400.17,383.06L402.35,368.07L406.7,384.24L408.87,383.92L413.22,385L415.39,384.68L419.74,384.89L450.19,384.89L454.54,384.03L456.72,384.78L461.07,385L474.12,383.27L478.46,384.89L480.64,384.89L484.99,383.49L487.16,380.9L491.51,384.68L493.69,383.81L498.04,381.12L502.39,382.52L504.56,384.57L508.91,370.65L511.09,384.35L517.61,384.68L521.96,384.68L541.54,385L545.88,380.58L550.23,384.68L552.41,385L569.81,384.57L574.16,382.63L576.33,383.6L580.68,384.68L582.86,385L587.21,382.63L589.38,383.27L593.73,378.42L595.91,384.03L600.26,383.6L604.61,307.34L606.78,384.35L613.3,384.57L617.65,383.92L619.83,385L624.18,383.6L628.53,384.35L630.7,383.38L643.75,384.78L648.1,384.57L654.63,384.78L658.98,380.58L661.15,384.46L665.5,382.09L667.68,384.89L672.03,383.38L676.38,384.78L678.55,382.63L682.9,382.3L685.07,384.78L689.42,381.66L691.6,367.2L695.95,384.46L700.3,381.87L702.47,381.76L706.82,382.95L709,378.96L713.35,376.69L715.52,377.77L719.87,383.71L726.4,384.89L730.75,380.47L732.92,374.65L737.27,369.25L739.45,381.76L743.8,384.57L748.14,384.24L750.32,380.15L754.67,377.34L756.84,383.27L761.19,383.06L763.37,379.82L767.72,377.34L769.89,383.81L774.24,372.49L778.59,383.17L780.77,382.95L785.12,381.12L787.29,375.18L791.64,383.49L793.82,381.66L798.17,375.62L802.52,382.52L804.69,380.47L809.04,380.69L811.22,373.03L815.57,379.39L817.74,381.01L822.09,383.49L826.44,384.68L832.96,381.76L835.14,379.71L839.49,378.31L841.66,382.95L846.01,368.5L850.36,363.64L852.54,383.92L856.89,363.75L859.06,362.13L863.41,332.9L865.59,325.79L869.94,361.16L874.29,384.35L876.46,368.82L880.81,374.32L882.99,383.92L887.33,372.16L889.51,329.02L893.86,382.41L898.21,379.18L900.38,369.58L904.73,382.52L906.91,378.53L911.26,384.78L913.43,383.81L917.78,384.78L924.31,384.89L928.66,380.15L930.83,384.68L935.18,384.89L937.36,383.81L941.71,383.92L948.23,382.95L952.58,384.78L959.1,384.78L961.28,382.73L965.63,384.68L967.8,383.71L972.15,384.68L976.5,378.53L978.68,384.68L983.03,384.89L991.73,385L996.08,384.57L1006.95,385L1009.13,383.92L1015.65,384.89L1020,384.68" style="vector-effect: none; fill: none; stroke: rgb(247, 163, 92); stroke-opacity: 1; stroke-width: 2px; opacity: 1;"/></g><g class="points"/><g class="text"/></g><g class="trace scatter trace280666" style="stroke-miterlimit: 2; opacity: 1;"><g class="fills"/><g class="errorbars"/><g class="lines"><path class="js-line" d="M0,385L743.8,384.43L748.14,384.07L756.84,384.21L761.19,384.14L774.24,384.2L778.59,384.21L791.64,384.23L793.82,384.22L802.52,384.24L804.69,382.65L809.04,383.33L811.22,371.67L815.57,383.05L817.74,356.31L822.09,383.21L826.44,383.71L828.61,383.07L832.96,383.57L835.14,381.93L839.49,383.03L841.66,380.45L846.01,382.78L850.36,293.21L852.54,382.54L856.89,295.2L859.06,381.97L863.41,250.73L865.59,381.62L869.94,227.45L874.29,378.57L876.46,267.74L880.81,378.95L882.99,271.76L887.33,380.07L889.51,298.03L893.86,380.29L898.21,383.59L900.38,382.34L904.73,384.09L906.91,383.52L911.26,384.27L913.43,383.66L917.78,384.4L922.13,370.36L924.31,384.62L928.66,378.42L930.83,384.76L935.18,382.54L937.36,384.83L941.71,382.63L943.88,384.82L948.23,383.97L952.58,384.82L954.75,384.33L961.28,384.72L965.63,384.91L985.2,384.96L989.55,384.93L1020,384.98" style="vector-effect: none; fill: none; stroke: rgb(128, 133, 233); stroke-opacity: 1; stroke-width: 2px; opacity: 1;"/></g><g class="points"/><g class="text"/></g><g class="trace scatter trace9955dc" style="stroke-miterlimit: 2; opacity: 1;"><g class="fills"/><g class="errorbars"/><g class="lines"><path class="js-line" d="M0,385L761.19,384.27L763.37,384.18L802.52,384.23L804.69,382.8L809.04,382.97L811.22,365.62L815.57,383L817.74,353.88L822.09,383.32L826.44,383.82L828.61,382.98L832.96,383.54L835.14,381.47L839.49,383.21L841.66,380.55L846.01,382.79L850.36,282.39L852.54,382.61L856.89,293.09L859.06,382.05L863.41,242.74L865.59,381.79L869.94,232.43L874.29,378.89L876.46,271.2L880.81,379.6L882.99,280.72L887.33,381.02L889.51,309.36L893.86,380.62L898.21,383.68L900.38,382.65L904.73,384.22L906.91,383.6L911.26,384.38L913.43,383.63L917.78,384.39L922.13,371.7L924.31,384.67L928.66,379.6L930.83,384.71L935.18,382.72L937.36,384.74L941.71,382.88L943.88,384.78L948.23,383.97L954.75,384.6L959.1,384.9L978.68,384.92L983.03,384.94L1020,384.95" style="vector-effect: none; fill: none; stroke: rgb(241, 92, 128); stroke-opacity: 1; stroke-width: 2px; opacity: 1;"/></g><g class="points"/><g class="text"/></g><g class="trace scatter trace37b3fc" style="stroke-miterlimit: 2; opacity: 1;"><g class="fills"/><g class="errorbars"/><g class="lines"><path class="js-line" d="M0,385L709,384.79L713.35,384.15L715.52,384.5L719.87,384.09L730.75,384.5L732.92,384.42L756.84,384.3L761.19,384.14L767.72,384.14L769.89,384.19L802.52,384.22L804.69,383.35L809.04,383.11L811.22,369.55L815.57,382.6L817.74,347.32L822.09,383.37L826.44,383.81L828.61,382.94L832.96,383.53L835.14,381.69L839.49,383.15L841.66,380.37L846.01,382.61L850.36,288.66L852.54,382.51L856.89,289.67L859.06,381.9L863.41,246.06L865.59,381.9L869.94,232.32L874.29,378.73L876.46,270.92L880.81,379.27L882.99,276.67L887.33,380.54L889.51,305.47L893.86,380.51L898.21,383.66L900.38,382.61L904.73,384.15L906.91,383.58L911.26,384.31L913.43,383.73L917.78,384.47L922.13,371.55L924.31,384.59L928.66,379.4L930.83,384.71L935.18,382.75L937.36,384.83L941.71,382.68L943.88,384.84L948.23,384.15L952.58,384.84L954.75,384.37L961.28,384.75L965.63,384.85L1020,384.97" style="vector-effect: none; fill: none; stroke: rgb(228, 211, 84); stroke-opacity: 1; stroke-width: 2px; opacity: 1;"/></g><g class="points"/><g class="text"/></g><g class="trace scatter trace088978" style="stroke-miterlimit: 2; opacity: 1;"><g class="fills"/><g class="errorbars"/><g class="lines"><path class="js-line" d="M0,385L293.6,384.77L295.78,383.91L304.48,384.96L306.65,384.84L311,384.37L313.18,384.96L337.1,385L341.45,384.96L365.37,384.69L367.55,384.84L395.82,384.8L400.17,383.83L402.35,377.22L406.7,384.69L413.22,384.8L415.39,384.8L439.32,384.84L443.67,384.8L450.19,384.96L454.54,384.8L461.07,384.88L463.24,384.96L484.99,384.61L487.16,382.69L493.69,385L498.04,384.77L502.39,382.93L504.56,384.65L508.91,382.19L511.09,384.8L528.49,384.92L532.84,384.84L541.54,385L545.88,382.26L550.23,385L552.41,384.84L569.81,384.8L574.16,383.75L576.33,384.92L580.68,384.84L587.21,384.65L589.38,384.34L600.26,384.84L604.61,361.7L606.78,384.92L611.13,384.92L635.05,384.73L637.23,384.18L643.75,384.88L648.1,384.84L661.15,384.65L665.5,383.32L667.68,384.69L672.03,384.41L678.55,384.61L682.9,383.91L685.07,382.65L689.42,382.85L691.6,380.78L695.95,384.53L706.82,383.55L709,380.9L713.35,380.7L715.52,383.12L724.22,383.08L726.4,384.53L737.27,383.48L739.45,381.68L743.8,384.18L748.14,383.87L750.32,383.51L754.67,381.21L756.84,384.22L761.19,383.98L767.72,383.08L769.89,384.06L774.24,380.74L778.59,383.08L780.77,382.69L785.12,383.63L793.82,384.18L798.17,382.38L802.52,383.75L804.69,377.14L809.04,382.38L811.22,383.59L817.74,382.81L822.09,383.24L826.44,384.41L828.61,383.83L832.96,381.05L835.14,383.01L839.49,383.44L841.66,381.33L846.01,379.49L850.36,371.63L852.54,379.06L856.89,342.74L859.06,379.14L863.41,270.22L865.59,363.81L869.94,308.65L874.29,383.44L876.46,347.94L880.81,381.4L882.99,356.19L887.33,381.76L889.51,340.71L893.86,383.24L898.21,383.36L900.38,380.07L904.73,383.51L906.91,377.06L911.26,384.3L917.78,383.83L922.13,378L924.31,382.65L928.66,183.4L930.83,382.89L935.18,381.87L937.36,384.57L941.71,384.49L959.1,384.77L961.28,384.14L965.63,384.77L967.8,384.06L972.15,384.02L976.5,381.33L978.68,384.73L983.03,384.06L991.73,384.96L996.08,384.88L1020,384.8" style="vector-effect: none; fill: none; stroke: rgb(43, 144, 143); stroke-opacity: 1; stroke-width: 2px; opacity: 1;"/></g><g class="points"/><g class="text"/></g><g class="trace scatter trace9d402d" style="stroke-miterlimit: 2; opacity: 1;"><g class="fills"/><g class="errorbars"/><g class="lines"><path class="js-line" d="M0,385L400.17,384.86L402.35,384.06L408.87,384.98L413.22,384.98L443.67,384.98L445.84,385L600.26,385L604.61,380.39L606.78,385L611.13,385L700.3,384.64L702.47,384.95L713.35,384.44L715.52,383.87L724.22,384.32L726.4,384.69L743.8,384.52L748.14,384.2L750.32,384.47L754.67,384.15L756.84,384.69L761.19,384.64L780.77,384.57L785.12,384.66L787.29,379.91L791.64,384.71L798.17,383.5L802.52,384.59L804.69,382.83L809.04,384.4L811.22,381.57L815.57,383.02L817.74,383.67L822.09,384.01L826.44,381.84L828.61,384.61L835.14,383.87L839.49,384.32L846.01,384.08L850.36,379.13L852.54,384.69L856.89,350.5L859.06,379.42L863.41,232.38L865.59,382.63L869.94,326.42L874.29,381.06L876.46,292.84L880.81,381.43L882.99,282.75L887.33,382.13L889.51,277.14L893.86,383.12L898.21,379.81L900.38,379.42L904.73,383.91L906.91,379.88L911.26,384.32L917.78,384.76L922.13,382.75L924.31,382.01L928.66,19.25L930.83,376.38L935.18,376.96L937.36,384.86L941.71,384.71L943.88,384.88L948.23,384.03L954.75,384.71L959.1,383.43L961.28,382.13L965.63,384.86L972.15,384.9L976.5,383.79L978.68,384.78L983.03,384.93L991.73,384.86L996.08,384.95L1020,384.93" style="vector-effect: none; fill: none; stroke: rgb(244, 91, 91); stroke-opacity: 1; stroke-width: 2px; opacity: 1;"/></g><g class="points"/><g class="text"/></g><g class="trace scatter tracea1a86d" style="stroke-miterlimit: 2; opacity: 1;"><g class="fills"/><g class="errorbars"/><g class="lines"><path class="js-line" d="M0,385L400.17,384.85L402.35,384.18L408.87,384.94L413.22,385L493.69,384.95L498.04,384.97L511.09,384.98L515.44,384.98L600.26,384.95L604.61,380.67L606.78,384.97L611.13,385L641.58,385L643.75,385L661.15,384.83L665.5,384.98L689.42,384.37L691.6,382.95L695.95,384.8L700.3,384.6L706.82,384.83L709,384.82L715.52,384.52L719.87,384.52L726.4,384.72L730.75,384.69L756.84,384.41L761.19,384.58L763.37,383.98L767.72,384.54L769.89,384.49L774.24,382.32L778.59,384.25L780.77,383.85L785.12,382.78L787.29,383.75L793.82,384.55L798.17,384.4L802.52,384.52L804.69,382.89L809.04,384.58L811.22,383.52L828.61,384.57L832.96,383.11L835.14,384.11L839.49,384.2L846.01,379.97L850.36,381.07L852.54,384.68L856.89,366.91L859.06,372.3L863.41,169.67L865.59,371.02L869.94,275.16L874.29,382.58L876.46,324.94L880.81,384.05L882.99,365.91L887.33,375.95L889.51,246.94L893.86,383.78L898.21,383.29L900.38,382.28L904.73,381.95L906.91,379.04L911.26,383.04L913.43,384.48L917.78,384.66L922.13,382.46L924.31,382.69L928.66,87.6L930.83,379.9L935.18,375.22L937.36,384.75L983.03,384.88L985.2,384.97L1020,384.89" style="vector-effect: none; fill: none; stroke: rgb(145, 232, 225); stroke-opacity: 1; stroke-width: 2px; opacity: 1;"/></g><g class="points"/><g class="text"/></g></g></g></g><path class="xlines-above crisp" d="M0,0" style="fill: none;"/><path class="ylines-above crisp" d="M0,0" style="fill: none;"/><g class="overlines-above"/><g class="xaxislayer-above"><g class="xtick"><text text-anchor="middle" x="0" y="451" transform="translate(171.57,0)" style="font-family: 'Lucida Grande', 'Open Sans', verdana, arial, sans-serif; font-size: 10px; fill: rgb(0, 0, 0); fill-opacity: 1; white-space: pre; opacity: 1;">50</text></g><g class="xtick"><text text-anchor="middle" x="0" y="451" style="font-family: 'Lucida Grande', 'Open Sans', verdana, arial, sans-serif; font-size: 10px; fill: rgb(0, 0, 0); fill-opacity: 1; white-space: pre; opacity: 1;" transform="translate(280.31,0)">100</text></g><g class="xtick"><text text-anchor="middle" x="0" y="451" style="font-family: 'Lucida Grande', 'Open Sans', verdana, arial, sans-serif; font-size: 10px; fill: rgb(0, 0, 0); fill-opacity: 1; white-space: pre; opacity: 1;" transform="translate(389.05,0)">150</text></g><g class="xtick"><text text-anchor="middle" x="0" y="451" style="font-family: 'Lucida Grande', 'Open Sans', verdana, arial, sans-serif; font-size: 10px; fill: rgb(0, 0, 0); fill-opacity: 1; white-space: pre; opacity: 1;" transform="translate(497.79,0)">200</text></g><g class="xtick"><text text-anchor="middle" x="0" y="451" style="font-family: 'Lucida Grande', 'Open Sans', verdana, arial, sans-serif; font-size: 10px; fill: rgb(0, 0, 0); fill-opacity: 1; white-space: pre; opacity: 1;" transform="translate(606.54,0)">250</text></g><g class="xtick"><text text-anchor="middle" x="0" y="451" style="font-family: 'Lucida Grande', 'Open Sans', verdana, arial, sans-serif; font-size: 10px; fill: rgb(0, 0, 0); fill-opacity: 1; white-space: pre; opacity: 1;" transform="translate(715.28,0)">300</text></g><g class="xtick"><text text-anchor="middle" x="0" y="451" style="font-family: 'Lucida Grande', 'Open Sans', verdana, arial, sans-serif; font-size: 10px; fill: rgb(0, 0, 0); fill-opacity: 1; white-space: pre; opacity: 1;" transform="translate(824.02,0)">350</text></g><g class="xtick"><text text-anchor="middle" x="0" y="451" style="font-family: 'Lucida Grande', 'Open Sans', verdana, arial, sans-serif; font-size: 10px; fill: rgb(0, 0, 0); fill-opacity: 1; white-space: pre; opacity: 1;" transform="translate(932.76,0)">400</text></g><g class="xtick"><text text-anchor="middle" x="0" y="451" style="font-family: 'Lucida Grande', 'Open Sans', verdana, arial, sans-serif; font-size: 10px; fill: rgb(0, 0, 0); fill-opacity: 1; white-space: pre; opacity: 1;" transform="translate(1041.5,0)">450</text></g></g><g class="yaxislayer-above"><g class="ytick"><text text-anchor="end" x="59" y="3.5" transform="translate(0,435)" style="font-family: 'Lucida Grande', 'Open Sans', verdana, arial, sans-serif; font-size: 10px; fill: rgb(0, 0, 0); fill-opacity: 1; white-space: pre; opacity: 1;">0%</text></g><g class="ytick"><text text-anchor="end" x="59" y="3.5" style="font-family: 'Lucida Grande', 'Open Sans', verdana, arial, sans-serif; font-size: 10px; fill: rgb(0, 0, 0); fill-opacity: 1; white-space: pre; opacity: 1;" transform="translate(0,367.56)">5%</text></g><g class="ytick"><text text-anchor="end" x="59" y="3.5" style="font-family: 'Lucida Grande', 'Open Sans', verdana, arial, sans-serif; font-size: 10px; fill: rgb(0, 0, 0); fill-opacity: 1; white-space: pre; opacity: 1;" transform="translate(0,300.11)">10%</text></g><g class="ytick"><text text-anchor="end" x="59" y="3.5" style="font-family: 'Lucida Grande', 'Open Sans', verdana, arial, sans-serif; font-size: 10px; fill: rgb(0, 0, 0); fill-opacity: 1; white-space: pre; opacity: 1;" transform="translate(0,232.67)">15%</text></g><g class="ytick"><text text-anchor="end" x="59" y="3.5" style="font-family: 'Lucida Grande', 'Open Sans', verdana, arial, sans-serif; font-size: 10px; fill: rgb(0, 0, 0); fill-opacity: 1; white-space: pre; opacity: 1;" transform="translate(0,165.22)">20%</text></g><g class="ytick"><text text-anchor="end" x="59" y="3.5" style="font-family: 'Lucida Grande', 'Open Sans', verdana, arial, sans-serif; font-size: 10px; fill: rgb(0, 0, 0); fill-opacity: 1; white-space: pre; opacity: 1;" transform="translate(0,97.78)">25%</text></g></g><g class="overaxes-above"/></g></g><g class="polarlayer"/><g class="smithlayer"/><g class="ternarylayer"/><g class="geolayer"/><g class="funnelarealayer"/><g class="pielayer"/><g class="iciclelayer"/><g class="treemaplayer"/><g class="sunburstlayer"/><g class="glimages"/><defs id="topdefs-3b9bc8"><g class="clips"/></defs><g class="layer-above"><g class="imagelayer"/><g class="shapelayer"/></g><g class="infolayer"><g class="g-gtitle"><text class="gtitle" x="550" y="25" text-anchor="middle" dy="0em" style="opacity: 1; font-family: 'Lucida Grande', 'Open Sans', verdana, arial, sans-serif; font-size: 20px; fill: rgb(42, 63, 95); fill-opacity: 1; white-space: pre;"><tspan class="line" dy="0em" x="550" y="25">Fastp: Insert Size Distribution</tspan><tspan class="line" dy="1.3em" x="550" y="25">​<tspan style="font-size:70%" dy="-0.6em">10 samples</tspan><tspan dy="0.42em">​</tspan></tspan></text></g><g class="g-xtitle"><text class="xtitle" x="575" y="472.3" text-anchor="middle" style="opacity: 0.3; font-family: 'Lucida Grande', 'Open Sans', verdana, arial, sans-serif; font-size: 14px; fill: rgb(0, 0, 0); fill-opacity: 1; white-space: pre;">Insert size</text></g><g class="g-ytitle"><text class="ytitle" transform="rotate(-90,22.365625,242.5)" x="22.365625" y="242.5" text-anchor="middle" style="opacity: 0.3; font-family: 'Lucida Grande', 'Open Sans', verdana, arial, sans-serif; font-size: 14px; fill: rgb(0, 0, 0); fill-opacity: 1; white-space: pre;">Read percent</text></g></g></svg>