<svg class="main-svg" xmlns="http://www.w3.org/2000/svg" xmlns:xlink="http://www.w3.org/1999/xlink" width="2200" height="1000" style="" viewBox="0 0 1100 500"><rect x="0" y="0" width="1100" height="500" style="fill: rgb(255, 255, 255); fill-opacity: 1;"/><defs id="defs-ecd0b9"><g class="clips"><clipPath id="clipecd0b9xyplot" class="plotclip"><rect width="1018" height="385"/></clipPath><clipPath class="axesclip" id="clipecd0b9x"><rect x="60" y="0" width="1018" height="500"/></clipPath><clipPath class="axesclip" id="clipecd0b9y"><rect x="0" y="50" width="1100" height="385"/></clipPath><clipPath class="axesclip" id="clipecd0b9xy"><rect x="60" y="50" width="1018" height="385"/></clipPath></g><g class="gradients"/><g class="patterns"/></defs><g class="bglayer"/><g class="layer-below"><g class="imagelayer"/><g class="shapelayer"/></g><g class="cartesianlayer"><g class="subplot xy"><g class="layer-subplot"><g class="shapelayer"/><g class="imagelayer"/></g><g class="minor-gridlayer"><g class="x"/><g class="y"/></g><g class="gridlayer"><g class="x"><path class="xgrid crisp" transform="translate(260.33000000000004,0)" d="M0,50v385" style="stroke: rgb(0, 0, 0); stroke-opacity: 0.05; stroke-width: 1px;"/><path class="xgrid crisp" transform="translate(464.75,0)" d="M0,50v385" style="stroke: rgb(0, 0, 0); stroke-opacity: 0.05; stroke-width: 1px;"/><path class="xgrid crisp" transform="translate(669.16,0)" d="M0,50v385" style="stroke: rgb(0, 0, 0); stroke-opacity: 0.05; stroke-width: 1px;"/><path class="xgrid crisp" transform="translate(873.58,0)" d="M0,50v385" style="stroke: rgb(0, 0, 0); stroke-opacity: 0.05; stroke-width: 1px;"/></g><g class="y"><path class="ygrid crisp" transform="translate(0,385.05)" d="M60,0h1018" style="stroke: rgb(0, 0, 0); stroke-opacity: 0.05; stroke-width: 1px;"/><path class="ygrid crisp" transform="translate(0,335.11)" d="M60,0h1018" style="stroke: rgb(0, 0, 0); stroke-opacity: 0.05; stroke-width: 1px;"/><path class="ygrid crisp" transform="translate(0,285.15999999999997)" d="M60,0h1018" style="stroke: rgb(0, 0, 0); stroke-opacity: 0.05; stroke-width: 1px;"/><path class="ygrid crisp" transform="translate(0,235.21)" d="M60,0h1018" style="stroke: rgb(0, 0, 0); stroke-opacity: 0.05; stroke-width: 1px;"/><path class="ygrid crisp" transform="translate(0,185.26)" d="M60,0h1018" style="stroke: rgb(0, 0, 0); stroke-opacity: 0.05; stroke-width: 1px;"/><path class="ygrid crisp" transform="translate(0,135.32)" d="M60,0h1018" style="stroke: rgb(0, 0, 0); stroke-opacity: 0.05; stroke-width: 1px;"/><path class="ygrid crisp" transform="translate(0,85.37)" d="M60,0h1018" style="stroke: rgb(0, 0, 0); stroke-opacity: 0.05; stroke-width: 1px;"/></g></g><g class="zerolinelayer"><path class="yzl zl crisp" transform="translate(0,435)" d="M60,0h1018" style="stroke: rgb(0, 0, 0); stroke-opacity: 0.05; stroke-width: 2px;"/></g><g class="layer-between"><g class="shapelayer"/><g class="imagelayer"/></g><path class="xlines-below"/><path class="ylines-below"/><g class="overlines-below"/><g class="xaxislayer-below"/><g class="yaxislayer-below"/><g class="overaxes-below"/><g class="overplot"><g class="xy" transform="translate(60,50)" clip-path="url(#clipecd0b9xyplot)"><g class="scatterlayer mlayer"><g class="trace scatter trace441105" style="stroke-miterlimit: 2; opacity: 1;"><g class="fills"/><g class="errorbars"/><g class="lines"><path class="js-line" d="M0,376.58L4.09,385L8.18,385L1018,384.98" style="vector-effect: none; fill: none; stroke: rgb(124, 181, 236); stroke-opacity: 1; stroke-width: 2px; opacity: 1;"/></g><g class="points"/><g class="text"/></g><g class="trace scatter trace7c3806" style="stroke-miterlimit: 2; opacity: 1;"><g class="fills"/><g class="errorbars"/><g class="lines"><path class="js-line" d="M0,376.6L4.09,385L8.18,385L1018,384.94" style="vector-effect: none; fill: none; stroke: rgb(67, 67, 72); stroke-opacity: 1; stroke-width: 2px; opacity: 1;"/></g><g class="points"/><g class="text"/></g><g class="trace scatter trace6f6e10" style="stroke-miterlimit: 2; opacity: 1;"><g class="fills"/><g class="errorbars"/><g class="lines"><path class="js-line" d="M0,376.74L4.09,385L8.18,385L1018,384.97" style="vector-effect: none; fill: none; stroke: rgb(144, 237, 125); stroke-opacity: 1; stroke-width: 2px; opacity: 1;"/></g><g class="points"/><g class="text"/></g><g class="trace scatter traceccc85e" style="stroke-miterlimit: 2; opacity: 1;"><g class="fills"/><g class="errorbars"/><g class="lines"><path class="js-line" d="M0,384.84L20.44,384.92L24.53,384.76L49.06,385L53.15,381.75L61.33,381.44L65.41,382.39L77.68,382.07L81.77,385L547.84,384.44L551.93,383.15L560.1,383.79L564.19,383.15L572.37,383.55L576.46,383.55L580.55,383.23L584.63,384.27L592.81,383.87L596.9,18.33L600.99,383.95L605.08,384.03L613.25,382.58L617.34,382.42L633.69,384.27L637.78,383.79L645.96,383.46L650.05,383.38L666.4,382.09L670.49,383.06L699.11,383.22L703.2,383.78L711.37,383.54L715.46,384.35L719.55,383.45L723.64,383.94L752.26,382.79L756.35,383.51L760.43,382.76L764.52,383.03L772.7,383.29L776.79,383.02L784.96,383.47L789.05,382.93L805.41,383.02L809.49,383.02L879,383.1L883.08,381.66L887.17,382.65L891.26,381.84L907.61,382.65L911.7,383.55L928.06,384L932.14,383.09L936.23,383.63L940.32,382.99L948.5,383.26L952.59,382.62L956.67,382.23L960.76,382.78L964.85,382.69L968.94,379.92L977.12,382.41L981.2,381.86L989.38,381.3L993.47,382.22L997.56,382.96L1001.65,382.87L1018,383.42" style="vector-effect: none; fill: none; stroke: rgb(247, 163, 92); stroke-opacity: 1; stroke-width: 2px; opacity: 1;"/></g><g class="points"/><g class="text"/></g><g class="trace scatter trace70bd9b" style="stroke-miterlimit: 2; opacity: 1;"><g class="fills"/><g class="errorbars"/><g class="lines"><path class="js-line" d="M0,384.33L4.09,384.95L8.18,384.61L12.27,384.29L16.35,384.86L20.44,384.22L24.53,384.73L192.15,384.06L196.24,384.31L212.59,384.79L216.68,384.63L233.04,384.54L237.12,384.65L249.39,384.46L253.48,384.71L294.36,384.4L298.45,384.52L359.78,384.33L363.86,384.42L392.48,384.62L396.57,384.51L417.01,384.14L421.1,384.3L511.04,384.51L515.13,384.57L605.08,384.09L609.16,384.21L760.43,384.2L764.52,384.2L964.85,383.45L968.94,383.24L1018,383.61" style="vector-effect: none; fill: none; stroke: rgb(128, 133, 233); stroke-opacity: 1; stroke-width: 2px; opacity: 1;"/></g><g class="points"/><g class="text"/></g><g class="trace scatter trace6835d8" style="stroke-miterlimit: 2; opacity: 1;"><g class="fills"/><g class="errorbars"/><g class="lines"><path class="js-line" d="M0,384.36L4.09,384.94L8.18,384.64L12.27,384.32L16.35,384.82L20.44,384.27L24.53,384.77L196.24,384.29L200.33,384.5L265.74,384.57L269.83,384.42L306.63,384.32L310.71,384.33L400.66,384.3L404.75,384.25L445.63,384.26L449.72,384.32L519.22,384.48L523.31,384.45L580.55,384.22L584.63,384.23L960.76,383.83L964.85,383.51L985.29,383.71L989.38,383.78L1018,383.66" style="vector-effect: none; fill: none; stroke: rgb(241, 92, 128); stroke-opacity: 1; stroke-width: 2px; opacity: 1;"/></g><g class="points"/><g class="text"/></g><g class="trace scatter trace0762d9" style="stroke-miterlimit: 2; opacity: 1;"><g class="fills"/><g class="errorbars"/><g class="lines"><path class="js-line" d="M0,384.32L4.09,384.96L8.18,384.62L12.27,384.33L16.35,384.84L20.44,384.23L24.53,384.72L183.98,384.09L188.06,384.15L208.51,384.63L212.59,384.76L233.04,384.55L237.12,384.6L257.57,384.54L261.65,384.52L282.1,384.35L286.18,384.3L834.02,384.25L838.11,383.77L862.64,384.27L866.73,384.24L883.08,384.06L887.17,384.18L936.23,383.61L940.32,383.91L964.85,383.54L968.94,383.38L1001.65,383.82L1005.73,383.54L1018,383.71" style="vector-effect: none; fill: none; stroke: rgb(228, 211, 84); stroke-opacity: 1; stroke-width: 2px; opacity: 1;"/></g><g class="points"/><g class="text"/></g><g class="trace scatter tracedf75b9" style="stroke-miterlimit: 2; opacity: 1;"><g class="fills"/><g class="errorbars"/><g class="lines"><path class="js-line" d="M0,384.94L49.06,385L53.15,382.66L61.33,382.42L65.41,383.23L77.68,383.11L81.77,385L547.84,384.49L551.93,384.04L592.81,384.32L596.9,38.73L600.99,384.37L605.08,384.43L613.25,382.5L617.34,383.01L621.43,383.14L625.52,384.24L637.78,384.36L641.87,384.13L658.22,383.86L662.31,383.31L666.4,383.16L670.49,383.9L735.9,384.3L739.99,383.82L879,383.77L883.08,382.12L887.17,382.8L891.26,382.37L899.44,383.03L903.53,382.9L915.79,384.12L919.88,384.14L932.14,383.77L936.23,384.03L944.41,383.77L948.5,384.02L956.67,382.95L960.76,383.71L964.85,383.05L968.94,381.5L977.12,382.67L981.2,382.48L993.47,382.63L997.56,383.36L1001.65,383.08L1005.73,383.61L1013.91,383.22L1018,383.83" style="vector-effect: none; fill: none; stroke: rgb(43, 144, 143); stroke-opacity: 1; stroke-width: 2px; opacity: 1;"/></g><g class="points"/><g class="text"/></g><g class="trace scatter tracef3100d" style="stroke-miterlimit: 2; opacity: 1;"><g class="fills"/><g class="errorbars"/><g class="lines"><path class="js-line" d="M0,384.83L44.97,384.96L49.06,385L53.15,381.87L57.24,381.78L61.33,381.59L65.41,382.67L77.68,382.48L81.77,385L159.45,384.98L163.53,384.98L183.98,384.85L188.06,384.92L245.3,384.87L249.39,384.91L547.84,384.47L551.93,384.11L576.46,384.36L580.55,384.08L588.72,384.49L592.81,384.49L596.9,33.82L600.99,384.47L605.08,384.45L609.16,382.66L613.25,382.04L617.34,382.43L621.43,382.51L625.52,384.21L654.14,384L658.22,383.94L666.4,382.79L670.49,383.81L739.99,383.89L744.08,383.85L784.96,384.28L789.05,383.75L817.67,384.16L821.76,383.58L829.94,383.96L834.02,383.69L850.38,383.96L854.47,383.8L879,383.56L883.08,381.7L887.17,382.76L891.26,381.92L895.35,382.82L899.44,382.76L907.61,383.35L911.7,384.09L952.59,383.27L956.67,382.74L960.76,383.52L964.85,382.8L968.94,381.03L973.03,381.77L977.12,382.43L981.2,382.09L993.47,382.11L997.56,383.1L1001.65,382.89L1005.73,383.46L1013.91,383.06L1018,383.54" style="vector-effect: none; fill: none; stroke: rgb(244, 91, 91); stroke-opacity: 1; stroke-width: 2px; opacity: 1;"/></g><g class="points"/><g class="text"/></g><g class="trace scatter traced634c4" style="stroke-miterlimit: 2; opacity: 1;"><g class="fills"/><g class="errorbars"/><g class="lines"><path class="js-line" d="M0,384.84L49.06,384.97L53.15,382.37L61.33,382.1L65.41,382.97L77.68,382.82L81.77,384.98L433.37,384.61L437.45,384.83L457.9,384.49L461.98,384.74L547.84,384.43L551.93,384.08L592.81,384.29L596.9,45.13L600.99,384.32L605.08,384.26L609.16,382.72L613.25,382.06L621.43,382.54L625.52,384.06L645.96,384.02L650.05,384.02L666.4,382.83L670.49,383.58L699.11,383.89L703.2,384.29L719.55,383.93L723.64,384.26L748.17,383.71L752.26,383.59L756.35,384.08L760.43,383.51L817.67,383.81L821.76,383.35L838.11,383.52L842.2,383.57L866.73,383.44L870.82,383.38L879,383.33L883.08,381.79L887.17,382.62L891.26,382.11L899.44,382.84L903.53,382.67L915.79,383.96L919.88,383.94L932.14,383.37L936.23,383.9L944.41,383.43L948.5,383.79L956.67,382.71L960.76,383.44L964.85,382.72L968.94,381.1L977.12,382.56L981.2,382.25L993.47,382.21L997.56,383.12L1001.65,382.86L1005.73,383.38L1018,383.58" style="vector-effect: none; fill: none; stroke: rgb(145, 232, 225); stroke-opacity: 1; stroke-width: 2px; opacity: 1;"/></g><g class="points"/><g class="text"/></g></g></g></g><path class="xlines-above crisp" d="M0,0" style="fill: none;"/><path class="ylines-above crisp" d="M0,0" style="fill: none;"/><g class="overlines-above"/><g class="xaxislayer-above"><g class="xtick"><text text-anchor="middle" x="0" y="451" transform="translate(260.33000000000004,0)" style="font-family: 'Lucida Grande', 'Open Sans', verdana, arial, sans-serif; font-size: 10px; fill: rgb(0, 0, 0); fill-opacity: 1; white-space: pre; opacity: 1;">50</text></g><g class="xtick"><text text-anchor="middle" x="0" y="451" style="font-family: 'Lucida Grande', 'Open Sans', verdana, arial, sans-serif; font-size: 10px; fill: rgb(0, 0, 0); fill-opacity: 1; white-space: pre; opacity: 1;" transform="translate(464.75,0)">100</text></g><g class="xtick"><text text-anchor="middle" x="0" y="451" style="font-family: 'Lucida Grande', 'Open Sans', verdana, arial, sans-serif; font-size: 10px; fill: rgb(0, 0, 0); fill-opacity: 1; white-space: pre; opacity: 1;" transform="translate(669.16,0)">150</text></g><g class="xtick"><text text-anchor="middle" x="0" y="451" style="font-family: 'Lucida Grande', 'Open Sans', verdana, arial, sans-serif; font-size: 10px; fill: rgb(0, 0, 0); fill-opacity: 1; white-space: pre; opacity: 1;" transform="translate(873.58,0)">200</text></g><g class="xtick"><text text-anchor="middle" x="0" y="451" style="font-family: 'Lucida Grande', 'Open Sans', verdana, arial, sans-serif; font-size: 10px; fill: rgb(0, 0, 0); fill-opacity: 1; white-space: pre; opacity: 1;" transform="translate(1078,0)">250</text></g></g><g class="yaxislayer-above"><g class="ytick"><text text-anchor="end" x="54" y="3.5" transform="translate(0,435)" style="font-family: 'Lucida Grande', 'Open Sans', verdana, arial, sans-serif; font-size: 10px; fill: rgb(0, 0, 0); fill-opacity: 1; white-space: pre; opacity: 1;">0%</text></g><g class="ytick"><text text-anchor="end" x="54" y="3.5" style="font-family: 'Lucida Grande', 'Open Sans', verdana, arial, sans-serif; font-size: 10px; fill: rgb(0, 0, 0); fill-opacity: 1; white-space: pre; opacity: 1;" transform="translate(0,385.05)">1%</text></g><g class="ytick"><text text-anchor="end" x="54" y="3.5" style="font-family: 'Lucida Grande', 'Open Sans', verdana, arial, sans-serif; font-size: 10px; fill: rgb(0, 0, 0); fill-opacity: 1; white-space: pre; opacity: 1;" transform="translate(0,335.11)">2%</text></g><g class="ytick"><text text-anchor="end" x="54" y="3.5" style="font-family: 'Lucida Grande', 'Open Sans', verdana, arial, sans-serif; font-size: 10px; fill: rgb(0, 0, 0); fill-opacity: 1; white-space: pre; opacity: 1;" transform="translate(0,285.15999999999997)">3%</text></g><g class="ytick"><text text-anchor="end" x="54" y="3.5" style="font-family: 'Lucida Grande', 'Open Sans', verdana, arial, sans-serif; font-size: 10px; fill: rgb(0, 0, 0); fill-opacity: 1; white-space: pre; opacity: 1;" transform="translate(0,235.21)">4%</text></g><g class="ytick"><text text-anchor="end" x="54" y="3.5" style="font-family: 'Lucida Grande', 'Open Sans', verdana, arial, sans-serif; font-size: 10px; fill: rgb(0, 0, 0); fill-opacity: 1; white-space: pre; opacity: 1;" transform="translate(0,185.26)">5%</text></g><g class="ytick"><text text-anchor="end" x="54" y="3.5" style="font-family: 'Lucida Grande', 'Open Sans', verdana, arial, sans-serif; font-size: 10px; fill: rgb(0, 0, 0); fill-opacity: 1; white-space: pre; opacity: 1;" transform="translate(0,135.32)">6%</text></g><g class="ytick"><text text-anchor="end" x="54" y="3.5" style="font-family: 'Lucida Grande', 'Open Sans', verdana, arial, sans-serif; font-size: 10px; fill: rgb(0, 0, 0); fill-opacity: 1; white-space: pre; opacity: 1;" transform="translate(0,85.37)">7%</text></g></g><g class="overaxes-above"/></g></g><g class="polarlayer"/><g class="smithlayer"/><g class="ternarylayer"/><g class="geolayer"/><g class="funnelarealayer"/><g class="pielayer"/><g class="iciclelayer"/><g class="treemaplayer"/><g class="sunburstlayer"/><g class="glimages"/><defs id="topdefs-ecd0b9"><g class="clips"/></defs><g class="layer-above"><g class="imagelayer"/><g class="shapelayer"/></g><g class="infolayer"><g class="g-gtitle"><text class="gtitle" x="550" y="25" text-anchor="middle" dy="0em" style="opacity: 1; font-family: 'Lucida Grande', 'Open Sans', verdana, arial, sans-serif; font-size: 20px; fill: rgb(42, 63, 95); fill-opacity: 1; white-space: pre;"><tspan class="line" dy="0em" x="550" y="25">Fastp: Read N Content</tspan><tspan class="line" dy="1.3em" x="550" y="25">​<tspan style="font-size:70%" dy="-0.6em">Read 2: After filtering, 10 samples</tspan><tspan dy="0.42em">​</tspan></tspan></text></g><g class="g-xtitle"><text class="xtitle" x="569" y="472.3" text-anchor="middle" style="opacity: 0.3; font-family: 'Lucida Grande', 'Open Sans', verdana, arial, sans-serif; font-size: 14px; fill: rgb(0, 0, 0); fill-opacity: 1; white-space: pre;">Read Position</text></g><g class="g-ytitle"><text class="ytitle" transform="rotate(-90,23.725,242.5)" x="23.725" y="242.5" text-anchor="middle" style="opacity: 0.3; font-family: 'Lucida Grande', 'Open Sans', verdana, arial, sans-serif; font-size: 14px; fill: rgb(0, 0, 0); fill-opacity: 1; white-space: pre;">R2 After filtering: Base Content Percent</text></g></g></svg>