<svg class="main-svg" xmlns="http://www.w3.org/2000/svg" xmlns:xlink="http://www.w3.org/1999/xlink" width="2200" height="1000" style="" viewBox="0 0 1100 500"><rect x="0" y="0" width="1100" height="500" style="fill: rgb(255, 255, 255); fill-opacity: 1;"/><defs id="defs-f84e3e"><g class="clips"><clipPath id="clipf84e3exyplot" class="plotclip"><rect width="1007" height="385"/></clipPath><clipPath class="axesclip" id="clipf84e3ex"><rect x="71" y="0" width="1007" height="500"/></clipPath><clipPath class="axesclip" id="clipf84e3ey"><rect x="0" y="50" width="1100" height="385"/></clipPath><clipPath class="axesclip" id="clipf84e3exy"><rect x="71" y="50" width="1007" height="385"/></clipPath></g><g class="gradients"/><g class="patterns"/></defs><g class="bglayer"/><g class="layer-below"><g class="imagelayer"/><g class="shapelayer"/></g><g class="cartesianlayer"><g class="subplot xy"><g class="layer-subplot"><g class="shapelayer"/><g class="imagelayer"/></g><g class="minor-gridlayer"><g class="x"/><g class="y"/></g><g class="gridlayer"><g class="x"><path class="xgrid crisp" transform="translate(269.15999999999997,0)" d="M0,50v385" style="stroke: rgb(0, 0, 0); stroke-opacity: 0.05; stroke-width: 1px;"/><path class="xgrid crisp" transform="translate(471.37,0)" d="M0,50v385" style="stroke: rgb(0, 0, 0); stroke-opacity: 0.05; stroke-width: 1px;"/><path class="xgrid crisp" transform="translate(673.58,0)" d="M0,50v385" style="stroke: rgb(0, 0, 0); stroke-opacity: 0.05; stroke-width: 1px;"/><path class="xgrid crisp" transform="translate(875.79,0)" d="M0,50v385" style="stroke: rgb(0, 0, 0); stroke-opacity: 0.05; stroke-width: 1px;"/></g><g class="y"><path class="ygrid crisp" transform="translate(0,358)" d="M71,0h1007" style="stroke: rgb(0, 0, 0); stroke-opacity: 0.05; stroke-width: 1px;"/><path class="ygrid crisp" transform="translate(0,281)" d="M71,0h1007" style="stroke: rgb(0, 0, 0); stroke-opacity: 0.05; stroke-width: 1px;"/><path class="ygrid crisp" transform="translate(0,204)" d="M71,0h1007" style="stroke: rgb(0, 0, 0); stroke-opacity: 0.05; stroke-width: 1px;"/><path class="ygrid crisp" transform="translate(0,127)" d="M71,0h1007" style="stroke: rgb(0, 0, 0); stroke-opacity: 0.05; stroke-width: 1px;"/></g></g><g class="zerolinelayer"><path class="yzl zl crisp" transform="translate(0,435)" d="M71,0h1007" style="stroke: rgb(0, 0, 0); stroke-opacity: 0.05; stroke-width: 2px;"/></g><g class="layer-between"><g class="shapelayer"/><g class="imagelayer"/></g><path class="xlines-below"/><path class="ylines-below"/><g class="overlines-below"/><g class="xaxislayer-below"/><g class="yaxislayer-below"/><g class="overaxes-below"/><g class="overplot"><g class="xy" transform="translate(71,50)" clip-path="url(#clipf84e3exyplot)"><g class="scatterlayer mlayer"><g class="trace scatter trace84cbff" style="stroke-miterlimit: 2; opacity: 1;"><g class="fills"/><g class="errorbars"/><g class="lines"><path class="js-line" d="M0,15.47L4.04,366.75L8.09,48.05L12.13,40.02L16.18,379.21L20.22,47.95L24.27,26.7L28.31,355.62L32.35,23.23L36.4,32.38L40.44,377.72L44.49,10.53L48.53,42.94L52.57,363.89L56.62,25.02L60.66,8.54L64.71,376.71L68.75,14.47L72.8,375.2L76.84,9.06L80.88,360.53L84.93,6.65L88.97,7.01L93.02,101.33L97.06,25.26L101.1,14.82L105.15,369.66L109.19,32.37L113.24,182.48L117.28,48.58L121.33,94.75L125.37,370.07L129.41,22.27L137.5,355.04L141.55,86.9L145.59,257.65L149.63,360.23L153.68,45.02L157.72,11.26L161.77,7.96L165.81,282.71L169.86,81.29L173.9,7.08L177.94,68.27L181.99,105.6L186.03,116.98L190.08,16.68L194.12,372.05L198.16,7.96L202.21,137.14L206.25,16.32L210.3,373.87L214.34,20.04L218.39,370.58L222.43,162.45L226.47,160.33L230.52,51.71L234.56,375.21L238.61,39.91L242.65,371.26L246.69,8.36L250.74,14.9L254.78,374.62L258.83,9.27L262.87,179.43L266.92,242.33L270.96,188.32L275,169.71L279.05,61.03L283.09,89.33L287.14,162.67L291.18,372.33L295.22,13.48L299.27,357.49L303.31,10.67L307.36,13.92L311.4,323.81L315.45,300.1L319.49,310.82L323.53,20.53L327.58,351.79L331.62,50.44L335.67,76.7L339.71,310.67L343.76,370.72L347.8,102.56L351.84,331.07L355.89,74.5L359.93,172.29L363.98,263.74L368.02,154.95L372.06,137.52L376.11,318.2L380.15,306.33L384.2,225.69L388.24,195.66L392.29,132.91L396.33,204.51L400.37,311.66L404.42,340.77L408.46,58.25L412.51,173.72L416.55,202.67L420.59,87.45L424.64,337.43L428.68,45.86L432.73,8.38L436.77,76.36L440.82,317.06L444.86,17.75L448.9,59.81L452.95,17.84L456.99,116.11L461.04,53.7L465.08,360.9L469.12,43.32L473.17,54.79L477.21,60.78L481.26,172.6L485.3,16.14L489.35,56.54L493.39,263.81L497.43,13.01L501.48,16.72L505.52,138.46L509.57,195.17L513.61,309.94L517.65,215.92L521.7,13.76L525.74,18.54L529.79,91.32L533.83,59.66L537.88,354.78L541.92,135.46L545.96,11.87L550.01,319.18L554.05,36.8L558.1,309.54L562.14,67.43L566.18,16.24L570.23,182.41L574.27,361.44L578.32,65.79L582.36,129.24L586.41,19.21L590.45,225.54L594.49,211.68L598.54,198.96L602.58,178.19L606.63,297.47L610.67,309.24L614.71,161.8L618.76,306.14L622.8,221.36L626.85,180.05L630.89,189.26L634.94,146.48L638.98,265.13L643.02,213.27L647.07,262.09L651.11,262.88L655.16,181.51L659.2,130.35L663.24,237.3L667.29,170.98L671.33,114.65L675.38,295.18L679.42,197.47L683.47,220.66L687.51,177.98L691.55,259.23L695.6,179.45L699.64,253.72L703.69,299.39L707.73,241.31L711.78,125.29L715.82,324.04L719.86,314.47L723.91,176.8L727.95,118.29L732,110.74L736.04,195.66L740.08,105.01L744.13,232.72L748.17,43.41L752.22,254.97L756.26,155.65L760.31,110.55L764.35,234.93L768.39,299.94L772.44,96.46L776.48,154.67L780.53,283.84L784.57,91.91L788.61,61.37L792.66,96.65L796.7,59.7L800.75,182.99L804.79,95.87L808.84,192.32L812.88,200.31L816.92,258.43L820.97,58.2L825.01,287.5L829.06,114.78L833.1,62.88L837.14,330.86L841.19,279.16L845.23,77.47L849.28,324.99L853.32,99.37L857.37,98.19L861.41,246.2L865.45,82.56L869.5,128.59L873.54,99.73L877.59,299.77L881.63,62.1L885.67,281.53L893.76,134.46L897.81,277.67L901.85,78.96L905.9,59.55L909.94,293.8L913.98,225.73L918.03,63.3L922.07,294.19L930.16,108.02L934.2,317.06L938.25,124.41L942.29,163.92L946.34,86.51L950.38,189.51L954.43,70.04L958.47,265.79L962.51,317.82L966.56,149.8L970.6,163.22L974.65,320.7L978.69,53.31L982.73,59.18L986.78,317.58L990.82,178.33L994.87,233.27L998.91,267.35L1002.96,71.94L1007,269.93" style="vector-effect: none; fill: none; stroke: rgb(124, 181, 236); stroke-opacity: 1; stroke-width: 2px; opacity: 1;"/></g><g class="points"/><g class="text"/></g><g class="trace scatter traceb778d7" style="stroke-miterlimit: 2; opacity: 1;"><g class="fills"/><g class="errorbars"/><g class="lines"><path class="js-line" d="M0,15.28L4.04,347.24L8.09,47.57L12.13,39.84L16.18,378.35L20.22,47.89L24.27,22.92L28.31,359.34L32.35,22.8L36.4,28.14L40.44,378.62L44.49,9.82L48.53,38.93L52.57,365.44L56.62,24.34L60.66,7.62L64.71,377.12L68.75,13.56L72.8,376.18L76.84,7.96L80.88,360.53L84.93,5.69L88.97,5.88L93.02,100.78L97.06,25.21L101.1,12.21L105.15,369.33L109.19,28.69L113.24,178.56L117.28,51.03L121.33,98.88L125.37,372.3L129.41,20.58L133.46,171.5L137.5,358.38L141.55,87.61L145.59,255.98L149.63,362.23L153.68,40.45L157.72,10.27L161.77,7.29L165.81,280.86L169.86,78.48L173.9,6L177.94,62.31L181.99,106.07L186.03,119.03L190.08,16.12L194.12,372.62L198.16,7.25L202.21,133.97L206.25,14.69L210.3,374.19L214.34,19.1L218.39,369.36L222.43,161.19L226.47,165.83L230.52,54.81L234.56,375.71L238.61,35.85L242.65,372.02L246.69,7.41L250.74,13.4L254.78,375.16L258.83,8.78L262.87,188.94L266.92,234.99L270.96,186.61L275,179.14L279.05,59.59L283.09,88.94L287.14,158.22L291.18,372.44L295.22,12.01L299.27,357.5L303.31,9.99L307.36,13.64L311.4,328.33L315.45,300.67L319.49,310.45L323.53,19.52L327.58,351.2L331.62,42.79L335.67,76.13L339.71,316.88L343.76,371.39L347.8,109.58L351.84,326.42L355.89,72.69L359.93,180.58L363.98,261.27L368.02,154.23L372.06,137.73L376.11,323.14L380.15,301.57L384.2,228.67L388.24,197.95L392.29,126.59L396.33,192.47L400.37,313.42L404.42,336.97L408.46,53.29L412.51,173.33L416.55,203.89L420.59,79.87L424.64,342.67L428.68,40L432.73,7.94L436.77,75.51L440.82,316.95L444.86,15.62L448.9,56.91L452.95,19.3L456.99,107.89L461.04,48.52L465.08,358.54L469.12,45.05L473.17,60.11L477.21,65.63L481.26,176.04L485.3,17.24L489.35,51.65L493.39,258.55L497.43,11.59L501.48,15.84L505.52,128.28L509.57,206.78L513.61,308.7L517.65,211.02L521.7,13.27L525.74,20.06L529.79,92.01L533.83,54.39L537.88,354.55L541.92,125.44L545.96,11.8L550.01,323.14L554.05,37.01L558.1,310.12L562.14,64.87L566.18,15.9L574.27,358.39L578.32,69.84L582.36,130.75L586.41,21.08L590.45,218.87L594.49,212.31L598.54,198.27L602.58,175.55L606.63,302.4L610.67,311.07L614.71,167.45L618.76,307.62L622.8,218.02L626.85,190.13L630.89,197.09L634.94,146.12L638.98,261.11L643.02,204.32L647.07,248.54L651.11,268.19L655.16,175.94L659.2,133.2L663.24,234.25L667.29,183.11L671.33,116.29L675.38,293.7L679.42,199.52L683.47,215.45L687.51,179.49L691.55,259.29L695.6,185.7L699.64,243.08L703.69,293.46L707.73,239.11L711.78,132.18L715.82,326.66L719.86,313.53L723.91,180.16L727.95,122.87L732,108.98L736.04,189.22L740.08,104.1L744.13,231.74L748.17,48.98L752.22,251.96L756.26,149.56L760.31,111.3L764.35,224.01L768.39,299.72L772.44,86.84L776.48,161.28L780.53,277.93L784.57,94.16L788.61,59.36L792.66,91.76L796.7,62.87L800.75,169.61L804.79,101.83L808.84,191.73L812.88,204.46L816.92,255.12L820.97,62.13L825.01,282.7L829.06,114.52L833.1,63.27L837.14,322.34L841.19,277.51L845.23,80.87L849.28,316.58L853.32,101.39L857.37,106.98L861.41,240.28L865.45,88.83L869.5,133.92L873.54,98.14L877.59,287.03L881.63,66.79L885.67,276.32L889.72,216.03L893.76,137.67L897.81,266.51L901.85,85.44L905.9,65.77L909.94,286.09L913.98,231.07L918.03,72.75L922.07,282.82L926.12,197.6L930.16,111.12L934.2,306.47L938.25,127.55L942.29,158.4L946.34,90.34L950.38,185.95L954.43,73.81L958.47,262.54L962.51,306.38L966.56,157.61L970.6,161.81L974.65,310.33L978.69,60.06L982.73,68.15L986.78,306.52L990.82,177L994.87,231.75L998.91,261.44L1002.96,74.77L1007,260.79" style="vector-effect: none; fill: none; stroke: rgb(67, 67, 72); stroke-opacity: 1; stroke-width: 2px; opacity: 1;"/></g><g class="points"/><g class="text"/></g><g class="trace scatter trace133b7b" style="stroke-miterlimit: 2; opacity: 1;"><g class="fills"/><g class="errorbars"/><g class="lines"><path class="js-line" d="M0,11.24L4.04,360.92L8.09,45.21L12.13,38.14L16.18,380.94L20.22,46.2L24.27,23.62L28.31,357.7L32.35,21.35L36.4,29.3L40.44,379.65L44.49,8.5L48.53,39.98L52.57,365.73L56.62,23.15L60.66,6.38L64.71,378.23L68.75,12.28L72.8,377.04L76.84,6.68L80.88,362.84L84.93,4.29L88.97,4.6L93.02,96.62L97.06,22.64L101.1,10.45L105.15,371.29L109.19,28.73L113.24,178.29L117.28,45.64L121.33,92.5L125.37,372.01L129.41,18.58L133.46,173.09L137.5,357.09L141.55,77.22L145.59,255.31L149.63,360.58L153.68,41.44L157.72,8.67L161.77,5.71L165.81,286.13L169.86,77.5L173.9,4.46L177.94,65.26L181.99,105.08L186.03,112.42L190.08,14.76L194.12,373.98L198.16,5.64L202.21,135.33L206.25,15.59L210.3,375.25L214.34,16.34L218.39,371.5L222.43,163.62L226.47,164.49L230.52,47.03L234.56,376.87L238.61,32.03L242.65,372.58L246.69,5.89L250.74,11.84L254.78,376.62L258.83,7L262.87,183.86L266.92,238.22L270.96,187.26L275,173.77L279.05,60.82L283.09,87.65L287.14,156L291.18,373.9L295.22,11.07L299.27,356.55L303.31,8.82L307.36,10.9L311.4,322.73L315.45,303.67L319.49,316.09L323.53,17.82L327.58,354.19L331.62,43.25L335.67,77.17L339.71,315.36L343.76,372.54L347.8,101.31L351.84,327.04L355.89,67.08L359.93,174.31L363.98,255.47L368.02,154.59L372.06,136.03L376.11,319.65L380.15,303.81L384.2,232.57L388.24,194.16L392.29,131.04L396.33,205.09L400.37,311.28L404.42,341.48L408.46,57.7L412.51,170.64L416.55,206.23L420.59,82.89L424.64,340.43L428.68,42.86L432.73,6.53L436.77,77.14L440.82,316.5L444.86,12.87L448.9,59.06L452.95,16.48L456.99,114.91L461.04,51.29L465.08,360.9L469.12,40.36L473.17,52.69L477.21,56.88L481.26,178.63L485.3,15.82L489.35,54.72L493.39,265.15L497.43,10.88L501.48,15.74L505.52,134.93L509.57,195.91L513.61,307.12L517.65,212.92L521.7,11.93L525.74,16.91L529.79,89.19L533.83,58.02L537.88,354.59L541.92,133.94L545.96,9.98L550.01,318.94L554.05,35.41L558.1,309.08L562.14,67.65L566.18,17.29L574.27,360.88L578.32,66.63L582.36,129.51L586.41,18.83L590.45,224.99L594.49,206.42L598.54,197.23L602.58,175.79L606.63,297.08L610.67,308.34L614.71,167.89L618.76,307.44L622.8,215.77L626.85,180.44L630.89,194.49L634.94,149.41L638.98,268.99L643.02,211.19L647.07,258.33L651.11,263.15L655.16,181.08L659.2,124.74L663.24,239.49L667.29,175.05L671.33,115.33L675.38,298.69L679.42,196.41L683.47,217.29L687.51,172.43L691.55,260.72L695.6,182.72L699.64,254.75L703.69,295.41L707.73,244.39L711.78,126.54L715.82,325.91L719.86,316.62L723.91,180.87L727.95,117.8L732,109.41L736.04,201.3L740.08,100.61L744.13,240.07L748.17,50.3L752.22,258.12L756.26,153.48L760.31,113.98L764.35,227.59L768.39,299.07L772.44,96.94L776.48,158.84L780.53,285.21L784.57,84.4L788.61,60.26L792.66,91.46L796.7,56.86L800.75,179.7L804.79,90.76L808.84,192.16L812.88,203.24L816.92,258.59L820.97,59.5L825.01,283.81L829.06,111.45L833.1,60.51L837.14,322.09L841.19,278.97L845.23,74.54L849.28,321.74L853.32,99.63L857.37,94.7L861.41,252.3L865.45,82.53L869.5,131.61L873.54,94.28L877.59,293.7L881.63,63.96L885.67,278.07L893.76,136.76L897.81,272.33L901.85,78.29L905.9,62.17L909.94,289.8L913.98,228.59L918.03,71.46L922.07,287.86L930.16,109.5L934.2,311.06L938.25,124.54L942.29,164.75L946.34,83.16L950.38,188.53L954.43,68.63L958.47,265.21L962.51,310.9L966.56,154.81L970.6,164.51L974.65,314L978.69,56.6L982.73,61.92L986.78,309.81L990.82,184.94L998.91,267.68L1002.96,75.87L1007,263.6" style="vector-effect: none; fill: none; stroke: rgb(144, 237, 125); stroke-opacity: 1; stroke-width: 2px; opacity: 1;"/></g><g class="points"/><g class="text"/></g><g class="trace scatter trace8e4e57" style="stroke-miterlimit: 2; opacity: 1;"><g class="fills"/><g class="errorbars"/><g class="lines"><path class="js-line" d="M0,17.09L4.04,364.83L8.09,41.46L12.13,36.81L16.18,377.53L20.22,49.75L24.27,33.15L28.31,350.66L32.35,18.8L36.4,36.42L40.44,374.46L44.49,18.22L48.53,54.95L52.57,356.61L56.62,21.22L60.66,12.22L64.71,369.91L68.75,18.23L72.8,322.84L76.84,51.01L80.88,301.34L84.93,18.65L88.97,33.31L93.02,112.09L97.06,98.95L101.1,99.44L105.15,172.87L109.19,155.27L113.24,159.33L117.28,163.5L121.33,119.13L125.37,198.23L129.41,121.67L133.46,178.66L137.5,220.42L141.55,104.64L145.59,153.73L149.63,244.04L153.68,94.43L157.72,95.84L161.77,149.39L165.81,184.63L169.86,186.14L173.9,161.69L177.94,109.73L181.99,133.04L186.03,139.08L190.08,105.31L194.12,174.15L198.16,141.32L202.21,139.91L206.25,140.62L210.3,188.69L214.34,83.86L218.39,204.67L222.43,141.19L226.47,125.45L234.56,199.56L238.61,116.66L242.65,179.8L246.69,186.53L250.74,92.77L254.78,205.37L262.87,114.8L266.92,152.99L270.96,166.27L275,120.63L279.05,109.72L283.09,145.37L287.14,158.25L291.18,207.87L295.22,147.77L299.27,191.44L303.31,181.78L307.36,110.26L311.4,195.51L315.45,230.59L319.49,238.18L323.53,127.51L327.58,176.34L331.62,97.65L335.67,187.88L339.71,215.49L343.76,244.32L347.8,128.03L351.84,213.47L355.89,159.7L359.93,126.09L363.98,235.85L368.02,168.36L372.06,221.24L376.11,185.22L380.15,165.62L384.2,155.16L388.24,95.74L392.29,230.05L396.33,106.52L400.37,148.73L404.42,260.21L408.46,164.36L412.51,135.12L416.55,138.21L420.59,130.34L424.64,192.3L428.68,113.26L432.73,91.48L436.77,166.74L440.82,175.09L444.86,122.17L452.95,153.01L456.99,132.88L461.04,188.14L465.08,200.18L469.12,92.03L473.17,94.42L477.21,156.56L481.26,152.25L485.3,152.24L489.35,174.98L493.39,155.28L497.43,150.85L501.48,187.38L505.52,157.23L509.57,138.12L513.61,165.45L517.65,165.55L521.7,124.17L525.74,117.4L529.79,133.89L533.83,146.23L537.88,257.03L545.96,125.04L550.01,240.93L554.05,81.75L558.1,173.23L562.14,169.93L566.18,104.86L570.23,150.41L574.27,249.1L578.32,100.11L582.36,141.69L586.41,143.5L590.45,152.72L594.49,153.97L598.54,162.24L602.58,104.98L606.63,185.66L610.67,220.96L614.71,191.39L618.76,190.06L622.8,194.5L626.85,100.46L630.89,181.6L634.94,159.32L638.98,235.38L643.02,162.79L647.07,236.57L651.11,174.89L655.16,162.93L659.2,97.58L663.24,180.1L667.29,156.57L671.33,158.28L675.38,193.93L679.42,147.79L683.47,187.01L687.51,149.09L695.6,212.48L699.64,227.43L703.69,224.51L707.73,182.22L711.78,171.85L715.82,211.39L719.86,191.27L723.91,125.39L727.95,172.6L732,147.26L736.04,206.44L740.08,164.18L744.13,197.68L748.17,166.28L752.22,145.22L756.26,146.68L760.31,168.3L764.35,219.81L768.39,152.29L772.44,117.17L776.48,132.75L780.53,182.23L784.57,139.59L788.61,127L792.66,136.32L796.7,112.86L800.75,144.48L804.79,131.24L808.84,204.86L812.88,148.78L816.92,171.17L820.97,77.73L825.01,162.54L829.06,167.83L833.1,139.42L837.14,211.55L841.19,182.96L845.23,101.93L849.28,223.09L853.32,135.89L857.37,133.22L861.41,169L865.45,156.9L869.5,96.8L873.54,140.55L877.59,203.9L881.63,102.51L885.67,146.49L889.72,209.75L893.76,101.42L897.81,156.85L901.85,145.59L905.9,116.89L909.94,205.8L913.98,187.48L918.03,183.98L922.07,185.28L926.12,185.58L930.16,145.36L934.2,189.15L938.25,145.28L942.29,180.86L946.34,106.29L950.38,159.77L954.43,88.85L958.47,227.46L962.51,216.49L966.56,159.18L970.6,138.49L974.65,228.15L978.69,116.78L982.73,98.23L986.78,208.28L990.82,166.08L994.87,132.9L998.91,200.51L1002.96,112.26L1007,177.58" style="vector-effect: none; fill: none; stroke: rgb(247, 163, 92); stroke-opacity: 1; stroke-width: 2px; opacity: 1;"/></g><g class="points"/><g class="text"/></g><g class="trace scatter traceac0d80" style="stroke-miterlimit: 2; opacity: 1;"><g class="fills"/><g class="errorbars"/><g class="lines"><path class="js-line" d="M0,22.71L4.04,370.73L8.09,45.57L12.13,47.91L16.18,378.41L20.22,38.72L24.27,51.46L28.31,334.43L32.35,19.3L36.4,55.1L40.44,377.62L44.49,12.8L48.53,62.27L52.57,355.69L56.62,20.73L60.66,9.26L64.71,375.46L68.75,19.04L72.8,374.99L76.84,10.33L80.88,332.51L84.93,8.12L88.97,9.18L93.02,86.06L97.06,33.38L101.1,10.8L105.15,371.18L109.19,36.89L113.24,186.31L117.28,68.88L121.33,76.52L125.37,373.39L129.41,18.15L137.5,359.47L141.55,54.27L145.59,298.55L149.63,358.51L153.68,56.44L157.72,10.62L161.77,9.53L165.81,296.08L169.86,108L173.9,9.75L177.94,88.59L181.99,129.38L186.03,123.47L190.08,13.89L194.12,371.26L198.16,8.81L202.21,110.07L206.25,14.34L210.3,374.11L214.34,20.33L218.39,372.3L222.43,165.31L226.47,140.04L230.52,33.56L234.56,374.57L238.61,46.37L242.65,372.41L246.69,10.68L250.74,17.57L254.78,374.94L258.83,9.43L262.87,132.04L266.92,264.66L270.96,184.92L275,154.41L279.05,74.77L283.09,119.28L287.14,154.87L291.18,370.67L295.22,15.6L299.27,359.87L303.31,11.87L307.36,13.84L311.4,316.8L315.45,250.5L319.49,271.72L323.53,19.86L327.58,361.76L331.62,44.34L335.67,87.63L339.71,302.55L343.76,371.48L347.8,67.93L351.84,347.42L355.89,70.02L359.93,161.43L363.98,297.54L368.02,136.31L372.06,182.67L376.11,295.15L380.15,273.64L384.2,283.06L388.24,138.7L392.29,106.43L400.37,322.71L404.42,353.05L408.46,42.69L412.51,215.65L416.55,198.95L420.59,109.08L424.64,318.52L428.68,61.25L432.73,15.66L436.77,89.49L440.82,289.35L444.86,27.24L448.9,91.76L452.95,17.57L456.99,146.78L461.04,85.61L465.08,363.16L469.12,29.59L473.17,32.33L477.21,41.14L481.26,162.42L485.3,29.05L489.35,91.32L493.39,254.88L497.43,19.84L501.48,25.35L505.52,169.83L509.57,134.08L513.61,278.91L517.65,246L521.7,23.2L525.74,18.54L529.79,78.07L533.83,92.75L537.88,353.72L541.92,158.28L545.96,14.47L550.01,289.3L554.05,29.79L558.1,281.58L562.14,97.94L566.18,16.28L574.27,362.13L578.32,54.12L582.36,142.1L586.41,20.89L590.45,234.71L594.49,165.8L598.54,186.1L602.58,183.4L606.63,268.5L610.67,284.74L614.71,162.81L618.76,295.5L622.8,252.96L626.85,139.22L630.89,196.79L634.94,159.64L638.98,283.58L643.02,232.89L647.07,281.82L651.11,241.91L655.16,241.51L659.2,153.92L663.24,246.85L667.29,147.55L671.33,103.58L675.38,286.82L679.42,212.94L683.47,197.03L687.51,190.5L691.55,236.64L695.6,158.71L699.64,277.84L703.69,312.76L707.73,253.2L711.78,112.63L715.82,330.89L719.86,319.27L723.91,145.43L732,116.15L736.04,215.63L740.08,118.67L744.13,266.2L748.17,38.82L752.22,263.35L756.26,152.62L760.31,125.56L764.35,256.83L768.39,286.41L772.44,99.41L776.48,136.93L780.53,306.68L784.57,69.61L792.66,112.85L796.7,67.86L800.75,223.13L804.79,67.33L808.84,242.14L812.88,179.22L816.92,261.72L820.97,78.86L825.01,267.37L829.06,132.77L833.1,73.37L837.14,338.22L841.19,279.53L845.23,114.1L849.28,341.71L853.32,125.66L857.37,85.91L861.41,250.88L865.45,79.1L869.5,133.53L873.54,95.63L877.59,322.32L881.63,73.99L885.67,227.73L889.72,245.59L893.76,151.02L897.81,302.44L901.85,68.48L905.9,63.51L909.94,304.07L918.03,72.05L922.07,303.16L930.16,113.29L934.2,329.23L938.25,139.28L942.29,188.95L946.34,78.22L950.38,225.67L954.43,70.66L958.47,282.02L962.51,327.84L966.56,146.33L970.6,183.97L974.65,313.99L978.69,52.03L982.73,53.79L986.78,320.68L990.82,191.46L998.91,288.23L1002.96,82.01L1007,281.7" style="vector-effect: none; fill: none; stroke: rgb(128, 133, 233); stroke-opacity: 1; stroke-width: 2px; opacity: 1;"/></g><g class="points"/><g class="text"/></g><g class="trace scatter trace3f81e6" style="stroke-miterlimit: 2; opacity: 1;"><g class="fills"/><g class="errorbars"/><g class="lines"><path class="js-line" d="M0,19.66L4.04,369.21L8.09,48.85L12.13,44.15L16.18,377.34L20.22,39.86L24.27,38.99L28.31,344.46L32.35,18.6L36.4,41.39L40.44,377.61L44.49,12.76L48.53,49.46L52.57,357.76L56.62,23.03L60.66,9.37L64.71,373.69L68.75,20.32L72.8,374.32L76.84,10.84L80.88,337.7L84.93,8.64L88.97,9.41L93.02,76.3L97.06,39.3L101.1,10.99L105.15,371.5L109.19,32.16L113.24,205.06L117.28,65.25L121.33,76.59L125.37,372.86L129.41,19.24L137.5,357.67L141.55,58.99L145.59,294.56L149.63,356.61L153.68,43.19L157.72,11.47L161.77,9.69L165.81,303.66L169.86,90.14L173.9,9.61L181.99,142.43L186.03,112.59L190.08,13.81L194.12,371.07L198.16,8.83L202.21,120.82L206.25,14.75L210.3,372.93L214.34,20.4L218.39,371L222.43,180.93L226.47,133.35L230.52,41.38L234.56,374.11L238.61,51.67L242.65,371.94L246.69,10.69L250.74,17.99L254.78,375.18L258.83,9.57L266.92,265.01L270.96,204.93L275,148.09L279.05,65.01L283.09,103.49L287.14,170.39L291.18,370.7L295.22,15.38L299.27,358.26L303.31,12.5L307.36,13.9L311.4,328.99L315.45,243.49L319.49,265.18L323.53,21.41L327.58,360.85L331.62,50.5L335.67,77.89L339.71,315.37L343.76,370.4L347.8,69.81L351.84,345.01L355.89,69.41L359.93,163.63L363.98,298.29L368.02,146.13L372.06,172.85L376.11,295.96L384.2,280.5L388.24,139.96L392.29,102.73L396.33,221.27L400.37,325.64L404.42,353.78L408.46,43.38L412.51,213.98L416.55,201.78L420.59,102.1L424.64,332.73L428.68,47.38L432.73,16.64L436.77,74.73L440.82,305.03L444.86,27.31L448.9,74.18L452.95,16.86L456.99,156.42L461.04,70.06L465.08,362.82L469.12,30.22L473.17,37.15L477.21,47.98L481.26,145.28L485.3,29.89L489.35,76.03L493.39,263.36L497.43,19.77L501.48,24.41L505.52,180.2L509.57,136.95L513.61,293.63L517.65,247.68L521.7,22.7L525.74,18.58L529.79,73.49L533.83,78.27L537.88,354.22L541.92,171.08L545.96,15.83L550.01,302.58L554.05,31.74L558.1,296.34L562.14,81.65L566.18,18.52L574.27,359.93L578.32,49.8L582.36,122.36L586.41,21.08L590.45,241.81L594.49,165.53L598.54,177.07L602.58,170.5L606.63,279.9L610.67,299.75L614.71,145.23L618.76,305.24L622.8,257.15L626.85,145.42L630.89,184.04L634.94,145.47L638.98,279.35L643.02,226.14L647.07,278.92L651.11,231.32L655.16,234L659.2,166.82L663.24,253.28L667.29,147.03L671.33,92.31L675.38,275.64L679.42,221.99L683.47,191.17L687.51,199.16L691.55,235.87L695.6,145.22L699.64,273.48L703.69,307.41L707.73,240.31L711.78,115.58L715.82,332.77L719.86,320.69L723.91,153.83L727.95,122.58L732,100.8L736.04,221.48L740.08,103.02L744.13,268.18L748.17,40.96L752.22,263.64L756.26,156.92L760.31,109.71L764.35,256.27L768.39,300.25L772.44,90.3L776.48,139.43L780.53,297.49L784.57,82.39L788.61,76.11L792.66,99.36L796.7,72.33L800.75,210.04L804.79,74.17L808.84,242.4L812.88,169.86L816.92,275.3L820.97,86.22L825.01,271.46L829.06,124.42L833.1,78.79L837.14,327.24L841.19,293.31L845.23,124.64L849.28,337.8L853.32,117.87L857.37,93.24L861.41,233.65L865.45,87.05L869.5,130.53L873.54,85.07L877.59,311.81L881.63,77.67L885.67,230.71L889.72,240.48L893.76,160.18L897.81,301.04L901.85,75.04L905.9,74.77L909.94,289.26L918.03,75.26L922.07,294.68L930.16,109.55L934.2,318.54L938.25,131.85L942.29,186.25L946.34,83.46L950.38,210.07L954.43,78.16L958.47,288.47L962.51,321.02L966.56,154.93L970.6,186.64L974.65,312.2L978.69,62.14L982.73,59.8L986.78,306.98L990.82,182.8L994.87,230.86L998.91,289.22L1002.96,82.57L1007,270.74" style="vector-effect: none; fill: none; stroke: rgb(241, 92, 128); stroke-opacity: 1; stroke-width: 2px; opacity: 1;"/></g><g class="points"/><g class="text"/></g><g class="trace scatter trace949d71" style="stroke-miterlimit: 2; opacity: 1;"><g class="fills"/><g class="errorbars"/><g class="lines"><path class="js-line" d="M0,24.6L4.04,370.02L8.09,50.97L12.13,49.26L16.18,378.58L20.22,40.02L24.27,54.58L28.31,335.84L32.35,18.99L36.4,54.61L40.44,377.92L44.49,12.67L48.53,62.16L52.57,354.68L56.62,22.08L60.66,9.12L64.71,374.57L68.75,19.36L72.8,374.51L76.84,10.58L80.88,340.37L84.93,8.22L88.97,9.45L93.02,82.94L97.06,32.16L101.1,10.83L105.15,371.25L109.19,37.07L113.24,191.1L117.28,59.94L121.33,76.87L125.37,373.51L129.41,18.25L137.5,358.88L141.55,56.1L145.59,292.75L149.63,358.76L153.68,55.15L157.72,10.67L161.77,9.16L165.81,297.65L169.86,98.73L173.9,9.16L177.94,84.33L181.99,134.95L186.03,113.51L190.08,14.02L194.12,371.28L198.16,8.5L202.21,113.64L206.25,14.17L210.3,373.48L214.34,20.92L218.39,371.52L222.43,167.4L226.47,143.75L230.52,32.8L234.56,374.43L238.61,46.96L242.65,372.45L246.69,10.39L250.74,17.36L254.78,375.19L258.83,9.26L262.87,135.99L266.92,261.97L270.96,190.17L275,149.85L279.05,76.03L283.09,110.02L287.14,158.79L291.18,371L295.22,15.19L299.27,359.97L303.31,11.86L307.36,13.67L311.4,317.77L315.45,255.93L319.49,277.08L323.53,20.75L327.58,361.43L331.62,45.39L335.67,87.24L339.71,305.45L343.76,370.97L347.8,68.51L351.84,344.11L355.89,70.26L359.93,161.75L363.98,291.61L368.02,140.66L372.06,177.63L376.11,294.96L380.15,279.5L384.2,282.4L388.24,136.72L392.29,107.17L400.37,323.38L404.42,355.69L408.46,44.34L412.51,209.95L416.55,198.12L420.59,107.53L424.64,320.29L428.68,60.67L432.73,15.99L436.77,82.13L440.82,296.25L444.86,26.51L448.9,83.75L452.95,16.09L456.99,151.05L461.04,78.87L465.08,363.72L469.12,30.54L473.17,31.51L477.21,39.13L481.26,164.51L485.3,30.48L489.35,84.72L493.39,262.05L497.43,18.83L501.48,22.93L505.52,172.34L509.57,134L513.61,284.93L517.65,241.93L521.7,21.55L525.74,17.68L529.79,78.08L533.83,87L537.88,355.07L541.92,164.1L545.96,14.79L550.01,293.6L554.05,29.27L558.1,288.36L562.14,90.27L566.18,17.38L574.27,362.08L578.32,53.19L582.36,137.47L586.41,19.75L590.45,240.63L594.49,159.86L598.54,181.76L602.58,181.4L606.63,272.6L610.67,291.68L614.71,161.31L618.76,295.86L622.8,250.56L626.85,139.98L630.89,187.26L634.94,151.56L638.98,287.76L643.02,232.61L647.07,280.46L651.11,237.49L655.16,240.96L659.2,152.71L663.24,251.79L667.29,139.31L671.33,103.57L675.38,285.75L679.42,214.28L683.47,194.77L687.51,193.64L691.55,232.7L695.6,156.86L699.64,280.66L703.69,304.59L707.73,252.11L711.78,115.25L715.82,329.21L719.86,314.39L723.91,152.49L727.95,123.13L732,110.13L736.04,224.22L740.08,111.15L744.13,268.78L748.17,41.62L752.22,267.49L756.26,154.81L760.31,128.04L764.35,251.49L768.39,291.64L772.44,102.88L776.48,137.54L780.53,305.14L784.57,68.1L788.61,82.37L792.66,107.8L796.7,64.89L800.75,220.56L804.79,67.94L808.84,243.41L812.88,177.91L816.92,268.96L820.97,76.36L825.01,270.72L829.06,124.62L833.1,73.59L837.14,330.47L841.19,286.57L845.23,117.41L849.28,338.19L853.32,121.49L857.37,82.31L861.41,247.71L865.45,78.11L869.5,131.52L873.54,94.02L877.59,314.54L881.63,75.47L885.67,227.69L889.72,241.46L893.76,158.21L897.81,297.91L901.85,74.11L905.9,68L909.94,296.12L918.03,75.39L922.07,295.76L930.16,115.85L934.2,321.96L938.25,137.14L942.29,193.09L946.34,81.28L950.38,221.12L954.43,74.58L958.47,281.09L962.51,320.15L966.56,151.81L970.6,183.09L974.65,313.68L978.69,58.75L982.73,57.82L986.78,310.13L990.82,197.22L994.87,231.17L998.91,289.68L1002.96,86.36L1007,275.21" style="vector-effect: none; fill: none; stroke: rgb(228, 211, 84); stroke-opacity: 1; stroke-width: 2px; opacity: 1;"/></g><g class="points"/><g class="text"/></g><g class="trace scatter trace133efe" style="stroke-miterlimit: 2; opacity: 1;"><g class="fills"/><g class="errorbars"/><g class="lines"><path class="js-line" d="M0,20.42L4.04,364.46L8.09,46.35L12.13,36.71L16.18,374.38L20.22,44.88L24.27,17.64L28.31,365.32L32.35,21.64L36.4,18.84L40.44,375.33L44.49,15.04L48.53,33.59L52.57,363.94L56.62,23.43L60.66,10.25L64.71,369.18L68.75,17.35L72.8,358.15L76.84,21.31L80.88,324.05L84.93,11.32L88.97,16.85L93.02,54.34L97.06,48.42L101.1,41.46L105.15,304.2L109.19,56.12L113.24,129.57L117.28,94.22L121.33,141.53L125.37,314.38L129.41,48.82L133.46,136.33L137.5,326.31L141.55,66.13L145.59,184.9L149.63,292.65L153.68,44.28L157.72,48.73L161.77,46.42L165.81,278.53L169.86,92.53L173.9,53.64L177.94,66.1L181.99,90.95L186.03,96.1L190.08,41.02L194.12,270.08L198.16,52.36L202.21,121.13L206.25,52.17L210.3,309.97L214.34,42.84L218.39,312.3L222.43,130.68L226.47,186.15L230.52,125.54L234.56,321.25L238.61,101.4L242.65,311.56L246.69,63.79L250.74,37.23L254.78,318.58L258.83,58.27L262.87,189.23L266.92,211.61L270.96,161.03L275,220.38L279.05,103.51L283.09,83.61L287.14,126.28L291.18,254.31L295.22,53.1L299.27,310.46L303.31,57.71L307.36,43.98L311.4,309.34L315.45,297.77L319.49,306.5L323.53,102.86L327.58,304.07L331.62,95.37L335.67,72.96L339.71,316.37L343.76,330.65L347.8,121.53L351.84,253.19L355.89,61.33L359.93,183.79L363.98,238.15L368.02,160.37L372.06,168.27L376.11,278.81L380.15,268.94L384.2,208.73L388.24,208.9L392.29,140.13L396.33,140.16L400.37,301.88L404.42,320.79L408.46,113.3L412.51,186.46L416.55,171.72L420.59,122.47L424.64,312.71L428.68,48.73L432.73,33.45L436.77,96.23L440.82,280.71L444.86,51.32L448.9,71.74L452.95,56.37L456.99,106.71L461.04,83.08L465.08,309.77L469.12,36.41L473.17,57.19L477.21,61.37L481.26,192.19L485.3,58.42L489.35,90.24L493.39,264.3L497.43,58.73L501.48,68.64L509.57,203.14L513.61,280.15L517.65,150.26L521.7,46.26L525.74,50.04L529.79,64.2L533.83,82.61L537.88,329.44L541.92,123.1L545.96,47.98L550.01,286.7L554.05,49.04L558.1,282.13L562.14,84.17L566.18,44.24L570.23,140.71L574.27,314.84L578.32,59.95L582.36,89.42L586.41,49.67L590.45,169.37L594.49,250.06L598.54,224.71L602.58,129.57L606.63,266.25L610.67,287L614.71,200.42L618.76,294.08L622.8,221.12L626.85,114.17L630.89,145.15L634.94,198.3L638.98,279.42L643.02,164.81L647.07,287.49L651.11,179.06L655.16,146.58L659.2,80.88L663.24,270.14L667.29,186.13L671.33,81.8L675.38,279.62L679.42,101.34L683.47,200.3L687.51,88.9L691.55,266.35L695.6,169.26L699.64,261.71L703.69,297.96L707.73,263.97L711.78,126.43L715.82,279.12L719.86,280.5L723.91,225.02L727.95,100.56L732,164.95L736.04,173.08L740.08,101.11L744.13,263.62L748.17,69.35L752.22,236.08L756.26,137.19L760.31,149.46L764.35,177.01L768.39,263.56L772.44,109.78L780.53,273.07L784.57,74.02L788.61,62.17L792.66,65.64L796.7,60.84L800.75,153.86L804.79,79.06L808.84,243.02L812.88,189.51L816.92,245.73L820.97,77.88L825.01,259.92L829.06,106.04L833.1,82.7L837.14,290.51L841.19,267.26L845.23,73.32L849.28,287.08L853.32,92.37L857.37,107.9L861.41,249.45L865.45,84.2L869.5,169.91L873.54,81.08L877.59,275.03L881.63,97.99L885.67,252.29L889.72,227.8L893.76,108.55L897.81,193.77L901.85,83.3L905.9,63.28L909.94,274.88L913.98,202.93L918.03,85.17L922.07,273.16L926.12,200.04L930.16,84.18L934.2,258.68L938.25,126.2L942.29,222.18L946.34,133.69L950.38,217.62L954.43,71.13L958.47,265.47L962.51,287.75L966.56,188.56L970.6,122.87L974.65,259.23L978.69,70.46L982.73,73.59L986.78,272.45L990.82,184.47L994.87,214.23L998.91,260.52L1002.96,69.82L1007,243.7" style="vector-effect: none; fill: none; stroke: rgb(43, 144, 143); stroke-opacity: 1; stroke-width: 2px; opacity: 1;"/></g><g class="points"/><g class="text"/></g><g class="trace scatter trace563e95" style="stroke-miterlimit: 2; opacity: 1;"><g class="fills"/><g class="errorbars"/><g class="lines"><path class="js-line" d="M0,16.92L4.04,367.7L8.09,43.68L12.13,36.27L16.18,376.74L20.22,41.35L24.27,20.28L28.31,364.48L32.35,21.48L36.4,22.46L40.44,376.94L44.49,10.92L48.53,36.06L52.57,367.39L56.62,22.64L60.66,9.21L64.71,374.8L68.75,14.36L72.8,371.49L76.84,12.04L80.88,323.55L84.93,8.48L88.97,10.1L93.02,33.78L97.06,27.14L101.1,15.21L105.15,332.86L109.19,32.69L113.24,139.63L117.28,79.87L121.33,107L125.37,360.64L129.41,30.8L133.46,133.64L137.5,362.45L141.55,69.19L145.59,267.9L149.63,330.24L153.68,23.74L157.72,19.22L161.77,21.48L165.81,339.37L169.86,87.95L173.9,17.93L177.94,85.79L181.99,69.45L186.03,93.15L190.08,20.48L194.12,310.33L198.16,19.82L202.21,131.78L206.25,18.58L210.3,356.9L214.34,26.65L218.39,358.93L222.43,138.19L226.47,172.04L230.52,55.83L234.56,361.32L238.61,48.92L242.65,353.36L246.69,23.5L250.74,18.45L254.78,358.6L258.83,21.93L262.87,174.58L266.92,228.56L270.96,150.2L275,228.22L279.05,127.77L283.09,87.81L287.14,136.33L291.18,329.12L295.22,25.98L299.27,356.81L303.31,21.77L307.36,22.06L311.4,342.88L315.45,314.01L319.49,320.86L323.53,125.62L327.58,346.79L331.62,123.08L335.67,49.74L339.71,347.86L343.76,363.04L347.8,62.78L351.84,324.45L355.89,33.89L363.98,211.24L368.02,111.33L372.06,134.96L376.11,294.22L380.15,247.48L384.2,219.44L388.24,215.22L392.29,139.1L396.33,197.65L400.37,342.09L404.42,356.04L408.46,130.31L412.51,168.81L416.55,251.89L420.59,93.26L424.64,340.8L428.68,32.09L432.73,16.45L436.77,76.51L440.82,297.54L444.86,19.89L448.9,82.87L452.95,23.54L456.99,128.72L461.04,84.51L465.08,359.56L469.12,25.26L473.17,42.66L477.21,28.33L481.26,184.49L485.3,21.16L489.35,87.85L493.39,283.33L497.43,52.93L501.48,27.02L505.52,184.1L509.57,181.07L513.61,289.15L517.65,168.08L521.7,19.55L525.74,24.95L529.79,36.68L533.83,78.65L537.88,357.68L541.92,134.79L545.96,17.41L550.01,292.92L554.05,51.19L558.1,314.13L562.14,78.18L566.18,19.06L570.23,139.79L574.27,361.37L578.32,42.39L582.36,148.79L586.41,24.39L590.45,221.8L594.49,270.53L598.54,185.92L602.58,151.54L606.63,282.6L610.67,297.41L614.71,190.9L618.76,309.92L622.8,224.58L626.85,157L630.89,173.96L634.94,173.95L638.98,301.47L643.02,234.75L647.07,321.91L651.11,172.4L655.16,193.44L659.2,79.14L663.24,254.85L667.29,152.53L671.33,72.54L675.38,325.21L679.42,90.61L683.47,145.16L687.51,70.89L691.55,285.62L695.6,124.71L699.64,284.77L703.69,342.59L707.73,281.05L711.78,120.63L715.82,312.71L719.86,330.71L723.91,207.94L727.95,85.44L732,130.68L736.04,227.73L740.08,107.36L744.13,326.17L748.17,36.66L752.22,266.73L756.26,143.6L760.31,106.52L764.35,206.21L768.39,281.52L772.44,169.37L776.48,191.44L780.53,328.46L784.57,31.59L788.61,49.33L792.66,69.71L796.7,26.51L800.75,204.81L804.79,54.9L808.84,269.29L812.88,175.22L816.92,274.29L820.97,58.79L825.01,287.76L829.06,95.02L833.1,50.44L837.14,344.37L841.19,295.45L845.23,36.19L849.28,340.09L853.32,88.59L857.37,92.97L861.41,320.29L865.45,53.29L869.5,183.7L873.54,81.52L877.59,332.02L881.63,65.16L885.67,284.5L889.72,226.17L893.76,105.02L897.81,259.55L901.85,46.87L905.9,37.4L909.94,297.23L913.98,232.61L918.03,57.61L922.07,332.98L926.12,188.91L930.16,64.18L934.2,314.97L938.25,113.42L942.29,243.13L946.34,80.2L950.38,230.47L954.43,68.6L958.47,316.64L962.51,338.48L966.56,169.97L970.6,95.87L974.65,274.33L978.69,36.22L982.73,47.09L986.78,330.35L990.82,162.69L994.87,204.29L998.91,310.38L1002.96,37.14L1007,255.43" style="vector-effect: none; fill: none; stroke: rgb(244, 91, 91); stroke-opacity: 1; stroke-width: 2px; opacity: 1;"/></g><g class="points"/><g class="text"/></g><g class="trace scatter trace38e9d0" style="stroke-miterlimit: 2; opacity: 1;"><g class="fills"/><g class="errorbars"/><g class="lines"><path class="js-line" d="M0,17.78L4.04,367.45L8.09,45.52L12.13,35.76L16.18,377.88L20.22,41.46L24.27,15.42L28.31,369.45L32.35,21.61L36.4,17.22L40.44,377.15L44.49,11.14L48.53,32.66L52.57,368.52L56.62,23.43L60.66,8.62L64.71,374.64L68.75,14.31L72.8,370.64L76.84,11.71L80.88,329.95L84.93,8.31L88.97,9.76L97.06,40.25L101.1,17.5L105.15,339.17L109.19,21.33L113.24,137.26L117.28,68.76L121.33,121.3L125.37,356.32L129.41,20.42L133.46,136.61L137.5,359.68L141.55,68.26L145.59,222.85L149.63,336.69L153.68,24.68L157.72,28.4L161.77,18.63L165.81,345.47L169.86,75.26L173.9,20.54L177.94,75.41L181.99,91.7L186.03,79.29L190.08,16.84L194.12,293.63L198.16,19.14L202.21,126.32L206.25,24.36L210.3,352.92L214.34,25.22L218.39,355.76L222.43,136.4L226.47,195.66L230.52,69.23L234.56,358.2L238.61,70.89L242.65,358.2L246.69,23.21L250.74,16.42L254.78,355.23L258.83,24.8L262.87,188.08L266.92,216.66L270.96,172.07L275,232.1L279.05,120.44L283.09,78.07L287.14,135.65L291.18,314.86L295.22,20.97L299.27,346.59L303.31,25.15L307.36,18.89L311.4,348.69L315.45,337.16L319.49,337.39L323.53,119.42L327.58,353.34L331.62,118.94L335.67,42.91L339.71,347.51L343.76,365.59L347.8,71.47L351.84,289.39L355.89,32.94L359.93,140.4L363.98,239.49L368.02,118.48L372.06,149.92L376.11,288.98L380.15,264.44L384.2,227.07L388.24,197.08L392.29,144.77L396.33,175.7L400.37,333.88L404.42,357.67L408.46,132.36L412.51,169.91L416.55,219.68L420.59,111.13L424.64,345.98L428.68,26.82L432.73,18.8L436.77,77.14L440.82,301.66L444.86,16.92L448.9,68.23L452.95,23.47L456.99,123.46L461.04,63.61L465.08,355.4L469.12,21.6L473.17,51.91L477.21,20.71L481.26,193.15L485.3,24.1L489.35,72.68L493.39,290.5L497.43,34.11L501.48,25.23L505.52,169.84L509.57,192.74L513.61,302.62L521.7,17.36L525.74,18.21L529.79,34.81L533.83,64.76L537.88,362.04L541.92,132.05L545.96,19.61L550.01,304.65L554.05,33.83L558.1,317.75L562.14,71.28L566.18,16.69L570.23,142.35L574.27,353.41L578.32,37.78L582.36,120.99L586.41,23.69L590.45,241.51L594.49,253.61L598.54,197.79L602.58,119.68L606.63,280.42L610.67,303.18L614.71,200.02L618.76,331.11L622.8,212.52L626.85,137.36L630.89,154.78L634.94,195.85L638.98,303.21L643.02,201.87L647.07,309.27L651.11,164.28L655.16,177.86L659.2,55.74L663.24,313.43L667.29,146.6L671.33,46.45L675.38,335.71L679.42,95.39L683.47,165.85L687.51,74.01L691.55,305.57L695.6,137.39L699.64,263.91L703.69,323.24L707.73,300.98L711.78,101.14L715.82,309.75L719.86,335.15L723.91,229.2L727.95,76.26L732,122.87L736.04,240.32L740.08,88.05L744.13,322.05L748.17,34.56L752.22,276.71L756.26,137.85L760.31,112.4L764.35,187.41L768.39,291.24L772.44,164.45L776.48,201.15L780.53,335.53L784.57,34.74L788.61,49.66L792.66,49.01L796.7,32.79L800.75,185.1L804.79,38.22L808.84,238.81L812.88,189.56L816.92,283.42L820.97,55.86L825.01,291.48L829.06,87.7L833.1,57.25L837.14,340.69L841.19,320.95L845.23,46.73L849.28,335.57L853.32,81.15L857.37,89.38L861.41,319.98L865.45,53L869.5,174.29L873.54,56.81L877.59,323.55L881.63,79.6L885.67,282.94L889.72,233.91L893.76,135.32L897.81,270.85L901.85,39.42L905.9,48.85L909.94,303.36L913.98,238.09L918.03,50.15L922.07,328.57L930.16,57.71L934.2,312.08L938.25,103.25L942.29,234.78L946.34,87.33L950.38,229.85L954.43,71.25L958.47,320.59L962.51,332.95L966.56,188.62L970.6,133.66L974.65,283.15L978.69,38.39L982.73,40.29L986.78,318.82L990.82,185.55L994.87,215.01L998.91,296.92L1002.96,45.36L1007,246.32" style="vector-effect: none; fill: none; stroke: rgb(145, 232, 225); stroke-opacity: 1; stroke-width: 2px; opacity: 1;"/></g><g class="points"/><g class="text"/></g></g></g></g><path class="xlines-above crisp" d="M0,0" style="fill: none;"/><path class="ylines-above crisp" d="M0,0" style="fill: none;"/><g class="overlines-above"/><g class="xaxislayer-above"><g class="xtick"><text text-anchor="middle" x="0" y="451" transform="translate(269.15999999999997,0)" style="font-family: 'Lucida Grande', 'Open Sans', verdana, arial, sans-serif; font-size: 10px; fill: rgb(0, 0, 0); fill-opacity: 1; white-space: pre; opacity: 1;">50</text></g><g class="xtick"><text text-anchor="middle" x="0" y="451" style="font-family: 'Lucida Grande', 'Open Sans', verdana, arial, sans-serif; font-size: 10px; fill: rgb(0, 0, 0); fill-opacity: 1; white-space: pre; opacity: 1;" transform="translate(471.37,0)">100</text></g><g class="xtick"><text text-anchor="middle" x="0" y="451" style="font-family: 'Lucida Grande', 'Open Sans', verdana, arial, sans-serif; font-size: 10px; fill: rgb(0, 0, 0); fill-opacity: 1; white-space: pre; opacity: 1;" transform="translate(673.58,0)">150</text></g><g class="xtick"><text text-anchor="middle" x="0" y="451" style="font-family: 'Lucida Grande', 'Open Sans', verdana, arial, sans-serif; font-size: 10px; fill: rgb(0, 0, 0); fill-opacity: 1; white-space: pre; opacity: 1;" transform="translate(875.79,0)">200</text></g><g class="xtick"><text text-anchor="middle" x="0" y="451" style="font-family: 'Lucida Grande', 'Open Sans', verdana, arial, sans-serif; font-size: 10px; fill: rgb(0, 0, 0); fill-opacity: 1; white-space: pre; opacity: 1;" transform="translate(1078,0)">250</text></g></g><g class="yaxislayer-above"><g class="ytick"><text text-anchor="end" x="65" y="3.5" transform="translate(0,435)" style="font-family: 'Lucida Grande', 'Open Sans', verdana, arial, sans-serif; font-size: 10px; fill: rgb(0, 0, 0); fill-opacity: 1; white-space: pre; opacity: 1;">0%</text></g><g class="ytick"><text text-anchor="end" x="65" y="3.5" style="font-family: 'Lucida Grande', 'Open Sans', verdana, arial, sans-serif; font-size: 10px; fill: rgb(0, 0, 0); fill-opacity: 1; white-space: pre; opacity: 1;" transform="translate(0,358)">20%</text></g><g class="ytick"><text text-anchor="end" x="65" y="3.5" style="font-family: 'Lucida Grande', 'Open Sans', verdana, arial, sans-serif; font-size: 10px; fill: rgb(0, 0, 0); fill-opacity: 1; white-space: pre; opacity: 1;" transform="translate(0,281)">40%</text></g><g class="ytick"><text text-anchor="end" x="65" y="3.5" style="font-family: 'Lucida Grande', 'Open Sans', verdana, arial, sans-serif; font-size: 10px; fill: rgb(0, 0, 0); fill-opacity: 1; white-space: pre; opacity: 1;" transform="translate(0,204)">60%</text></g><g class="ytick"><text text-anchor="end" x="65" y="3.5" style="font-family: 'Lucida Grande', 'Open Sans', verdana, arial, sans-serif; font-size: 10px; fill: rgb(0, 0, 0); fill-opacity: 1; white-space: pre; opacity: 1;" transform="translate(0,127)">80%</text></g><g class="ytick"><text text-anchor="end" x="65" y="3.5" style="font-family: 'Lucida Grande', 'Open Sans', verdana, arial, sans-serif; font-size: 10px; fill: rgb(0, 0, 0); fill-opacity: 1; white-space: pre; opacity: 1;" transform="translate(0,50)">100%</text></g></g><g class="overaxes-above"/></g></g><g class="polarlayer"/><g class="smithlayer"/><g class="ternarylayer"/><g class="geolayer"/><g class="funnelarealayer"/><g class="pielayer"/><g class="iciclelayer"/><g class="treemaplayer"/><g class="sunburstlayer"/><g class="glimages"/><defs id="topdefs-f84e3e"><g class="clips"/></defs><g class="layer-above"><g class="imagelayer"/><g class="shapelayer"/></g><g class="infolayer"><g class="g-gtitle"><text class="gtitle" x="550" y="25" text-anchor="middle" dy="0em" style="opacity: 1; font-family: 'Lucida Grande', 'Open Sans', verdana, arial, sans-serif; font-size: 20px; fill: rgb(42, 63, 95); fill-opacity: 1; white-space: pre;"><tspan class="line" dy="0em" x="550" y="25">Fastp: Read GC Content</tspan><tspan class="line" dy="1.3em" x="550" y="25">​<tspan style="font-size:70%" dy="-0.6em">Read 2: After filtering, 10 samples</tspan><tspan dy="0.42em">​</tspan></tspan></text></g><g class="g-xtitle"><text class="xtitle" x="574.5" y="472.3" text-anchor="middle" style="opacity: 0.3; font-family: 'Lucida Grande', 'Open Sans', verdana, arial, sans-serif; font-size: 14px; fill: rgb(0, 0, 0); fill-opacity: 1; white-space: pre;">Read Position</text></g><g class="g-ytitle"><text class="ytitle" transform="rotate(-90,22.00625,242.5)" x="22.00625" y="242.5" text-anchor="middle" style="opacity: 0.3; font-family: 'Lucida Grande', 'Open Sans', verdana, arial, sans-serif; font-size: 14px; fill: rgb(0, 0, 0); fill-opacity: 1; white-space: pre;">R2 After filtering: Base Content Percent</text></g></g></svg>