<svg class="main-svg" xmlns="http://www.w3.org/2000/svg" xmlns:xlink="http://www.w3.org/1999/xlink" width="2200" height="1000" style="" viewBox="0 0 1100 500"><rect x="0" y="0" width="1100" height="500" style="fill: rgb(255, 255, 255); fill-opacity: 1;"/><defs id="defs-8ada51"><g class="clips"><clipPath id="clip8ada51xyplot" class="plotclip"><rect width="1018" height="385"/></clipPath><clipPath class="axesclip" id="clip8ada51x"><rect x="60" y="0" width="1018" height="500"/></clipPath><clipPath class="axesclip" id="clip8ada51y"><rect x="0" y="50" width="1100" height="385"/></clipPath><clipPath class="axesclip" id="clip8ada51xy"><rect x="60" y="50" width="1018" height="385"/></clipPath></g><g class="gradients"/><g class="patterns"/></defs><g class="bglayer"/><g class="layer-below"><g class="imagelayer"/><g class="shapelayer"/></g><g class="cartesianlayer"><g class="subplot xy"><g class="layer-subplot"><g class="shapelayer"/><g class="imagelayer"/></g><g class="minor-gridlayer"><g class="x"/><g class="y"/></g><g class="gridlayer"><g class="x"><path class="xgrid crisp" transform="translate(260.33000000000004,0)" d="M0,50v385" style="stroke: rgb(0, 0, 0); stroke-opacity: 0.05; stroke-width: 1px;"/><path class="xgrid crisp" transform="translate(464.75,0)" d="M0,50v385" style="stroke: rgb(0, 0, 0); stroke-opacity: 0.05; stroke-width: 1px;"/><path class="xgrid crisp" transform="translate(669.16,0)" d="M0,50v385" style="stroke: rgb(0, 0, 0); stroke-opacity: 0.05; stroke-width: 1px;"/><path class="xgrid crisp" transform="translate(873.58,0)" d="M0,50v385" style="stroke: rgb(0, 0, 0); stroke-opacity: 0.05; stroke-width: 1px;"/></g><g class="y"><path class="ygrid crisp" transform="translate(0,387.81)" d="M60,0h1018" style="stroke: rgb(0, 0, 0); stroke-opacity: 0.05; stroke-width: 1px;"/><path class="ygrid crisp" transform="translate(0,340.62)" d="M60,0h1018" style="stroke: rgb(0, 0, 0); stroke-opacity: 0.05; stroke-width: 1px;"/><path class="ygrid crisp" transform="translate(0,293.43)" d="M60,0h1018" style="stroke: rgb(0, 0, 0); stroke-opacity: 0.05; stroke-width: 1px;"/><path class="ygrid crisp" transform="translate(0,246.24)" d="M60,0h1018" style="stroke: rgb(0, 0, 0); stroke-opacity: 0.05; stroke-width: 1px;"/><path class="ygrid crisp" transform="translate(0,199.05)" d="M60,0h1018" style="stroke: rgb(0, 0, 0); stroke-opacity: 0.05; stroke-width: 1px;"/><path class="ygrid crisp" transform="translate(0,151.86)" d="M60,0h1018" style="stroke: rgb(0, 0, 0); stroke-opacity: 0.05; stroke-width: 1px;"/><path class="ygrid crisp" transform="translate(0,104.66)" d="M60,0h1018" style="stroke: rgb(0, 0, 0); stroke-opacity: 0.05; stroke-width: 1px;"/><path class="ygrid crisp" transform="translate(0,57.47)" d="M60,0h1018" style="stroke: rgb(0, 0, 0); stroke-opacity: 0.05; stroke-width: 1px;"/></g></g><g class="zerolinelayer"><path class="yzl zl crisp" transform="translate(0,435)" d="M60,0h1018" style="stroke: rgb(0, 0, 0); stroke-opacity: 0.05; stroke-width: 2px;"/></g><g class="layer-between"><g class="shapelayer"/><g class="imagelayer"/></g><path class="xlines-below"/><path class="ylines-below"/><g class="overlines-below"/><g class="xaxislayer-below"/><g class="yaxislayer-below"/><g class="overaxes-below"/><g class="overplot"><g class="xy" transform="translate(60,50)" clip-path="url(#clip8ada51xyplot)"><g class="scatterlayer mlayer"><g class="trace scatter trace048b0f" style="stroke-miterlimit: 2; opacity: 1;"><g class="fills"/><g class="errorbars"/><g class="lines"><path class="js-line" d="M0,98.95L4.09,97.29L8.18,96.65L12.27,96.25L16.35,97.15L20.44,84.43L24.53,84.4L28.62,84.98L32.71,61.32L57.24,61.26L61.33,60.67L65.41,38.11L69.5,41.38L73.59,48.73L77.68,43.01L85.86,37.85L89.94,34.89L98.12,21.46L102.21,25.32L106.3,21.7L110.39,27.49L114.47,23.4L118.56,23.1L122.65,57.33L126.74,42.45L130.83,38.15L134.92,43.96L139,38.01L143.09,34.67L147.18,26.28L151.27,27.2L155.36,27.18L159.45,45.08L163.53,31.2L167.62,32.13L171.71,47.49L175.8,53.97L179.89,39.07L183.98,31.47L188.06,35.74L192.15,34.85L196.24,34.07L200.33,31.71L204.42,29.19L208.51,21.55L212.59,19.4L216.68,22.77L220.77,24.72L224.86,23.53L228.95,27.11L233.04,40.03L241.21,24.54L245.3,20.32L249.39,22.09L253.48,31.03L257.57,26.82L261.65,32.58L265.74,25.63L269.83,20.64L273.92,19.98L278.01,26.49L282.1,34.07L286.18,30.08L290.27,28.78L294.36,28.86L306.63,28.21L310.71,29.54L314.8,36.37L318.89,33.45L322.98,33.8L327.07,37.08L331.16,35.24L335.24,36.24L339.33,38.04L343.42,37.93L347.51,38.17L351.6,40.32L355.69,39.36L359.78,39.22L367.95,41.57L372.04,41.42L384.31,45.15L388.39,45.22L396.57,44.8L400.66,46.82L404.75,46.2L408.84,46.91L412.92,48.28L417.01,48.85L421.1,48.66L425.19,49.59L429.28,53.84L433.37,55.07L441.54,55.66L445.63,55.68L453.81,59.11L457.9,57.9L461.98,59.06L466.07,56.79L470.16,54.84L474.25,57.52L478.34,58.89L482.43,58.39L486.51,57.89L490.6,61.3L494.69,59.03L498.78,59.99L502.87,62.55L506.96,60.34L511.04,60.07L515.13,63.69L519.22,61.76L523.31,61.31L527.4,64.97L531.49,62.99L535.57,62.58L539.66,64.35L547.84,63.86L551.93,65.55L556.02,64.41L560.1,64.43L564.19,66.91L568.28,65.9L572.37,65.19L576.46,66.82L580.55,66.61L584.63,67.16L588.72,69.24L592.81,67.09L596.9,68.27L600.99,70.27L605.08,68.97L609.16,69.13L613.25,71.24L617.34,69.49L621.43,70.31L625.52,70.24L633.69,71.9L637.78,73.57L641.87,72.61L645.96,74.19L654.14,74.18L658.22,75.79L662.31,78.84L666.4,76.76L674.58,80.11L678.67,78.16L682.76,79.17L686.84,82.74L690.93,79.45L695.02,81.2L699.11,82.82L703.2,81.52L707.29,81.91L711.37,87.11L715.46,84.31L719.55,83.72L723.64,87.98L727.73,84.3L731.82,83.6L735.9,90.95L739.99,87.2L744.08,88.34L748.17,93.4L752.26,87.83L756.35,87.24L760.43,93.6L764.52,88.68L768.61,89.09L772.7,97.92L776.79,91.54L780.88,91.27L784.96,96.85L789.05,92.48L793.14,93.83L797.23,99.09L801.32,95.25L805.41,96.15L809.49,102.38L813.58,98.21L817.67,99.36L821.76,102.18L825.85,99.93L829.94,99.41L834.02,103.79L838.11,102.01L842.2,102.55L846.29,104.74L850.38,101.65L858.55,105.14L862.64,103.21L866.73,106.56L870.82,107.92L874.91,108.43L879,109.81L883.08,111.35L887.17,110.7L891.26,113.39L895.35,113.15L899.44,111.83L903.53,113.14L907.61,115.3L911.7,113.58L915.79,116.36L919.88,116.68L923.97,116.25L928.06,117.08L932.14,118.18L936.23,117.8L940.32,120.44L944.41,121.38L948.5,123.23L952.59,124.02L956.67,126.27L960.76,126.05L973.03,125.7L977.12,126.98L985.29,131.19L989.38,134.54L993.47,137.48L997.56,138.13L1005.73,142.57L1009.82,144.96L1018,155.09" style="vector-effect: none; fill: none; stroke: rgb(124, 181, 236); stroke-opacity: 1; stroke-width: 2px; opacity: 1;"/></g><g class="points"/><g class="text"/></g><g class="trace scatter trace719999" style="stroke-miterlimit: 2; opacity: 1;"><g class="fills"/><g class="errorbars"/><g class="lines"><path class="js-line" d="M0,99.2L4.09,97.54L8.18,96.93L12.27,96.54L16.35,97.45L20.44,84.55L24.53,84.5L28.62,85.08L32.71,61.47L57.24,61.44L61.33,60.73L65.41,38.45L69.5,41.97L73.59,49.47L77.68,43.74L85.86,38.52L89.94,35.9L98.12,21.48L102.21,25.21L106.3,21.87L110.39,27.57L114.47,23.47L118.56,23.2L122.65,58.45L126.74,43.23L130.83,38.73L134.92,45.03L139,39.18L143.09,35.37L147.18,26.52L151.27,27.36L155.36,27.24L159.45,45.69L163.53,31.51L167.62,32.41L171.71,47.89L175.8,54.35L179.89,39.56L183.98,31.67L188.06,36L192.15,35.13L196.24,34.02L200.33,31.93L204.42,29.38L208.51,21.57L212.59,19.27L216.68,22.77L220.77,24.81L224.86,23.58L228.95,27.06L233.04,40.21L241.21,24.5L245.3,20.17L249.39,21.96L253.48,31.21L257.57,26.96L261.65,32.89L265.74,25.7L269.83,20.58L273.92,19.84L278.01,26.28L282.1,34.23L286.18,30.3L290.27,29.01L294.36,29.13L306.63,28.61L310.71,29.92L314.8,36.89L318.89,33.9L322.98,34.31L327.07,37.63L331.16,35.71L335.24,36.86L339.33,38.68L343.42,38.53L347.51,38.86L351.6,41.01L355.69,40.2L359.78,40.29L367.95,42.31L372.04,42.17L384.31,46.04L388.39,46.28L392.48,45.63L396.57,45.75L400.66,47.91L404.75,47.19L417.01,50.25L421.1,49.71L425.19,51.21L429.28,55.68L433.37,57.51L437.45,57.38L445.63,57.43L449.72,59.14L453.81,60.52L457.9,59.6L461.98,60.79L466.07,58.65L470.16,56.76L474.25,59.55L478.34,60.7L482.43,60.54L486.51,60.07L490.6,63.14L494.69,61.02L498.78,62.03L502.87,64.47L506.96,62.28L511.04,61.95L515.13,65.39L519.22,63.81L523.31,63.56L527.4,67.6L531.49,65.3L535.57,64.81L539.66,66.16L547.84,66.15L551.93,68.16L560.1,66.9L564.19,69.72L572.37,67.7L576.46,69.05L580.55,68.96L584.63,69.79L588.72,71.78L592.81,69.87L600.99,72.47L605.08,71.05L609.16,71.58L613.25,73.83L617.34,72.43L621.43,72.94L629.61,73.73L633.69,74.85L637.78,76.41L641.87,75.27L645.96,76.76L650.05,76.72L654.14,76.7L658.22,79.12L662.31,82.08L666.4,79.76L670.49,80.68L674.58,82.63L678.67,80.98L682.76,82.02L686.84,86.16L690.93,82.76L695.02,84.78L699.11,85.31L703.2,84.57L707.29,85.5L711.37,90.17L715.46,87.62L719.55,86.65L723.64,90.68L727.73,87.23L731.82,86.46L735.9,93.27L739.99,89.8L744.08,91.5L748.17,97.16L752.26,91.06L756.35,90.84L760.43,97.36L764.52,92.14L768.61,92.63L772.7,101.51L776.79,94.75L780.88,95.09L784.96,100.3L789.05,95.58L793.14,96.85L797.23,103.29L801.32,99.01L805.41,100.23L809.49,106.07L813.58,101.67L817.67,103.08L821.76,106.45L825.85,103.62L829.94,103.3L834.02,107.72L838.11,106.23L842.2,106.2L846.29,108.07L850.38,104.95L854.47,106.65L858.55,108.4L862.64,107L866.73,109.99L870.82,111.33L874.91,112.39L879,114.3L883.08,115.57L887.17,114.7L891.26,118.14L895.35,117.96L899.44,115.75L903.53,117.68L907.61,119.29L911.7,117.86L915.79,120.56L919.88,120.6L923.97,119.82L928.06,120.21L932.14,122.87L936.23,121.77L940.32,124.44L944.41,125.31L948.5,127.31L952.59,128.1L956.67,131.09L960.76,130.01L964.85,131.23L968.94,130.35L973.03,129.85L977.12,130.56L989.38,137.36L993.47,140.4L1009.82,149.44L1013.91,154.77L1018,160.04" style="vector-effect: none; fill: none; stroke: rgb(67, 67, 72); stroke-opacity: 1; stroke-width: 2px; opacity: 1;"/></g><g class="points"/><g class="text"/></g><g class="trace scatter trace19824b" style="stroke-miterlimit: 2; opacity: 1;"><g class="fills"/><g class="errorbars"/><g class="lines"><path class="js-line" d="M0,99.14L4.09,97.49L8.18,96.9L12.27,96.48L16.35,97.43L20.44,84.62L24.53,84.6L28.62,85.2L32.71,61.51L57.24,61.41L61.33,60.51L65.41,38.25L69.5,41.85L73.59,48.86L77.68,43.61L81.77,40.51L85.86,38.41L89.94,35.72L94.03,27.6L98.12,21.06L102.21,24.75L106.3,21.22L110.39,25.95L114.47,22.53L118.56,22.54L122.65,58.98L126.74,43.12L130.83,38.9L134.92,44.99L139,38.2L143.09,35.2L147.18,26.55L151.27,27.25L155.36,27.37L159.45,45.58L163.53,31.57L167.62,32.5L171.71,48.1L175.8,54.46L179.89,39.69L183.98,31.76L188.06,35.93L192.15,35.08L196.24,34.08L200.33,32.05L204.42,29.38L208.51,21.56L212.59,19.25L216.68,22.76L220.77,24.82L224.86,23.63L228.95,27.4L233.04,39.65L241.21,24.37L245.3,20.16L249.39,21.8L253.48,30.63L257.57,26.59L261.65,32.74L265.74,25.63L269.83,20.51L273.92,19.75L278.01,26.37L282.1,34.15L286.18,30.21L290.27,28.88L294.36,29.05L306.63,28.3L310.71,29.66L314.8,36.4L318.89,33.15L322.98,33.56L327.07,36.89L331.16,35.16L335.24,36.28L339.33,38.12L343.42,37.91L347.51,38.25L351.6,40.22L355.69,39.42L359.78,39.65L367.95,41.76L372.04,41.6L384.31,45.29L388.39,45.42L396.57,44.97L400.66,46.97L404.75,46.4L408.84,47.25L417.01,49.49L421.1,49.02L425.19,50.44L429.28,53.41L433.37,55.3L437.45,55.02L445.63,54.81L449.72,56.94L453.81,58.2L457.9,57.15L461.98,58.29L466.07,56.25L470.16,54.27L474.25,56.46L478.34,57.77L482.43,57.36L486.51,56.95L490.6,60.38L494.69,57.88L498.78,59.05L502.87,61.48L506.96,59.2L511.04,58.93L515.13,62.41L519.22,61.09L523.31,60.71L527.4,64.58L531.49,62.23L535.57,61.48L539.66,62.51L547.84,62.77L551.93,64.88L560.1,63.43L564.19,65.6L568.28,64.36L572.37,63.93L576.46,65.16L580.55,65.36L584.63,66.25L588.72,68.02L592.81,66.07L596.9,67.07L600.99,68.86L605.08,67.39L609.16,67.7L613.25,69.22L617.34,67.89L621.43,68.52L629.61,69.46L633.69,70.47L637.78,72L641.87,70.69L645.96,72.19L650.05,72.25L654.14,72.44L658.22,74.92L662.31,77.44L666.4,75.18L674.58,77.95L678.67,76.45L682.76,77.17L686.84,81.88L690.93,78.26L695.02,79.87L699.11,81.07L703.2,80.04L707.29,81L711.37,86.05L715.46,83.14L719.55,81.94L723.64,85.68L727.73,82.36L731.82,81.46L735.9,88.49L739.99,85.16L744.08,86.85L748.17,92.23L752.26,86.11L756.35,85.77L760.43,92.32L764.52,86.85L768.61,87.54L772.7,97.17L776.79,90.03L780.88,89.87L784.96,95.28L789.05,90.29L793.14,91.8L797.23,98.61L801.32,94.32L805.41,95.08L809.49,101.01L813.58,96.5L817.67,98.17L821.76,101.42L825.85,98.85L829.94,98.13L834.02,101.58L838.11,100.45L842.2,100.53L846.29,102.79L850.38,99.97L858.55,103.03L862.64,101.97L866.73,104.96L870.82,106.31L883.08,110.4L887.17,109.91L891.26,112.98L895.35,112.98L899.44,110.73L903.53,113.07L907.61,113.96L911.7,112.46L915.79,115.3L919.88,114.93L928.06,115.45L932.14,118.27L936.23,116.97L940.32,119.31L944.41,119.67L948.5,121.82L952.59,122.52L956.67,125.8L973.03,124.45L977.12,125.6L1005.73,141.63L1009.82,144.55L1018,155.16" style="vector-effect: none; fill: none; stroke: rgb(144, 237, 125); stroke-opacity: 1; stroke-width: 2px; opacity: 1;"/></g><g class="points"/><g class="text"/></g><g class="trace scatter trace2b5da6" style="stroke-miterlimit: 2; opacity: 1;"><g class="fills"/><g class="errorbars"/><g class="lines"><path class="js-line" d="M0,101.31L4.09,99.86L8.18,99.55L12.27,98.86L16.35,100.62L20.44,86.18L24.53,86.8L28.62,86.58L32.71,64.31L40.88,64.23L44.97,64.25L49.06,63.8L53.15,64.75L57.24,64.4L61.33,60.84L65.41,36.95L69.5,37.95L73.59,39.71L77.68,39.56L81.77,39.88L85.86,38.49L89.94,25.25L94.03,25.3L102.21,27.76L106.3,26.96L110.39,28.17L114.47,26.34L118.56,28.82L122.65,32.32L126.74,27.19L130.83,28.24L134.92,39.5L139,43.45L143.09,47.92L147.18,56.95L151.27,45.93L155.36,38.97L159.45,39.77L163.53,36.92L167.62,39.73L171.71,40.57L175.8,41.53L179.89,46.65L183.98,44.62L188.06,47.7L192.15,44.52L196.24,51.49L200.33,45.94L204.42,44.86L208.51,59.04L212.59,52.47L216.68,44.45L220.77,44.63L224.86,41.3L228.95,47.95L233.04,48.87L237.12,44.96L245.3,58.39L249.39,68.1L253.48,52.94L257.57,52L261.65,43.84L265.74,48.64L269.83,46.73L273.92,49.77L278.01,51.97L282.1,48.27L290.27,46.6L294.36,47.18L298.45,44.88L302.54,53.11L306.63,58.02L310.71,52.75L314.8,53.14L318.89,50.81L322.98,49.73L327.07,53.24L331.16,53.07L335.24,49.93L339.33,52.21L343.42,50.72L347.51,51.21L351.6,52.8L363.86,53.74L367.95,55.42L372.04,54.67L376.13,55.3L380.22,56.81L384.31,57.29L388.39,58.37L392.48,56.82L400.66,57.33L404.75,57.21L408.84,57.48L412.92,61.06L425.19,61.86L429.28,61.89L433.37,63.65L437.45,63.93L441.54,65.3L445.63,64.29L449.72,66.38L453.81,65.5L461.98,64.28L466.07,68.68L470.16,68.06L474.25,68.71L478.34,71.47L482.43,69.24L486.51,69.6L490.6,75.61L494.69,73.8L498.78,74.02L502.87,73.45L506.96,71.9L511.04,71.14L515.13,73.68L523.31,73.18L527.4,74.4L531.49,71.59L535.57,73.07L539.66,72.6L543.75,73.04L551.93,76.79L556.02,75.66L560.1,75.88L564.19,80.75L572.37,79.5L576.46,79.75L580.55,80.82L584.63,80.04L592.81,77.25L596.9,78.02L609.16,78.71L613.25,82L617.34,86.08L621.43,84.06L625.52,84L629.61,86.47L637.78,87.2L641.87,86.37L662.31,89.3L666.4,90.95L670.49,88.43L674.58,90.52L678.67,94.71L682.76,94.29L686.84,91.94L690.93,92.16L695.02,90.63L699.11,91.58L703.2,93.45L707.29,93.27L711.37,95.02L715.46,97.84L719.55,99.03L723.64,101.73L727.73,104.1L731.82,101.52L735.9,103.09L739.99,102.46L744.08,100.7L748.17,103.41L752.26,103.15L756.35,104.6L760.43,105.72L764.52,103.75L768.61,104.43L772.7,106.02L776.79,104.87L780.88,107.68L789.05,113.59L793.14,111.42L797.23,116.31L801.32,116.53L809.49,115.03L813.58,116.42L817.67,114.27L821.76,113.42L825.85,113.71L829.94,117.65L834.02,123.35L838.11,118.38L842.2,120.36L846.29,120.38L850.38,123.1L854.47,121.99L858.55,123.02L862.64,122.01L866.73,121.75L870.82,122.88L874.91,127.78L879,128.33L883.08,130.73L887.17,132.05L891.26,134.22L895.35,134L911.7,135.97L915.79,138.22L928.06,149.63L932.14,154.59L940.32,150.78L944.41,152.82L948.5,157.97L952.59,155.18L956.67,156.85L960.76,157.18L964.85,157.32L968.94,163.07L973.03,167.6L977.12,181.08L981.2,175.71L985.29,173.64L989.38,172.6L993.47,178.95L997.56,185.77L1001.65,185.7L1005.73,186.52L1009.82,192.09L1013.91,195.29L1018,199.73" style="vector-effect: none; fill: none; stroke: rgb(247, 163, 92); stroke-opacity: 1; stroke-width: 2px; opacity: 1;"/></g><g class="points"/><g class="text"/></g><g class="trace scatter trace196f63" style="stroke-miterlimit: 2; opacity: 1;"><g class="fills"/><g class="errorbars"/><g class="lines"><path class="js-line" d="M0,108.52L4.09,105.68L8.18,104.91L12.27,104.03L16.35,105.65L20.44,91.78L24.53,92.16L28.62,92.49L32.71,71.9L57.24,71.09L61.33,67.8L65.41,51.18L69.5,54.42L73.59,67.57L77.68,63.74L81.77,56.59L85.86,53.36L94.03,35.94L98.12,30.52L102.21,34.59L106.3,30.72L110.39,32.77L114.47,31.99L118.56,31.99L122.65,39.02L126.74,36.06L130.83,42.62L134.92,59.64L139,40.69L143.09,40.95L147.18,34.1L155.36,35.34L159.45,60.48L163.53,48.4L167.62,45.27L171.71,72.53L175.8,70.7L183.98,46.98L188.06,46.04L192.15,50.48L196.24,44.54L200.33,40.84L204.42,51.24L208.51,36.63L212.59,29.35L220.77,39.58L224.86,37.02L228.95,38.95L233.04,37.61L237.12,38.83L241.21,31.82L245.3,27.22L249.39,30.94L253.48,30.29L257.57,33.51L265.74,35.44L269.83,30.79L273.92,28.78L278.01,34.28L282.1,42.84L286.18,40.79L290.27,42.36L294.36,42.88L298.45,41.38L302.54,40.75L306.63,38.01L310.71,41.57L314.8,45.73L318.89,43.77L322.98,45.41L327.07,51.85L331.16,49.94L335.24,51.35L339.33,54.7L343.42,54.02L347.51,53.83L351.6,56.6L355.69,55.85L359.78,55.89L363.86,59.72L367.95,57.92L372.04,57.3L376.13,58.77L380.22,59.52L384.31,59.39L392.48,60.36L396.57,60.82L400.66,63.18L404.75,63.37L408.84,63.54L412.92,65.53L417.01,66.99L421.1,66.99L429.28,68.75L433.37,68.7L437.45,70.43L441.54,71.1L445.63,70.26L449.72,71.73L453.81,74.35L457.9,74L461.98,74.67L466.07,77.96L470.16,76.11L474.25,77.19L478.34,77.76L482.43,76.63L486.51,77.95L490.6,81.56L494.69,79.77L498.78,79.83L502.87,81.39L506.96,81.53L511.04,81.28L515.13,85.07L519.22,82.98L523.31,83.3L527.4,86.54L531.49,84.97L535.57,84.69L539.66,87.98L543.75,86.96L547.84,87.08L551.93,90.31L556.02,89.27L560.1,90.01L564.19,91.73L572.37,91.95L576.46,93.58L580.55,92L584.63,92.94L588.72,94.65L592.81,93.92L600.99,95.74L605.08,95.09L613.25,97.36L617.34,97.3L625.52,101.83L629.61,100.67L633.69,102.89L637.78,103.24L641.87,102.06L645.96,104.42L650.05,106.45L654.14,104.72L658.22,107.21L662.31,107.38L666.4,106.48L670.49,108.62L674.58,110.07L678.67,109.75L682.76,112.49L686.84,113.75L690.93,112.09L695.02,113.41L699.11,115.26L703.2,113.9L711.37,121.99L715.46,119.12L719.55,120.44L723.64,123.73L727.73,121.26L731.82,122.37L735.9,127.24L739.99,123.42L744.08,123.85L748.17,128.96L752.26,125.53L756.35,126.36L760.43,133.12L764.52,129.28L768.61,130.33L772.7,137.07L776.79,132.62L780.88,132.69L784.96,138.56L789.05,135.66L793.14,137.39L797.23,143.62L801.32,140.87L805.41,141.38L809.49,145.56L813.58,142.68L817.67,144.53L821.76,147.86L825.85,146.15L829.94,148.71L834.02,151.51L838.11,150.46L846.29,153.62L850.38,153.83L854.47,155.99L858.55,156.13L866.73,161.75L870.82,160.46L874.91,161L879,164L883.08,165.2L887.17,164.95L891.26,169.07L895.35,170.36L899.44,170.5L903.53,172.58L907.61,174.44L911.7,174.57L915.79,178.67L919.88,178.9L923.97,177.47L928.06,179.87L932.14,182.57L936.23,181.75L944.41,185.97L948.5,186.22L956.67,191.65L960.76,192.24L964.85,196.23L968.94,198.17L973.03,198.04L977.12,202.56L981.2,204.31L985.29,205.02L993.47,213.86L997.56,216.61L1001.65,220.15L1005.73,225.07L1009.82,230.29L1013.91,237.28L1018,241.19" style="vector-effect: none; fill: none; stroke: rgb(128, 133, 233); stroke-opacity: 1; stroke-width: 2px; opacity: 1;"/></g><g class="points"/><g class="text"/></g><g class="trace scatter tracea21267" style="stroke-miterlimit: 2; opacity: 1;"><g class="fills"/><g class="errorbars"/><g class="lines"><path class="js-line" d="M0,109.57L4.09,106.71L8.18,105.91L12.27,104.97L16.35,106.7L20.44,92.7L24.53,93.12L28.62,93.43L32.71,73.4L57.24,72.64L61.33,68.71L65.41,52.69L69.5,56.24L73.59,69.61L77.68,65.49L81.77,58.27L85.86,55.17L94.03,37.22L98.12,31.49L102.21,35.44L106.3,31.53L110.39,33.29L114.47,33.02L118.56,33.22L122.65,39.16L126.74,36.93L130.83,44.31L134.92,60.81L139,41.9L143.09,42.7L147.18,35.28L155.36,36.98L159.45,61.04L163.53,49.49L167.62,46.77L171.71,72.53L175.8,72.6L183.98,48.28L188.06,47.66L192.15,53.11L196.24,45.26L200.33,42.16L204.42,52.92L208.51,38.04L212.59,30.33L220.77,41.29L224.86,39.06L228.95,40.4L233.04,38.08L237.12,40.11L241.21,32.75L245.3,27.81L249.39,31.85L253.48,30.98L257.57,35.12L265.74,36.58L269.83,31.36L273.92,29.16L278.01,34.58L282.1,43.09L286.18,41.89L294.36,44.6L298.45,42.86L302.54,42.19L306.63,39.2L314.8,47.32L318.89,45.52L322.98,47.48L327.07,54.06L331.16,51.97L335.24,53.55L339.33,56.9L343.42,56.46L347.51,56.58L351.6,59.5L359.78,58.78L363.86,62.86L367.95,60.99L372.04,60.35L380.22,62.56L384.31,62.49L396.57,64L400.66,66.56L408.84,66.6L412.92,68.99L417.01,70.2L421.1,70.29L429.28,72.45L433.37,72.16L437.45,74.59L441.54,74.69L445.63,73.58L449.72,75.64L453.81,77.64L457.9,77.2L461.98,78.58L466.07,81.66L470.16,80.01L474.25,81.55L478.34,82L482.43,81.01L486.51,82.71L490.6,86.36L494.69,84.59L498.78,84.74L506.96,86.59L511.04,86.66L515.13,89.84L519.22,88L523.31,88.43L527.4,91.8L531.49,90.42L535.57,90L539.66,93.13L543.75,92.08L547.84,92.59L551.93,95.52L556.02,94.62L560.1,95.35L564.19,96.72L568.28,96.87L572.37,97.33L576.46,98.74L580.55,97.33L584.63,97.94L588.72,99.65L592.81,99.27L600.99,100.73L605.08,100.16L613.25,102.17L617.34,102.45L625.52,106.61L629.61,105.63L633.69,108.16L637.78,108.26L641.87,107.36L645.96,109.37L650.05,111.74L654.14,110.11L658.22,112.47L662.31,113.06L666.4,112.59L670.49,114.03L674.58,115.63L678.67,115.93L682.76,118.51L686.84,119.7L690.93,118.26L695.02,119.15L699.11,121.3L703.2,120.26L711.37,128.72L715.46,126.06L719.55,127.32L723.64,130.48L727.73,128.42L731.82,129.38L735.9,134.07L739.99,130.72L744.08,130.72L748.17,135.03L752.26,132.45L756.35,133.53L760.43,140.49L764.52,137.44L768.61,138.36L772.7,144.56L776.79,141.41L780.88,140.98L784.96,146.63L789.05,144.61L793.14,145.77L797.23,150.97L801.32,149.18L805.41,149.45L809.49,153.29L813.58,151.25L821.76,156.29L825.85,155.5L834.02,159.69L838.11,159.42L846.29,162.31L850.38,163.3L854.47,165.12L858.55,165.18L866.73,171.12L870.82,169.32L874.91,170.29L879,173.36L883.08,174.22L887.17,174.19L891.26,178.13L895.35,179.9L899.44,180.23L903.53,181.56L907.61,183.82L911.7,184.19L915.79,187.85L919.88,188.29L923.97,187.37L928.06,189.72L932.14,192.73L936.23,191.8L944.41,196.14L948.5,196.45L956.67,202.11L960.76,202.91L964.85,206.95L968.94,209.26L973.03,209.37L977.12,213.88L981.2,215.96L985.29,216.76L993.47,225.82L997.56,228.44L1001.65,231.91L1005.73,236.7L1009.82,241.43L1013.91,248.32L1018,252.75" style="vector-effect: none; fill: none; stroke: rgb(241, 92, 128); stroke-opacity: 1; stroke-width: 2px; opacity: 1;"/></g><g class="points"/><g class="text"/></g><g class="trace scatter tracee2af66" style="stroke-miterlimit: 2; opacity: 1;"><g class="fills"/><g class="errorbars"/><g class="lines"><path class="js-line" d="M0,108.48L4.09,105.64L8.18,104.87L12.27,104L16.35,105.6L20.44,91.77L24.53,92.13L28.62,92.52L32.71,71.83L57.24,71.11L61.33,67.67L65.41,51.07L69.5,54.32L73.59,67.7L77.68,63.66L81.77,56.35L85.86,52.94L94.03,35.56L98.12,30.24L102.21,34.26L106.3,30.42L110.39,32.27L114.47,31.61L118.56,31.79L122.65,38.66L126.74,35.83L130.83,42.7L134.92,58.93L139,40.42L143.09,40.77L147.18,34L155.36,35.31L159.45,61.9L163.53,49.11L167.62,45.35L171.71,71.1L175.8,68.65L179.89,59.63L183.98,47.15L188.06,46.04L192.15,50.97L196.24,44.48L200.33,40.57L204.42,51.11L208.51,36.5L212.59,29.19L216.68,34.25L220.77,39.59L224.86,37.04L228.95,38.73L233.04,37.51L237.12,38.71L241.21,31.66L245.3,27.06L249.39,30.83L253.48,30.14L257.57,33.37L265.74,35.19L269.83,30.56L273.92,28.56L278.01,34.04L282.1,42.45L286.18,40.52L290.27,42.02L294.36,42.68L298.45,41.01L302.54,40.52L306.63,37.88L310.71,41.45L314.8,45.52L318.89,43.61L322.98,45.24L327.07,51.35L331.16,49.59L335.24,51.18L339.33,54.27L343.42,53.95L347.51,53.92L351.6,56.63L359.78,56.26L363.86,59.81L367.95,57.99L372.04,57.36L380.22,59.55L384.31,59.54L396.57,61.06L400.66,63.61L408.84,63.76L412.92,65.94L417.01,67.09L421.1,67.07L429.28,69.3L433.37,69.18L437.45,70.79L441.54,71.36L445.63,70.38L449.72,71.97L453.81,74.38L457.9,74L461.98,74.69L466.07,77.91L470.16,76.2L474.25,77.43L478.34,78.04L482.43,76.82L486.51,78.26L490.6,82.19L494.69,80.3L498.78,80.27L502.87,81.97L506.96,82.08L511.04,81.78L515.13,85.24L519.22,83.23L523.31,83.3L527.4,86.42L531.49,84.88L535.57,84.63L539.66,87.81L543.75,86.69L547.84,86.97L551.93,89.67L556.02,88.76L564.19,91.22L568.28,90.89L572.37,91.35L576.46,92.79L580.55,91.25L584.63,92.17L588.72,93.89L592.81,93.2L600.99,94.83L605.08,94.23L613.25,96.44L617.34,96.29L625.52,100.47L629.61,99.33L633.69,101.66L637.78,101.9L641.87,100.6L645.96,103.03L650.05,105.09L654.14,103.2L658.22,105.7L662.31,106.06L666.4,105.1L670.49,107.05L674.58,108.67L678.67,108.23L682.76,111.09L686.84,112.43L690.93,110.73L695.02,111.78L699.11,113.81L703.2,112.46L711.37,120.97L715.46,117.82L719.55,118.85L723.64,122.33L727.73,119.77L731.82,120.88L735.9,125.5L739.99,121.84L744.08,122.15L748.17,127.1L752.26,123.8L756.35,124.85L760.43,131.37L764.52,127.7L768.61,128.53L772.7,134.91L776.79,130.94L780.88,131.16L784.96,136.75L789.05,134.16L793.14,135.75L797.23,141.39L801.32,138.95L805.41,139.48L809.49,143.42L813.58,140.9L817.67,142.73L821.76,145.58L825.85,144.1L829.94,146.77L834.02,149.36L838.11,148.44L846.29,151.86L850.38,152.22L854.47,154.16L858.55,154.19L866.73,159.85L870.82,158.45L874.91,159.08L879,161.99L883.08,163.18L887.17,163.23L891.26,167.26L895.35,168.64L899.44,168.68L903.53,171.06L907.61,172.75L911.7,172.6L915.79,176.3L919.88,176.77L923.97,175.55L928.06,178.02L932.14,180.7L936.23,179.85L944.41,183.99L948.5,184.45L956.67,189.73L960.76,190.59L964.85,194.55L968.94,196.22L973.03,196.38L977.12,201.03L985.29,203.84L989.38,208.7L993.47,212.71L997.56,215.44L1001.65,219.1L1005.73,223.76L1009.82,229L1013.91,235.98L1018,239.94" style="vector-effect: none; fill: none; stroke: rgb(228, 211, 84); stroke-opacity: 1; stroke-width: 2px; opacity: 1;"/></g><g class="points"/><g class="text"/></g><g class="trace scatter tracee063c6" style="stroke-miterlimit: 2; opacity: 1;"><g class="fills"/><g class="errorbars"/><g class="lines"><path class="js-line" d="M0,100.88L4.09,99.51L8.18,99.12L12.27,98.58L16.35,99.69L20.44,85.15L24.53,85.98L28.62,85.91L32.71,63.4L44.97,63.54L49.06,63.44L57.24,63.58L61.33,60.13L65.41,36.79L69.5,39.03L73.59,40.04L77.68,39.45L81.77,40.41L85.86,38.28L89.94,22.37L94.03,21.65L98.12,20.97L102.21,24.53L106.3,21.78L110.39,21.79L114.47,22.33L118.56,24.46L122.65,26.51L126.74,23.21L130.83,26.26L134.92,27.92L139,29.32L143.09,33.63L147.18,37.02L151.27,28.38L155.36,26.22L159.45,26.52L163.53,24.75L167.62,27.61L171.71,26.88L175.8,31.13L183.98,29.19L188.06,35.6L192.15,38.13L196.24,38.89L200.33,30.36L204.42,28.96L208.51,32.93L212.59,31.41L216.68,32.7L220.77,34.88L224.86,31.9L228.95,35.68L233.04,35.64L237.12,30.43L245.3,32.89L249.39,37.61L253.48,31.14L257.57,30.69L261.65,27.9L265.74,28.96L269.83,27.63L273.92,28.78L278.01,35.51L282.1,34.39L286.18,36.05L290.27,36.06L298.45,35.73L302.54,39.77L306.63,41.07L310.71,39.36L314.8,40.38L318.89,38.51L327.07,40.79L331.16,39.06L335.24,40.69L339.33,43.86L343.42,43.07L347.51,43.7L351.6,48.6L355.69,44.13L359.78,43.46L363.86,44.73L367.95,45.84L372.04,45.51L376.13,48.03L380.22,48.05L384.31,48.63L388.39,50.31L396.57,47.78L400.66,49.13L404.75,50.43L408.84,49.48L412.92,49.76L417.01,49.2L421.1,48.87L425.19,49.52L433.37,50.54L437.45,51.85L445.63,51.89L449.72,53.37L453.81,53.77L457.9,52.85L461.98,54.72L466.07,60.49L470.16,57.83L474.25,57.2L478.34,57.91L482.43,56.74L490.6,60.14L494.69,58.08L506.96,56.34L511.04,57.39L515.13,59.59L519.22,58.96L523.31,57.61L527.4,58.49L535.57,66.14L539.66,64.64L543.75,60.04L547.84,62.56L551.93,61.35L556.02,62.43L560.1,63.1L564.19,66.94L568.28,68.72L572.37,68.6L576.46,69.03L580.55,66.69L584.63,68.23L588.72,68.14L592.81,65.92L596.9,70.2L600.99,67.73L605.08,72.44L609.16,66.79L613.25,66.73L617.34,69.3L621.43,69.76L629.61,74.37L633.69,77.14L637.78,82.82L641.87,76.97L645.96,74.52L650.05,78.05L654.14,74.89L658.22,77.47L662.31,76.54L666.4,78.63L670.49,77.99L674.58,79.38L678.67,77.96L682.76,81.04L690.93,77.65L695.02,76.71L703.2,78.01L707.29,76.94L711.37,82.93L715.46,83.83L719.55,84.3L723.64,87.99L727.73,91.44L731.82,90.87L735.9,89.63L739.99,85.47L744.08,83.22L748.17,89.35L752.26,86.71L756.35,89.53L760.43,92.32L764.52,91.89L768.61,95.13L772.7,91.45L776.79,89.33L780.88,93.14L784.96,91.36L789.05,94.66L793.14,96.28L797.23,99.83L801.32,100.68L805.41,97.89L809.49,104.1L813.58,103.48L817.67,106.18L821.76,104.09L825.85,99.06L829.94,98.74L834.02,101.1L838.11,98.6L842.2,106.84L846.29,111.9L850.38,110.5L854.47,111.29L858.55,111.48L862.64,106.52L866.73,110.42L870.82,117.75L874.91,112.72L879,114.04L883.08,116.29L887.17,115.83L891.26,118.25L895.35,118.01L899.44,119.76L903.53,124.23L907.61,129.34L911.7,124.97L915.79,117.78L919.88,117.83L923.97,121.63L928.06,131.9L940.32,125.41L944.41,132.1L948.5,129.24L952.59,129.01L956.67,126.46L960.76,134.61L964.85,138L968.94,136.79L973.03,137.86L977.12,137.6L981.2,144.23L985.29,140.52L989.38,148.3L993.47,153.85L997.56,156.74L1001.65,154.9L1005.73,153.94L1009.82,163.01L1013.91,163.3L1018,168.92" style="vector-effect: none; fill: none; stroke: rgb(43, 144, 143); stroke-opacity: 1; stroke-width: 2px; opacity: 1;"/></g><g class="points"/><g class="text"/></g><g class="trace scatter trace725f78" style="stroke-miterlimit: 2; opacity: 1;"><g class="fills"/><g class="errorbars"/><g class="lines"><path class="js-line" d="M0,100.54L4.09,99.24L8.18,98.74L12.27,98.18L16.35,99.34L20.44,85.42L24.53,85.41L28.62,86.3L32.71,63.51L49.06,63.53L53.15,63.88L57.24,63.78L61.33,60.19L65.41,36.59L69.5,39.36L73.59,40.32L77.68,39.48L81.77,40.71L85.86,38.04L89.94,21.03L94.03,21.32L98.12,19.84L102.21,24.26L106.3,21.03L110.39,20.46L122.65,24.88L126.74,22.09L130.83,25.72L134.92,25.05L139,25.51L143.09,28.28L147.18,28.4L151.27,23.04L155.36,22.11L159.45,23.12L163.53,21.91L167.62,24.09L171.71,23.03L175.8,27.14L179.89,24.63L183.98,23.24L188.06,28.46L192.15,30.59L196.24,33.78L200.33,25.29L212.59,23.7L216.68,27.89L220.77,31.18L224.86,26.25L228.95,32.23L233.04,31.51L237.12,26.67L241.21,24.85L245.3,22.95L249.39,26.42L253.48,23.45L257.57,22.87L261.65,22.35L265.74,22.86L269.83,21.98L273.92,22.75L278.01,29.54L282.1,29.98L290.27,32.74L294.36,32.18L298.45,32.66L302.54,34.29L306.63,35.75L310.71,35.22L314.8,37.19L318.89,34.37L327.07,39.1L331.16,36.68L335.24,38.61L339.33,41.9L343.42,42.48L347.51,41.03L351.6,47.65L355.69,42.65L359.78,41.35L363.86,42.42L367.95,43.26L372.04,42.94L376.13,46.54L380.22,45.16L384.31,44.45L388.39,46.37L396.57,44.65L400.66,46.58L404.75,51.84L408.84,48.26L412.92,47.71L417.01,45.29L425.19,45.17L429.28,45.19L433.37,47.35L437.45,47.12L441.54,47.83L445.63,47.44L449.72,50.52L453.81,51.61L457.9,51.48L461.98,53.14L466.07,59.69L470.16,55.99L482.43,54.44L486.51,54.98L490.6,55.89L494.69,53.05L498.78,54.26L502.87,52.84L511.04,53.57L515.13,55.13L519.22,54.67L523.31,53.19L531.49,56.97L535.57,62.75L539.66,58.34L543.75,55.3L547.84,57.75L551.93,56.59L556.02,58.88L560.1,59.6L568.28,67.03L572.37,66L576.46,67.36L580.55,61.39L584.63,66.02L588.72,65.41L592.81,64.12L596.9,66.18L600.99,63.45L605.08,64.67L609.16,62.19L613.25,61.69L625.52,70.88L629.61,70.07L633.69,72.49L637.78,78.91L645.96,69.96L650.05,71.79L654.14,68.75L658.22,73.63L662.31,72.89L666.4,73.41L670.49,71.54L674.58,77.16L678.67,72.6L682.76,78.83L686.84,74.28L690.93,72.88L699.11,71.93L703.2,73.95L707.29,73.28L711.37,77.03L715.46,77.85L719.55,77.59L723.64,85.97L727.73,84.36L731.82,85.08L735.9,86.95L739.99,83.22L744.08,78.02L748.17,76.86L752.26,76.94L756.35,80L760.43,84.36L764.52,85.15L768.61,91.11L772.7,86.21L776.79,85.47L780.88,89.08L784.96,84.49L793.14,87L797.23,97.18L801.32,93.6L805.41,91.33L809.49,98.58L813.58,94.07L817.67,101.79L821.76,100.22L825.85,95.58L829.94,93.18L834.02,101.46L838.11,95.89L842.2,106.2L846.29,106.49L850.38,103.68L854.47,103.58L858.55,105.45L862.64,100.4L870.82,106.81L874.91,103.65L883.08,106.9L887.17,105.43L891.26,113.33L895.35,114.8L899.44,112.44L903.53,117.08L907.61,128.57L911.7,120.27L915.79,116.9L919.88,114.6L928.06,122.02L932.14,123.68L940.32,116.58L944.41,115.61L952.59,117.64L956.67,118.73L960.76,130.75L964.85,131.57L968.94,131.48L973.03,126.9L977.12,123.76L981.2,137.98L985.29,134.57L989.38,137.52L993.47,149.9L997.56,155.02L1001.65,151.05L1005.73,145.76L1009.82,157.31L1013.91,156.19L1018,163.2" style="vector-effect: none; fill: none; stroke: rgb(244, 91, 91); stroke-opacity: 1; stroke-width: 2px; opacity: 1;"/></g><g class="points"/><g class="text"/></g><g class="trace scatter tracee49ece" style="stroke-miterlimit: 2; opacity: 1;"><g class="fills"/><g class="errorbars"/><g class="lines"><path class="js-line" d="M0,100.93L8.18,98.92L12.27,98.5L16.35,99.86L20.44,85.13L28.62,86.06L32.71,63.67L53.15,63.91L57.24,63.71L61.33,60.28L65.41,36.65L69.5,39.25L73.59,40.58L77.68,39.65L81.77,39.96L85.86,37.59L89.94,21.36L94.03,21.37L98.12,20.54L102.21,24.7L106.3,21.55L114.47,22.25L118.56,24.12L122.65,26.19L126.74,23.08L130.83,26.09L134.92,26.14L139,26.2L143.09,28.91L147.18,29.08L151.27,22.78L155.36,22.1L159.45,22.55L163.53,21.57L167.62,24.14L171.71,23.66L175.8,28.5L179.89,25.14L183.98,23.96L192.15,33.59L196.24,34.83L200.33,26.38L204.42,25.34L208.51,24.42L212.59,24.32L216.68,28.44L220.77,30.33L224.86,25.85L228.95,30.62L233.04,33.28L237.12,27.87L245.3,24.22L249.39,27.82L253.48,24.12L257.57,23.38L261.65,22.53L265.74,23.1L269.83,21.7L273.92,22.24L278.01,30.02L282.1,30.17L290.27,33.02L294.36,32.87L298.45,33.12L302.54,34.43L306.63,35.76L310.71,35.25L314.8,37.62L318.89,34.79L327.07,39.12L331.16,36.05L339.33,43.72L343.42,42.31L347.51,41.33L351.6,47.43L355.69,42.62L359.78,40.66L367.95,42.54L372.04,41.95L376.13,45.81L380.22,44.66L384.31,44.02L388.39,46.87L392.48,45.24L396.57,44.45L400.66,45.72L404.75,48.46L408.84,46.63L412.92,47.03L417.01,44.71L421.1,44.94L429.28,44.73L433.37,46.59L441.54,47.77L445.63,48.37L453.81,52.93L457.9,52L461.98,54.96L466.07,64.3L474.25,57.67L478.34,56.21L482.43,54.78L486.51,55.72L490.6,55.43L494.69,53.9L498.78,54.79L502.87,53.53L506.96,53.1L511.04,55.64L515.13,57.63L519.22,57.01L523.31,53.41L527.4,54.5L531.49,57.61L535.57,63.95L543.75,56.78L547.84,58.95L551.93,57.98L556.02,61.47L560.1,61.5L564.19,70.57L568.28,71.44L572.37,68.8L576.46,68.99L580.55,65.16L584.63,67.86L588.72,68.03L592.81,65.49L596.9,70.65L600.99,66.21L605.08,69.32L609.16,65.39L613.25,64.1L621.43,67.34L625.52,70.39L629.61,71.56L633.69,75.11L637.78,78.85L641.87,73.62L645.96,70.13L650.05,75.88L654.14,71.11L658.22,76.84L662.31,72.95L666.4,75.25L670.49,71.97L674.58,77.95L678.67,71.67L682.76,79.57L686.84,73.39L690.93,74.33L699.11,69.92L703.2,72.84L707.29,71.35L711.37,77.9L715.46,79.38L719.55,79.32L723.64,94.68L727.73,90.12L731.82,91.73L735.9,92.04L744.08,81.5L748.17,88.73L752.26,87.68L756.35,89.69L760.43,91.86L764.52,90.9L768.61,93.06L772.7,86.36L776.79,84.46L780.88,89.94L784.96,86L789.05,88.16L793.14,86.9L797.23,93.03L805.41,89.16L809.49,102.38L813.58,98.41L817.67,104.71L821.76,97.94L825.85,93L829.94,90.37L834.02,101.38L838.11,96.52L842.2,106.69L846.29,106.76L850.38,102.07L854.47,102.62L858.55,110.22L862.64,103L866.73,108.77L870.82,110.45L874.91,105.2L879,108.58L883.08,109.75L887.17,109.7L891.26,115.46L895.35,113.54L899.44,114.5L903.53,119.78L907.61,130.02L915.79,113.81L919.88,113.48L923.97,115.33L928.06,123.07L932.14,124.38L936.23,120.61L940.32,118.35L944.41,118.79L948.5,122.99L952.59,121.98L956.67,121.32L960.76,134.22L968.94,131.65L973.03,127.62L977.12,125.21L981.2,136.38L985.29,133.99L989.38,138.95L993.47,152.86L997.56,153.67L1005.73,144.51L1009.82,156.82L1013.91,152.85L1018,161.89" style="vector-effect: none; fill: none; stroke: rgb(145, 232, 225); stroke-opacity: 1; stroke-width: 2px; opacity: 1;"/></g><g class="points"/><g class="text"/></g></g></g></g><path class="xlines-above crisp" d="M0,0" style="fill: none;"/><path class="ylines-above crisp" d="M0,0" style="fill: none;"/><g class="overlines-above"/><g class="xaxislayer-above"><g class="xtick"><text text-anchor="middle" x="0" y="451" transform="translate(260.33000000000004,0)" style="font-family: 'Lucida Grande', 'Open Sans', verdana, arial, sans-serif; font-size: 10px; fill: rgb(0, 0, 0); fill-opacity: 1; white-space: pre; opacity: 1;">50</text></g><g class="xtick"><text text-anchor="middle" x="0" y="451" style="font-family: 'Lucida Grande', 'Open Sans', verdana, arial, sans-serif; font-size: 10px; fill: rgb(0, 0, 0); fill-opacity: 1; white-space: pre; opacity: 1;" transform="translate(464.75,0)">100</text></g><g class="xtick"><text text-anchor="middle" x="0" y="451" style="font-family: 'Lucida Grande', 'Open Sans', verdana, arial, sans-serif; font-size: 10px; fill: rgb(0, 0, 0); fill-opacity: 1; white-space: pre; opacity: 1;" transform="translate(669.16,0)">150</text></g><g class="xtick"><text text-anchor="middle" x="0" y="451" style="font-family: 'Lucida Grande', 'Open Sans', verdana, arial, sans-serif; font-size: 10px; fill: rgb(0, 0, 0); fill-opacity: 1; white-space: pre; opacity: 1;" transform="translate(873.58,0)">200</text></g><g class="xtick"><text text-anchor="middle" x="0" y="451" style="font-family: 'Lucida Grande', 'Open Sans', verdana, arial, sans-serif; font-size: 10px; fill: rgb(0, 0, 0); fill-opacity: 1; white-space: pre; opacity: 1;" transform="translate(1078,0)">250</text></g></g><g class="yaxislayer-above"><g class="ytick"><text text-anchor="end" x="54" y="3.5" transform="translate(0,435)" style="font-family: 'Lucida Grande', 'Open Sans', verdana, arial, sans-serif; font-size: 10px; fill: rgb(0, 0, 0); fill-opacity: 1; white-space: pre; opacity: 1;">0</text></g><g class="ytick"><text text-anchor="end" x="54" y="3.5" style="font-family: 'Lucida Grande', 'Open Sans', verdana, arial, sans-serif; font-size: 10px; fill: rgb(0, 0, 0); fill-opacity: 1; white-space: pre; opacity: 1;" transform="translate(0,387.81)">5</text></g><g class="ytick"><text text-anchor="end" x="54" y="3.5" style="font-family: 'Lucida Grande', 'Open Sans', verdana, arial, sans-serif; font-size: 10px; fill: rgb(0, 0, 0); fill-opacity: 1; white-space: pre; opacity: 1;" transform="translate(0,340.62)">10</text></g><g class="ytick"><text text-anchor="end" x="54" y="3.5" style="font-family: 'Lucida Grande', 'Open Sans', verdana, arial, sans-serif; font-size: 10px; fill: rgb(0, 0, 0); fill-opacity: 1; white-space: pre; opacity: 1;" transform="translate(0,293.43)">15</text></g><g class="ytick"><text text-anchor="end" x="54" y="3.5" style="font-family: 'Lucida Grande', 'Open Sans', verdana, arial, sans-serif; font-size: 10px; fill: rgb(0, 0, 0); fill-opacity: 1; white-space: pre; opacity: 1;" transform="translate(0,246.24)">20</text></g><g class="ytick"><text text-anchor="end" x="54" y="3.5" style="font-family: 'Lucida Grande', 'Open Sans', verdana, arial, sans-serif; font-size: 10px; fill: rgb(0, 0, 0); fill-opacity: 1; white-space: pre; opacity: 1;" transform="translate(0,199.05)">25</text></g><g class="ytick"><text text-anchor="end" x="54" y="3.5" style="font-family: 'Lucida Grande', 'Open Sans', verdana, arial, sans-serif; font-size: 10px; fill: rgb(0, 0, 0); fill-opacity: 1; white-space: pre; opacity: 1;" transform="translate(0,151.86)">30</text></g><g class="ytick"><text text-anchor="end" x="54" y="3.5" style="font-family: 'Lucida Grande', 'Open Sans', verdana, arial, sans-serif; font-size: 10px; fill: rgb(0, 0, 0); fill-opacity: 1; white-space: pre; opacity: 1;" transform="translate(0,104.66)">35</text></g><g class="ytick"><text text-anchor="end" x="54" y="3.5" style="font-family: 'Lucida Grande', 'Open Sans', verdana, arial, sans-serif; font-size: 10px; fill: rgb(0, 0, 0); fill-opacity: 1; white-space: pre; opacity: 1;" transform="translate(0,57.47)">40</text></g></g><g class="overaxes-above"/></g></g><g class="polarlayer"/><g class="smithlayer"/><g class="ternarylayer"/><g class="geolayer"/><g class="funnelarealayer"/><g class="pielayer"/><g class="iciclelayer"/><g class="treemaplayer"/><g class="sunburstlayer"/><g class="glimages"/><defs id="topdefs-8ada51"><g class="clips"/></defs><g class="layer-above"><g class="imagelayer"/><g class="shapelayer"/></g><g class="infolayer"><g class="g-gtitle"><text class="gtitle" x="550" y="25" text-anchor="middle" dy="0em" style="opacity: 1; font-family: 'Lucida Grande', 'Open Sans', verdana, arial, sans-serif; font-size: 20px; fill: rgb(42, 63, 95); fill-opacity: 1; white-space: pre;"><tspan class="line" dy="0em" x="550" y="25">Fastp: Sequence Quality</tspan><tspan class="line" dy="1.3em" x="550" y="25">​<tspan style="font-size:70%" dy="-0.6em">Read 1: Before filtering, 10 samples</tspan><tspan dy="0.42em">​</tspan></tspan></text></g><g class="g-xtitle"><text class="xtitle" x="569" y="472.3" text-anchor="middle" style="opacity: 0.3; font-family: 'Lucida Grande', 'Open Sans', verdana, arial, sans-serif; font-size: 14px; fill: rgb(0, 0, 0); fill-opacity: 1; white-space: pre;">Read Position</text></g><g class="g-ytitle"><text class="ytitle" transform="rotate(-90,26.865625,242.5)" x="26.865625" y="242.5" text-anchor="middle" style="opacity: 0.3; font-family: 'Lucida Grande', 'Open Sans', verdana, arial, sans-serif; font-size: 14px; fill: rgb(0, 0, 0); fill-opacity: 1; white-space: pre;">R1 Before filtering: Sequence Quality</text></g></g></svg>