<svg class="main-svg" xmlns="http://www.w3.org/2000/svg" xmlns:xlink="http://www.w3.org/1999/xlink" width="2200" height="1000" style="" viewBox="0 0 1100 500"><rect x="0" y="0" width="1100" height="500" style="fill: rgb(255, 255, 255); fill-opacity: 1;"/><defs id="defs-e5868b"><g class="clips"><clipPath id="clipe5868bxyplot" class="plotclip"><rect width="1018" height="385"/></clipPath><clipPath class="axesclip" id="clipe5868bx"><rect x="60" y="0" width="1018" height="500"/></clipPath><clipPath class="axesclip" id="clipe5868by"><rect x="0" y="50" width="1100" height="385"/></clipPath><clipPath class="axesclip" id="clipe5868bxy"><rect x="60" y="50" width="1018" height="385"/></clipPath></g><g class="gradients"/><g class="patterns"/></defs><g class="bglayer"/><g class="layer-below"><g class="imagelayer"/><g class="shapelayer"/></g><g class="cartesianlayer"><g class="subplot xy"><g class="layer-subplot"><g class="shapelayer"/><g class="imagelayer"/></g><g class="minor-gridlayer"><g class="x"/><g class="y"/></g><g class="gridlayer"><g class="x"><path class="xgrid crisp" transform="translate(260.33000000000004,0)" d="M0,50v385" style="stroke: rgb(0, 0, 0); stroke-opacity: 0.05; stroke-width: 1px;"/><path class="xgrid crisp" transform="translate(464.75,0)" d="M0,50v385" style="stroke: rgb(0, 0, 0); stroke-opacity: 0.05; stroke-width: 1px;"/><path class="xgrid crisp" transform="translate(669.16,0)" d="M0,50v385" style="stroke: rgb(0, 0, 0); stroke-opacity: 0.05; stroke-width: 1px;"/><path class="xgrid crisp" transform="translate(873.58,0)" d="M0,50v385" style="stroke: rgb(0, 0, 0); stroke-opacity: 0.05; stroke-width: 1px;"/></g><g class="y"><path class="ygrid crisp" transform="translate(0,385.91)" d="M60,0h1018" style="stroke: rgb(0, 0, 0); stroke-opacity: 0.05; stroke-width: 1px;"/><path class="ygrid crisp" transform="translate(0,336.82)" d="M60,0h1018" style="stroke: rgb(0, 0, 0); stroke-opacity: 0.05; stroke-width: 1px;"/><path class="ygrid crisp" transform="translate(0,287.73)" d="M60,0h1018" style="stroke: rgb(0, 0, 0); stroke-opacity: 0.05; stroke-width: 1px;"/><path class="ygrid crisp" transform="translate(0,238.65)" d="M60,0h1018" style="stroke: rgb(0, 0, 0); stroke-opacity: 0.05; stroke-width: 1px;"/><path class="ygrid crisp" transform="translate(0,189.56)" d="M60,0h1018" style="stroke: rgb(0, 0, 0); stroke-opacity: 0.05; stroke-width: 1px;"/><path class="ygrid crisp" transform="translate(0,140.47)" d="M60,0h1018" style="stroke: rgb(0, 0, 0); stroke-opacity: 0.05; stroke-width: 1px;"/><path class="ygrid crisp" transform="translate(0,91.38)" d="M60,0h1018" style="stroke: rgb(0, 0, 0); stroke-opacity: 0.05; stroke-width: 1px;"/></g></g><g class="zerolinelayer"><path class="yzl zl crisp" transform="translate(0,435)" d="M60,0h1018" style="stroke: rgb(0, 0, 0); stroke-opacity: 0.05; stroke-width: 2px;"/></g><g class="layer-between"><g class="shapelayer"/><g class="imagelayer"/></g><path class="xlines-below"/><path class="ylines-below"/><g class="overlines-below"/><g class="xaxislayer-below"/><g class="yaxislayer-below"/><g class="overaxes-below"/><g class="overplot"><g class="xy" transform="translate(60,50)" clip-path="url(#clipe5868bxyplot)"><g class="scatterlayer mlayer"><g class="trace scatter trace6d38f6" style="stroke-miterlimit: 2; opacity: 1;"><g class="fills"/><g class="errorbars"/><g class="lines"><path class="js-line" d="M0,140.83L4.09,120.6L8.18,118.45L12.27,111.9L16.35,103.85L20.44,86.19L24.53,75.36L28.62,76.61L32.71,62.4L36.8,61.13L40.88,61.1L44.97,64.6L49.06,65.05L53.15,77.78L57.24,71.49L61.33,65.99L65.41,46.09L69.5,45.74L73.59,35.55L77.68,31.48L81.77,33.3L85.86,34.09L89.94,21.59L94.03,23.08L98.12,27.06L102.21,27.35L106.3,38.35L110.39,38.32L114.47,32.42L118.56,29.62L122.65,32.32L126.74,23.57L130.83,39.28L134.92,40.83L139,31.61L143.09,22.69L147.18,21.22L151.27,24.75L155.36,24.06L159.45,20.19L163.53,19.25L167.62,28.44L171.71,31.51L175.8,26.05L179.89,29.39L183.98,32.56L188.06,39.71L192.15,40.53L196.24,45.85L200.33,28.94L204.42,29.22L208.51,29.11L212.59,35.63L216.68,29.23L220.77,45.97L224.86,33.43L228.95,30.16L237.12,36.49L241.21,37.73L245.3,57.56L249.39,33.28L253.48,29.11L257.57,30.16L261.65,29.98L265.74,38.88L269.83,34.87L273.92,34.75L278.01,30.64L282.1,30.82L290.27,40.92L294.36,35.29L298.45,30.29L302.54,30L306.63,32.38L310.71,29.58L314.8,40.95L318.89,37.92L322.98,32.69L327.07,29.65L331.16,42.59L335.24,35.53L339.33,34.17L343.42,36.09L347.51,31.78L351.6,31.34L355.69,44.82L359.78,39.54L367.95,42.84L372.04,41.82L376.13,43.45L380.22,43.8L384.31,41.3L388.39,41.06L392.48,42.34L396.57,41.47L400.66,46.07L404.75,48.95L408.84,44.73L412.92,45.83L417.01,49.99L421.1,51.05L425.19,50.43L429.28,59.76L433.37,67.41L437.45,52.25L441.54,49.16L445.63,66.63L449.72,65.21L453.81,68.32L457.9,82.67L461.98,73.36L466.07,63.92L470.16,85.21L474.25,78.54L478.34,64.89L482.43,64L486.51,72.76L490.6,64.14L494.69,64.53L498.78,81.34L502.87,73.02L506.96,71.85L511.04,76.52L515.13,84.46L519.22,83.46L523.31,78.93L527.4,76.42L531.49,78.89L535.57,90.7L539.66,86.01L543.75,86.58L547.84,85.19L551.93,95.95L556.02,109.27L560.1,90.45L564.19,105.92L568.28,101.24L572.37,92.18L576.46,103.45L580.55,127.11L584.63,103.26L588.72,112.85L592.81,105.5L596.9,121.04L600.99,121.89L605.08,127.13L609.16,121.08L613.25,142.16L617.34,136.59L621.43,128.27L625.52,137.44L629.61,136.08L633.69,137.45L637.78,139.12L641.87,134.18L650.05,141.93L654.14,149.14L658.22,154.94L662.31,147.97L666.4,151.06L670.49,166.85L674.58,161.78L678.67,155.41L682.76,169.72L686.84,161.65L690.93,159.13L695.02,160.7L699.11,166.84L703.2,159.78L707.29,166.88L711.37,171.05L715.46,165.11L719.55,167.97L723.64,175.38L727.73,173.56L731.82,177.42L735.9,179.36L739.99,188.38L744.08,186.19L748.17,188.26L752.26,197.48L756.35,190.12L760.43,196.57L764.52,188.91L768.61,189.55L772.7,203.3L776.79,206.93L784.96,202.03L789.05,206.91L793.14,204.88L797.23,200.48L801.32,208.38L805.41,208.33L809.49,211.92L813.58,226.62L817.67,233.43L821.76,229.6L825.85,231.73L829.94,223.75L834.02,229.17L838.11,225.75L842.2,219.7L846.29,233.28L850.38,232.76L854.47,233.68L858.55,245.37L862.64,244.6L866.73,239.9L870.82,257.86L874.91,257.76L879,256.45L883.08,263.17L887.17,275.46L891.26,269.47L895.35,269.77L899.44,272.69L903.53,272.59L907.61,281.39L911.7,282.25L915.79,276.75L919.88,284.04L923.97,286.18L928.06,283.71L932.14,290.01L936.23,288.87L940.32,291.78L944.41,298.1L948.5,295.05L952.59,297.33L960.76,309.46L964.85,305.6L968.94,309.04L973.03,313.61L977.12,310.67L981.2,311.63L985.29,317.12L989.38,318.53L993.47,318.4L997.56,327.92L1001.65,327.74L1005.73,330.87L1009.82,333.73L1013.91,338.08L1018,342.69" style="vector-effect: none; fill: none; stroke: rgb(124, 181, 236); stroke-opacity: 1; stroke-width: 2px; opacity: 1;"/></g><g class="points"/><g class="text"/></g><g class="trace scatter tracee77163" style="stroke-miterlimit: 2; opacity: 1;"><g class="fills"/><g class="errorbars"/><g class="lines"><path class="js-line" d="M0,189.13L4.09,184.95L8.18,152.77L16.35,134.13L20.44,107.31L24.53,92.94L28.62,91.72L32.71,78.09L36.8,74.77L40.88,74.87L44.97,81.2L49.06,79.47L53.15,93.15L57.24,88.88L61.33,81.5L65.41,57.83L69.5,59.82L73.59,45.05L77.68,39.89L81.77,41.31L85.86,45.61L89.94,38.25L94.03,38.75L98.12,45.44L102.21,43.28L106.3,53.99L110.39,56.23L114.47,48.55L118.56,44.63L122.65,46.43L126.74,34.45L130.83,55.64L134.92,56.23L143.09,34.8L147.18,32.31L151.27,38.06L155.36,37.73L159.45,30.36L163.53,28.75L167.62,41.23L171.71,46.85L175.8,41.15L179.89,45.71L183.98,49.69L188.06,56.27L196.24,63.94L200.33,40.19L204.42,41.17L208.51,40.89L212.59,47.82L216.68,42.63L220.77,61.64L224.86,48.05L228.95,44.69L233.04,47.6L237.12,51.62L241.21,50.55L245.3,75.44L249.39,44.75L253.48,39.38L257.57,43.05L261.65,45.31L265.74,54.12L269.83,51.38L273.92,50.23L278.01,46.28L282.1,47.45L286.18,51.3L290.27,56.96L294.36,51.2L298.45,43.93L302.54,44.82L306.63,50.22L310.71,47.07L314.8,59.17L318.89,56.46L322.98,49.66L327.07,44.42L331.16,61.17L335.24,51.39L339.33,49.23L343.42,52.75L347.51,46.82L351.6,46.63L355.69,64.53L359.78,58.53L363.86,60.53L367.95,62.71L372.04,61L380.22,63.13L384.31,60.32L388.39,59.96L392.48,62.33L396.57,61.01L400.66,65.87L404.75,70.12L408.84,65.82L412.92,66.04L417.01,70.89L421.1,72.99L425.19,70.97L433.37,95.38L437.45,77.75L441.54,72.28L445.63,90.77L449.72,88.84L453.81,89.52L457.9,112.65L461.98,100.34L466.07,85.97L470.16,114.38L474.25,108.64L478.34,89.95L482.43,87.94L486.51,99.12L490.6,87.83L494.69,89.58L498.78,108.93L502.87,101.65L506.96,102.31L511.04,106.4L515.13,115.42L519.22,116.7L523.31,111.75L527.4,111.95L531.49,118.1L535.57,129.24L539.66,123.19L543.75,125.11L547.84,124.88L551.93,139.21L556.02,148.93L560.1,132.73L564.19,150.05L568.28,147.34L572.37,140.61L576.46,148.41L580.55,172.51L584.63,150.93L588.72,162.75L592.81,156.64L596.9,166.7L600.99,169.18L605.08,174.07L609.16,170.13L613.25,187.48L617.34,184.27L621.43,175.83L625.52,185.8L629.61,185.95L633.69,187.08L637.78,187.55L641.87,185.23L645.96,190.77L650.05,193.46L658.22,206.59L662.31,202.3L666.4,204.57L670.49,217.77L674.58,215.75L678.67,210.44L682.76,220.6L686.84,216.02L690.93,213.88L695.02,215.55L699.11,220.77L703.2,215.6L711.37,226.5L715.46,223.51L719.55,226.27L723.64,232.31L727.73,231.51L731.82,235.9L735.9,237.61L739.99,243.68L744.08,242.03L748.17,246.5L752.26,252.71L756.35,248.86L760.43,252.58L764.52,248.72L768.61,250.03L772.7,259.99L776.79,264.77L780.88,263.62L784.96,261.98L789.05,265.46L793.14,266.1L797.23,265.73L801.32,272.2L805.41,270.74L809.49,272.96L813.58,284.34L817.67,288.86L821.76,287L825.85,287.31L829.94,283.18L834.02,285.84L838.11,285.11L842.2,282.41L846.29,289.86L854.47,292.86L858.55,299.25L862.64,300L866.73,298.72L870.82,308.27L874.91,309.75L879,309.84L883.08,313.96L887.17,319.57L891.26,316.77L895.35,317.58L899.44,319.88L903.53,319.92L907.61,324.86L911.7,326.1L915.79,324.35L923.97,328.78L928.06,327.96L932.14,330.47L936.23,330.61L940.32,332.29L944.41,335.35L948.5,334.71L952.59,335.79L956.67,339.24L960.76,341.65L964.85,340.47L968.94,342.05L973.03,344.28L977.12,343.44L981.2,343.79L985.29,346.31L993.47,347.71L997.56,351.21L1005.73,352.88L1009.82,354.17L1018,357.59" style="vector-effect: none; fill: none; stroke: rgb(67, 67, 72); stroke-opacity: 1; stroke-width: 2px; opacity: 1;"/></g><g class="points"/><g class="text"/></g><g class="trace scatter trace161baf" style="stroke-miterlimit: 2; opacity: 1;"><g class="fills"/><g class="errorbars"/><g class="lines"><path class="js-line" d="M0,186.35L4.09,178.04L8.18,134.5L12.27,129.66L16.35,114.15L24.53,86.84L28.62,90.14L32.71,75.13L36.8,71.33L40.88,72.76L44.97,79.32L49.06,76.39L53.15,90.14L57.24,84.54L61.33,77.45L65.41,55.29L69.5,57.04L73.59,43.54L77.68,37.89L81.77,39.03L85.86,42.58L89.94,34.85L94.03,34.7L98.12,41.39L102.21,39.73L106.3,50.66L110.39,51.07L114.47,45.27L118.56,41.31L122.65,44.71L126.74,31.69L130.83,53.81L134.92,55.95L143.09,32.25L147.18,29.69L151.27,35.4L155.36,35.1L159.45,28.49L163.53,26.7L167.62,37.79L171.71,43.12L175.8,37.05L179.89,41.84L183.98,45.8L188.06,51.79L192.15,55.16L196.24,59.94L200.33,37.38L204.42,38.24L208.51,37.98L212.59,45.62L216.68,39.34L220.77,58.42L224.86,44.68L228.95,41.13L233.04,43.37L237.12,47.74L241.21,47.65L245.3,72.41L249.39,42.17L253.48,36.75L257.57,40.21L261.65,41.62L265.74,50.69L269.83,47.77L273.92,46.72L278.01,42.46L282.1,42.89L286.18,47.44L290.27,52.25L294.36,47.01L298.45,40.32L302.54,41.07L306.63,45.81L310.71,42.68L314.8,54.44L318.89,51.72L327.07,40.48L331.16,57.01L335.24,47.11L339.33,45.51L343.42,48.22L347.51,42.89L351.6,42.45L355.69,59.87L359.78,53.51L363.86,55.52L367.95,58.51L372.04,56.95L380.22,58.43L384.31,55.91L388.39,55.33L392.48,57.1L396.57,55.71L400.66,60.47L404.75,64.6L408.84,59.73L412.92,61.34L417.01,65.55L421.1,67.92L425.19,65.84L433.37,88.44L437.45,71.24L441.54,66.29L445.63,84.89L449.72,82.7L453.81,84.21L457.9,105.77L461.98,93.68L466.07,80.49L470.16,107.97L474.25,100.36L478.34,82.9L482.43,81.21L486.51,91.96L490.6,81.09L494.69,82.96L498.78,102.73L502.87,94.43L506.96,94.09L511.04,98.04L515.13,106.46L519.22,107.55L523.31,103.39L527.4,102.78L531.49,107.73L535.57,119.71L539.66,114L543.75,115.51L547.84,114.73L551.93,129.19L556.02,138.4L560.1,121.39L564.19,138.21L568.28,134.84L572.37,127.99L576.46,136.9L580.55,160.59L584.63,138.22L588.72,149.89L592.81,143.26L596.9,155.72L600.99,157.03L605.08,162.17L609.16,156.63L613.25,177.57L617.34,173.56L621.43,165.18L625.52,174.4L629.61,174.11L633.69,175.75L637.78,176.43L641.87,172.85L645.96,178.64L650.05,180.94L658.22,193.29L662.31,188.93L666.4,191.88L670.49,206.81L674.58,203.06L678.67,197.52L682.76,209.1L686.84,203.25L690.93,201.08L695.02,202.7L699.11,208.98L703.2,202.71L707.29,209.43L711.37,213.84L715.46,209.95L719.55,212.4L723.64,219.05L727.73,218.03L731.82,222.33L735.9,224.02L739.99,230.75L744.08,228.98L748.17,232.8L752.26,240.02L756.35,234.37L760.43,238.78L764.52,234.12L768.61,235.22L772.7,247L776.79,251.27L784.96,247.89L789.05,251.81L793.14,251.95L797.23,250.23L801.32,256.8L805.41,255.83L809.49,259.01L813.58,271.66L817.67,276.55L821.76,274.03L825.85,274.98L829.94,269.84L834.02,272.72L838.11,271.44L842.2,267.75L846.29,276.88L850.38,278.65L854.47,279.48L858.55,287.17L862.64,287.36L866.73,285.14L870.82,296.85L874.91,298.44L879,297.87L883.08,302.2L887.17,309.86L891.26,306.43L895.35,307.09L899.44,309.64L903.53,309.96L907.61,315.55L911.7,316.64L915.79,314L919.88,317.26L923.97,319.55L928.06,318.53L932.14,321.77L936.23,321.88L940.32,323.97L944.41,327.74L948.5,326.59L952.59,328.04L960.76,335.38L964.85,333.79L973.03,338.58L977.12,337.24L981.2,337.74L985.29,340.81L993.47,342.14L997.56,346.86L1001.65,347.17L1005.73,348.82L1013.91,352.79L1018,355.03" style="vector-effect: none; fill: none; stroke: rgb(144, 237, 125); stroke-opacity: 1; stroke-width: 2px; opacity: 1;"/></g><g class="points"/><g class="text"/></g><g class="trace scatter trace4144da" style="stroke-miterlimit: 2; opacity: 1;"><g class="fills"/><g class="errorbars"/><g class="lines"><path class="js-line" d="M0,109.22L4.09,117.32L8.18,115.3L12.27,107.62L16.35,110.53L24.53,81.08L28.62,78.08L32.71,63.44L36.8,63.39L40.88,65.35L44.97,66.16L49.06,64.62L53.15,79.53L57.24,72.76L61.33,67.8L65.41,50.2L69.5,47.7L73.59,44.82L77.68,40.87L85.86,39.93L89.94,32.24L94.03,31.44L98.12,39.51L102.21,36.17L106.3,39.19L110.39,35.32L114.47,39.87L118.56,36.4L122.65,34.46L126.74,36.08L130.83,43.08L134.92,38.69L139,36.76L143.09,34.63L147.18,38.6L151.27,41.65L155.36,37.26L159.45,36.62L163.53,41.17L167.62,42.41L171.71,39.65L175.8,38.59L179.89,35.73L188.06,35.89L192.15,38.7L196.24,44.12L200.33,54.1L204.42,42.47L208.51,41.61L212.59,44.67L216.68,42.75L220.77,47.64L224.86,48.39L228.95,41.55L233.04,41.53L237.12,42.76L241.21,39.65L245.3,43.28L249.39,49.18L253.48,45.98L257.57,40.78L261.65,44.5L265.74,42.07L269.83,40.59L273.92,42.36L278.01,40.92L282.1,43.49L286.18,46.49L290.27,51.29L294.36,52.38L298.45,54.99L302.54,47.24L306.63,55.98L310.71,52.17L314.8,49.59L318.89,53.48L322.98,52.3L327.07,56.01L331.16,58.33L335.24,54.49L339.33,54.99L343.42,54.86L347.51,56.02L351.6,58.29L355.69,63.89L359.78,65.03L363.86,67.08L367.95,63.73L372.04,64.84L376.13,70.26L380.22,73.22L384.31,70.58L388.39,73.98L392.48,71.18L396.57,75.12L400.66,70.75L404.75,72.78L408.84,88.23L412.92,86.58L421.1,82.97L425.19,85.32L429.28,86.97L433.37,85.41L437.45,81.67L441.54,87.22L449.72,94.58L453.81,93.59L457.9,94.06L461.98,87.89L466.07,91.98L470.16,91.84L474.25,90.32L478.34,86.62L482.43,89.63L486.51,88.8L490.6,90.35L494.69,99.24L498.78,99.26L502.87,95.64L511.04,96.78L515.13,102.73L519.22,106.77L523.31,106.22L527.4,102.69L531.49,102.15L535.57,104.41L539.66,112.1L547.84,110.5L551.93,106.33L556.02,112.92L560.1,113.15L564.19,124.35L568.28,121.62L572.37,122.24L576.46,124.35L580.55,136.92L584.63,125L588.72,126.2L592.81,129.73L596.9,153.16L600.99,149.7L605.08,147.97L609.16,144.8L613.25,146.88L617.34,150.57L621.43,147.68L625.52,141.88L629.61,139.68L633.69,140.1L637.78,152.72L641.87,148L645.96,149.85L650.05,145.02L654.14,148.63L658.22,150.91L662.31,148.31L666.4,147.31L670.49,154.64L674.58,148.84L678.67,153.25L682.76,165.51L686.84,166.03L690.93,167.97L695.02,171.73L699.11,170.47L703.2,170.77L707.29,167.62L711.37,167.67L715.46,169.6L719.55,177.48L723.64,177.3L727.73,180.29L731.82,179.08L735.9,185.65L739.99,185.59L744.08,189.46L748.17,185.59L752.26,188.56L756.35,187.4L760.43,194.48L764.52,194.95L768.61,194.67L772.7,198.63L776.79,201.96L780.88,200.1L784.96,206.14L789.05,206.37L793.14,214.65L797.23,212.46L805.41,214.75L809.49,213.58L813.58,226.4L817.67,225.53L834.02,223.59L838.11,226.45L842.2,225.76L846.29,232.06L850.38,228.58L854.47,230.33L858.55,237.32L862.64,234.95L870.82,242.58L874.91,249.41L879,250.94L883.08,255.3L887.17,257.02L891.26,260.72L895.35,259.1L899.44,261.24L903.53,259.38L907.61,266.2L911.7,270.49L915.79,270.55L919.88,271.45L923.97,271.36L932.14,276.69L936.23,282.88L940.32,286.02L944.41,287.07L948.5,291.87L952.59,291.06L956.67,292.07L960.76,294.71L964.85,295.1L968.94,300.13L973.03,302.5L977.12,301.16L981.2,302.88L985.29,307.17L989.38,308.1L993.47,311.62L1005.73,317.91L1009.82,320.77L1013.91,324.12L1018,330.12" style="vector-effect: none; fill: none; stroke: rgb(247, 163, 92); stroke-opacity: 1; stroke-width: 2px; opacity: 1;"/></g><g class="points"/><g class="text"/></g><g class="trace scatter tracef7588c" style="stroke-miterlimit: 2; opacity: 1;"><g class="fills"/><g class="errorbars"/><g class="lines"><path class="js-line" d="M0,134.88L4.09,111.68L8.18,125.95L12.27,114.89L16.35,132.43L20.44,102.97L24.53,89.47L28.62,86.73L32.71,80.73L36.8,80.79L40.88,72.93L44.97,76.98L49.06,76.69L53.15,96.66L57.24,93.81L61.33,85.27L65.41,72.78L69.5,70.87L73.59,63.39L77.68,50.55L81.77,49.9L85.86,53.13L89.94,51.52L94.03,45.17L98.12,47.06L102.21,46.08L106.3,56.51L114.47,50.89L118.56,44.42L122.65,41.99L126.74,41.91L130.83,46.17L134.92,38.15L139,37.32L143.09,37.61L147.18,37.12L151.27,34.32L155.36,30.09L159.45,28.65L163.53,29.09L167.62,34.04L171.71,42.42L175.8,40.73L179.89,38.62L183.98,50.56L188.06,47.65L192.15,49.88L196.24,57.32L200.33,37.45L204.42,42.35L208.51,38.24L212.59,51.52L216.68,40.06L220.77,51.46L224.86,44.94L228.95,41.64L233.04,40.72L237.12,50.2L241.21,42.19L245.3,46.64L249.39,38.28L253.48,32.08L257.57,31.9L261.65,35.32L265.74,52.8L269.83,47.45L273.92,48.34L278.01,45.55L282.1,46.32L286.18,49.31L290.27,47.73L294.36,44.33L298.45,38.36L302.54,37.19L306.63,41.32L310.71,40.14L314.8,54.48L318.89,60.43L322.98,52.63L327.07,47.74L331.16,52.44L335.24,44.59L339.33,41.97L343.42,45.85L347.51,39.76L351.6,43.38L355.69,50.71L359.78,51.05L363.86,55.06L367.95,54.5L372.04,55.95L376.13,59.19L380.22,58.92L384.31,58.28L388.39,60.63L396.57,57.36L400.66,64.02L404.75,59.5L408.84,59.05L412.92,56.81L417.01,66.3L421.1,61.72L425.19,61.54L429.28,62.63L433.37,72.2L437.45,69.28L441.54,67.55L445.63,72.1L449.72,70.51L453.81,68.52L457.9,82.53L461.98,84.54L466.07,80.7L470.16,93.72L474.25,91.4L478.34,80.15L482.43,82.43L486.51,86.61L490.6,82.97L494.69,88.26L498.78,101.39L502.87,90.04L506.96,86.88L511.04,95.89L515.13,102.24L519.22,98.45L523.31,101.37L527.4,101.52L531.49,113.43L535.57,119.8L539.66,113.63L543.75,110.79L547.84,110.69L551.93,110.57L556.02,122.57L560.1,115.23L564.19,119.62L572.37,120.84L576.46,128.02L580.55,156.53L584.63,135.55L588.72,145.65L592.81,133.47L596.9,142.79L600.99,149.4L605.08,156.64L609.16,153.94L613.25,165.93L617.34,156.3L621.43,155.79L625.52,163.97L629.61,162.81L633.69,167.1L637.78,169.69L641.87,167.15L645.96,162.92L650.05,164.63L654.14,172.24L658.22,171.7L662.31,171.79L666.4,177.21L670.49,188.27L674.58,184.9L678.67,186.02L682.76,198.39L686.84,190.12L690.93,189.87L695.02,192.32L699.11,191.22L703.2,190.8L707.29,194.5L711.37,196.07L715.46,192.49L723.64,202.84L727.73,198.96L731.82,201.31L735.9,200.44L739.99,210.73L744.08,210.79L748.17,213.48L752.26,218.46L756.35,213.46L760.43,222.41L764.52,213.28L768.61,216.6L772.7,228.36L776.79,229.61L780.88,227.53L784.96,221.35L789.05,223.28L793.14,228.65L797.23,230.1L801.32,233.33L805.41,235.49L809.49,236.57L813.58,245.97L817.67,249.84L825.85,249.33L829.94,244.57L834.02,242.78L838.11,241.96L842.2,241.61L846.29,245.58L854.47,248.52L858.55,252.74L862.64,254.75L866.73,253.83L874.91,268.56L879,270.53L883.08,273.68L887.17,281.56L891.26,279.76L895.35,279.4L903.53,283.74L907.61,284.43L911.7,287.03L915.79,285.68L928.06,290.23L932.14,298.68L936.23,298.75L940.32,302.89L944.41,302.62L948.5,300.73L952.59,302.53L956.67,306.42L960.76,311.9L964.85,312.56L968.94,316.1L973.03,316.51L981.2,316.43L985.29,319.19L993.47,323.77L997.56,328.44L1001.65,330.83L1005.73,334.44L1009.82,335.28L1013.91,337.8L1018,341.61" style="vector-effect: none; fill: none; stroke: rgb(128, 133, 233); stroke-opacity: 1; stroke-width: 2px; opacity: 1;"/></g><g class="points"/><g class="text"/></g><g class="trace scatter tracecbdcb7" style="stroke-miterlimit: 2; opacity: 1;"><g class="fills"/><g class="errorbars"/><g class="lines"><path class="js-line" d="M0,139.24L4.09,129.78L8.18,153.43L12.27,120.31L16.35,134.93L20.44,115.65L24.53,107.66L28.62,104.66L32.71,90.81L36.8,92.01L40.88,83.81L44.97,90.09L49.06,89.99L53.15,115.61L57.24,111.79L61.33,102.59L65.41,98.21L73.59,81.35L77.68,66.73L81.77,63.03L85.86,71.45L89.94,75.53L94.03,64.67L98.12,68.39L102.21,66.56L106.3,77.58L110.39,74.66L114.47,71.28L118.56,63.08L122.65,59.88L126.74,59.75L130.83,66.12L134.92,56.44L139,54.84L143.09,54.46L147.18,54.45L151.27,51.3L155.36,44.94L159.45,42.94L163.53,42.6L167.62,49.34L171.71,60.88L175.8,59.45L179.89,55.57L183.98,71.29L188.06,66.23L192.15,69.26L196.24,77.74L200.33,52.43L204.42,60.55L208.51,54.54L212.59,73.3L216.68,57.44L220.77,74.02L224.86,64.24L228.95,59.55L233.04,58.64L237.12,71.98L241.21,60.69L245.3,64.97L249.39,55.69L253.48,45.92L257.57,46.69L261.65,52.45L265.74,73.67L269.83,67.75L273.92,67.87L278.01,64.78L282.1,66.81L286.18,70.59L290.27,68.63L294.36,64.91L298.45,57.22L302.54,54.8L306.63,62.48L310.71,62.26L314.8,76.17L318.89,84.49L322.98,74.26L327.07,69.38L331.16,74.76L335.24,65.14L339.33,60.3L343.42,65.97L347.51,58.19L351.6,63.26L355.69,73.88L359.78,73.4L363.86,77.71L372.04,79.58L376.13,82.99L380.22,81.79L384.31,82.27L388.39,84.91L392.48,83.4L396.57,82.16L400.66,88.83L404.75,84.73L408.84,83.92L412.92,81.46L417.01,92.35L421.1,88.26L425.19,85.87L429.28,87.93L433.37,102.78L437.45,102.16L441.54,96.48L445.63,101.73L449.72,99.93L453.81,96.04L457.9,115.31L461.98,114.84L466.07,109.97L470.16,125.85L474.25,123.66L478.34,112.02L482.43,113.94L486.51,119.12L490.6,116.8L494.69,121.77L498.78,135.1L502.87,124.3L506.96,122.42L511.04,131.52L515.13,136.88L519.22,134.52L523.31,139.98L527.4,143.23L531.49,160.77L535.57,163.48L539.66,155.05L543.75,152.66L547.84,152.94L551.93,155.85L556.02,167.09L560.1,161.04L564.19,165.48L568.28,168.23L572.37,173.44L576.46,178.79L580.55,202.84L584.63,187.07L588.72,197.72L592.81,187.01L596.9,194.86L600.99,200.81L605.08,208.62L609.16,206.47L613.25,214.85L617.34,206.74L621.43,205.44L625.52,213.46L629.61,212.98L633.69,216.89L637.78,217.77L645.96,215.21L650.05,217.13L654.14,223.79L658.22,224.69L662.31,226.1L666.4,228.73L670.49,237.27L674.58,237.36L678.67,237.64L682.76,247.76L686.84,242.6L690.93,241.59L695.02,244.43L699.11,243.5L703.2,242.84L707.29,246.57L711.37,248.97L715.46,247.31L723.64,255.63L727.73,253.34L731.82,255.29L735.9,254.91L739.99,262.98L744.08,263.31L748.17,266.02L752.26,269.7L756.35,266.75L760.43,273.94L764.52,268.33L768.61,270.4L772.7,278.87L776.79,281.05L780.88,279.36L784.96,275.55L789.05,276.9L793.14,280.83L801.32,285.95L805.41,286.71L809.49,287.57L813.58,294.81L817.67,297.31L821.76,297.38L825.85,297.54L829.94,295.01L834.02,293.46L838.11,293.73L842.2,294.04L846.29,296.93L862.64,303.98L866.73,304.35L874.91,313.65L879,315.69L883.08,317.85L887.17,321.62L891.26,320.56L895.35,320.8L911.7,325.76L915.79,325.8L919.88,326.39L923.97,327.77L928.06,328.99L932.14,333.06L936.23,333.54L940.32,335.58L944.41,335.72L948.5,335.1L952.59,336.29L956.67,338.71L960.76,341.35L964.85,341.88L968.94,343.56L973.03,343.69L981.2,344.04L985.29,345.45L993.47,348.03L997.56,350.03L1009.82,353.72L1013.91,354.79L1018,356.4" style="vector-effect: none; fill: none; stroke: rgb(241, 92, 128); stroke-opacity: 1; stroke-width: 2px; opacity: 1;"/></g><g class="points"/><g class="text"/></g><g class="trace scatter trace59e06f" style="stroke-miterlimit: 2; opacity: 1;"><g class="fills"/><g class="errorbars"/><g class="lines"><path class="js-line" d="M0,153.17L4.09,122.8L8.18,149.41L12.27,138.82L16.35,169.48L20.44,121.64L24.53,116.96L32.71,87.59L36.8,95.21L40.88,85.51L44.97,90.29L49.06,91.04L53.15,113.95L57.24,114.66L61.33,102.69L65.41,96.36L69.5,94.44L73.59,83.96L77.68,66.62L81.77,61.6L85.86,68.83L89.94,75.8L94.03,62.19L98.12,66.7L102.21,63.14L106.3,75.93L110.39,74.39L114.47,69.58L118.56,61.64L122.65,58.3L126.74,56.35L130.83,67.14L134.92,56.31L139,51.85L143.09,54.03L147.18,53.42L151.27,51.68L155.36,43.65L159.45,41.28L163.53,42.41L167.62,48.2L171.71,62.35L175.8,58.52L179.89,55.23L183.98,69.05L188.06,63.45L192.15,67.66L196.24,74.8L200.33,50.34L204.42,57.46L208.51,52.06L212.59,68.11L216.68,55.32L220.77,70.43L224.86,61.36L228.95,57.21L233.04,55.65L237.12,67.14L241.21,57.6L245.3,62.66L249.39,52.57L253.48,43.54L257.57,43.44L261.65,49.7L265.74,70.06L269.83,64.91L273.92,65.69L278.01,62.59L282.1,64.58L286.18,66.4L290.27,63.9L294.36,60.34L298.45,53.03L302.54,50.98L306.63,58.28L310.71,57.5L314.8,72.87L318.89,80.09L322.98,70.07L327.07,64.54L331.16,69.93L335.24,60.25L339.33,56.87L343.42,61.43L347.51,54.52L351.6,59.18L355.69,70.27L359.78,70.3L363.86,73.96L376.13,78.07L380.22,78.32L388.39,80.35L392.48,79.59L396.57,78L400.66,84.39L404.75,80.4L408.84,79.54L412.92,77.68L417.01,88.01L421.1,84.05L425.19,81.79L429.28,84.03L433.37,99.12L437.45,96.43L441.54,91.46L445.63,94.46L449.72,92.28L453.81,88.83L457.9,109.64L461.98,109.47L466.07,103.91L470.16,121.38L474.25,118.85L478.34,104.6L482.43,105.33L486.51,110.52L490.6,107.44L494.69,114.21L498.78,128.61L502.87,117.3L506.96,114.88L511.04,123.87L515.13,129.56L519.22,128.11L523.31,133.78L527.4,135.98L531.49,153.17L535.57,156.94L539.66,148.12L543.75,145.54L547.84,145.77L551.93,149.02L556.02,160.07L560.1,153.74L564.19,156.47L568.28,160.34L572.37,165.72L576.46,170.88L580.55,196.59L584.63,180.27L588.72,191.07L592.81,179.96L596.9,188.1L600.99,192.73L605.08,200.93L609.16,199.78L613.25,211.14L617.34,202.25L621.43,201.54L625.52,209.3L629.61,208.84L633.69,213.12L637.78,214.84L645.96,211.29L650.05,213.84L654.14,221.21L658.22,220.79L662.31,222.71L666.4,226.46L670.49,236.48L674.58,235.36L678.67,236.21L682.76,246.08L686.84,240.78L690.93,239.98L695.02,242.11L699.11,242.01L703.2,241.31L707.29,245.34L711.37,248.04L715.46,246.17L719.55,248.95L723.64,252.89L727.73,251.83L731.82,253.23L735.9,253.31L739.99,261.42L744.08,262.06L748.17,265.2L752.26,269.51L756.35,265.33L760.43,272L764.52,266.63L768.61,268.69L772.7,277.48L776.79,279.91L780.88,278.09L784.96,274.87L789.05,276.19L793.14,280.81L797.23,283.21L801.32,286.02L805.41,286.24L809.49,287.24L813.58,294.28L817.67,296.88L821.76,296.63L825.85,295.59L829.94,293.48L834.02,292.34L838.11,292.19L842.2,292.69L846.29,295.67L862.64,302.75L866.73,303.04L874.91,312.89L879,314.71L883.08,316.91L887.17,320.55L891.26,319.44L895.35,319.78L911.7,324.74L915.79,324.54L928.06,327.94L932.14,332.31L936.23,332.8L940.32,334.7L944.41,334.89L948.5,334.06L952.59,335.11L956.67,337.32L960.76,339.99L964.85,340.45L968.94,342.41L973.03,342.82L981.2,343.06L985.29,344.42L993.47,347.21L997.56,349.34L1005.73,352.3L1009.82,352.84L1018,355.75" style="vector-effect: none; fill: none; stroke: rgb(228, 211, 84); stroke-opacity: 1; stroke-width: 2px; opacity: 1;"/></g><g class="points"/><g class="text"/></g><g class="trace scatter trace92129f" style="stroke-miterlimit: 2; opacity: 1;"><g class="fills"/><g class="errorbars"/><g class="lines"><path class="js-line" d="M0,153.12L4.09,154.71L8.18,136.26L12.27,134.5L16.35,130.61L20.44,120.5L24.53,104.4L28.62,107.78L32.71,93.36L36.8,87.8L40.88,90.47L44.97,97.59L49.06,93.63L53.15,109.32L57.24,104.76L61.33,99.01L65.41,89.85L69.5,86.13L73.59,73.7L77.68,63.76L81.77,65.57L85.86,67.39L89.94,63.55L94.03,62.27L98.12,73.38L102.21,70.48L106.3,78.73L110.39,69.8L114.47,76.52L118.56,72.32L122.65,66.36L126.74,60.45L130.83,74.46L134.92,72.06L139,67.57L143.09,63.76L147.18,63.83L151.27,71.15L155.36,66.9L159.45,57.91L163.53,57.29L167.62,63.42L171.71,62.64L175.8,62.19L179.89,64.08L183.98,74.68L188.06,79.38L196.24,100.02L200.33,80.94L204.42,74.16L208.51,71.47L212.59,83.04L216.68,77.02L220.77,89.82L224.86,90.51L228.95,86.12L233.04,83.13L237.12,84.67L241.21,75.4L245.3,84.09L249.39,78.39L253.48,74.53L257.57,75.3L261.65,77.01L265.74,86.59L269.83,91.42L273.92,94.67L278.01,94.09L282.1,94.84L286.18,92.1L290.27,91.62L294.36,100.94L298.45,96.6L302.54,95.1L306.63,95.99L310.71,95.1L314.8,104.14L318.89,99.82L322.98,97.93L327.07,94.71L331.16,102.98L335.24,96.24L339.33,95.24L343.42,105.73L347.51,99.83L351.6,97.58L355.69,108.48L359.78,105.21L363.86,121.96L367.95,124.74L372.04,117.83L376.13,118.59L380.22,118.49L384.31,114.81L388.39,112.84L392.48,114.45L396.57,120.44L400.66,116.66L404.75,125.27L408.84,123.05L412.92,127.05L417.01,130.28L421.1,129.07L425.19,125.3L429.28,127.19L433.37,130.42L437.45,123.87L445.63,137.5L449.72,133.71L453.81,131.14L457.9,150.57L461.98,147.03L466.07,137.28L470.16,159.28L474.25,155.38L478.34,140.82L482.43,141.03L486.51,151.84L490.6,143.55L494.69,149.23L498.78,160.5L502.87,157.16L506.96,156.48L511.04,162.14L515.13,173.29L523.31,175.95L527.4,175.19L531.49,172.98L535.57,187.23L543.75,190.91L547.84,180.46L551.93,184.07L556.02,196.48L560.1,191.83L564.19,202.19L568.28,197.29L572.37,197.31L576.46,205.47L580.55,230.73L584.63,217.14L588.72,222.89L592.81,214.25L596.9,229.66L600.99,230.97L605.08,233.26L609.16,228.72L613.25,235.7L617.34,232.59L621.43,230.51L625.52,233.27L629.61,233.15L633.69,236.19L637.78,237.49L641.87,239.11L645.96,242.54L650.05,242.97L654.14,246.94L658.22,246.84L662.31,243.89L666.4,244.28L670.49,255.87L674.58,253.25L678.67,255.59L682.76,265.42L686.84,261.27L690.93,267.29L695.02,265.38L699.11,272.96L703.2,268.3L719.55,271.15L723.64,278.24L735.9,277.73L739.99,283.22L744.08,282.88L748.17,281.24L752.26,286.77L756.35,284.58L760.43,289.53L764.52,288.02L768.61,289.47L772.7,295.91L776.79,298.12L780.88,295.1L784.96,295.11L789.05,297.52L797.23,300.24L801.32,302.55L805.41,303.54L809.49,306.4L813.58,313.45L817.67,314.6L821.76,315.23L825.85,313.2L834.02,311.33L838.11,310.77L842.2,310.84L846.29,313.75L850.38,313.97L854.47,315.89L858.55,320.58L862.64,319.53L866.73,319.91L870.82,323.23L874.91,325.85L879,327.39L883.08,330.71L887.17,331.94L895.35,331.79L899.44,332.64L903.53,334.86L907.61,338.37L915.79,338.93L919.88,339.41L923.97,341.06L928.06,340.95L936.23,343.36L940.32,344.2L944.41,345.5L948.5,345.2L964.85,348.87L968.94,350.94L981.2,352.39L985.29,353.3L993.47,354.35L997.56,355.45L1009.82,357.95L1013.91,358.6L1018,359.57" style="vector-effect: none; fill: none; stroke: rgb(43, 144, 143); stroke-opacity: 1; stroke-width: 2px; opacity: 1;"/></g><g class="points"/><g class="text"/></g><g class="trace scatter trace0269e4" style="stroke-miterlimit: 2; opacity: 1;"><g class="fills"/><g class="errorbars"/><g class="lines"><path class="js-line" d="M0,109.86L4.09,112.56L8.18,108.95L12.27,108.98L16.35,113.63L20.44,92.87L24.53,78.99L28.62,77.49L32.71,62.51L36.8,61.08L40.88,62.8L44.97,64.31L49.06,62.78L53.15,78.77L57.24,71.51L61.33,66.73L65.41,53.99L69.5,47.32L73.59,43.48L77.68,36.85L81.77,39.55L85.86,38.84L89.94,27.27L94.03,24.66L98.12,31.27L102.21,29.31L106.3,38.08L110.39,29.51L114.47,32.6L118.56,33.13L122.65,29.57L126.74,25.42L130.83,34.26L134.92,31.54L139,32.87L143.09,29.27L147.18,28.32L151.27,30.05L155.36,27.26L159.45,21.11L163.53,21.19L167.62,23.25L171.71,22.91L175.8,22.31L179.89,25.45L183.98,32.76L188.06,30.85L192.15,41.61L196.24,48.8L200.33,34.89L204.42,31.95L208.51,30.46L212.59,42.33L216.68,34.5L220.77,43.54L224.86,41.8L228.95,38.71L233.04,35.77L237.12,38.72L241.21,31.69L245.3,37.86L249.39,31.37L253.48,29.85L261.65,30.71L265.74,38.93L273.92,43.81L278.01,43.24L282.1,46.9L286.18,41.65L290.27,38.36L294.36,41.43L298.45,38.15L302.54,37.52L310.71,36.15L314.8,44.68L318.89,41.83L322.98,41.16L327.07,38.43L331.16,46.3L335.24,40.54L339.33,39.33L343.42,43.54L347.51,37.87L351.6,37.7L355.69,43.45L359.78,42.43L363.86,51.87L367.95,58.01L372.04,54.6L376.13,55.93L380.22,56.28L384.31,50.82L388.39,53.19L392.48,52.16L396.57,55.48L400.66,54.39L404.75,58.23L408.84,53.43L412.92,57.33L417.01,62.51L421.1,61.4L425.19,59.14L429.28,55.14L433.37,56.79L437.45,50.82L441.54,55.59L445.63,62.4L449.72,59L453.81,57.4L457.9,73.63L461.98,74.43L466.07,66.46L470.16,84.37L474.25,79.86L478.34,65.37L482.43,65.54L486.51,73.98L490.6,65.02L494.69,71.38L498.78,79.94L502.87,76.6L506.96,72.69L511.04,81.16L515.13,88.82L519.22,85.23L523.31,86.45L527.4,84.66L531.49,81.46L535.57,95.98L539.66,99.3L543.75,101.26L547.84,85.5L551.93,87.1L556.02,104.81L560.1,96.95L564.19,107.57L568.28,98.16L572.37,91.95L576.46,100.37L580.55,138.96L584.63,113.5L588.72,118.15L592.81,106.32L596.9,128.78L600.99,126.33L605.08,128.98L609.16,120.35L613.25,135.76L617.34,125.48L621.43,121.92L625.52,125.12L629.61,126.18L633.69,135.34L637.78,131.8L641.87,129.54L645.96,133.58L650.05,132.17L654.14,136.11L658.22,134.89L662.31,128.23L666.4,128.34L670.49,146.49L674.58,140.3L678.67,139.58L682.76,168.11L686.84,150.95L690.93,152.83L695.02,150.81L699.11,172.98L703.2,155.2L707.29,159.81L711.37,157.72L715.46,152.36L719.55,148.64L723.64,173.13L727.73,166.02L731.82,161.18L735.9,159.09L739.99,170.39L744.08,170.96L748.17,167.02L752.26,175.57L756.35,163.47L760.43,171.46L764.52,162.7L768.61,164.87L772.7,191.1L776.79,188.58L780.88,176.95L784.96,177.05L789.05,179.52L793.14,178.82L797.23,179.16L801.32,182.35L805.41,181.35L809.49,191.61L813.58,212.73L817.67,210.74L821.76,213.68L825.85,211.01L829.94,204.07L834.02,200L838.11,194.52L842.2,190.05L846.29,200L850.38,193.05L854.47,197.9L858.55,217.88L862.64,208.78L866.73,204.06L870.82,217.32L874.91,221.76L879,221.95L883.08,232.82L887.17,235.89L891.26,235.34L895.35,232.42L899.44,234.08L903.53,240.1L907.61,252.47L911.7,244.55L915.79,244.55L919.88,250.68L923.97,254.28L928.06,252.67L932.14,257.55L936.23,259.74L940.32,260.61L944.41,264.3L948.5,260.62L952.59,263.37L956.67,266.15L960.76,275.06L964.85,273.58L968.94,283.86L973.03,284.55L977.12,286.34L985.29,295.66L989.38,295.2L993.47,295.03L997.56,305.53L1001.65,309.63L1005.73,312.58L1013.91,319.13L1018,325.48" style="vector-effect: none; fill: none; stroke: rgb(244, 91, 91); stroke-opacity: 1; stroke-width: 2px; opacity: 1;"/></g><g class="points"/><g class="text"/></g><g class="trace scatter trace2834a0" style="stroke-miterlimit: 2; opacity: 1;"><g class="fills"/><g class="errorbars"/><g class="lines"><path class="js-line" d="M0,130.87L4.09,118.63L8.18,119.07L12.27,110.59L16.35,117.91L24.53,85.94L28.62,85.52L32.71,72.49L36.8,69.51L40.88,70.77L44.97,74.59L49.06,72.41L53.15,88.39L61.33,77.02L65.41,63.89L69.5,59.3L73.59,51.71L77.68,44L81.77,45.51L85.86,46.45L89.94,38.02L94.03,35.06L98.12,44.48L102.21,42.14L106.3,51.94L110.39,42.19L114.47,47.25L118.56,45.57L122.65,41.24L126.74,36.36L130.83,47.03L134.92,44.91L139,44.05L143.09,40.12L147.18,38.55L151.27,40.89L155.36,37.91L159.45,30.37L163.53,29.49L167.62,32.93L171.71,32.78L175.8,32.78L179.89,36.95L183.98,46.23L188.06,42.64L192.15,54.21L196.24,61.39L200.33,44.62L204.42,41.3L208.51,39.99L212.59,52.64L216.68,43.68L220.77,55.16L224.86,53.58L228.95,50.22L233.04,47.16L237.12,51.4L241.21,41.78L245.3,49.04L249.39,41L253.48,38.43L261.65,39.31L265.74,50.03L269.83,53.56L273.92,58.45L278.01,57.83L282.1,59.62L286.18,54.21L290.27,50.12L294.36,55.42L298.45,50.97L306.63,49.56L310.71,48.88L314.8,57.33L318.89,53.74L322.98,52.69L327.07,49.63L331.16,56.5L335.24,51.73L339.33,50.68L343.42,57.25L347.51,49.18L351.6,48.71L355.69,56.14L359.78,54.43L363.86,71.46L367.95,75.69L372.04,70.22L376.13,68.05L380.22,68.7L384.31,65.27L392.48,64.86L396.57,67.96L400.66,64.72L404.75,71.18L408.84,65.62L412.92,72.82L417.01,77.79L421.1,77.08L429.28,69.67L433.37,72.85L437.45,65.74L441.54,71.99L445.63,78.03L449.72,75.08L453.81,72.13L457.9,92.6L461.98,90.87L466.07,82.08L470.16,103.61L474.25,98.74L478.34,82.82L482.43,81.62L486.51,92.94L490.6,82.02L494.69,87.73L498.78,99.42L506.96,93.34L511.04,102.92L515.13,110.79L519.22,109.19L523.31,109.91L527.4,108.45L531.49,104.02L535.57,121.77L543.75,127.57L547.84,109.86L551.93,112.54L556.02,131.42L560.1,122.03L564.19,135.76L568.28,125.51L572.37,120.59L576.46,130.78L580.55,170.77L584.63,145.22L588.72,152.33L592.81,138.23L596.9,158.33L600.99,155.93L605.08,161.98L609.16,152.32L613.25,165.14L617.34,159.66L621.43,157.34L625.52,160.11L629.61,157.43L633.69,162.61L637.78,163.04L641.87,163.21L645.96,167.1L650.05,170.43L654.14,172.61L658.22,172.92L662.31,165.24L666.4,163.96L670.49,186.56L674.58,178.32L678.67,177.75L682.76,204.18L686.84,188.27L690.93,191.44L695.02,187.71L699.11,204.8L703.2,190.54L711.37,197.02L715.46,193.26L719.55,189.2L723.64,206.31L727.73,206.52L731.82,200.51L735.9,199.2L739.99,210.63L744.08,208.85L748.17,204.03L752.26,215.83L756.35,205.45L760.43,211.12L764.52,203.3L768.61,206L772.7,224.21L776.79,227.78L780.88,219.71L784.96,217.23L789.05,219.56L793.14,220.06L797.23,221.84L801.32,224.45L805.41,225.37L809.49,232.58L813.58,251.39L817.67,251L821.76,253.97L825.85,248.21L829.94,244.31L838.11,235.34L842.2,232.13L846.29,240.27L850.38,237.98L854.47,241.87L858.55,254.22L862.64,247.91L866.73,245.16L870.82,257.36L874.91,262.49L879,264.35L883.08,271.39L887.17,274.96L891.26,271.76L895.35,271.53L899.44,273.24L903.53,277.57L907.61,284.59L911.7,281.7L915.79,282.32L919.88,285.22L923.97,289.51L928.06,288.54L932.14,292.31L936.23,294.58L940.32,295.71L944.41,298.23L948.5,296.06L956.67,300.23L960.76,306.85L964.85,306.55L968.94,312.52L973.03,315.2L977.12,315.62L985.29,321.02L989.38,322.16L993.47,322.91L997.56,328.16L1001.65,331.85L1005.73,334.22L1013.91,338.89L1018,342.87" style="vector-effect: none; fill: none; stroke: rgb(145, 232, 225); stroke-opacity: 1; stroke-width: 2px; opacity: 1;"/></g><g class="points"/><g class="text"/></g></g></g></g><path class="xlines-above crisp" d="M0,0" style="fill: none;"/><path class="ylines-above crisp" d="M0,0" style="fill: none;"/><g class="overlines-above"/><g class="xaxislayer-above"><g class="xtick"><text text-anchor="middle" x="0" y="451" transform="translate(260.33000000000004,0)" style="font-family: 'Lucida Grande', 'Open Sans', verdana, arial, sans-serif; font-size: 10px; fill: rgb(0, 0, 0); fill-opacity: 1; white-space: pre; opacity: 1;">50</text></g><g class="xtick"><text text-anchor="middle" x="0" y="451" style="font-family: 'Lucida Grande', 'Open Sans', verdana, arial, sans-serif; font-size: 10px; fill: rgb(0, 0, 0); fill-opacity: 1; white-space: pre; opacity: 1;" transform="translate(464.75,0)">100</text></g><g class="xtick"><text text-anchor="middle" x="0" y="451" style="font-family: 'Lucida Grande', 'Open Sans', verdana, arial, sans-serif; font-size: 10px; fill: rgb(0, 0, 0); fill-opacity: 1; white-space: pre; opacity: 1;" transform="translate(669.16,0)">150</text></g><g class="xtick"><text text-anchor="middle" x="0" y="451" style="font-family: 'Lucida Grande', 'Open Sans', verdana, arial, sans-serif; font-size: 10px; fill: rgb(0, 0, 0); fill-opacity: 1; white-space: pre; opacity: 1;" transform="translate(873.58,0)">200</text></g><g class="xtick"><text text-anchor="middle" x="0" y="451" style="font-family: 'Lucida Grande', 'Open Sans', verdana, arial, sans-serif; font-size: 10px; fill: rgb(0, 0, 0); fill-opacity: 1; white-space: pre; opacity: 1;" transform="translate(1078,0)">250</text></g></g><g class="yaxislayer-above"><g class="ytick"><text text-anchor="end" x="54" y="3.5" transform="translate(0,435)" style="font-family: 'Lucida Grande', 'Open Sans', verdana, arial, sans-serif; font-size: 10px; fill: rgb(0, 0, 0); fill-opacity: 1; white-space: pre; opacity: 1;">0</text></g><g class="ytick"><text text-anchor="end" x="54" y="3.5" style="font-family: 'Lucida Grande', 'Open Sans', verdana, arial, sans-serif; font-size: 10px; fill: rgb(0, 0, 0); fill-opacity: 1; white-space: pre; opacity: 1;" transform="translate(0,385.91)">5</text></g><g class="ytick"><text text-anchor="end" x="54" y="3.5" style="font-family: 'Lucida Grande', 'Open Sans', verdana, arial, sans-serif; font-size: 10px; fill: rgb(0, 0, 0); fill-opacity: 1; white-space: pre; opacity: 1;" transform="translate(0,336.82)">10</text></g><g class="ytick"><text text-anchor="end" x="54" y="3.5" style="font-family: 'Lucida Grande', 'Open Sans', verdana, arial, sans-serif; font-size: 10px; fill: rgb(0, 0, 0); fill-opacity: 1; white-space: pre; opacity: 1;" transform="translate(0,287.73)">15</text></g><g class="ytick"><text text-anchor="end" x="54" y="3.5" style="font-family: 'Lucida Grande', 'Open Sans', verdana, arial, sans-serif; font-size: 10px; fill: rgb(0, 0, 0); fill-opacity: 1; white-space: pre; opacity: 1;" transform="translate(0,238.65)">20</text></g><g class="ytick"><text text-anchor="end" x="54" y="3.5" style="font-family: 'Lucida Grande', 'Open Sans', verdana, arial, sans-serif; font-size: 10px; fill: rgb(0, 0, 0); fill-opacity: 1; white-space: pre; opacity: 1;" transform="translate(0,189.56)">25</text></g><g class="ytick"><text text-anchor="end" x="54" y="3.5" style="font-family: 'Lucida Grande', 'Open Sans', verdana, arial, sans-serif; font-size: 10px; fill: rgb(0, 0, 0); fill-opacity: 1; white-space: pre; opacity: 1;" transform="translate(0,140.47)">30</text></g><g class="ytick"><text text-anchor="end" x="54" y="3.5" style="font-family: 'Lucida Grande', 'Open Sans', verdana, arial, sans-serif; font-size: 10px; fill: rgb(0, 0, 0); fill-opacity: 1; white-space: pre; opacity: 1;" transform="translate(0,91.38)">35</text></g></g><g class="overaxes-above"/></g></g><g class="polarlayer"/><g class="smithlayer"/><g class="ternarylayer"/><g class="geolayer"/><g class="funnelarealayer"/><g class="pielayer"/><g class="iciclelayer"/><g class="treemaplayer"/><g class="sunburstlayer"/><g class="glimages"/><defs id="topdefs-e5868b"><g class="clips"/></defs><g class="layer-above"><g class="imagelayer"/><g class="shapelayer"/></g><g class="infolayer"><g class="g-gtitle"><text class="gtitle" x="550" y="25" text-anchor="middle" dy="0em" style="opacity: 1; font-family: 'Lucida Grande', 'Open Sans', verdana, arial, sans-serif; font-size: 20px; fill: rgb(42, 63, 95); fill-opacity: 1; white-space: pre;"><tspan class="line" dy="0em" x="550" y="25">Fastp: Sequence Quality</tspan><tspan class="line" dy="1.3em" x="550" y="25">​<tspan style="font-size:70%" dy="-0.6em">Read 2: After filtering, 10 samples</tspan><tspan dy="0.42em">​</tspan></tspan></text></g><g class="g-xtitle"><text class="xtitle" x="569" y="472.3" text-anchor="middle" style="opacity: 0.3; font-family: 'Lucida Grande', 'Open Sans', verdana, arial, sans-serif; font-size: 14px; fill: rgb(0, 0, 0); fill-opacity: 1; white-space: pre;">Read Position</text></g><g class="g-ytitle"><text class="ytitle" transform="rotate(-90,26.865625,242.5)" x="26.865625" y="242.5" text-anchor="middle" style="opacity: 0.3; font-family: 'Lucida Grande', 'Open Sans', verdana, arial, sans-serif; font-size: 14px; fill: rgb(0, 0, 0); fill-opacity: 1; white-space: pre;">R2 After filtering: Sequence Quality</text></g></g></svg>