<svg class="main-svg" xmlns="http://www.w3.org/2000/svg" xmlns:xlink="http://www.w3.org/1999/xlink" width="2200" height="1000" style="" viewBox="0 0 1100 500"><rect x="0" y="0" width="1100" height="500" style="fill: rgb(255, 255, 255); fill-opacity: 1;"/><defs id="defs-042de7"><g class="clips"><clipPath id="clip042de7xyplot" class="plotclip"><rect width="1018" height="385"/></clipPath><clipPath class="axesclip" id="clip042de7x"><rect x="60" y="0" width="1018" height="500"/></clipPath><clipPath class="axesclip" id="clip042de7y"><rect x="0" y="50" width="1100" height="385"/></clipPath><clipPath class="axesclip" id="clip042de7xy"><rect x="60" y="50" width="1018" height="385"/></clipPath></g><g class="gradients"/><g class="patterns"/></defs><g class="bglayer"/><g class="layer-below"><g class="imagelayer"/><g class="shapelayer"/></g><g class="cartesianlayer"><g class="subplot xy"><g class="layer-subplot"><g class="shapelayer"/><g class="imagelayer"/></g><g class="minor-gridlayer"><g class="x"/><g class="y"/></g><g class="gridlayer"><g class="x"><path class="xgrid crisp" transform="translate(260.33000000000004,0)" d="M0,50v385" style="stroke: rgb(0, 0, 0); stroke-opacity: 0.05; stroke-width: 1px;"/><path class="xgrid crisp" transform="translate(464.75,0)" d="M0,50v385" style="stroke: rgb(0, 0, 0); stroke-opacity: 0.05; stroke-width: 1px;"/><path class="xgrid crisp" transform="translate(669.16,0)" d="M0,50v385" style="stroke: rgb(0, 0, 0); stroke-opacity: 0.05; stroke-width: 1px;"/><path class="xgrid crisp" transform="translate(873.58,0)" d="M0,50v385" style="stroke: rgb(0, 0, 0); stroke-opacity: 0.05; stroke-width: 1px;"/></g><g class="y"><path class="ygrid crisp" transform="translate(0,387.81)" d="M60,0h1018" style="stroke: rgb(0, 0, 0); stroke-opacity: 0.05; stroke-width: 1px;"/><path class="ygrid crisp" transform="translate(0,340.62)" d="M60,0h1018" style="stroke: rgb(0, 0, 0); stroke-opacity: 0.05; stroke-width: 1px;"/><path class="ygrid crisp" transform="translate(0,293.43)" d="M60,0h1018" style="stroke: rgb(0, 0, 0); stroke-opacity: 0.05; stroke-width: 1px;"/><path class="ygrid crisp" transform="translate(0,246.24)" d="M60,0h1018" style="stroke: rgb(0, 0, 0); stroke-opacity: 0.05; stroke-width: 1px;"/><path class="ygrid crisp" transform="translate(0,199.05)" d="M60,0h1018" style="stroke: rgb(0, 0, 0); stroke-opacity: 0.05; stroke-width: 1px;"/><path class="ygrid crisp" transform="translate(0,151.86)" d="M60,0h1018" style="stroke: rgb(0, 0, 0); stroke-opacity: 0.05; stroke-width: 1px;"/><path class="ygrid crisp" transform="translate(0,104.67)" d="M60,0h1018" style="stroke: rgb(0, 0, 0); stroke-opacity: 0.05; stroke-width: 1px;"/><path class="ygrid crisp" transform="translate(0,57.480000000000004)" d="M60,0h1018" style="stroke: rgb(0, 0, 0); stroke-opacity: 0.05; stroke-width: 1px;"/></g></g><g class="zerolinelayer"><path class="yzl zl crisp" transform="translate(0,435)" d="M60,0h1018" style="stroke: rgb(0, 0, 0); stroke-opacity: 0.05; stroke-width: 2px;"/></g><g class="layer-between"><g class="shapelayer"/><g class="imagelayer"/></g><path class="xlines-below"/><path class="ylines-below"/><g class="overlines-below"/><g class="xaxislayer-below"/><g class="yaxislayer-below"/><g class="overaxes-below"/><g class="overplot"><g class="xy" transform="translate(60,50)" clip-path="url(#clip042de7xyplot)"><g class="scatterlayer mlayer"><g class="trace scatter trace9c8e18" style="stroke-miterlimit: 2; opacity: 1;"><g class="fills"/><g class="errorbars"/><g class="lines"><path class="js-line" d="M0,98.95L4.09,97.29L8.18,96.65L12.27,96.25L16.35,97.15L20.44,84.43L24.53,84.4L28.62,84.98L32.71,61.32L57.24,61.27L61.33,60.68L65.41,38.11L69.5,41.38L73.59,48.73L77.68,43.01L85.86,37.85L89.94,34.89L98.12,21.46L102.21,25.32L106.3,21.71L110.39,27.49L114.47,23.41L118.56,23.1L122.65,57.33L126.74,42.45L130.83,38.15L134.92,43.96L139,38.01L143.09,34.67L147.18,26.29L151.27,27.2L155.36,27.18L159.45,45.08L163.53,31.2L167.62,32.13L171.71,47.49L175.8,53.97L179.89,39.07L183.98,31.47L188.06,35.74L192.15,34.85L196.24,34.07L200.33,31.71L204.42,29.19L208.51,21.55L212.59,19.4L216.68,22.77L220.77,24.72L224.86,23.53L228.95,27.11L233.04,40.03L241.21,24.54L245.3,20.32L249.39,22.09L253.48,31.03L257.57,26.82L261.65,32.58L265.74,25.63L269.83,20.64L273.92,19.98L278.01,26.49L282.1,34.07L286.18,30.09L290.27,28.78L294.36,28.86L306.63,28.21L310.71,29.53L314.8,36.37L318.89,33.45L322.98,33.8L327.07,37.08L331.16,35.24L335.24,36.24L339.33,38.04L343.42,37.93L347.51,38.17L351.6,40.32L355.69,39.36L359.78,39.22L367.95,41.56L372.04,41.42L384.31,45.15L388.39,45.22L396.57,44.8L400.66,46.82L404.75,46.2L408.84,46.91L412.92,48.28L417.01,48.85L421.1,48.66L425.19,49.59L429.28,53.84L433.37,55.07L441.54,55.66L445.63,55.68L453.81,59.11L457.9,57.91L461.98,59.07L466.07,56.78L470.16,54.83L474.25,57.52L478.34,58.89L482.43,58.39L486.51,57.89L490.6,61.3L494.69,59.02L498.78,59.99L502.87,62.55L506.96,60.34L511.04,60.06L515.13,63.68L519.22,61.76L523.31,61.3L527.4,64.97L531.49,62.98L535.57,62.57L539.66,64.34L547.84,63.85L551.93,65.55L556.02,64.4L560.1,64.41L564.19,66.9L568.28,65.88L572.37,65.17L576.46,66.81L580.55,66.59L584.63,67.14L588.72,69.22L592.81,67.06L596.9,68.22L600.99,70.21L605.08,68.9L609.16,69.06L613.25,71.17L617.34,69.42L621.43,70.24L625.52,70.17L633.69,71.82L637.78,73.5L641.87,72.52L645.96,74.1L654.14,74.08L658.22,75.69L662.31,78.74L666.4,76.65L674.58,80.01L678.67,78.04L682.76,79.04L686.84,82.62L690.93,79.3L695.02,81.05L699.11,82.67L703.2,81.35L707.29,81.74L711.37,86.95L715.46,84.11L719.55,83.52L723.64,87.79L727.73,84.07L731.82,83.37L735.9,90.73L739.99,86.95L744.08,88.09L748.17,93.16L752.26,87.54L756.35,86.92L760.43,93.32L764.52,88.37L768.61,88.77L772.7,97.62L776.79,91.19L780.88,90.92L784.96,96.52L789.05,92.1L793.14,93.43L797.23,98.7L801.32,94.8L805.41,95.7L809.49,101.96L813.58,97.74L817.67,98.89L821.76,101.72L825.85,99.43L829.94,98.91L834.02,103.29L838.11,101.5L842.2,102.02L846.29,104.21L850.38,101.09L858.55,104.59L862.64,102.62L866.73,105.96L870.82,107.32L874.91,107.78L879,109.16L883.08,110.68L887.17,110.01L891.26,112.7L895.35,112.46L899.44,111.11L903.53,112.41L907.61,114.57L911.7,112.82L915.79,115.6L919.88,115.91L923.97,115.46L928.06,116.27L932.14,117.36L936.23,116.96L940.32,119.6L944.41,120.55L948.5,122.38L952.59,123.18L956.67,125.43L960.76,125.2L973.03,124.8L977.12,126.07L985.29,130.28L989.38,133.65L993.47,136.6L997.56,137.24L1005.73,141.68L1009.82,144.08L1018,154.23" style="vector-effect: none; fill: none; stroke: rgb(124, 181, 236); stroke-opacity: 1; stroke-width: 2px; opacity: 1;"/></g><g class="points"/><g class="text"/></g><g class="trace scatter trace67fe60" style="stroke-miterlimit: 2; opacity: 1;"><g class="fills"/><g class="errorbars"/><g class="lines"><path class="js-line" d="M0,99.2L4.09,97.54L8.18,96.93L12.27,96.54L16.35,97.45L20.44,84.55L24.53,84.5L28.62,85.09L32.71,61.47L57.24,61.44L61.33,60.73L65.41,38.45L69.5,41.98L73.59,49.47L77.68,43.74L85.86,38.52L89.94,35.91L98.12,21.48L102.21,25.22L106.3,21.88L110.39,27.57L114.47,23.47L118.56,23.2L122.65,58.45L126.74,43.23L130.83,38.73L134.92,45.03L139,39.18L143.09,35.37L147.18,26.52L151.27,27.36L155.36,27.24L159.45,45.7L163.53,31.51L167.62,32.41L171.71,47.9L175.8,54.36L179.89,39.56L183.98,31.67L188.06,36.01L192.15,35.14L196.24,34.02L200.33,31.93L204.42,29.38L208.51,21.57L212.59,19.27L216.68,22.77L220.77,24.82L224.86,23.58L228.95,27.06L233.04,40.21L241.21,24.5L245.3,20.17L249.39,21.96L253.48,31.21L257.57,26.96L261.65,32.89L265.74,25.7L269.83,20.58L273.92,19.84L278.01,26.28L282.1,34.23L286.18,30.3L290.27,29.01L294.36,29.13L306.63,28.61L310.71,29.92L314.8,36.89L318.89,33.9L322.98,34.31L327.07,37.62L331.16,35.71L335.24,36.86L339.33,38.68L343.42,38.53L347.51,38.86L351.6,41.01L355.69,40.2L359.78,40.29L367.95,42.3L372.04,42.17L384.31,46.04L388.39,46.28L392.48,45.63L396.57,45.75L400.66,47.91L404.75,47.19L417.01,50.25L421.1,49.71L425.19,51.21L429.28,55.68L433.37,57.52L437.45,57.38L445.63,57.44L449.72,59.14L453.81,60.52L457.9,59.6L461.98,60.79L466.07,58.65L470.16,56.75L474.25,59.55L478.34,60.7L482.43,60.54L486.51,60.07L490.6,63.14L494.69,61.02L498.78,62.03L502.87,64.47L506.96,62.28L511.04,61.95L515.13,65.38L519.22,63.81L523.31,63.56L527.4,67.6L531.49,65.29L535.57,64.8L539.66,66.15L547.84,66.15L551.93,68.16L560.1,66.88L564.19,69.71L572.37,67.69L576.46,69.03L580.55,68.93L584.63,69.76L588.72,71.76L592.81,69.84L600.99,72.42L605.08,70.99L609.16,71.52L613.25,73.77L617.34,72.36L621.43,72.88L629.61,73.66L633.69,74.78L637.78,76.34L641.87,75.18L645.96,76.67L650.05,76.63L654.14,76.59L658.22,79.03L662.31,81.99L666.4,79.65L670.49,80.57L674.58,82.52L678.67,80.86L682.76,81.89L686.84,86.03L690.93,82.61L695.02,84.64L699.11,85.16L703.2,84.4L707.29,85.33L711.37,90L715.46,87.42L719.55,86.45L723.64,90.49L727.73,87.01L731.82,86.23L735.9,93.06L739.99,89.56L744.08,91.26L748.17,96.93L752.26,90.79L756.35,90.55L760.43,97.1L764.52,91.85L768.61,92.34L772.7,101.23L776.79,94.44L780.88,94.78L784.96,100L789.05,95.24L793.14,96.5L797.23,102.94L801.32,98.62L805.41,99.85L809.49,105.7L813.58,101.26L817.67,102.67L821.76,106.05L825.85,103.18L829.94,102.86L834.02,107.29L838.11,105.78L842.2,105.74L846.29,107.6L850.38,104.46L854.47,106.16L858.55,107.9L862.64,106.48L866.73,109.47L870.82,110.79L874.91,111.83L879,113.74L883.08,114.99L887.17,114.1L891.26,117.54L895.35,117.37L899.44,115.13L903.53,117.07L907.61,118.67L911.7,117.23L915.79,119.93L919.88,119.96L923.97,119.17L928.06,119.52L932.14,122.18L936.23,121.06L940.32,123.74L944.41,124.6L948.5,126.6L952.59,127.39L956.67,130.37L960.76,129.29L964.85,130.52L968.94,129.62L973.03,129.1L977.12,129.79L989.38,136.6L993.47,139.65L1009.82,148.7L1013.91,154.04L1018,159.32" style="vector-effect: none; fill: none; stroke: rgb(67, 67, 72); stroke-opacity: 1; stroke-width: 2px; opacity: 1;"/></g><g class="points"/><g class="text"/></g><g class="trace scatter trace5556b2" style="stroke-miterlimit: 2; opacity: 1;"><g class="fills"/><g class="errorbars"/><g class="lines"><path class="js-line" d="M0,99.14L4.09,97.49L8.18,96.9L12.27,96.48L16.35,97.43L20.44,84.62L24.53,84.6L28.62,85.21L32.71,61.51L57.24,61.41L61.33,60.51L65.41,38.25L69.5,41.85L73.59,48.86L77.68,43.61L81.77,40.51L85.86,38.41L89.94,35.72L94.03,27.6L98.12,21.06L102.21,24.75L106.3,21.22L110.39,25.95L114.47,22.53L118.56,22.54L122.65,58.98L126.74,43.12L130.83,38.9L134.92,44.99L139,38.21L143.09,35.2L147.18,26.55L151.27,27.25L155.36,27.37L159.45,45.59L163.53,31.57L167.62,32.5L171.71,48.1L175.8,54.46L179.89,39.69L183.98,31.76L188.06,35.93L192.15,35.08L196.24,34.08L200.33,32.05L204.42,29.38L208.51,21.56L212.59,19.25L216.68,22.76L220.77,24.83L224.86,23.63L228.95,27.4L233.04,39.65L241.21,24.37L245.3,20.16L249.39,21.8L253.48,30.63L257.57,26.59L261.65,32.74L265.74,25.63L269.83,20.51L273.92,19.75L278.01,26.37L282.1,34.15L286.18,30.21L290.27,28.88L294.36,29.05L306.63,28.29L310.71,29.66L314.8,36.4L318.89,33.15L322.98,33.56L327.07,36.88L331.16,35.16L335.24,36.28L339.33,38.11L343.42,37.91L347.51,38.25L351.6,40.22L355.69,39.42L359.78,39.65L367.95,41.76L372.04,41.6L384.31,45.3L388.39,45.42L396.57,44.98L400.66,46.98L404.75,46.4L408.84,47.25L417.01,49.49L421.1,49.02L425.19,50.44L429.28,53.41L433.37,55.31L437.45,55.03L445.63,54.81L449.72,56.94L453.81,58.2L457.9,57.15L461.98,58.29L466.07,56.23L470.16,54.21L474.25,56.44L478.34,57.76L482.43,57.35L486.51,56.94L490.6,60.37L494.69,57.87L498.78,59.05L502.87,61.48L506.96,59.19L511.04,58.92L515.13,62.39L519.22,61.08L523.31,60.71L527.4,64.57L531.49,62.22L535.57,61.47L539.66,62.5L547.84,62.76L551.93,64.88L560.1,63.4L564.19,65.58L568.28,64.34L572.37,63.91L576.46,65.13L580.55,65.31L584.63,66.2L588.72,67.96L592.81,66L596.9,66.97L600.99,68.73L605.08,67.24L609.16,67.56L613.25,69.07L617.34,67.74L621.43,68.36L629.61,69.31L633.69,70.32L637.78,71.85L641.87,70.54L645.96,72.04L650.05,72.1L654.14,72.28L658.22,74.76L662.31,77.29L666.4,75.02L674.58,77.79L678.67,76.29L682.76,77.01L686.84,81.72L690.93,78.09L695.02,79.71L699.11,80.9L703.2,79.87L707.29,80.82L711.37,85.88L715.46,82.96L719.55,81.76L723.64,85.51L727.73,82.17L731.82,81.27L735.9,88.32L739.99,84.96L744.08,86.66L748.17,92.04L752.26,85.89L756.35,85.52L760.43,92.11L764.52,86.65L768.61,87.35L772.7,96.98L776.79,89.83L780.88,89.68L784.96,95.1L789.05,90.09L793.14,91.59L797.23,98.4L801.32,94.09L805.41,94.86L809.49,100.8L813.58,96.28L817.67,97.95L821.76,101.21L825.85,98.62L829.94,97.9L834.02,101.36L838.11,100.23L842.2,100.29L846.29,102.55L850.38,99.71L858.55,102.79L862.64,101.71L866.73,104.69L870.82,106.04L883.08,110.08L887.17,109.56L891.26,112.65L895.35,112.65L899.44,110.39L903.53,112.73L907.61,113.62L911.7,112.12L915.79,114.95L919.88,114.57L928.06,115.06L932.14,117.88L936.23,116.58L940.32,118.94L944.41,119.3L948.5,121.45L952.59,122.15L956.67,125.44L973.03,124.07L977.12,125.21L1005.73,141.27L1009.82,144.19L1018,154.82" style="vector-effect: none; fill: none; stroke: rgb(144, 237, 125); stroke-opacity: 1; stroke-width: 2px; opacity: 1;"/></g><g class="points"/><g class="text"/></g><g class="trace scatter trace1b112d" style="stroke-miterlimit: 2; opacity: 1;"><g class="fills"/><g class="errorbars"/><g class="lines"><path class="js-line" d="M0,101.31L4.09,99.86L8.18,99.55L12.27,98.86L16.35,100.62L20.44,86.18L24.53,86.8L28.62,86.58L32.71,64.32L40.88,64.23L44.97,64.25L49.06,63.81L53.15,64.75L57.24,64.4L61.33,60.84L65.41,36.95L69.5,37.95L73.59,39.71L77.68,39.56L81.77,39.88L85.86,38.49L89.94,25.25L94.03,25.3L102.21,27.76L106.3,26.96L110.39,28.17L114.47,26.34L118.56,28.82L122.65,32.32L126.74,27.18L130.83,28.24L134.92,39.52L139,43.47L143.09,47.93L147.18,56.94L151.27,45.93L155.36,38.95L159.45,39.77L163.53,36.91L167.62,39.69L171.71,40.54L175.8,41.51L179.89,46.64L183.98,44.6L188.06,47.56L192.15,44.46L196.24,51.36L200.33,45.88L204.42,44.82L208.51,58.97L212.59,52.41L216.68,44.43L220.77,44.56L224.86,41.22L228.95,47.82L233.04,48.81L237.12,44.91L245.3,58.37L249.39,68.07L253.48,52.9L257.57,51.99L261.65,43.78L265.74,48.61L269.83,46.69L273.92,49.73L278.01,51.91L282.1,48.25L290.27,46.6L294.36,47.17L298.45,44.82L302.54,53.08L306.63,58.01L310.71,52.7L314.8,53.06L318.89,50.73L322.98,49.7L327.07,53.21L331.16,53.03L335.24,49.91L339.33,52.15L343.42,50.67L347.51,51.16L351.6,52.76L359.78,53.4L363.86,53.65L367.95,55.34L372.04,54.54L376.13,55.19L380.22,56.7L388.39,58.23L392.48,56.74L400.66,57.21L404.75,57.07L408.84,57.34L412.92,60.91L425.19,61.62L429.28,61.58L433.37,63.33L437.45,63.59L441.54,64.94L445.63,63.91L449.72,65.96L453.81,65.05L461.98,63.78L466.07,68.12L470.16,67.46L474.25,68.07L478.34,70.81L482.43,68.47L486.51,68.66L490.6,74.61L494.69,72.79L498.78,72.99L502.87,72.35L506.96,70.66L511.04,69.99L515.13,72.53L523.31,72.08L527.4,73.31L531.49,70.49L535.57,71.87L539.66,71.44L543.75,71.89L551.93,75.62L556.02,74.56L560.1,74.82L564.19,79.73L572.37,78.45L576.46,78.6L580.55,79.58L584.63,78.84L592.81,76.05L596.9,76.85L609.16,77.49L613.25,80.72L617.34,84.82L621.43,82.69L625.52,82.54L629.61,84.91L637.78,85.73L641.87,84.94L662.31,87.77L666.4,89.41L670.49,86.74L674.58,88.79L678.67,92.86L682.76,92.47L686.84,90.1L690.93,90.29L695.02,88.66L699.11,89.59L703.2,91.46L707.29,91.17L711.37,92.95L715.46,95.85L719.55,97L723.64,99.48L727.73,101.76L731.82,99.28L735.9,101L739.99,100.33L744.08,98.37L748.17,101.14L752.26,100.72L756.35,102.21L760.43,106.03L764.52,104.24L768.61,104.64L772.7,106.77L776.79,106.02L780.88,109.39L784.96,111.87L789.05,112.79L793.14,110.48L797.23,115.53L801.32,114.12L805.41,114.71L809.49,114.64L813.58,115.36L817.67,113.36L821.76,112.23L825.85,112.95L829.94,114.96L834.02,119.74L838.11,117.07L842.2,119.87L846.29,120.1L850.38,122.91L854.47,121.36L858.55,122.92L862.64,121.73L866.73,121.86L870.82,122.92L874.91,126.46L879,127.5L883.08,127.95L887.17,130.37L895.35,133.55L899.44,133.59L903.53,133.08L907.61,134.81L911.7,134.49L915.79,136.74L919.88,141.4L923.97,143.93L928.06,141.31L932.14,144.71L936.23,143.01L940.32,144.88L948.5,147.98L952.59,147.22L956.67,151.32L960.76,152.01L964.85,153.52L968.94,160.08L973.03,160L977.12,170.78L981.2,166.29L985.29,166.22L989.38,165.92L993.47,172.4L997.56,179.81L1001.65,179.3L1005.73,180.98L1009.82,186.35L1013.91,189.65L1018,191.03" style="vector-effect: none; fill: none; stroke: rgb(247, 163, 92); stroke-opacity: 1; stroke-width: 2px; opacity: 1;"/></g><g class="points"/><g class="text"/></g><g class="trace scatter trace13b7c6" style="stroke-miterlimit: 2; opacity: 1;"><g class="fills"/><g class="errorbars"/><g class="lines"><path class="js-line" d="M0,108.52L4.09,105.68L8.18,104.91L12.27,104.03L16.35,105.65L20.44,91.78L24.53,92.16L28.62,92.49L32.71,71.9L57.24,71.09L61.33,67.81L65.41,51.18L69.5,54.42L73.59,67.57L77.68,63.74L81.77,56.59L85.86,53.36L94.03,35.94L98.12,30.52L102.21,34.59L106.3,30.72L110.39,32.78L114.47,31.99L118.56,31.99L122.65,39.02L126.74,36.06L130.83,42.62L134.92,59.64L139,40.69L143.09,40.95L147.18,34.1L155.36,35.34L159.45,60.48L163.53,48.4L167.62,45.27L171.71,72.53L175.8,70.71L183.98,46.99L188.06,46.04L192.15,50.49L196.24,44.54L200.33,40.84L204.42,51.25L208.51,36.63L212.59,29.35L220.77,39.58L224.86,37.02L228.95,38.95L233.04,37.61L237.12,38.83L241.21,31.82L245.3,27.22L249.39,30.94L253.48,30.29L257.57,33.51L265.74,35.44L269.83,30.79L273.92,28.78L278.01,34.28L282.1,42.84L286.18,40.8L290.27,42.36L294.36,42.88L298.45,41.38L302.54,40.75L306.63,38.01L310.71,41.57L314.8,45.73L318.89,43.77L322.98,45.41L327.07,51.85L331.16,49.94L335.24,51.35L339.33,54.7L343.42,54.02L347.51,53.83L351.6,56.6L355.69,55.85L359.78,55.89L363.86,59.72L367.95,57.92L372.04,57.3L376.13,58.77L380.22,59.52L384.31,59.39L392.48,60.36L396.57,60.82L400.66,63.18L404.75,63.37L408.84,63.54L412.92,65.53L417.01,66.99L421.1,66.99L429.28,68.75L433.37,68.7L437.45,70.43L441.54,71.1L445.63,70.25L449.72,71.73L453.81,74.35L457.9,74L461.98,74.67L466.07,77.96L470.16,76.1L474.25,77.19L478.34,77.76L482.43,76.62L486.51,77.94L490.6,81.56L494.69,79.77L498.78,79.82L502.87,81.39L506.96,81.52L511.04,81.27L515.13,85.06L519.22,82.97L523.31,83.29L527.4,86.53L531.49,84.96L535.57,84.68L539.66,87.97L543.75,86.95L547.84,87.07L551.93,90.3L556.02,89.26L560.1,89.99L564.19,91.72L572.37,91.93L576.46,93.56L580.55,91.98L584.63,92.92L588.72,94.62L592.81,93.9L600.99,95.71L605.08,95.06L613.25,97.33L617.34,97.27L625.52,101.8L629.61,100.64L633.69,102.86L637.78,103.21L641.87,102.03L645.96,104.39L650.05,106.41L654.14,104.69L658.22,107.17L662.31,107.35L666.4,106.44L670.49,108.59L674.58,110.04L678.67,109.71L682.76,112.45L686.84,113.71L690.93,112.05L695.02,113.38L699.11,115.22L703.2,113.86L711.37,121.95L715.46,119.08L719.55,120.4L723.64,123.69L727.73,121.22L731.82,122.32L735.9,127.2L739.99,123.37L744.08,123.81L748.17,128.92L752.26,125.47L756.35,126.3L760.43,133.07L764.52,129.23L768.61,130.28L772.7,137.02L776.79,132.56L780.88,132.64L784.96,138.51L789.05,135.6L793.14,137.33L797.23,143.56L801.32,140.81L805.41,141.32L809.49,145.5L813.58,142.62L817.67,144.47L821.76,147.8L825.85,146.09L829.94,148.65L834.02,151.45L838.11,150.4L846.29,153.54L850.38,153.75L854.47,155.91L858.55,156.05L866.73,161.67L870.82,160.38L874.91,160.92L879,163.92L883.08,165.11L887.17,164.86L891.26,168.99L895.35,170.27L899.44,170.41L903.53,172.49L907.61,174.35L911.7,174.48L915.79,178.58L919.88,178.82L923.97,177.38L928.06,179.77L932.14,182.48L936.23,181.65L944.41,185.88L948.5,186.12L956.67,191.55L960.76,192.15L964.85,196.14L968.94,198.08L973.03,197.95L977.12,202.46L981.2,204.22L985.29,204.93L993.47,213.77L997.56,216.52L1001.65,220.07L1005.73,224.99L1009.82,230.22L1013.91,237.2L1018,241.12" style="vector-effect: none; fill: none; stroke: rgb(128, 133, 233); stroke-opacity: 1; stroke-width: 2px; opacity: 1;"/></g><g class="points"/><g class="text"/></g><g class="trace scatter trace56f684" style="stroke-miterlimit: 2; opacity: 1;"><g class="fills"/><g class="errorbars"/><g class="lines"><path class="js-line" d="M0,109.57L4.09,106.71L8.18,105.91L12.27,104.98L16.35,106.7L20.44,92.7L24.53,93.12L28.62,93.43L32.71,73.4L57.24,72.64L61.33,68.72L65.41,52.69L69.5,56.24L73.59,69.61L77.68,65.49L81.77,58.27L85.86,55.17L94.03,37.22L98.12,31.49L102.21,35.44L106.3,31.53L110.39,33.3L114.47,33.02L118.56,33.22L122.65,39.16L126.74,36.94L130.83,44.31L134.92,60.81L139,41.9L143.09,42.7L147.18,35.28L155.36,36.98L159.45,61.04L163.53,49.49L167.62,46.77L171.71,72.53L175.8,72.61L183.98,48.28L188.06,47.66L192.15,53.11L196.24,45.26L200.33,42.16L204.42,52.92L208.51,38.04L212.59,30.34L220.77,41.3L224.86,39.06L228.95,40.4L233.04,38.08L237.12,40.11L241.21,32.75L245.3,27.81L249.39,31.86L253.48,30.98L257.57,35.12L265.74,36.58L269.83,31.36L273.92,29.16L278.01,34.58L282.1,43.09L286.18,41.89L294.36,44.6L298.45,42.86L302.54,42.19L306.63,39.2L314.8,47.32L318.89,45.52L322.98,47.48L327.07,54.06L331.16,51.97L335.24,53.55L339.33,56.9L343.42,56.46L347.51,56.59L351.6,59.5L359.78,58.78L363.86,62.86L367.95,60.99L372.04,60.35L380.22,62.56L384.31,62.49L396.57,64L400.66,66.56L408.84,66.6L412.92,68.99L417.01,70.2L421.1,70.29L429.28,72.45L433.37,72.16L437.45,74.58L441.54,74.69L445.63,73.58L449.72,75.64L453.81,77.64L457.9,77.19L461.98,78.57L466.07,81.66L470.16,80.01L474.25,81.55L478.34,82L482.43,81.01L486.51,82.7L490.6,86.35L494.69,84.59L498.78,84.73L506.96,86.58L511.04,86.65L515.13,89.83L519.22,87.99L523.31,88.42L527.4,91.8L531.49,90.41L535.57,89.99L539.66,93.13L543.75,92.08L547.84,92.58L551.93,95.52L556.02,94.61L560.1,95.34L564.19,96.71L568.28,96.86L572.37,97.32L576.46,98.72L580.55,97.32L584.63,97.93L588.72,99.64L592.81,99.26L600.99,100.72L605.08,100.15L613.25,102.16L617.34,102.44L625.52,106.6L629.61,105.62L633.69,108.14L637.78,108.25L641.87,107.34L645.96,109.36L650.05,111.72L654.14,110.09L658.22,112.45L662.31,113.04L666.4,112.57L670.49,114.01L674.58,115.61L678.67,115.91L682.76,118.49L686.84,119.68L690.93,118.24L695.02,119.12L699.11,121.28L703.2,120.24L711.37,128.7L715.46,126.04L719.55,127.3L723.64,130.45L727.73,128.39L731.82,129.35L735.9,134.05L739.99,130.7L744.08,130.69L748.17,135.01L752.26,132.42L756.35,133.5L760.43,140.47L764.52,137.41L768.61,138.33L772.7,144.53L776.79,141.38L780.88,140.94L784.96,146.59L789.05,144.57L793.14,145.74L797.23,150.93L801.32,149.15L805.41,149.42L809.49,153.25L813.58,151.21L821.76,156.25L825.85,155.46L834.02,159.65L838.11,159.37L846.29,162.27L850.38,163.26L854.47,165.08L858.55,165.13L866.73,171.07L870.82,169.27L874.91,170.24L879,173.31L883.08,174.17L887.17,174.14L891.26,178.08L895.35,179.85L899.44,180.18L903.53,181.51L907.61,183.77L911.7,184.14L915.79,187.8L919.88,188.24L923.97,187.32L928.06,189.67L932.14,192.68L936.23,191.75L944.41,196.09L948.5,196.4L956.67,202.06L960.76,202.86L964.85,206.89L968.94,209.21L973.03,209.31L977.12,213.82L981.2,215.91L985.29,216.71L993.47,225.77L997.56,228.39L1001.65,231.86L1005.73,236.65L1009.82,241.39L1013.91,248.27L1018,252.71" style="vector-effect: none; fill: none; stroke: rgb(241, 92, 128); stroke-opacity: 1; stroke-width: 2px; opacity: 1;"/></g><g class="points"/><g class="text"/></g><g class="trace scatter traceb7abbb" style="stroke-miterlimit: 2; opacity: 1;"><g class="fills"/><g class="errorbars"/><g class="lines"><path class="js-line" d="M0,108.48L4.09,105.65L8.18,104.88L12.27,104L16.35,105.6L20.44,91.77L24.53,92.13L28.62,92.53L32.71,71.83L57.24,71.11L61.33,67.67L65.41,51.07L69.5,54.32L73.59,67.7L77.68,63.66L81.77,56.35L85.86,52.94L94.03,35.57L98.12,30.24L102.21,34.26L106.3,30.42L110.39,32.27L114.47,31.61L118.56,31.79L122.65,38.66L126.74,35.83L130.83,42.7L134.92,58.93L139,40.42L143.09,40.78L147.18,34L155.36,35.31L159.45,61.9L163.53,49.11L167.62,45.35L171.71,71.1L175.8,68.65L179.89,59.63L183.98,47.15L188.06,46.04L192.15,50.97L196.24,44.48L200.33,40.58L204.42,51.11L208.51,36.5L212.59,29.19L216.68,34.25L220.77,39.59L224.86,37.04L228.95,38.73L233.04,37.51L237.12,38.71L241.21,31.66L245.3,27.06L249.39,30.83L253.48,30.14L257.57,33.37L265.74,35.19L269.83,30.56L273.92,28.56L278.01,34.04L282.1,42.45L286.18,40.52L290.27,42.03L294.36,42.68L298.45,41.01L302.54,40.51L306.63,37.88L310.71,41.45L314.8,45.52L318.89,43.61L322.98,45.24L327.07,51.35L331.16,49.59L335.24,51.18L339.33,54.27L343.42,53.95L347.51,53.92L351.6,56.63L359.78,56.26L363.86,59.81L367.95,57.99L372.04,57.35L376.13,58.85L380.22,59.55L384.31,59.54L388.39,60.29L396.57,61.06L400.66,63.61L408.84,63.76L412.92,65.94L417.01,67.09L421.1,67.07L429.28,69.3L433.37,69.18L437.45,70.78L441.54,71.36L445.63,70.38L449.72,71.97L453.81,74.38L457.9,74L461.98,74.69L466.07,77.9L470.16,76.19L474.25,77.42L478.34,78.04L482.43,76.82L486.51,78.25L490.6,82.19L494.69,80.29L498.78,80.26L502.87,81.97L506.96,82.07L511.04,81.77L515.13,85.23L519.22,83.22L523.31,83.29L527.4,86.41L531.49,84.87L535.57,84.62L539.66,87.8L543.75,86.68L547.84,86.96L551.93,89.66L556.02,88.75L564.19,91.2L568.28,90.87L572.37,91.33L576.46,92.76L580.55,91.22L584.63,92.14L588.72,93.86L592.81,93.16L600.99,94.79L605.08,94.18L613.25,96.39L617.34,96.25L625.52,100.42L629.61,99.28L633.69,101.61L637.78,101.86L641.87,100.56L645.96,102.99L650.05,105.05L654.14,103.15L658.22,105.65L662.31,106.02L666.4,105.05L670.49,107.01L674.58,108.62L678.67,108.18L682.76,111.04L686.84,112.39L690.93,110.69L695.02,111.73L699.11,113.76L703.2,112.41L711.37,120.92L715.46,117.77L719.55,118.8L723.64,122.28L727.73,119.71L731.82,120.83L735.9,125.44L739.99,121.78L744.08,122.09L748.17,127.05L752.26,123.74L756.35,124.78L760.43,131.31L764.52,127.64L768.61,128.47L772.7,134.85L776.79,130.88L780.88,131.09L784.96,136.68L789.05,134.09L793.14,135.68L797.23,141.32L801.32,138.87L805.41,139.41L809.49,143.35L813.58,140.82L817.67,142.65L821.76,145.5L825.85,144.03L829.94,146.69L834.02,149.29L838.11,148.37L846.29,151.78L850.38,152.13L854.47,154.07L858.55,154.1L866.73,159.76L870.82,158.36L874.91,158.99L879,161.9L883.08,163.08L887.17,163.13L891.26,167.17L895.35,168.54L899.44,168.58L903.53,170.96L907.61,172.64L911.7,172.5L915.79,176.19L919.88,176.66L923.97,175.44L928.06,177.91L932.14,180.59L936.23,179.74L944.41,183.88L948.5,184.34L956.67,189.62L960.76,190.48L964.85,194.45L968.94,196.12L973.03,196.27L977.12,200.92L985.29,203.73L989.38,208.59L993.47,212.61L997.56,215.35L1005.73,223.67L1009.82,228.92L1013.91,235.9L1018,239.86" style="vector-effect: none; fill: none; stroke: rgb(228, 211, 84); stroke-opacity: 1; stroke-width: 2px; opacity: 1;"/></g><g class="points"/><g class="text"/></g><g class="trace scatter trace8f8e2b" style="stroke-miterlimit: 2; opacity: 1;"><g class="fills"/><g class="errorbars"/><g class="lines"><path class="js-line" d="M0,100.88L4.09,99.51L8.18,99.12L12.27,98.58L16.35,99.69L20.44,85.15L24.53,85.98L28.62,85.91L32.71,63.4L44.97,63.54L49.06,63.44L57.24,63.58L61.33,60.14L65.41,36.79L69.5,39.03L73.59,40.05L77.68,39.45L81.77,40.41L85.86,38.28L89.94,22.37L94.03,21.65L98.12,20.97L102.21,24.53L106.3,21.79L110.39,21.79L114.47,22.33L118.56,24.46L122.65,26.51L126.74,23.21L130.83,26.27L134.92,27.92L139,29.32L143.09,33.63L147.18,37.01L151.27,28.38L155.36,26.22L159.45,26.52L163.53,24.75L167.62,27.6L171.71,26.88L175.8,31.13L183.98,29.19L188.06,35.59L192.15,38.13L196.24,38.88L200.33,30.35L204.42,28.96L208.51,32.91L212.59,31.4L216.68,32.7L220.77,34.88L224.86,31.9L228.95,35.67L233.04,35.64L237.12,30.43L245.3,32.88L249.39,37.6L253.48,31.13L257.57,30.69L261.65,27.9L265.74,28.96L269.83,27.62L273.92,28.77L278.01,35.5L282.1,34.39L286.18,36.04L290.27,36.06L298.45,35.72L302.54,39.77L306.63,41.06L310.71,39.35L314.8,40.37L318.89,38.51L327.07,40.79L331.16,39.05L335.24,40.7L339.33,43.86L343.42,43.07L347.51,43.7L351.6,48.6L355.69,44.12L359.78,43.45L363.86,44.72L367.95,45.84L372.04,45.52L376.13,48.03L380.22,48.05L384.31,48.63L388.39,50.31L396.57,47.78L400.66,49.12L404.75,50.42L408.84,49.48L412.92,49.75L417.01,49.19L421.1,48.85L425.19,49.49L433.37,50.49L437.45,51.79L445.63,51.82L449.72,53.29L453.81,53.68L457.9,52.76L461.98,54.62L466.07,60.39L470.16,57.72L474.25,57.09L478.34,57.79L482.43,56.59L490.6,59.95L494.69,57.89L506.96,56.13L511.04,57.19L515.13,59.39L519.22,58.77L523.31,57.42L527.4,58.29L535.57,65.96L539.66,64.45L543.75,59.83L547.84,62.36L551.93,61.15L556.02,62.24L560.1,62.92L564.19,66.77L568.28,68.55L572.37,68.43L576.46,68.85L580.55,66.49L584.63,68.04L588.72,67.96L592.81,65.72L596.9,70.01L600.99,67.55L605.08,72.26L609.16,66.59L613.25,66.51L617.34,69.08L621.43,69.53L629.61,74.13L633.69,76.92L637.78,82.63L641.87,76.76L645.96,74.28L650.05,77.81L654.14,74.63L658.22,77.24L662.31,76.3L666.4,78.4L670.49,77.74L674.58,79.13L678.67,77.68L682.76,80.77L690.93,77.34L695.02,76.38L703.2,77.64L707.29,76.54L711.37,82.56L715.46,83.48L719.55,83.94L723.64,87.61L727.73,91.03L731.82,90.47L735.9,89.24L739.99,85.07L744.08,82.79L748.17,88.96L752.26,86.26L756.35,89.09L760.43,92.41L764.52,92.1L768.61,95.34L772.7,91.62L776.79,89.55L780.88,93.5L784.96,91.43L789.05,94.4L793.14,96.08L797.23,99.55L801.32,100.19L805.41,97.66L809.49,104.22L813.58,103.44L817.67,106.32L821.76,104.04L825.85,98.98L829.94,98.13L834.02,100.27L838.11,98.25L842.2,106.79L846.29,112.06L850.38,110.54L854.47,111.34L858.55,111.61L862.64,106.44L866.73,110.61L870.82,118.06L874.91,112.51L879,113.95L883.08,115.79L887.17,115.45L891.26,117.74L895.35,117.73L899.44,119.28L903.53,124.13L907.61,128.77L911.7,124.75L915.79,117.21L919.88,117.26L923.97,120.77L928.06,130L932.14,126.49L936.23,125.89L940.32,123.96L944.41,130.97L948.5,127.13L952.59,127.53L956.67,125.35L960.76,133.93L964.85,137.66L968.94,136.28L973.03,136.51L977.12,135.04L981.2,142.28L985.29,139.24L989.38,147.34L993.47,153.03L997.56,155.86L1001.65,153.85L1005.73,153.04L1009.82,162.26L1013.91,162.36L1018,167.51" style="vector-effect: none; fill: none; stroke: rgb(43, 144, 143); stroke-opacity: 1; stroke-width: 2px; opacity: 1;"/></g><g class="points"/><g class="text"/></g><g class="trace scatter trace879916" style="stroke-miterlimit: 2; opacity: 1;"><g class="fills"/><g class="errorbars"/><g class="lines"><path class="js-line" d="M0,100.54L4.09,99.24L8.18,98.74L12.27,98.18L16.35,99.35L20.44,85.42L24.53,85.41L28.62,86.3L32.71,63.52L49.06,63.53L53.15,63.89L57.24,63.79L61.33,60.19L65.41,36.59L69.5,39.36L73.59,40.32L77.68,39.48L81.77,40.71L85.86,38.04L89.94,21.03L94.03,21.32L98.12,19.84L102.21,24.26L106.3,21.03L110.39,20.46L122.65,24.88L126.74,22.09L130.83,25.72L134.92,25.05L139,25.51L143.09,28.28L147.18,28.39L151.27,23.04L155.36,22.11L159.45,23.12L163.53,21.91L167.62,24.09L171.71,23.03L175.8,27.14L179.89,24.62L183.98,23.23L188.06,28.44L192.15,30.58L196.24,33.77L200.33,25.28L212.59,23.68L216.68,27.88L220.77,31.17L224.86,26.25L228.95,32.22L233.04,31.5L237.12,26.66L241.21,24.84L245.3,22.94L249.39,26.4L253.48,23.43L257.57,22.85L261.65,22.34L265.74,22.84L269.83,21.97L273.92,22.73L278.01,29.53L282.1,29.97L290.27,32.73L294.36,32.17L298.45,32.64L302.54,34.28L306.63,35.75L310.71,35.21L314.8,37.18L318.89,34.37L327.07,39.1L331.16,36.67L335.24,38.6L339.33,41.9L343.42,42.48L347.51,41.03L351.6,47.64L355.69,42.64L359.78,41.34L363.86,42.41L367.95,43.25L372.04,42.93L376.13,46.53L380.22,45.15L384.31,44.44L388.39,46.35L396.57,44.63L400.66,46.55L404.75,51.83L408.84,48.25L412.92,47.7L417.01,45.27L425.19,45.14L429.28,45.15L433.37,47.31L437.45,47.07L441.54,47.78L445.63,47.38L449.72,50.46L453.81,51.55L457.9,51.42L461.98,53.06L466.07,59.6L470.16,55.91L482.43,54.34L486.51,54.85L490.6,55.74L494.69,52.91L498.78,54.13L502.87,52.69L511.04,53.42L515.13,54.98L519.22,54.52L523.31,53.04L531.49,56.83L535.57,62.61L539.66,58.2L543.75,55.14L547.84,57.6L551.93,56.44L556.02,58.72L560.1,59.45L568.28,66.89L572.37,65.85L576.46,67.21L580.55,61.23L584.63,65.86L588.72,65.25L592.81,63.95L596.9,66.02L600.99,63.28L605.08,64.5L609.16,62.01L613.25,61.49L625.52,70.66L629.61,69.84L633.69,72.27L637.78,78.69L645.96,69.73L650.05,71.55L654.14,68.5L658.22,73.4L662.31,72.66L666.4,73.18L670.49,71.3L674.58,76.91L678.67,72.34L682.76,78.58L686.84,74.02L690.93,72.61L699.11,71.65L703.2,73.66L707.29,72.98L711.37,76.74L715.46,77.57L719.55,77.29L723.64,85.68L727.73,84.06L731.82,84.79L735.9,86.67L739.99,82.92L744.08,77.71L748.17,76.53L752.26,76.61L756.35,79.68L760.43,84.13L764.52,84.94L768.61,90.93L772.7,86.01L776.79,85.28L780.88,88.92L784.96,84.24L793.14,86.69L797.23,96.86L801.32,93.2L805.41,90.99L809.49,98.35L813.58,93.74L817.67,101.55L821.76,99.94L825.85,95.28L829.94,92.73L834.02,101.02L838.11,95.53L842.2,105.88L846.29,106.23L850.38,103.36L854.47,103.26L858.55,105.18L862.64,100.09L870.82,106.56L874.91,103.32L883.08,106.48L887.17,105.03L891.26,112.93L895.35,114.49L899.44,112L903.53,116.76L907.61,128.31L911.7,120L915.79,116.65L919.88,114.3L928.06,121.27L932.14,122.77L940.32,115.96L944.41,114.97L948.5,115.46L952.59,116.98L956.67,118.2L960.76,130.34L964.85,131.21L968.94,131.11L973.03,126.25L977.12,122.81L981.2,137.24L985.29,133.97L989.38,136.95L993.47,149.4L997.56,154.56L1001.65,150.51L1005.73,145.22L1009.82,156.84L1013.91,155.64L1018,162.58" style="vector-effect: none; fill: none; stroke: rgb(244, 91, 91); stroke-opacity: 1; stroke-width: 2px; opacity: 1;"/></g><g class="points"/><g class="text"/></g><g class="trace scatter trace010436" style="stroke-miterlimit: 2; opacity: 1;"><g class="fills"/><g class="errorbars"/><g class="lines"><path class="js-line" d="M0,100.93L8.18,98.92L12.27,98.5L16.35,99.86L20.44,85.13L28.62,86.06L32.71,63.68L53.15,63.92L57.24,63.71L61.33,60.28L65.41,36.66L69.5,39.25L73.59,40.59L77.68,39.65L81.77,39.96L85.86,37.59L89.94,21.36L94.03,21.37L98.12,20.54L102.21,24.7L106.3,21.55L114.47,22.25L118.56,24.12L122.65,26.19L126.74,23.08L130.83,26.09L134.92,26.14L139,26.21L143.09,28.91L147.18,29.08L151.27,22.78L155.36,22.1L159.45,22.54L163.53,21.57L167.62,24.14L171.71,23.66L175.8,28.5L179.89,25.14L183.98,23.96L192.15,33.58L196.24,34.81L200.33,26.37L204.42,25.33L208.51,24.4L212.59,24.3L216.68,28.43L220.77,30.33L224.86,25.84L228.95,30.61L233.04,33.28L237.12,27.86L245.3,24.2L249.39,27.8L253.48,24.11L257.57,23.37L261.65,22.52L265.74,23.09L269.83,21.69L273.92,22.23L278.01,30.01L282.1,30.16L290.27,33.02L294.36,32.86L298.45,33.11L302.54,34.42L306.63,35.75L310.71,35.24L314.8,37.61L318.89,34.78L327.07,39.12L331.16,36.05L339.33,43.72L343.42,42.31L347.51,41.33L351.6,47.42L355.69,42.61L359.78,40.64L367.95,42.53L372.04,41.94L376.13,45.8L380.22,44.66L384.31,44.02L388.39,46.86L392.48,45.24L396.57,44.44L400.66,45.71L404.75,48.45L408.84,46.62L412.92,47.03L417.01,44.7L421.1,44.92L429.28,44.7L433.37,46.55L441.54,47.73L445.63,48.33L453.81,52.89L457.9,51.95L461.98,54.92L466.07,64.25L474.25,57.61L478.34,56.14L482.43,54.71L486.51,55.63L490.6,55.33L494.69,53.8L498.78,54.69L502.87,53.42L506.96,52.99L511.04,55.54L515.13,57.52L519.22,56.91L523.31,53.3L527.4,54.39L531.49,57.5L535.57,63.84L543.75,56.67L547.84,58.84L551.93,57.87L556.02,61.36L560.1,61.39L564.19,70.47L568.28,71.34L572.37,68.7L576.46,68.89L580.55,65.05L584.63,67.75L588.72,67.93L592.81,65.38L596.9,70.55L600.99,66.1L605.08,69.2L609.16,65.27L613.25,63.96L621.43,67.2L625.52,70.25L629.61,71.42L633.69,74.98L637.78,78.72L641.87,73.49L645.96,69.98L650.05,75.74L654.14,70.96L658.22,76.7L662.31,72.8L666.4,75.1L670.49,71.82L674.58,77.8L678.67,71.5L682.76,79.42L686.84,73.23L690.93,74.16L699.11,69.73L703.2,72.64L707.29,71.14L711.37,77.7L715.46,79.18L719.55,79.12L723.64,94.5L727.73,89.9L731.82,91.53L735.9,91.86L744.08,81.29L748.17,88.53L752.26,87.46L756.35,89.46L760.43,91.73L764.52,90.78L768.61,92.93L772.7,86.19L776.79,84.29L780.88,89.83L784.96,85.83L789.05,87.92L793.14,86.65L797.23,92.8L805.41,88.92L809.49,102.24L813.58,98.21L817.67,104.55L821.76,97.71L825.85,92.75L829.94,90.03L834.02,101.04L838.11,96.25L842.2,106.49L846.29,106.56L850.38,101.8L854.47,102.33L858.55,110L862.64,102.71L866.73,108.55L870.82,110.23L874.91,104.86L879,108.27L883.08,109.33L887.17,109.32L891.26,115.08L895.35,113.18L899.44,114.11L903.53,119.48L907.61,129.79L915.79,113.44L919.88,113.09L923.97,114.88L928.06,122.44L932.14,123.49L936.23,119.9L940.32,117.81L944.41,118.28L948.5,122.37L952.59,121.44L956.67,120.84L960.76,133.87L968.94,131.28L973.03,127.07L977.12,124.42L981.2,135.74L985.29,133.47L989.38,138.46L993.47,152.47L997.56,153.27L1005.73,144.04L1009.82,156.43L1013.91,152.38L1018,161.38" style="vector-effect: none; fill: none; stroke: rgb(145, 232, 225); stroke-opacity: 1; stroke-width: 2px; opacity: 1;"/></g><g class="points"/><g class="text"/></g></g></g></g><path class="xlines-above crisp" d="M0,0" style="fill: none;"/><path class="ylines-above crisp" d="M0,0" style="fill: none;"/><g class="overlines-above"/><g class="xaxislayer-above"><g class="xtick"><text text-anchor="middle" x="0" y="451" transform="translate(260.33000000000004,0)" style="font-family: 'Lucida Grande', 'Open Sans', verdana, arial, sans-serif; font-size: 10px; fill: rgb(0, 0, 0); fill-opacity: 1; white-space: pre; opacity: 1;">50</text></g><g class="xtick"><text text-anchor="middle" x="0" y="451" style="font-family: 'Lucida Grande', 'Open Sans', verdana, arial, sans-serif; font-size: 10px; fill: rgb(0, 0, 0); fill-opacity: 1; white-space: pre; opacity: 1;" transform="translate(464.75,0)">100</text></g><g class="xtick"><text text-anchor="middle" x="0" y="451" style="font-family: 'Lucida Grande', 'Open Sans', verdana, arial, sans-serif; font-size: 10px; fill: rgb(0, 0, 0); fill-opacity: 1; white-space: pre; opacity: 1;" transform="translate(669.16,0)">150</text></g><g class="xtick"><text text-anchor="middle" x="0" y="451" style="font-family: 'Lucida Grande', 'Open Sans', verdana, arial, sans-serif; font-size: 10px; fill: rgb(0, 0, 0); fill-opacity: 1; white-space: pre; opacity: 1;" transform="translate(873.58,0)">200</text></g><g class="xtick"><text text-anchor="middle" x="0" y="451" style="font-family: 'Lucida Grande', 'Open Sans', verdana, arial, sans-serif; font-size: 10px; fill: rgb(0, 0, 0); fill-opacity: 1; white-space: pre; opacity: 1;" transform="translate(1078,0)">250</text></g></g><g class="yaxislayer-above"><g class="ytick"><text text-anchor="end" x="54" y="3.5" transform="translate(0,435)" style="font-family: 'Lucida Grande', 'Open Sans', verdana, arial, sans-serif; font-size: 10px; fill: rgb(0, 0, 0); fill-opacity: 1; white-space: pre; opacity: 1;">0</text></g><g class="ytick"><text text-anchor="end" x="54" y="3.5" style="font-family: 'Lucida Grande', 'Open Sans', verdana, arial, sans-serif; font-size: 10px; fill: rgb(0, 0, 0); fill-opacity: 1; white-space: pre; opacity: 1;" transform="translate(0,387.81)">5</text></g><g class="ytick"><text text-anchor="end" x="54" y="3.5" style="font-family: 'Lucida Grande', 'Open Sans', verdana, arial, sans-serif; font-size: 10px; fill: rgb(0, 0, 0); fill-opacity: 1; white-space: pre; opacity: 1;" transform="translate(0,340.62)">10</text></g><g class="ytick"><text text-anchor="end" x="54" y="3.5" style="font-family: 'Lucida Grande', 'Open Sans', verdana, arial, sans-serif; font-size: 10px; fill: rgb(0, 0, 0); fill-opacity: 1; white-space: pre; opacity: 1;" transform="translate(0,293.43)">15</text></g><g class="ytick"><text text-anchor="end" x="54" y="3.5" style="font-family: 'Lucida Grande', 'Open Sans', verdana, arial, sans-serif; font-size: 10px; fill: rgb(0, 0, 0); fill-opacity: 1; white-space: pre; opacity: 1;" transform="translate(0,246.24)">20</text></g><g class="ytick"><text text-anchor="end" x="54" y="3.5" style="font-family: 'Lucida Grande', 'Open Sans', verdana, arial, sans-serif; font-size: 10px; fill: rgb(0, 0, 0); fill-opacity: 1; white-space: pre; opacity: 1;" transform="translate(0,199.05)">25</text></g><g class="ytick"><text text-anchor="end" x="54" y="3.5" style="font-family: 'Lucida Grande', 'Open Sans', verdana, arial, sans-serif; font-size: 10px; fill: rgb(0, 0, 0); fill-opacity: 1; white-space: pre; opacity: 1;" transform="translate(0,151.86)">30</text></g><g class="ytick"><text text-anchor="end" x="54" y="3.5" style="font-family: 'Lucida Grande', 'Open Sans', verdana, arial, sans-serif; font-size: 10px; fill: rgb(0, 0, 0); fill-opacity: 1; white-space: pre; opacity: 1;" transform="translate(0,104.67)">35</text></g><g class="ytick"><text text-anchor="end" x="54" y="3.5" style="font-family: 'Lucida Grande', 'Open Sans', verdana, arial, sans-serif; font-size: 10px; fill: rgb(0, 0, 0); fill-opacity: 1; white-space: pre; opacity: 1;" transform="translate(0,57.480000000000004)">40</text></g></g><g class="overaxes-above"/></g></g><g class="polarlayer"/><g class="smithlayer"/><g class="ternarylayer"/><g class="geolayer"/><g class="funnelarealayer"/><g class="pielayer"/><g class="iciclelayer"/><g class="treemaplayer"/><g class="sunburstlayer"/><g class="glimages"/><defs id="topdefs-042de7"><g class="clips"/></defs><g class="layer-above"><g class="imagelayer"/><g class="shapelayer"/></g><g class="infolayer"><g class="g-gtitle"><text class="gtitle" x="550" y="25" text-anchor="middle" dy="0em" style="opacity: 1; font-family: 'Lucida Grande', 'Open Sans', verdana, arial, sans-serif; font-size: 20px; fill: rgb(42, 63, 95); fill-opacity: 1; white-space: pre;"><tspan class="line" dy="0em" x="550" y="25">Fastp: Sequence Quality</tspan><tspan class="line" dy="1.3em" x="550" y="25">​<tspan style="font-size:70%" dy="-0.6em">Read 1: After filtering, 10 samples</tspan><tspan dy="0.42em">​</tspan></tspan></text></g><g class="g-xtitle"><text class="xtitle" x="569" y="472.3" text-anchor="middle" style="opacity: 0.3; font-family: 'Lucida Grande', 'Open Sans', verdana, arial, sans-serif; font-size: 14px; fill: rgb(0, 0, 0); fill-opacity: 1; white-space: pre;">Read Position</text></g><g class="g-ytitle"><text class="ytitle" transform="rotate(-90,26.865625,242.5)" x="26.865625" y="242.5" text-anchor="middle" style="opacity: 0.3; font-family: 'Lucida Grande', 'Open Sans', verdana, arial, sans-serif; font-size: 14px; fill: rgb(0, 0, 0); fill-opacity: 1; white-space: pre;">R1 After filtering: Sequence Quality</text></g></g></svg>