<svg class="main-svg" xmlns="http://www.w3.org/2000/svg" xmlns:xlink="http://www.w3.org/1999/xlink" width="2200" height="1000" style="" viewBox="0 0 1100 500"><rect x="0" y="0" width="1100" height="500" style="fill: rgb(255, 255, 255); fill-opacity: 1;"/><defs id="defs-b0788b"><g class="clips"><clipPath id="clipb0788bxyplot" class="plotclip"><rect width="1007" height="385"/></clipPath><clipPath class="axesclip" id="clipb0788bx"><rect x="71" y="0" width="1007" height="500"/></clipPath><clipPath class="axesclip" id="clipb0788by"><rect x="0" y="50" width="1100" height="385"/></clipPath><clipPath class="axesclip" id="clipb0788bxy"><rect x="71" y="50" width="1007" height="385"/></clipPath></g><g class="gradients"/><g class="patterns"/></defs><g class="bglayer"/><g class="layer-below"><g class="imagelayer"/><g class="shapelayer"/></g><g class="cartesianlayer"><g class="subplot xy"><g class="layer-subplot"><g class="shapelayer"/><g class="imagelayer"/></g><g class="minor-gridlayer"><g class="x"/><g class="y"/></g><g class="gridlayer"><g class="x"><path class="xgrid crisp" transform="translate(269.15999999999997,0)" d="M0,50v385" style="stroke: rgb(0, 0, 0); stroke-opacity: 0.05; stroke-width: 1px;"/><path class="xgrid crisp" transform="translate(471.37,0)" d="M0,50v385" style="stroke: rgb(0, 0, 0); stroke-opacity: 0.05; stroke-width: 1px;"/><path class="xgrid crisp" transform="translate(673.58,0)" d="M0,50v385" style="stroke: rgb(0, 0, 0); stroke-opacity: 0.05; stroke-width: 1px;"/><path class="xgrid crisp" transform="translate(875.79,0)" d="M0,50v385" style="stroke: rgb(0, 0, 0); stroke-opacity: 0.05; stroke-width: 1px;"/></g><g class="y"><path class="ygrid crisp" transform="translate(0,358)" d="M71,0h1007" style="stroke: rgb(0, 0, 0); stroke-opacity: 0.05; stroke-width: 1px;"/><path class="ygrid crisp" transform="translate(0,281)" d="M71,0h1007" style="stroke: rgb(0, 0, 0); stroke-opacity: 0.05; stroke-width: 1px;"/><path class="ygrid crisp" transform="translate(0,204)" d="M71,0h1007" style="stroke: rgb(0, 0, 0); stroke-opacity: 0.05; stroke-width: 1px;"/><path class="ygrid crisp" transform="translate(0,127)" d="M71,0h1007" style="stroke: rgb(0, 0, 0); stroke-opacity: 0.05; stroke-width: 1px;"/></g></g><g class="zerolinelayer"><path class="yzl zl crisp" transform="translate(0,435)" d="M71,0h1007" style="stroke: rgb(0, 0, 0); stroke-opacity: 0.05; stroke-width: 2px;"/></g><g class="layer-between"><g class="shapelayer"/><g class="imagelayer"/></g><path class="xlines-below"/><path class="ylines-below"/><g class="overlines-below"/><g class="xaxislayer-below"/><g class="yaxislayer-below"/><g class="overaxes-below"/><g class="overplot"><g class="xy" transform="translate(71,50)" clip-path="url(#clipb0788bxyplot)"><g class="scatterlayer mlayer"><g class="trace scatter trace01207e" style="stroke-miterlimit: 2; opacity: 1;"><g class="fills"/><g class="errorbars"/><g class="lines"><path class="js-line" d="M0,185.04L4.04,188.93L8.09,213.76L12.13,174.18L16.18,177.55L20.22,172.81L24.27,176.95L32.35,177.74L36.4,185L40.44,201.96L44.49,181.67L48.53,186.7L52.57,190.27L56.62,193.84L60.66,6.45L64.71,11.26L68.75,60.15L72.8,372.22L76.84,322.83L80.88,6.49L84.93,6.36L88.97,9.21L93.02,7.82L97.06,48.94L101.1,16.44L105.15,295.81L109.19,365.09L113.24,48.38L117.28,15.9L121.33,283.66L125.37,47.57L129.41,18.56L133.46,320.51L137.5,78.57L141.55,17.37L145.59,33.34L149.63,345.54L153.68,29.41L157.72,343.14L161.77,52.28L165.81,27.4L169.86,348.93L173.9,29.3L177.94,351.51L181.99,17.57L186.03,24.47L190.08,56.16L194.12,344.37L198.16,32.14L202.21,354.63L206.25,19.63L210.3,30.78L214.34,276.39L218.39,114.48L222.43,51.8L226.47,39.36L230.52,348.26L234.56,227.78L238.61,12.13L242.65,15.75L246.69,128.75L250.74,326.13L254.78,11.6L258.83,15.18L262.87,9.83L266.92,10.58L270.96,12.54L275,27.7L279.05,353.59L283.09,49.45L287.14,293.35L291.18,208.73L295.22,88.22L299.27,324.52L303.31,42.39L307.36,202.36L311.4,314.76L315.45,285.28L319.49,176.14L323.53,134.49L327.58,150.13L331.62,152.5L335.67,223.5L339.71,214.28L343.76,165.77L347.8,200.34L351.84,203.96L355.89,165.6L359.93,184.21L363.98,203.96L368.02,179.88L372.06,182.58L376.11,191.2L380.15,182.26L384.2,183.93L388.24,182.95L392.29,188.23L396.33,144.81L400.37,176.3L404.42,198.83L408.46,154.57L412.51,183.91L416.55,185.92L420.59,157.2L424.64,192.65L428.68,209.17L432.73,168.18L436.77,200.69L440.82,195.63L444.86,177.68L448.9,214.71L452.95,200.76L456.99,192.19L461.04,224.2L465.08,189.27L469.12,191.97L473.17,217L477.21,163.12L481.26,189.24L485.3,196.41L489.35,160.38L493.39,179.88L497.43,194.89L501.48,140.21L505.52,190.6L509.57,187.68L513.61,137.43L517.65,192.79L521.7,179.99L525.74,140.36L529.79,193.92L537.88,139.63L541.92,190.51L545.96,185.24L550.01,114.21L554.05,196.16L558.1,184.35L562.14,122.33L566.18,197.51L570.23,181.48L574.27,109.66L578.32,205.15L582.36,200.56L586.41,117.3L590.45,210.57L594.49,204.07L598.54,114.81L602.58,226.21L606.63,194.4L610.67,116.25L614.71,246.65L618.76,194.26L622.8,127.65L626.85,242.79L630.89,202.54L634.94,103.44L638.98,255.49L643.02,201.36L647.07,103L651.11,237.15L655.16,230.9L659.2,100.25L663.24,226.22L667.29,227.34L671.33,106.41L675.38,224.13L679.42,243.08L683.47,103.09L687.51,217.71L691.55,232.45L695.6,96.42L699.64,206.9L703.69,254.84L707.73,105.39L711.78,198.22L715.82,255.7L719.86,100.96L723.91,195.09L727.95,247.3L732,106.86L736.04,187.86L740.08,258.31L744.13,96.65L752.22,264.56L756.26,100.92L760.31,175.39L764.35,263.97L768.39,92.66L772.44,203.8L776.48,251.33L780.53,96.05L784.57,178.41L788.61,229.03L792.66,91.26L796.7,178.65L800.75,217.8L804.79,93.47L808.84,184.46L812.88,203.86L816.92,92.29L820.97,186.52L825.01,204.18L829.06,113.48L833.1,202.68L837.14,202.77L841.19,115.19L845.23,200.81L849.28,195.71L853.32,106.25L857.37,202.84L861.41,195.6L865.45,127.44L869.5,205.88L873.54,204.23L877.59,144.73L881.63,195.06L885.67,209.07L889.72,160.96L893.76,206.38L897.81,224.27L901.85,160.25L905.9,207.35L909.94,220.52L913.98,197.72L918.03,206.21L922.07,210.14L926.12,186.18L930.16,186.33L934.2,199.56L938.25,205L942.29,191.92L946.34,210L950.38,215.01L954.43,203.55L958.47,232.17L962.51,204.7L966.56,197.23L970.6,225.3L974.65,215.89L978.69,201.04L982.73,207.69L986.78,190.53L990.82,205.92L994.87,219.15L998.91,186.83L1002.96,197.77L1007,212.1" style="vector-effect: none; fill: none; stroke: rgb(124, 181, 236); stroke-opacity: 1; stroke-width: 2px; opacity: 1;"/></g><g class="points"/><g class="text"/></g><g class="trace scatter traced4bc4e" style="stroke-miterlimit: 2; opacity: 1;"><g class="fills"/><g class="errorbars"/><g class="lines"><path class="js-line" d="M0,187.28L4.04,189.38L8.09,214.58L12.13,174.83L16.18,177.75L20.22,172.78L24.27,177.9L32.35,177.66L36.4,184.98L40.44,202.24L44.49,182.55L56.62,194.47L60.66,5.27L64.71,10.41L68.75,56.79L72.8,372.95L76.84,326.12L80.88,5.44L84.93,5.24L88.97,8.18L93.02,6.63L97.06,45.33L101.1,15.47L105.15,299.77L109.19,365.91L113.24,46.86L117.28,14.98L121.33,287.39L125.37,46.12L129.41,17.61L133.46,320.82L137.5,78.96L141.55,15.72L145.59,32.13L149.63,346.99L153.68,27.32L157.72,343.32L161.77,49.72L165.81,25.9L169.86,349.39L173.9,27.52L177.94,353.42L181.99,15.12L186.03,22.37L190.08,53.95L194.12,344.47L198.16,30.92L202.21,355.64L206.25,17.23L210.3,27.94L214.34,279.49L218.39,110.08L222.43,48.33L226.47,37.2L230.52,349L234.56,230.39L238.61,10.54L242.65,13.95L246.69,123.6L250.74,328.1L254.78,10.43L258.83,14.31L262.87,8.34L270.96,10.5L275,26.11L279.05,354.97L283.09,47.19L287.14,289.44L291.18,209.15L295.22,88.26L299.27,325.33L303.31,41.3L307.36,201.14L311.4,322.14L315.45,290.76L319.49,176.85L323.53,133.55L327.58,149.22L331.62,149.03L335.67,220.71L339.71,207.61L343.76,170.07L347.8,202.97L351.84,206L355.89,173.64L359.93,184.77L363.98,199.61L368.02,180.18L372.06,176.44L376.11,193.76L380.15,182.5L384.2,182.12L388.24,180.39L392.29,190.97L396.33,147.68L400.37,175.29L404.42,197.02L408.46,155.21L412.51,183.91L416.55,183.87L420.59,156.9L424.64,195.47L428.68,210.49L432.73,169.94L436.77,206.72L440.82,195.84L444.86,175.02L448.9,210.94L452.95,199.07L456.99,190.75L461.04,218.45L465.08,188.11L469.12,196.45L473.17,214.16L477.21,165.99L481.26,186.42L485.3,198.14L489.35,156.82L493.39,180.7L497.43,196.87L501.48,140.75L505.52,187.25L509.57,186.82L513.61,138.09L517.65,195.6L521.7,184.81L525.74,139.6L529.79,196.06L533.83,162.55L537.88,137.77L541.92,184.17L545.96,187.7L550.01,107.01L554.05,193.31L558.1,180.35L562.14,116.84L566.18,203.51L570.23,179.4L574.27,108.4L578.32,209.75L582.36,200.46L586.41,116.7L590.45,212.66L594.49,205.7L598.54,115.01L602.58,228.05L606.63,194.7L610.67,118.09L614.71,238.73L618.76,202.19L622.8,127.89L626.85,242.1L630.89,207.73L634.94,101.06L638.98,252.57L643.02,201.33L647.07,100.96L651.11,237.09L655.16,228.61L659.2,98.36L663.24,224.74L667.29,222.9L671.33,106.82L675.38,231.77L679.42,244.85L683.47,101.71L687.51,218.04L691.55,228.85L695.6,98.31L699.64,204.83L703.69,257.34L707.73,101.9L711.78,201.67L715.82,256.75L719.86,99.96L723.91,198.38L727.95,248.86L732,105.39L736.04,185.36L740.08,259.64L744.13,94.77L748.17,188.42L752.22,261.99L756.26,106.17L760.31,178.81L764.35,260.96L768.39,97.3L772.44,201.09L776.48,257.64L780.53,93.95L784.57,180.28L788.61,228.24L792.66,91.03L796.7,178.62L800.75,214.36L804.79,91.89L808.84,185.65L812.88,205.63L816.92,90.92L820.97,191.24L825.01,204.68L829.06,121.11L833.1,205.35L837.14,197.09L841.19,115.99L845.23,199.29L849.28,197.79L853.32,110.78L857.37,200.1L861.41,195.18L865.45,131.72L869.5,201.82L873.54,202.17L877.59,139.17L881.63,199.06L885.67,215.12L889.72,153.29L893.76,208.43L897.81,221.05L901.85,165.12L905.9,200.47L909.94,223.36L913.98,197.49L922.07,215.09L926.12,186.96L930.16,187.95L934.2,198.24L938.25,209.28L942.29,188.18L946.34,218.98L950.38,203.67L954.43,204.69L958.47,233.26L966.56,188.04L970.6,224.44L974.65,222.7L978.69,196.73L982.73,207.66L986.78,195.57L990.82,216.25L994.87,218.21L998.91,185.71L1002.96,191.24L1007,214.98" style="vector-effect: none; fill: none; stroke: rgb(67, 67, 72); stroke-opacity: 1; stroke-width: 2px; opacity: 1;"/></g><g class="points"/><g class="text"/></g><g class="trace scatter tracee56ab0" style="stroke-miterlimit: 2; opacity: 1;"><g class="fills"/><g class="errorbars"/><g class="lines"><path class="js-line" d="M0,184.76L4.04,188.26L8.09,214.22L12.13,172.8L16.18,175.79L20.22,171.06L24.27,175.75L28.31,175.76L32.35,176.85L36.4,183.61L40.44,201L44.49,180.91L48.53,185.7L56.62,192.26L60.66,4.2L64.71,9.63L68.75,54.12L72.8,373.46L76.84,328.46L80.88,4.39L84.93,4.08L88.97,7.61L93.02,5.48L97.06,42.46L101.1,14.79L105.15,308.92L109.19,366.07L113.24,39.97L117.28,14.34L121.33,296.02L125.37,38.8L129.41,16.72L133.46,319.25L137.5,70.62L141.55,16.47L145.59,32.11L149.63,345.66L153.68,28.73L157.72,343.29L161.77,51.57L165.81,26.34L169.86,349.51L173.9,27.89L177.94,352.41L181.99,15.44L186.03,22.88L190.08,54.49L194.12,343.31L198.16,31.31L202.21,355.55L206.25,18.02L210.3,28.33L214.34,276.2L218.39,115.59L222.43,50.77L226.47,39.29L230.52,347.47L234.56,227.06L238.61,10.75L242.65,14.27L246.69,130.07L250.74,331.28L254.78,10.04L258.83,14.45L262.87,7.89L270.96,10.57L275,26.67L279.05,353.92L283.09,47.74L287.14,291.67L291.18,211.58L295.22,87.93L299.27,324.51L303.31,42.67L307.36,200.31L311.4,320.45L315.45,290.63L319.49,175.68L323.53,132.47L327.58,148.03L331.62,149.41L335.67,223.03L339.71,206.71L343.76,170.8L347.8,204.24L351.84,207.14L355.89,167.66L359.93,183.33L363.98,203.19L368.02,179.57L372.06,178.98L376.11,195.48L380.15,181.71L384.2,179.84L388.24,183.11L392.29,189.7L396.33,149.66L400.37,175.85L404.42,197.06L408.46,150.68L412.51,178.41L416.55,185.08L420.59,154.5L424.64,190.2L428.68,213.75L432.73,166.17L436.77,205.89L440.82,196.27L444.86,178.4L448.9,213.64L452.95,206.85L456.99,193.29L461.04,227.94L465.08,185.4L469.12,197.3L473.17,213.04L477.21,168.15L485.3,201.19L489.35,157.04L493.39,185.74L497.43,196.75L501.48,137.6L505.52,188.06L509.57,183.88L513.61,133.34L517.65,197.72L521.7,180.24L525.74,139.51L529.79,194.64L533.83,159.39L537.88,136.93L541.92,185.87L545.96,186.03L550.01,110.77L554.05,200.6L558.1,178.62L562.14,117.55L566.18,202.51L570.23,178.53L574.27,106.1L578.32,207.33L582.36,199.6L586.41,114.46L590.45,213.96L594.49,211.51L598.54,118.87L602.58,231.56L606.63,195.38L610.67,119.32L614.71,239.97L618.76,200.85L622.8,132.53L626.85,244.2L630.89,206.1L634.94,97.62L638.98,258.34L643.02,200.16L647.07,105.02L651.11,237.89L655.16,226.9L659.2,97.56L663.24,225.48L667.29,224.26L671.33,108.5L675.38,231.52L679.42,251.01L683.47,100.73L687.51,212.01L691.55,230.11L695.6,100.54L699.64,206.81L703.69,259.4L707.73,100.25L711.78,204.28L715.82,260.35L719.86,97.53L723.91,195.4L727.95,248.07L732,101.99L740.08,258.24L744.13,98.74L752.22,263.63L756.26,102.12L760.31,175.08L764.35,267.43L768.39,93.99L772.44,201.89L776.48,256.94L780.53,92.99L784.57,170.3L788.61,232.29L792.66,88.23L796.7,178.54L800.75,212.78L804.79,88.99L808.84,185.44L812.88,209.51L816.92,87.72L820.97,192.67L825.01,201.74L829.06,123.25L833.1,205.87L837.14,200.26L841.19,116.45L845.23,197.6L849.28,197.71L853.32,115.2L857.37,201.46L861.41,196.88L865.45,130.39L869.5,204.6L873.54,199.85L877.59,140.17L881.63,195.07L885.67,218L889.72,158.12L893.76,215.62L897.81,218.76L901.85,171.23L905.9,207.49L909.94,220.68L913.98,200.67L918.03,210.56L922.07,218.03L926.12,191.31L930.16,191.87L934.2,196.47L938.25,215.53L942.29,185.58L946.34,214.81L950.38,210.59L954.43,205.01L958.47,232.45L962.51,209.22L966.56,192.27L970.6,227.16L974.65,220.21L978.69,196.91L982.73,200.76L986.78,197.3L990.82,215.61L994.87,218.9L998.91,187.49L1002.96,194.98L1007,211.93" style="vector-effect: none; fill: none; stroke: rgb(144, 237, 125); stroke-opacity: 1; stroke-width: 2px; opacity: 1;"/></g><g class="points"/><g class="text"/></g><g class="trace scatter trace393aae" style="stroke-miterlimit: 2; opacity: 1;"><g class="fills"/><g class="errorbars"/><g class="lines"><path class="js-line" d="M0,196.77L4.04,182.63L8.09,215.45L12.13,183.17L16.18,188L20.22,169.15L24.27,182.2L28.31,197.97L32.35,202.31L36.4,181.55L40.44,190.42L44.49,203.93L48.53,205.77L52.57,210.18L56.62,198.19L60.66,12.38L64.71,33.42L72.8,346.73L76.84,183.13L80.88,10.46L84.93,10.82L88.97,26.88L93.02,23.21L97.06,178.63L101.1,19L109.19,342.09L113.24,42.95L117.28,17.23L121.33,178.09L125.37,37L129.41,21.85L133.46,190.82L137.5,136.13L141.55,130.13L145.59,129.12L149.63,167.23L153.68,147.44L157.72,219.85L161.77,104.56L165.81,111.75L169.86,194.22L173.9,129.79L177.94,193.88L181.99,161.1L186.03,97.64L194.12,185.6L198.16,145.68L202.21,201.98L206.25,167.72L210.3,111.68L214.34,166.79L222.43,94.91L226.47,113.35L230.52,224.26L234.56,169.12L238.61,107.64L242.65,144.89L246.69,137.65L250.74,197.06L254.78,140.72L258.83,95.68L262.87,162.06L266.92,82.58L270.96,138.69L275,121.18L279.05,201.81L283.09,92.32L287.14,220.96L291.18,204.01L295.22,146.4L299.27,183.66L303.31,158.79L307.36,157.88L311.4,190.41L315.45,169.57L319.49,120.73L323.53,165.58L327.58,180.71L331.62,118.44L335.67,165.35L339.71,195.01L343.76,164.28L347.8,151.07L351.84,143.83L355.89,216.02L359.93,169.06L363.98,147.9L372.06,179.26L376.11,170.03L380.15,205.84L384.2,200.54L388.24,134.62L392.29,223.41L396.33,186.54L400.37,142.31L404.42,174.18L408.46,221.25L412.51,175.52L416.55,180.11L420.59,159.73L424.64,198.02L428.68,201.01L432.73,185.23L436.77,203.26L440.82,159.16L444.86,166.98L448.9,188.81L452.95,196.44L456.99,201.65L461.04,216.21L465.08,164.69L469.12,125.39L473.17,165.87L477.21,142.23L481.26,161.45L485.3,177.29L489.35,165.93L493.39,173.91L497.43,193.56L501.48,166.45L505.52,162.79L509.57,139.62L513.61,149.68L517.65,188.75L521.7,159.14L525.74,141.21L529.79,185.17L533.83,171.15L537.88,167.87L541.92,131.77L545.96,206.85L550.01,142.51L554.05,131.07L558.1,214.97L562.14,129.75L566.18,158.92L570.23,182.03L574.27,199.89L578.32,194.21L582.36,211.46L586.41,175.4L590.45,165.52L594.49,141.09L598.54,176.18L602.58,159.21L606.63,147.36L610.67,187.93L614.71,163.18L618.76,174.89L622.8,143.29L626.85,154.91L630.89,197.97L634.94,137.99L638.98,151.51L643.02,183L647.07,146.36L651.11,198.79L655.16,196.49L659.2,145.46L663.24,142.97L667.29,149.17L671.33,157.68L675.38,144.69L679.42,163.12L683.47,197.51L687.51,167.65L691.55,160.96L695.6,177.6L699.64,180.49L703.69,138.91L707.73,181.44L711.78,151.9L715.82,155.56L719.86,144.67L723.91,135.93L727.95,175.64L732,157.42L736.04,154.26L740.08,160.85L744.13,147.75L748.17,138.7L752.22,202.8L756.26,161.91L760.31,172.27L764.35,185.41L768.39,121.48L772.44,167.5L776.48,185.44L780.53,143.96L784.57,116.44L788.61,140.47L792.66,126.61L796.7,166.48L800.75,187.35L804.79,139.31L808.84,181.03L812.88,162.46L816.92,143.66L820.97,138.37L825.01,187.55L829.06,125.86L833.1,167.81L837.14,188.95L841.19,131.61L845.23,127.98L849.28,208.75L853.32,146.79L857.37,181.53L861.41,175.61L865.45,129.41L869.5,184.02L873.54,170.92L877.59,134.92L881.63,178.81L885.67,175.85L889.72,144.11L893.76,146.17L897.81,189.64L901.85,142.81L905.9,187.29L909.94,209.74L913.98,202.05L918.03,147.63L922.07,228.51L926.12,170.9L930.16,179.28L934.2,150.24L938.25,169.98L942.29,152.1L946.34,187.36L950.38,168.65L954.43,181.22L958.47,198.44L962.51,145.74L966.56,179.21L970.6,147.86L974.65,170.38L978.69,195.65L982.73,188.45L986.78,184.72L990.82,156.8L994.87,133.91L998.91,158.78L1002.96,155.7L1007,175.22" style="vector-effect: none; fill: none; stroke: rgb(247, 163, 92); stroke-opacity: 1; stroke-width: 2px; opacity: 1;"/></g><g class="points"/><g class="text"/></g><g class="trace scatter tracef5e3fe" style="stroke-miterlimit: 2; opacity: 1;"><g class="fills"/><g class="errorbars"/><g class="lines"><path class="js-line" d="M0,184.93L4.04,189.83L8.09,214.17L12.13,174.64L16.18,180.35L20.22,174.9L24.27,179L32.35,177.59L36.4,184.43L40.44,203.98L44.49,181.66L48.53,185.1L52.57,192.64L56.62,201.05L60.66,8.19L64.71,12.43L68.75,41.58L72.8,371.61L76.84,341.65L80.88,7.75L84.93,7.52L88.97,10.67L93.02,8.9L97.06,31.88L101.1,19.3L105.15,344.76L109.19,362.47L113.24,20.94L117.28,18.61L121.33,332.36L125.37,19.12L129.41,19.8L133.46,332.37L137.5,103.68L141.55,11.94L145.59,26.23L149.63,351.07L153.68,24.27L157.72,352.57L161.77,52.11L165.81,23.57L169.86,358.45L173.9,25.75L177.94,358.62L181.99,12.96L186.03,26.21L190.08,45.66L194.12,354.34L198.16,25.76L202.21,359.29L206.25,19.73L210.3,25.91L214.34,291.67L218.39,104.17L222.43,51.89L226.47,34.48L230.52,355.58L234.56,241.83L238.61,10.93L242.65,14L246.69,117.91L250.74,338.88L254.78,11.32L258.83,12.3L262.87,9.38L270.96,11.19L275,23.54L279.05,360.65L283.09,50.19L287.14,295.8L291.18,226.75L295.22,89.97L299.27,322.27L303.31,40.07L307.36,217.83L311.4,318.03L315.45,289.89L319.49,172.2L323.53,143.58L327.58,164.2L331.62,144.15L335.67,211.69L339.71,199.51L343.76,152.89L347.8,182.22L351.84,191.51L355.89,163.98L359.93,178.4L363.98,199.43L368.02,180.1L372.06,179.19L376.11,195.1L380.15,203.53L384.2,164.9L388.24,182.54L392.29,201.9L396.33,159.9L400.37,187.48L404.42,187.2L408.46,152.13L412.51,184.36L416.55,206.47L420.59,155.28L424.64,214.35L428.68,194.12L432.73,176.93L436.77,203.32L440.82,200.2L444.86,175.59L448.9,211.19L452.95,196.02L456.99,186.62L461.04,224.84L465.08,192.79L469.12,184.14L473.17,221.74L477.21,167.32L481.26,195.44L485.3,212.49L489.35,151.21L493.39,192.3L497.43,198.07L501.48,146.93L509.57,201.31L513.61,132.89L517.65,192.28L521.7,184.4L525.74,133.75L529.79,199.28L533.83,173.28L537.88,131.87L541.92,204.89L545.96,174.65L550.01,121.37L554.05,192.41L558.1,181.88L562.14,121.82L566.18,196.54L570.23,188.08L574.27,115.62L578.32,208.17L582.36,195.8L586.41,112.11L590.45,216.51L594.49,206.98L598.54,108.15L602.58,234.84L606.63,212.15L610.67,102.61L614.71,236.01L618.76,229.96L622.8,118.79L626.85,245.74L630.89,211.62L634.94,98.75L638.98,248.41L643.02,218.38L647.07,105.57L651.11,230.56L655.16,227.58L659.2,102.49L663.24,237.18L667.29,232.33L671.33,113.12L675.38,227.67L679.42,241.13L683.47,103.1L687.51,221.89L691.55,245.69L695.6,97.84L699.64,205.92L703.69,249.37L707.73,102.02L715.82,252.58L719.86,104.48L723.91,198.02L727.95,248.56L732,95.16L736.04,194.2L740.08,255.25L744.13,104.11L748.17,190.86L752.22,252.38L756.26,107.54L760.31,190.99L764.35,252.25L768.39,103.82L772.44,182.76L776.48,237.71L780.53,103.59L784.57,190.81L788.61,218.85L792.66,110.53L796.7,198.79L800.75,227.3L804.79,111.86L808.84,183L812.88,216.32L816.92,116.44L820.97,193.86L825.01,210.98L829.06,115.69L833.1,204.69L837.14,202.04L841.19,119.28L845.23,198.64L849.28,206.57L853.32,122.49L857.37,211.43L861.41,213.9L865.45,142.1L869.5,206.58L873.54,209.2L877.59,162.58L881.63,198.06L885.67,218.52L889.72,156.71L893.76,214.29L897.81,226.75L901.85,169.29L905.9,202.74L909.94,230.23L913.98,183.29L918.03,200.79L922.07,224.39L926.12,201.69L930.16,186.71L934.2,210.75L938.25,206.69L942.29,195.16L946.34,227.69L950.38,202.43L954.43,202.13L958.47,236.14L962.51,211.67L966.56,202.65L970.6,215.16L974.65,209.08L978.69,208.73L982.73,225.14L986.78,185.17L990.82,203.93L994.87,213.49L998.91,184.22L1002.96,206.77L1007,209.59" style="vector-effect: none; fill: none; stroke: rgb(128, 133, 233); stroke-opacity: 1; stroke-width: 2px; opacity: 1;"/></g><g class="points"/><g class="text"/></g><g class="trace scatter tracea1e853" style="stroke-miterlimit: 2; opacity: 1;"><g class="fills"/><g class="errorbars"/><g class="lines"><path class="js-line" d="M0,186.57L4.04,191.15L8.09,215.7L12.13,175.82L16.18,181.11L20.22,175.72L24.27,180.07L28.31,178.64L32.35,178.44L36.4,184.54L40.44,204.89L44.49,181.78L48.53,185.45L56.62,201.48L60.66,7.73L64.71,10.53L68.75,36.1L72.8,373.52L76.84,347.21L80.88,7.34L84.93,7L88.97,8.84L93.02,8.41L97.06,27.74L101.1,18.48L105.15,349.84L109.19,363.81L113.24,19.04L117.28,17.67L121.33,337.97L125.37,17.5L129.41,18.8L133.46,334.85L137.5,108.41L141.55,10.37L145.59,24.79L149.63,352.47L153.68,22.16L157.72,353.76L161.77,49.38L165.81,21.66L169.86,360.57L173.9,24.04L177.94,360.74L181.99,11.83L186.03,27.04L190.08,47.47L194.12,356.23L198.16,23.53L202.21,361.48L206.25,20.29L210.3,25.37L214.34,293.81L218.39,100.7L222.43,48.3L226.47,30.94L230.52,357.26L234.56,245.9L238.61,9.65L242.65,12.24L246.69,111.07L250.74,341.64L254.78,10.01L258.83,11.48L262.87,8.36L270.96,9.91L275,21.42L279.05,362.94L283.09,48.25L287.14,295.19L291.18,224.6L295.22,86.01L299.27,322.77L303.31,39.1L307.36,216.92L311.4,315.47L315.45,290.36L319.49,171.3L323.53,143.18L327.58,163.08L331.62,145.2L335.67,211.45L339.71,198.7L343.76,152L347.8,180.08L351.84,192.55L355.89,164.38L359.93,174.95L363.98,194.24L372.06,175.94L376.11,192.78L380.15,205.53L384.2,167.02L388.24,179.47L392.29,200.47L396.33,157.65L400.37,193.78L404.42,186.94L408.46,151.89L416.55,206.67L420.59,154.22L424.64,218.48L428.68,191.82L432.73,181.56L436.77,205.95L440.82,204.32L444.86,179.3L448.9,215.58L452.95,191.58L456.99,191.4L461.04,230.27L465.08,190.74L469.12,186.67L473.17,218.78L477.21,161.86L481.26,194.5L485.3,212.5L489.35,150.11L493.39,192.53L497.43,191.3L501.48,144.27L505.52,177.11L509.57,199.65L513.61,129.63L517.65,192.16L521.7,182.59L525.74,135.99L529.79,197.71L533.83,176.94L537.88,127.15L541.92,210.84L545.96,174.93L550.01,119.48L554.05,193.97L558.1,187.15L562.14,123.52L566.18,196.52L570.23,191.81L574.27,111.2L578.32,207.03L582.36,199.31L586.41,111.29L590.45,217.96L594.49,206.69L598.54,102.98L602.58,233.61L606.63,212.42L610.67,101.73L614.71,237.75L618.76,231.8L622.8,113.68L626.85,247.54L630.89,209.73L634.94,97.51L638.98,243.29L643.02,223.23L647.07,99.21L651.11,224L655.16,230.63L659.2,99.32L663.24,231.94L667.29,239.1L671.33,114.1L675.38,222.29L679.42,242.87L683.47,102.57L687.51,215.31L691.55,253.08L695.6,95.27L699.64,199.95L703.69,251.59L707.73,100.78L711.78,183.13L715.82,248.58L719.86,103.22L723.91,193.77L727.95,249.29L732,98.05L736.04,195.26L740.08,255.61L744.13,104.88L748.17,187.99L752.22,248.16L756.26,107.09L760.31,190.12L764.35,246.73L768.39,106.72L772.44,181.42L776.48,233.62L780.53,103.32L784.57,193.71L788.61,210.83L792.66,113.13L796.7,198.67L800.75,220.03L804.79,111.9L808.84,185.96L812.88,214.93L816.92,119.04L820.97,195.66L825.01,209.29L829.06,117.02L833.1,208.53L837.14,195.66L841.19,121.15L845.23,198.5L849.28,206.95L853.32,121.06L857.37,215.45L861.41,216.4L865.45,145.36L869.5,205.93L873.54,208.17L877.59,166.61L881.63,195.58L885.67,216.59L889.72,163.01L893.76,210.41L897.81,224.11L901.85,173.82L905.9,199.67L909.94,225.71L913.98,185.3L922.07,220.1L926.12,204.1L930.16,182.23L934.2,207.55L938.25,207.43L942.29,190.05L946.34,226.11L950.38,201.81L954.43,200.73L958.47,235.14L962.51,209.52L966.56,203.75L970.6,216.67L974.65,202.04L978.69,210.21L982.73,225.17L986.78,180.63L990.82,199.56L994.87,209.74L998.91,176.81L1002.96,208.68L1007,208.91" style="vector-effect: none; fill: none; stroke: rgb(241, 92, 128); stroke-opacity: 1; stroke-width: 2px; opacity: 1;"/></g><g class="points"/><g class="text"/></g><g class="trace scatter trace56db54" style="stroke-miterlimit: 2; opacity: 1;"><g class="fills"/><g class="errorbars"/><g class="lines"><path class="js-line" d="M0,184.08L4.04,188.85L8.09,213.26L12.13,173.5L16.18,179.12L20.22,174.08L24.27,178.07L32.35,176.7L36.4,183.29L40.44,203.04L44.49,180.87L48.53,184.26L52.57,191.87L56.62,200.12L60.66,7.48L64.71,11.98L68.75,39.68L72.8,372.03L76.84,343.49L80.88,7.11L84.93,6.81L88.97,10.18L93.02,8.2L97.06,30.1L101.1,18.68L105.15,347.58L109.19,362.85L113.24,19.47L117.28,17.97L121.33,335.18L125.37,17.51L129.41,19.26L133.46,334.98L137.5,106.16L141.55,11.19L145.59,25.31L149.63,350.34L153.68,23.59L157.72,353.18L161.77,52.4L165.81,23.53L169.86,358.53L173.9,24.77L177.94,359.12L181.99,12.63L186.03,25.81L190.08,48.07L194.12,354.9L198.16,24.84L202.21,359.83L206.25,19.34L210.3,25.39L214.34,290.08L218.39,104.9L222.43,51.89L226.47,33.24L230.52,356.38L234.56,240.83L238.61,10.1L242.65,13.47L246.69,116.17L250.74,340.18L254.78,10.58L258.83,11.96L262.87,8.87L270.96,10.62L275,22.81L279.05,361.39L283.09,48.24L287.14,297.03L291.18,225.78L295.22,88.44L299.27,321.1L303.31,40.05L307.36,216.09L311.4,316.68L315.45,290.31L319.49,173.53L323.53,139.61L327.58,161.66L331.62,147.75L335.67,209.09L339.71,197.79L343.76,152.04L347.8,180.17L351.84,190.24L355.89,166.66L359.93,178.24L363.98,196.19L368.02,179.93L372.06,175.75L380.15,201.74L384.2,167.43L388.24,180.79L392.29,198.48L396.33,159.23L400.37,190.57L404.42,185.34L408.46,150.93L412.51,182.49L416.55,203.32L420.59,155.45L424.64,213.84L428.68,193.27L432.73,179.87L436.77,205.7L440.82,203.26L444.86,181.17L448.9,213.79L452.95,194.96L456.99,190.05L461.04,224.83L465.08,192.85L469.12,183.54L473.17,222.23L477.21,161.58L481.26,195.41L485.3,209.81L489.35,151.58L493.39,191.52L497.43,197.15L501.48,142.48L505.52,178.33L509.57,199.26L513.61,133.3L517.65,193.59L521.7,182.09L525.74,136.24L529.79,198.81L533.83,172.92L537.88,130.12L541.92,206.4L545.96,174.62L550.01,121.31L554.05,196.21L558.1,186.19L562.14,120.73L566.18,199.97L570.23,190.61L574.27,114.81L578.32,211.53L582.36,198.98L586.41,113.06L590.45,220.66L594.49,207.67L598.54,108.36L602.58,236.69L606.63,217.26L610.67,103.69L614.71,237.12L618.76,230.13L622.8,116.37L626.85,248.2L630.89,212.59L634.94,100.41L638.98,248.34L643.02,220.36L647.07,103.55L651.11,229.39L655.16,227.27L659.2,101.36L663.24,235.13L667.29,233.24L671.33,113.48L675.38,227.91L679.42,243.83L683.47,105.01L687.51,217.49L691.55,250.12L695.6,95.69L699.64,203.29L703.69,250.5L707.73,103.16L715.82,252.73L719.86,101L723.91,195.1L727.95,247.59L732,95.02L736.04,194.75L740.08,257.79L744.13,101.48L748.17,191.07L752.22,252.26L756.26,106.99L760.31,193.11L764.35,252.65L768.39,103.25L772.44,180.81L776.48,236.55L780.53,101.96L784.57,189.87L788.61,214.28L792.66,107.94L796.7,197.54L800.75,224.93L804.79,109.12L808.84,185.11L812.88,216.61L816.92,115.37L820.97,195.25L825.01,211.77L829.06,115.52L833.1,206.97L837.14,199L841.19,122.41L845.23,198.24L849.28,205.4L853.32,124.98L857.37,212.4L861.41,214.24L865.45,144.02L869.5,207.33L873.54,210.02L877.59,164.64L881.63,199.75L885.67,216.57L889.72,162.69L893.76,211.82L897.81,226.39L901.85,174.82L905.9,202.72L909.94,226.52L913.98,188.48L918.03,201.35L922.07,221.73L926.12,207.13L930.16,185.21L934.2,208.35L938.25,208.23L942.29,195.62L946.34,225.38L950.38,204.91L954.43,201.41L958.47,236.99L962.51,210.82L966.56,206.04L970.6,216.78L974.65,209.68L978.69,209.14L982.73,222.58L986.78,185.82L990.82,203.46L994.87,207.79L998.91,182.06L1002.96,205.79L1007,207.77" style="vector-effect: none; fill: none; stroke: rgb(228, 211, 84); stroke-opacity: 1; stroke-width: 2px; opacity: 1;"/></g><g class="points"/><g class="text"/></g><g class="trace scatter trace13a41d" style="stroke-miterlimit: 2; opacity: 1;"><g class="fills"/><g class="errorbars"/><g class="lines"><path class="js-line" d="M0,193.09L4.04,190.33L8.09,223.27L12.13,189.66L16.18,181.36L20.22,185.75L24.27,186.53L32.35,175.23L36.4,192.55L40.44,214.99L44.49,187.22L48.53,188.64L52.57,198.82L56.62,206.87L60.66,7.89L64.71,21.57L68.75,109.78L72.8,362.07L76.84,271.34L80.88,8.01L84.93,10.19L88.97,19.12L93.02,10.67L97.06,91.88L101.1,20.56L105.15,281.55L109.19,355.56L113.24,23.96L117.28,18.16L121.33,270.16L125.37,22.43L129.41,20.95L133.46,277.13L137.5,87.49L141.55,51.95L145.59,56.56L149.63,280.96L153.68,65.92L157.72,306.76L161.77,46.76L165.81,57.49L169.86,308.79L173.9,56.08L177.94,300.64L181.99,60.72L186.03,53.46L190.08,129.61L194.12,292.34L198.16,64.59L202.21,304.17L206.25,64.16L210.3,47.89L214.34,177.64L218.39,182.31L222.43,60.76L226.47,51.72L230.52,300.53L238.61,46.69L242.65,55.28L246.69,185.02L250.74,290.31L254.78,55.67L258.83,41.1L262.87,62.06L266.92,42.56L270.96,53.77L275,59.44L279.05,311.01L283.09,54.53L287.14,257.91L291.18,140.48L295.22,72.62L299.27,273.57L303.31,67.27L307.36,149.52L311.4,303.38L315.45,300.1L323.53,139.55L327.58,133.91L331.62,165.28L335.67,206.79L339.71,224.1L343.76,179.32L347.8,152.29L351.84,174.84L355.89,105.89L359.93,204.23L363.98,256.92L368.02,122.1L372.06,235.55L376.11,187.49L380.15,147.47L384.2,187.83L388.24,196.61L392.29,259.91L396.33,158.47L400.37,157.62L404.42,199.72L408.46,249.92L412.51,175.38L416.55,190.39L420.59,184.24L424.64,158.07L428.68,212.83L432.73,180L436.77,189.43L440.82,207.58L444.86,217.36L448.9,251.3L452.95,183.03L456.99,174.31L461.04,265.26L465.08,180.49L469.12,200.43L473.17,281.04L477.21,161.1L481.26,268.67L485.3,207.85L489.35,252.86L497.43,105.77L501.48,195.15L505.52,127.5L509.57,241.75L513.61,157.91L517.65,191.4L521.7,120.08L525.74,141.71L529.79,202.92L533.83,141.69L537.88,167.87L541.92,157.25L545.96,237.41L550.01,159.16L554.05,178.41L558.1,224.96L562.14,186.75L566.18,219.86L570.23,174.05L574.27,179.31L578.32,193.43L582.36,192.04L586.41,148.5L590.45,212.38L594.49,255.33L598.54,160.24L602.58,269.32L606.63,153.54L610.67,117.57L614.71,206.76L618.76,102.94L622.8,94.38L626.85,197.33L630.89,196.88L634.94,151.16L638.98,202.49L643.02,210.54L647.07,75.72L651.11,275.81L655.16,141.56L659.2,148.07L663.24,114.43L667.29,237.97L671.33,130.91L675.38,224.21L679.42,268.52L683.47,84.58L687.51,282.96L691.55,205.69L695.6,159.48L699.64,153.27L703.69,215.55L707.73,110.57L711.78,181.27L715.82,230.82L719.86,132.14L723.91,253.71L727.95,194.18L732,121.16L736.04,222.78L740.08,214.75L744.13,133.86L752.22,222.44L756.26,116.31L760.31,250.41L764.35,260.73L768.39,72.12L772.44,95.4L776.48,198.35L780.53,137.34L784.57,139.7L788.61,217.77L792.66,68.42L796.7,170.74L800.75,219.27L804.79,103.67L808.84,209.47L812.88,181.09L816.92,135.04L820.97,135.46L825.01,261.92L829.06,78.24L833.1,163.96L837.14,213.95L841.19,101.41L845.23,223.96L849.28,212.23L853.32,80.46L857.37,145.75L861.41,241.08L865.45,131.15L869.5,162.46L873.54,238.61L877.59,179.42L881.63,217.46L885.67,191.8L889.72,127.42L893.76,133.42L897.81,194.01L901.85,138.28L905.9,240.9L909.94,196.22L913.98,180.32L918.03,200.04L922.07,191.64L926.12,178.38L930.16,111.66L934.2,171.13L938.25,138.91L942.29,215.61L946.34,123.78L950.38,215.05L954.43,269.81L958.47,210.03L962.51,198.39L966.56,275.17L970.6,288.28L974.65,120.38L978.69,230.67L982.73,199.11L986.78,243.89L990.82,211.19L994.87,201.78L998.91,166.94L1002.96,229.16L1007,186.86" style="vector-effect: none; fill: none; stroke: rgb(43, 144, 143); stroke-opacity: 1; stroke-width: 2px; opacity: 1;"/></g><g class="points"/><g class="text"/></g><g class="trace scatter trace059fd7" style="stroke-miterlimit: 2; opacity: 1;"><g class="fills"/><g class="errorbars"/><g class="lines"><path class="js-line" d="M0,183.44L4.04,191.88L8.09,217.08L12.13,179.05L16.18,187.62L20.22,183.01L24.27,182.48L28.31,179.75L32.35,184.56L36.4,196.17L40.44,210.13L44.49,169.71L48.53,191.81L52.57,194.26L56.62,202.2L60.66,6.69L64.71,9.68L68.75,76.32L72.8,374.74L76.84,307.86L80.88,7.12L84.93,7.02L88.97,8.9L93.02,8.7L97.06,67.83L101.1,14.65L105.15,304.22L109.19,366.3L113.24,22.83L117.28,15.06L121.33,296.18L125.37,20.98L129.41,18.69L133.46,320.68L137.5,74.57L141.55,18.24L145.59,25L149.63,288.49L153.68,29.68L157.72,342.07L161.77,28.78L165.81,48.76L169.86,350.85L173.9,28.83L177.94,350.39L181.99,24L186.03,18.81L190.08,52.2L194.12,319.24L198.16,31.13L202.21,349.58L206.25,25.76L210.3,23.22L214.34,192.35L218.39,157.07L222.43,23.64L226.47,34.79L230.52,354.29L234.56,190.31L238.61,15.65L242.65,24.05L246.69,161.21L250.74,342.73L254.78,21.95L258.83,15.22L262.87,18.57L266.92,16.38L270.96,18.58L275,23.8L279.05,350.97L283.09,28.26L287.14,304.8L291.18,143.57L295.22,57.52L299.27,337.23L303.31,32.44L307.36,153.25L311.4,354.89L315.45,333.15L319.49,184.77L323.53,146.68L327.58,150.47L331.62,191.89L335.67,205.9L339.71,186.3L343.76,110.81L347.8,188.82L351.84,246.45L355.89,86.69L359.93,199.49L363.98,283.64L368.02,115.52L372.06,247.34L376.11,250.38L380.15,136L384.2,209.39L388.24,163.82L392.29,271.4L396.33,95.85L400.37,217.79L404.42,180.01L408.46,304.76L412.51,138.69L416.55,192.19L420.59,221.97L424.64,117.96L428.68,198.65L432.73,112.16L436.77,149.14L440.82,224.09L444.86,205.55L448.9,237.96L452.95,205.21L456.99,204.18L461.04,300.02L465.08,128.73L469.12,194.07L473.17,293.48L477.21,230.55L481.26,266.49L485.3,237.43L489.35,273.07L493.39,131.02L497.43,108.56L501.48,212.52L505.52,112.55L509.57,302.11L513.61,179.04L517.65,277.15L521.7,117.82L525.74,143.34L529.79,254.38L533.83,102.04L537.88,212.87L541.92,110.15L545.96,219.68L550.01,113.52L558.1,171.13L562.14,180.33L566.18,193.93L570.23,180.22L574.27,100.53L578.32,250.43L582.36,213.78L586.41,217.07L590.45,225.39L594.49,293.66L598.54,169.06L602.58,284.43L606.63,143.71L610.67,109.63L614.71,176.45L618.76,105.53L622.8,65.09L626.85,204.67L630.89,235.3L634.94,108.32L638.98,289.07L643.02,185.25L647.07,66.96L651.11,293.58L655.16,139.83L659.2,198.6L663.24,167.03L667.29,261.86L671.33,166.64L675.38,225.78L679.42,268.65L683.47,85.12L687.51,317.64L691.55,190.22L695.6,108.57L699.64,117.09L703.69,271.93L707.73,88L711.78,169.83L715.82,303.75L719.86,77.03L723.91,270.07L727.95,153.93L732,118.4L736.04,256.51L740.08,170.53L744.13,78.59L748.17,205.7L752.22,229.82L756.26,108.34L760.31,290.39L764.35,305.91L768.39,79.19L772.44,125.63L776.48,187.11L780.53,172.44L784.57,125.17L788.61,281.45L792.66,58.33L796.7,137.71L800.75,253.45L804.79,51.1L808.84,212.13L812.88,224.76L816.92,91.46L820.97,129.08L825.01,315.15L829.06,68.53L833.1,171.14L837.14,218.37L841.19,50.15L845.23,197.6L849.28,176.15L853.32,47.9L857.37,122.12L861.41,251.7L865.45,93.68L869.5,144.43L873.54,226.22L877.59,170.86L881.63,263.87L885.67,271.57L889.72,90.76L893.76,159.98L897.81,239.3L901.85,121.25L905.9,254.51L909.94,154.9L913.98,202.84L918.03,145.25L922.07,244.82L926.12,142.97L930.16,117.65L934.2,154.67L938.25,147.95L942.29,241.72L946.34,123.67L950.38,266.01L954.43,278.74L958.47,265.35L962.51,180.33L966.56,266.37L970.6,306.36L974.65,132.36L978.69,262.66L982.73,168.81L986.78,274.1L990.82,201.04L994.87,191.35L998.91,251.3L1002.96,220.28L1007,213.95" style="vector-effect: none; fill: none; stroke: rgb(244, 91, 91); stroke-opacity: 1; stroke-width: 2px; opacity: 1;"/></g><g class="points"/><g class="text"/></g><g class="trace scatter trace832683" style="stroke-miterlimit: 2; opacity: 1;"><g class="fills"/><g class="errorbars"/><g class="lines"><path class="js-line" d="M0,190.89L4.04,195.92L8.09,219.54L12.13,182.31L16.18,193.99L20.22,183.12L24.27,183.2L28.31,188.73L32.35,189.53L36.4,194.24L40.44,215.8L44.49,184.67L48.53,193.61L52.57,206.38L56.62,210.39L60.66,8L64.71,12.8L68.75,92.02L72.8,371.3L76.84,291.01L80.88,6.64L84.93,6.52L88.97,9.63L93.02,9.65L97.06,81.2L101.1,19.24L105.15,284.81L109.19,361.44L113.24,29.32L117.28,16.19L121.33,272.14L125.37,28.37L129.41,18.76L133.46,317.86L137.5,81.3L141.55,20.17L145.59,31.55L149.63,319.9L153.68,35.62L157.72,341.26L161.77,25.49L165.81,47.28L169.86,343.83L173.9,32.45L177.94,345.01L181.99,23.52L186.03,21.02L190.08,76.63L194.12,323.53L198.16,38.46L202.21,345.44L206.25,28.54L210.3,27.67L214.34,197.95L218.39,160.09L222.43,24.05L226.47,31.25L230.52,339.96L234.56,170.35L238.61,18.67L242.65,25.23L246.69,168.19L250.74,339.49L254.78,22.99L258.83,14.9L262.87,20.03L266.92,15.15L270.96,19.34L275,33.1L279.05,348.99L283.09,29.84L287.14,310.58L291.18,115.67L295.22,72.07L299.27,337.35L303.31,29.32L307.36,125.3L311.4,353.97L315.45,324.4L319.49,219.75L323.53,148.71L327.58,136.7L331.62,201.41L339.71,207.45L343.76,139.01L347.8,176.52L351.84,255.41L355.89,122.08L359.93,215.73L363.98,252.73L368.02,100.59L372.06,246.63L376.11,231.62L380.15,99.1L384.2,242.99L388.24,145.75L392.29,318.75L396.33,99.11L400.37,171.55L404.42,204.73L408.46,299.17L412.51,142.34L416.55,233.15L420.59,251.44L424.64,146.45L428.68,216.52L432.73,134.44L436.77,117.28L440.82,231.54L444.86,189.7L448.9,277.78L452.95,173.44L456.99,218.02L461.04,308.75L465.08,179.44L469.12,233.73L473.17,323.09L477.21,200.2L481.26,287.47L485.3,207.97L489.35,284.94L493.39,114.07L497.43,87.79L501.48,183.59L505.52,95.9L509.57,310.89L513.61,191.41L517.65,267.36L521.7,114.89L525.74,141.72L529.79,255.61L533.83,100.11L537.88,202.25L541.92,111.15L545.96,185.96L550.01,140.46L554.05,105.73L558.1,224.17L562.14,178.9L566.18,229.54L570.23,159.48L574.27,137.11L578.32,217.23L582.36,216.95L586.41,158.46L590.45,211.99L594.49,290.77L598.54,166.19L602.58,285.36L606.63,168.96L610.67,99.08L614.71,201.67L618.76,85.05L622.8,82.41L626.85,210.32L630.89,226.26L634.94,137.05L638.98,249.5L643.02,188.52L647.07,51.16L651.11,314.61L655.16,149.84L659.2,233.35L663.24,135.75L667.29,265.32L671.33,141.61L675.38,236.89L679.42,271.15L683.47,84.73L687.51,327.49L691.55,205.98L695.6,119.01L699.64,146.03L703.69,254.49L707.73,103.35L711.78,163.22L715.82,282.98L719.86,100.76L723.91,307.19L727.95,160.73L732,136.58L736.04,255.38L740.08,203.41L744.13,75.31L748.17,163.36L752.22,233.32L756.26,132.96L760.31,298.92L764.35,326.87L768.39,50.67L772.44,137.15L776.48,196.46L780.53,175.61L784.57,153.19L788.61,255.03L792.66,51.38L796.7,117.77L800.75,237.13L804.79,71.35L808.84,229.39L812.88,214.08L816.92,89.69L820.97,121L825.01,315.57L829.06,54.12L833.1,185.12L837.14,212.15L841.19,63.49L845.23,195.48L849.28,206.17L853.32,36.38L857.37,116.7L861.41,215.05L865.45,97.01L869.5,145.73L873.54,248.76L877.59,189.02L881.63,285.53L885.67,244.71L889.72,119.97L893.76,148.96L897.81,246.53L901.85,100.84L905.9,271.03L909.94,175.02L913.98,198.28L918.03,154.72L922.07,240.73L926.12,155.94L930.16,100.66L934.2,159.54L938.25,151.83L942.29,213.29L946.34,99.15L950.38,249.47L954.43,283.77L958.47,238.75L962.51,190.94L966.56,281.7L970.6,287.67L974.65,163.18L978.69,236.25L982.73,201.34L986.78,287.45L990.82,212.51L994.87,184.24L998.91,218.74L1002.96,201.63L1007,180.88" style="vector-effect: none; fill: none; stroke: rgb(145, 232, 225); stroke-opacity: 1; stroke-width: 2px; opacity: 1;"/></g><g class="points"/><g class="text"/></g></g></g></g><path class="xlines-above crisp" d="M0,0" style="fill: none;"/><path class="ylines-above crisp" d="M0,0" style="fill: none;"/><g class="overlines-above"/><g class="xaxislayer-above"><g class="xtick"><text text-anchor="middle" x="0" y="451" transform="translate(269.15999999999997,0)" style="font-family: 'Lucida Grande', 'Open Sans', verdana, arial, sans-serif; font-size: 10px; fill: rgb(0, 0, 0); fill-opacity: 1; white-space: pre; opacity: 1;">50</text></g><g class="xtick"><text text-anchor="middle" x="0" y="451" style="font-family: 'Lucida Grande', 'Open Sans', verdana, arial, sans-serif; font-size: 10px; fill: rgb(0, 0, 0); fill-opacity: 1; white-space: pre; opacity: 1;" transform="translate(471.37,0)">100</text></g><g class="xtick"><text text-anchor="middle" x="0" y="451" style="font-family: 'Lucida Grande', 'Open Sans', verdana, arial, sans-serif; font-size: 10px; fill: rgb(0, 0, 0); fill-opacity: 1; white-space: pre; opacity: 1;" transform="translate(673.58,0)">150</text></g><g class="xtick"><text text-anchor="middle" x="0" y="451" style="font-family: 'Lucida Grande', 'Open Sans', verdana, arial, sans-serif; font-size: 10px; fill: rgb(0, 0, 0); fill-opacity: 1; white-space: pre; opacity: 1;" transform="translate(875.79,0)">200</text></g><g class="xtick"><text text-anchor="middle" x="0" y="451" style="font-family: 'Lucida Grande', 'Open Sans', verdana, arial, sans-serif; font-size: 10px; fill: rgb(0, 0, 0); fill-opacity: 1; white-space: pre; opacity: 1;" transform="translate(1078,0)">250</text></g></g><g class="yaxislayer-above"><g class="ytick"><text text-anchor="end" x="65" y="3.5" transform="translate(0,435)" style="font-family: 'Lucida Grande', 'Open Sans', verdana, arial, sans-serif; font-size: 10px; fill: rgb(0, 0, 0); fill-opacity: 1; white-space: pre; opacity: 1;">0%</text></g><g class="ytick"><text text-anchor="end" x="65" y="3.5" style="font-family: 'Lucida Grande', 'Open Sans', verdana, arial, sans-serif; font-size: 10px; fill: rgb(0, 0, 0); fill-opacity: 1; white-space: pre; opacity: 1;" transform="translate(0,358)">20%</text></g><g class="ytick"><text text-anchor="end" x="65" y="3.5" style="font-family: 'Lucida Grande', 'Open Sans', verdana, arial, sans-serif; font-size: 10px; fill: rgb(0, 0, 0); fill-opacity: 1; white-space: pre; opacity: 1;" transform="translate(0,281)">40%</text></g><g class="ytick"><text text-anchor="end" x="65" y="3.5" style="font-family: 'Lucida Grande', 'Open Sans', verdana, arial, sans-serif; font-size: 10px; fill: rgb(0, 0, 0); fill-opacity: 1; white-space: pre; opacity: 1;" transform="translate(0,204)">60%</text></g><g class="ytick"><text text-anchor="end" x="65" y="3.5" style="font-family: 'Lucida Grande', 'Open Sans', verdana, arial, sans-serif; font-size: 10px; fill: rgb(0, 0, 0); fill-opacity: 1; white-space: pre; opacity: 1;" transform="translate(0,127)">80%</text></g><g class="ytick"><text text-anchor="end" x="65" y="3.5" style="font-family: 'Lucida Grande', 'Open Sans', verdana, arial, sans-serif; font-size: 10px; fill: rgb(0, 0, 0); fill-opacity: 1; white-space: pre; opacity: 1;" transform="translate(0,50)">100%</text></g></g><g class="overaxes-above"/></g></g><g class="polarlayer"/><g class="smithlayer"/><g class="ternarylayer"/><g class="geolayer"/><g class="funnelarealayer"/><g class="pielayer"/><g class="iciclelayer"/><g class="treemaplayer"/><g class="sunburstlayer"/><g class="glimages"/><defs id="topdefs-b0788b"><g class="clips"/></defs><g class="layer-above"><g class="imagelayer"/><g class="shapelayer"/></g><g class="infolayer"><g class="g-gtitle"><text class="gtitle" x="550" y="25" text-anchor="middle" dy="0em" style="opacity: 1; font-family: 'Lucida Grande', 'Open Sans', verdana, arial, sans-serif; font-size: 20px; fill: rgb(42, 63, 95); fill-opacity: 1; white-space: pre;"><tspan class="line" dy="0em" x="550" y="25">Fastp: Read GC Content</tspan><tspan class="line" dy="1.3em" x="550" y="25">​<tspan style="font-size:70%" dy="-0.6em">Read 1: After filtering, 10 samples</tspan><tspan dy="0.42em">​</tspan></tspan></text></g><g class="g-xtitle"><text class="xtitle" x="574.5" y="472.3" text-anchor="middle" style="opacity: 0.3; font-family: 'Lucida Grande', 'Open Sans', verdana, arial, sans-serif; font-size: 14px; fill: rgb(0, 0, 0); fill-opacity: 1; white-space: pre;">Read Position</text></g><g class="g-ytitle"><text class="ytitle" transform="rotate(-90,22.00625,242.5)" x="22.00625" y="242.5" text-anchor="middle" style="opacity: 0.3; font-family: 'Lucida Grande', 'Open Sans', verdana, arial, sans-serif; font-size: 14px; fill: rgb(0, 0, 0); fill-opacity: 1; white-space: pre;">R1 After filtering: Base Content Percent</text></g></g></svg>