<svg class="main-svg" xmlns="http://www.w3.org/2000/svg" xmlns:xlink="http://www.w3.org/1999/xlink" width="2200" height="1000" style="" viewBox="0 0 1100 500"><rect x="0" y="0" width="1100" height="500" style="fill: rgb(255, 255, 255); fill-opacity: 1;"/><defs id="defs-8d5d34"><g class="clips"><clipPath id="clip8d5d34xyplot" class="plotclip"><rect width="1025" height="385"/></clipPath><clipPath class="axesclip" id="clip8d5d34x"><rect x="60" y="0" width="1025" height="500"/></clipPath><clipPath class="axesclip" id="clip8d5d34y"><rect x="0" y="50" width="1100" height="385"/></clipPath><clipPath class="axesclip" id="clip8d5d34xy"><rect x="60" y="50" width="1025" height="385"/></clipPath></g><g class="gradients"/><g class="patterns"/></defs><g class="bglayer"/><g class="layer-below"><g class="imagelayer"/><g class="shapelayer"><g class="shape-group" data-index="0" clip-path="url(#clip8d5d34y)"><path data-index="0" fill-rule="evenodd" d="M60,320.93H1085V27.59H60Z" style="opacity: 1; stroke: rgb(0, 0, 0); stroke-opacity: 0; fill: rgb(195, 230, 195); fill-opacity: 1; stroke-width: 0px;"/></g><g class="shape-group" data-index="1" clip-path="url(#clip8d5d34y)"><path data-index="1" fill-rule="evenodd" d="M60,353.52H1085V320.93H60Z" style="opacity: 1; stroke: rgb(0, 0, 0); stroke-opacity: 0; fill: rgb(230, 220, 195); fill-opacity: 1; stroke-width: 0px;"/></g><g class="shape-group" data-index="2" clip-path="url(#clip8d5d34y)"><path data-index="2" fill-rule="evenodd" d="M60,435H1085V353.52H60Z" style="opacity: 1; stroke: rgb(0, 0, 0); stroke-opacity: 0; fill: rgb(230, 195, 195); fill-opacity: 1; stroke-width: 0px;"/></g><g class="shape-group" data-index="3" clip-path="url(#clip8d5d34y)"><path data-index="3" fill-rule="evenodd" d="M60,320.93H1085V27.59H60Z" style="opacity: 1; stroke: rgb(0, 0, 0); stroke-opacity: 0; fill: rgb(195, 230, 195); fill-opacity: 1; stroke-width: 0px;"/></g><g class="shape-group" data-index="4" clip-path="url(#clip8d5d34y)"><path data-index="4" fill-rule="evenodd" d="M60,353.52H1085V320.93H60Z" style="opacity: 1; stroke: rgb(0, 0, 0); stroke-opacity: 0; fill: rgb(230, 220, 195); fill-opacity: 1; stroke-width: 0px;"/></g><g class="shape-group" data-index="5" clip-path="url(#clip8d5d34y)"><path data-index="5" fill-rule="evenodd" d="M60,435H1085V353.52H60Z" style="opacity: 1; stroke: rgb(0, 0, 0); stroke-opacity: 0; fill: rgb(230, 195, 195); fill-opacity: 1; stroke-width: 0px;"/></g></g></g><g class="cartesianlayer"><g class="subplot xy"><g class="layer-subplot"><g class="shapelayer"/><g class="imagelayer"/></g><g class="minor-gridlayer"><g class="x"/><g class="y"/></g><g class="gridlayer"><g class="x"><path class="xgrid crisp" transform="translate(182.01999999999998,0)" d="M0,50v385" style="stroke: rgb(0, 0, 0); stroke-opacity: 0.05; stroke-width: 1px;"/><path class="xgrid crisp" transform="translate(304.05,0)" d="M0,50v385" style="stroke: rgb(0, 0, 0); stroke-opacity: 0.05; stroke-width: 1px;"/><path class="xgrid crisp" transform="translate(426.07,0)" d="M0,50v385" style="stroke: rgb(0, 0, 0); stroke-opacity: 0.05; stroke-width: 1px;"/><path class="xgrid crisp" transform="translate(548.1,0)" d="M0,50v385" style="stroke: rgb(0, 0, 0); stroke-opacity: 0.05; stroke-width: 1px;"/><path class="xgrid crisp" transform="translate(670.12,0)" d="M0,50v385" style="stroke: rgb(0, 0, 0); stroke-opacity: 0.05; stroke-width: 1px;"/><path class="xgrid crisp" transform="translate(792.14,0)" d="M0,50v385" style="stroke: rgb(0, 0, 0); stroke-opacity: 0.05; stroke-width: 1px;"/><path class="xgrid crisp" transform="translate(914.17,0)" d="M0,50v385" style="stroke: rgb(0, 0, 0); stroke-opacity: 0.05; stroke-width: 1px;"/><path class="xgrid crisp" transform="translate(1036.19,0)" d="M0,50v385" style="stroke: rgb(0, 0, 0); stroke-opacity: 0.05; stroke-width: 1px;"/></g><g class="y"><path class="ygrid crisp" transform="translate(0,394.26)" d="M60,0h1025" style="stroke: rgb(0, 0, 0); stroke-opacity: 0.05; stroke-width: 1px;"/><path class="ygrid crisp" transform="translate(0,353.52)" d="M60,0h1025" style="stroke: rgb(0, 0, 0); stroke-opacity: 0.05; stroke-width: 1px;"/><path class="ygrid crisp" transform="translate(0,312.78)" d="M60,0h1025" style="stroke: rgb(0, 0, 0); stroke-opacity: 0.05; stroke-width: 1px;"/><path class="ygrid crisp" transform="translate(0,272.03999999999996)" d="M60,0h1025" style="stroke: rgb(0, 0, 0); stroke-opacity: 0.05; stroke-width: 1px;"/><path class="ygrid crisp" transform="translate(0,231.3)" d="M60,0h1025" style="stroke: rgb(0, 0, 0); stroke-opacity: 0.05; stroke-width: 1px;"/><path class="ygrid crisp" transform="translate(0,190.56)" d="M60,0h1025" style="stroke: rgb(0, 0, 0); stroke-opacity: 0.05; stroke-width: 1px;"/><path class="ygrid crisp" transform="translate(0,149.81)" d="M60,0h1025" style="stroke: rgb(0, 0, 0); stroke-opacity: 0.05; stroke-width: 1px;"/><path class="ygrid crisp" transform="translate(0,109.07)" d="M60,0h1025" style="stroke: rgb(0, 0, 0); stroke-opacity: 0.05; stroke-width: 1px;"/><path class="ygrid crisp" transform="translate(0,68.33)" d="M60,0h1025" style="stroke: rgb(0, 0, 0); stroke-opacity: 0.05; stroke-width: 1px;"/></g></g><g class="zerolinelayer"><path class="xzl zl crisp" transform="translate(60,0)" d="M0,50v385" style="stroke: rgb(0, 0, 0); stroke-opacity: 0.05; stroke-width: 2px;"/><path class="yzl zl crisp" transform="translate(0,435)" d="M60,0h1025" style="stroke: rgb(0, 0, 0); stroke-opacity: 0.05; stroke-width: 2px;"/></g><g class="layer-between"><g class="shapelayer"/><g class="imagelayer"/></g><path class="xlines-below"/><path class="ylines-below"/><g class="overlines-below"/><g class="xaxislayer-below"/><g class="yaxislayer-below"/><g class="overaxes-below"/><g class="overplot"><g class="xy" transform="translate(60,50)" clip-path="url(#clip8d5d34xyplot)"><g class="scatterlayer mlayer"><g class="trace scatter trace3ada21" style="stroke-miterlimit: 2; opacity: 1;"><g class="fills"/><g class="errorbars"/><g class="lines"><path class="js-line" d="M2.44,231.02L9.76,225.08L12.2,224.34L14.64,224.47L17.08,231.69L19.52,226.39L21.96,226.66L24.4,228.54L48.81,224.67L97.62,226.6L122.02,228.36L170.83,231.51L195.24,231.45L317.26,233.06L341.67,233.96L463.69,236.36L488.1,236.6L512.5,238.6L536.9,244.97L610.12,238.01L634.52,235.14L658.93,232.43L683.33,230.97L732.14,230.88L756.55,229.91L805.36,228.9L829.76,229.22L902.98,230.21L927.38,231.86L951.79,232.58L976.19,229.67L1000.6,227.64" style="vector-effect: none; fill: none; stroke: rgb(92, 184, 92); stroke-opacity: 1; stroke-width: 2px; opacity: 1;"/></g><g class="points"/><g class="text"/></g><g class="trace scatter tracee20d14" style="stroke-miterlimit: 2; opacity: 1;"><g class="fills"/><g class="errorbars"/><g class="lines"><path class="js-line" d="M2.44,232.21L9.76,226.26L12.2,225.51L14.64,225.41L17.08,232.75L19.52,227.31L21.96,227.47L24.4,229.52L48.81,225.57L97.62,227.62L122.02,229.25L170.83,232.35L195.24,232.22L292.86,233.1L317.26,233.82L390.48,235.97L414.88,236.42L463.69,237.22L488.1,237.55L512.5,240.15L536.9,248.2L585.71,243.84L610.12,240.54L658.93,234.71L683.33,233.28L732.14,233.46L756.55,232.15L805.36,231.18L829.76,231.54L878.57,232.17L902.98,231.66L927.38,235.03L951.79,233.61L976.19,229.37" style="vector-effect: none; fill: none; stroke: rgb(92, 184, 92); stroke-opacity: 1; stroke-width: 2px; opacity: 1;"/></g><g class="points"/><g class="text"/></g><g class="trace scatter trace01dadd" style="stroke-miterlimit: 2; opacity: 1;"><g class="fills"/><g class="errorbars"/><g class="lines"><path class="js-line" d="M2.44,232.39L7.32,229.24L9.76,226.54L12.2,225.56L14.64,225.69L17.08,232.75L19.52,227.48L21.96,227.75L24.4,229.77L48.81,225.72L73.21,226.57L122.02,229.34L146.43,231.14L170.83,232.57L195.24,232.48L317.26,234.01L341.67,234.87L439.29,237.08L463.69,237.3L488.1,237.55L512.5,239.88L536.9,247.39L561.31,245.09L585.71,242.96L610.12,239.84L658.93,234.11L683.33,232.69L756.55,231.9L780.95,231.23L829.76,231.58L854.17,231.62L927.38,232.57L951.79,230.19" style="vector-effect: none; fill: none; stroke: rgb(92, 184, 92); stroke-opacity: 1; stroke-width: 2px; opacity: 1;"/></g><g class="points"/><g class="text"/></g><g class="trace scatter trace0e5e52" style="stroke-miterlimit: 2; opacity: 1;"><g class="fills"/><g class="errorbars"/><g class="lines"><path class="js-line" d="M2.44,191.28L4.88,192.02L7.32,196.59L9.76,201.84L12.2,197.02L14.64,177.13L17.08,174.62L19.52,179.17L21.96,176.72L24.4,174.99L48.81,176.57L73.21,175.2L97.62,175.14L122.02,174.12L146.43,174.81L268.45,177.69L292.86,177.85L366.07,179.06L390.48,178.42L414.88,178.47L439.29,177.36L463.69,178.25L488.1,177.89L512.5,179.2L536.9,184.16L561.31,188.78L585.71,186.89L634.52,183.51L658.93,184.56L683.33,186.69L707.74,186.94L732.14,186.96L756.55,193.08L780.95,200.11L805.36,202.71L829.76,211.9L854.17,212.98L878.57,212.07L902.98,212.39L927.38,212.96L951.79,224.08L976.19,229.14L1000.6,233.16L1025,230.02" style="vector-effect: none; fill: none; stroke: rgb(92, 184, 92); stroke-opacity: 1; stroke-width: 2px; opacity: 1;"/></g><g class="points"/><g class="text"/></g><g class="trace scatter trace432353" style="stroke-miterlimit: 2; opacity: 1;"><g class="fills"/><g class="errorbars"/><g class="lines"><path class="js-line" d="M2.44,234.26L4.88,227.59L7.32,228.19L9.76,226.1L12.2,225.08L14.64,225.72L17.08,235.97L19.52,230.91L21.96,229.41L24.4,232.42L48.81,225.22L73.21,226.01L97.62,227.69L122.02,229.96L146.43,231.12L195.24,233.8L219.64,234.27L292.86,235.67L317.26,236.59L390.48,239.73L414.88,240.48L463.69,241.28L488.1,241.12L512.5,242.2L536.9,245.67L585.71,240.07L610.12,236.66L634.52,233.66L658.93,231.67L707.74,230.45L732.14,230.51L805.36,229.43L829.76,230.09L902.98,231.75L927.38,230.63L951.79,233.51L976.19,226.79L1000.6,234.84" style="vector-effect: none; fill: none; stroke: rgb(92, 184, 92); stroke-opacity: 1; stroke-width: 2px; opacity: 1;"/></g><g class="points"/><g class="text"/></g><g class="trace scatter trace46a8f0" style="stroke-miterlimit: 2; opacity: 1;"><g class="fills"/><g class="errorbars"/><g class="lines"><path class="js-line" d="M2.44,234.39L4.88,227.7L7.32,228.55L9.76,226.41L12.2,225.63L14.64,226.32L17.08,236L19.52,231.17L21.96,229.85L24.4,232.78L48.81,225.5L73.21,226.29L97.62,227.91L122.02,230.19L146.43,231.29L195.24,233.84L219.64,234.25L292.86,235.84L317.26,236.79L390.48,240.33L414.88,241.11L463.69,242.19L488.1,242.24L512.5,243.75L536.9,248.31L585.71,241.84L610.12,238.05L634.52,234.82L658.93,232.88L707.74,232.03L732.14,232.27L805.36,231.38L829.76,232.05L902.98,234.61L927.38,230.59" style="vector-effect: none; fill: none; stroke: rgb(92, 184, 92); stroke-opacity: 1; stroke-width: 2px; opacity: 1;"/></g><g class="points"/><g class="text"/></g><g class="trace scatter tracee80aac" style="stroke-miterlimit: 2; opacity: 1;"><g class="fills"/><g class="errorbars"/><g class="lines"><path class="js-line" d="M2.44,234.02L4.88,227.59L7.32,228.18L12.2,225.31L14.64,225.89L17.08,236.68L19.52,231.38L21.96,229.67L24.4,232.39L48.81,225.36L73.21,226.16L170.83,232.63L195.24,233.54L292.86,235.45L317.26,236.34L439.29,241.23L463.69,241.64L488.1,241.61L512.5,243.39L536.9,248.17L561.31,245.43L634.52,235.27L658.93,233.3L707.74,232.41L732.14,232.53L805.36,231.63L829.76,232.47L878.57,233.28L902.98,233.83L927.38,234.93L951.79,246.48" style="vector-effect: none; fill: none; stroke: rgb(92, 184, 92); stroke-opacity: 1; stroke-width: 2px; opacity: 1;"/></g><g class="points"/><g class="text"/></g><g class="trace scatter trace4de250" style="stroke-miterlimit: 2; opacity: 1;"><g class="fills"/><g class="errorbars"/><g class="lines"><path class="js-line" d="M2.44,214.04L4.88,215.39L7.32,217.78L9.76,221.72L12.2,217.52L14.64,209.56L17.08,207.7L19.52,210.01L21.96,208.14L48.81,208.56L73.21,208.46L97.62,209.94L122.02,210.27L195.24,212.96L219.64,213.09L268.45,215.44L292.86,215.36L463.69,218.4L488.1,217.97L512.5,221.44L536.9,230.85L561.31,226.27L585.71,224.7L610.12,220.84L634.52,218.21L658.93,217.92L683.33,216.74L707.74,217.89L732.14,217.55L780.95,216.71L805.36,217.52L829.76,217.29L854.17,223.54L878.57,219.6L902.98,225.83L927.38,234.77L951.79,235.07L976.19,233.24L1000.6,229.78L1025,234.94" style="vector-effect: none; fill: none; stroke: rgb(92, 184, 92); stroke-opacity: 1; stroke-width: 2px; opacity: 1;"/></g><g class="points"/><g class="text"/></g><g class="trace scatter traceb86ecd" style="stroke-miterlimit: 2; opacity: 1;"><g class="fills"/><g class="errorbars"/><g class="lines"><path class="js-line" d="M2.44,168.03L4.88,168.3L7.32,169.83L9.76,170.14L12.2,168.22L14.64,165.55L17.08,164.97L19.52,165.91L21.96,165.39L24.4,166.09L48.81,166.19L73.21,166.3L97.62,168.1L146.43,170.46L170.83,170.77L195.24,171.88L219.64,171.68L341.67,174.59L366.07,174.63L390.48,175.91L414.88,175.78L463.69,177.58L488.1,177.26L512.5,180.93L536.9,189.55L561.31,185.88L585.71,184.03L610.12,180.6L634.52,178.35L683.33,174.94L707.74,174.46L732.14,173.92L756.55,174.23L780.95,173.45L805.36,171.1L829.76,166.09L854.17,178.38L878.57,184.04L902.98,185.04L927.38,196.25L951.79,208.51L976.19,238.13L1000.6,227.38" style="vector-effect: none; fill: none; stroke: rgb(92, 184, 92); stroke-opacity: 1; stroke-width: 2px; opacity: 1;"/></g><g class="points"/><g class="text"/></g><g class="trace scatter tracec469d5" style="stroke-miterlimit: 2; opacity: 1;"><g class="fills"/><g class="errorbars"/><g class="lines"><path class="js-line" d="M2.44,169.4L4.88,170.06L7.32,171.86L9.76,172.12L12.2,170.09L14.64,167.07L17.08,166.45L24.4,167.41L48.81,167.28L73.21,167.55L97.62,169.31L146.43,171.38L170.83,171.63L195.24,173.18L219.64,172.73L268.45,174.78L292.86,174.61L317.26,175.11L341.67,176.97L366.07,177.45L390.48,177.11L439.29,178.07L463.69,178.58L488.1,178.26L512.5,182.41L536.9,194.15L561.31,188.12L585.71,186.27L610.12,182.25L683.33,175.71L707.74,176.12L732.14,174.88L756.55,175.62L805.36,173.46L829.76,167.92L854.17,178.32L878.57,185.85L902.98,200.35L927.38,191.38L951.79,172.56L976.19,142.99L1000.6,62.1L1025,18.33" style="vector-effect: none; fill: none; stroke: rgb(92, 184, 92); stroke-opacity: 1; stroke-width: 2px; opacity: 1;"/></g><g class="points"/><g class="text"/></g></g></g></g><path class="xlines-above crisp" d="M0,0" style="fill: none;"/><path class="ylines-above crisp" d="M0,0" style="fill: none;"/><g class="overlines-above"/><g class="xaxislayer-above"><g class="xtick"><text text-anchor="middle" x="0" y="451" transform="translate(60,0)" style="font-family: 'Lucida Grande', 'Open Sans', verdana, arial, sans-serif; font-size: 10px; fill: rgb(0, 0, 0); fill-opacity: 1; white-space: pre; opacity: 1;">0 bp</text></g><g class="xtick"><text text-anchor="middle" x="0" y="451" style="font-family: 'Lucida Grande', 'Open Sans', verdana, arial, sans-serif; font-size: 10px; fill: rgb(0, 0, 0); fill-opacity: 1; white-space: pre; opacity: 1;" transform="translate(182.01999999999998,0)">50 bp</text></g><g class="xtick"><text text-anchor="middle" x="0" y="451" style="font-family: 'Lucida Grande', 'Open Sans', verdana, arial, sans-serif; font-size: 10px; fill: rgb(0, 0, 0); fill-opacity: 1; white-space: pre; opacity: 1;" transform="translate(304.05,0)">100 bp</text></g><g class="xtick"><text text-anchor="middle" x="0" y="451" style="font-family: 'Lucida Grande', 'Open Sans', verdana, arial, sans-serif; font-size: 10px; fill: rgb(0, 0, 0); fill-opacity: 1; white-space: pre; opacity: 1;" transform="translate(426.07,0)">150 bp</text></g><g class="xtick"><text text-anchor="middle" x="0" y="451" style="font-family: 'Lucida Grande', 'Open Sans', verdana, arial, sans-serif; font-size: 10px; fill: rgb(0, 0, 0); fill-opacity: 1; white-space: pre; opacity: 1;" transform="translate(548.1,0)">200 bp</text></g><g class="xtick"><text text-anchor="middle" x="0" y="451" style="font-family: 'Lucida Grande', 'Open Sans', verdana, arial, sans-serif; font-size: 10px; fill: rgb(0, 0, 0); fill-opacity: 1; white-space: pre; opacity: 1;" transform="translate(670.12,0)">250 bp</text></g><g class="xtick"><text text-anchor="middle" x="0" y="451" style="font-family: 'Lucida Grande', 'Open Sans', verdana, arial, sans-serif; font-size: 10px; fill: rgb(0, 0, 0); fill-opacity: 1; white-space: pre; opacity: 1;" transform="translate(792.14,0)">300 bp</text></g><g class="xtick"><text text-anchor="middle" x="0" y="451" style="font-family: 'Lucida Grande', 'Open Sans', verdana, arial, sans-serif; font-size: 10px; fill: rgb(0, 0, 0); fill-opacity: 1; white-space: pre; opacity: 1;" transform="translate(914.17,0)">350 bp</text></g><g class="xtick"><text text-anchor="middle" x="0" y="451" style="font-family: 'Lucida Grande', 'Open Sans', verdana, arial, sans-serif; font-size: 10px; fill: rgb(0, 0, 0); fill-opacity: 1; white-space: pre; opacity: 1;" transform="translate(1036.19,0)">400 bp</text></g></g><g class="yaxislayer-above"><g class="ytick"><text text-anchor="end" x="54" y="3.5" transform="translate(0,435)" style="font-family: 'Lucida Grande', 'Open Sans', verdana, arial, sans-serif; font-size: 10px; fill: rgb(0, 0, 0); fill-opacity: 1; white-space: pre; opacity: 1;">0</text></g><g class="ytick"><text text-anchor="end" x="54" y="3.5" style="font-family: 'Lucida Grande', 'Open Sans', verdana, arial, sans-serif; font-size: 10px; fill: rgb(0, 0, 0); fill-opacity: 1; white-space: pre; opacity: 1;" transform="translate(0,394.26)">10</text></g><g class="ytick"><text text-anchor="end" x="54" y="3.5" style="font-family: 'Lucida Grande', 'Open Sans', verdana, arial, sans-serif; font-size: 10px; fill: rgb(0, 0, 0); fill-opacity: 1; white-space: pre; opacity: 1;" transform="translate(0,353.52)">20</text></g><g class="ytick"><text text-anchor="end" x="54" y="3.5" style="font-family: 'Lucida Grande', 'Open Sans', verdana, arial, sans-serif; font-size: 10px; fill: rgb(0, 0, 0); fill-opacity: 1; white-space: pre; opacity: 1;" transform="translate(0,312.78)">30</text></g><g class="ytick"><text text-anchor="end" x="54" y="3.5" style="font-family: 'Lucida Grande', 'Open Sans', verdana, arial, sans-serif; font-size: 10px; fill: rgb(0, 0, 0); fill-opacity: 1; white-space: pre; opacity: 1;" transform="translate(0,272.03999999999996)">40</text></g><g class="ytick"><text text-anchor="end" x="54" y="3.5" style="font-family: 'Lucida Grande', 'Open Sans', verdana, arial, sans-serif; font-size: 10px; fill: rgb(0, 0, 0); fill-opacity: 1; white-space: pre; opacity: 1;" transform="translate(0,231.3)">50</text></g><g class="ytick"><text text-anchor="end" x="54" y="3.5" style="font-family: 'Lucida Grande', 'Open Sans', verdana, arial, sans-serif; font-size: 10px; fill: rgb(0, 0, 0); fill-opacity: 1; white-space: pre; opacity: 1;" transform="translate(0,190.56)">60</text></g><g class="ytick"><text text-anchor="end" x="54" y="3.5" style="font-family: 'Lucida Grande', 'Open Sans', verdana, arial, sans-serif; font-size: 10px; fill: rgb(0, 0, 0); fill-opacity: 1; white-space: pre; opacity: 1;" transform="translate(0,149.81)">70</text></g><g class="ytick"><text text-anchor="end" x="54" y="3.5" style="font-family: 'Lucida Grande', 'Open Sans', verdana, arial, sans-serif; font-size: 10px; fill: rgb(0, 0, 0); fill-opacity: 1; white-space: pre; opacity: 1;" transform="translate(0,109.07)">80</text></g><g class="ytick"><text text-anchor="end" x="54" y="3.5" style="font-family: 'Lucida Grande', 'Open Sans', verdana, arial, sans-serif; font-size: 10px; fill: rgb(0, 0, 0); fill-opacity: 1; white-space: pre; opacity: 1;" transform="translate(0,68.33)">90</text></g></g><g class="overaxes-above"/></g></g><g class="polarlayer"/><g class="smithlayer"/><g class="ternarylayer"/><g class="geolayer"/><g class="funnelarealayer"/><g class="pielayer"/><g class="iciclelayer"/><g class="treemaplayer"/><g class="sunburstlayer"/><g class="glimages"/><defs id="topdefs-8d5d34"><g class="clips"/></defs><g class="layer-above"><g class="imagelayer"/><g class="shapelayer"/></g><g class="infolayer"><g class="g-gtitle"><text class="gtitle" x="550" y="25" text-anchor="middle" dy="0em" style="opacity: 1; font-family: 'Lucida Grande', 'Open Sans', verdana, arial, sans-serif; font-size: 20px; fill: rgb(42, 63, 95); fill-opacity: 1; white-space: pre;"><tspan class="line" dy="0em" x="550" y="25">FastQC: Mean Quality Scores</tspan><tspan class="line" dy="1.3em" x="550" y="25">​<tspan style="font-size:70%" dy="-0.6em">10 samples</tspan><tspan dy="0.42em">​</tspan></tspan></text></g><g class="g-xtitle"><text class="xtitle" x="572.5" y="472.3" text-anchor="middle" style="opacity: 0.3; font-family: 'Lucida Grande', 'Open Sans', verdana, arial, sans-serif; font-size: 14px; fill: rgb(0, 0, 0); fill-opacity: 1; white-space: pre;">Position (bp)</text></g><g class="g-ytitle"><text class="ytitle" transform="rotate(-90,26.865625,242.5)" x="26.865625" y="242.5" text-anchor="middle" style="opacity: 0.3; font-family: 'Lucida Grande', 'Open Sans', verdana, arial, sans-serif; font-size: 14px; fill: rgb(0, 0, 0); fill-opacity: 1; white-space: pre;">Phred Score</text></g></g></svg>