<svg class="main-svg" xmlns="http://www.w3.org/2000/svg" xmlns:xlink="http://www.w3.org/1999/xlink" width="2200" height="1000" style="" viewBox="0 0 1100 500"><rect x="0" y="0" width="1100" height="500" style="fill: rgb(255, 255, 255); fill-opacity: 1;"/><defs id="defs-e81041"><g class="clips"><clipPath id="clipe81041xyplot" class="plotclip"><rect width="1018" height="385"/></clipPath><clipPath class="axesclip" id="clipe81041x"><rect x="60" y="0" width="1018" height="500"/></clipPath><clipPath class="axesclip" id="clipe81041y"><rect x="0" y="50" width="1100" height="385"/></clipPath><clipPath class="axesclip" id="clipe81041xy"><rect x="60" y="50" width="1018" height="385"/></clipPath></g><g class="gradients"/><g class="patterns"/></defs><g class="bglayer"/><g class="layer-below"><g class="imagelayer"/><g class="shapelayer"/></g><g class="cartesianlayer"><g class="subplot xy"><g class="layer-subplot"><g class="shapelayer"/><g class="imagelayer"/></g><g class="minor-gridlayer"><g class="x"/><g class="y"/></g><g class="gridlayer"><g class="x"><path class="xgrid crisp" transform="translate(260.33000000000004,0)" d="M0,50v385" style="stroke: rgb(0, 0, 0); stroke-opacity: 0.05; stroke-width: 1px;"/><path class="xgrid crisp" transform="translate(464.75,0)" d="M0,50v385" style="stroke: rgb(0, 0, 0); stroke-opacity: 0.05; stroke-width: 1px;"/><path class="xgrid crisp" transform="translate(669.16,0)" d="M0,50v385" style="stroke: rgb(0, 0, 0); stroke-opacity: 0.05; stroke-width: 1px;"/><path class="xgrid crisp" transform="translate(873.58,0)" d="M0,50v385" style="stroke: rgb(0, 0, 0); stroke-opacity: 0.05; stroke-width: 1px;"/></g><g class="y"><path class="ygrid crisp" transform="translate(0,385.91)" d="M60,0h1018" style="stroke: rgb(0, 0, 0); stroke-opacity: 0.05; stroke-width: 1px;"/><path class="ygrid crisp" transform="translate(0,336.82)" d="M60,0h1018" style="stroke: rgb(0, 0, 0); stroke-opacity: 0.05; stroke-width: 1px;"/><path class="ygrid crisp" transform="translate(0,287.73)" d="M60,0h1018" style="stroke: rgb(0, 0, 0); stroke-opacity: 0.05; stroke-width: 1px;"/><path class="ygrid crisp" transform="translate(0,238.65)" d="M60,0h1018" style="stroke: rgb(0, 0, 0); stroke-opacity: 0.05; stroke-width: 1px;"/><path class="ygrid crisp" transform="translate(0,189.56)" d="M60,0h1018" style="stroke: rgb(0, 0, 0); stroke-opacity: 0.05; stroke-width: 1px;"/><path class="ygrid crisp" transform="translate(0,140.47)" d="M60,0h1018" style="stroke: rgb(0, 0, 0); stroke-opacity: 0.05; stroke-width: 1px;"/><path class="ygrid crisp" transform="translate(0,91.38)" d="M60,0h1018" style="stroke: rgb(0, 0, 0); stroke-opacity: 0.05; stroke-width: 1px;"/></g></g><g class="zerolinelayer"><path class="yzl zl crisp" transform="translate(0,435)" d="M60,0h1018" style="stroke: rgb(0, 0, 0); stroke-opacity: 0.05; stroke-width: 2px;"/></g><g class="layer-between"><g class="shapelayer"/><g class="imagelayer"/></g><path class="xlines-below"/><path class="ylines-below"/><g class="overlines-below"/><g class="xaxislayer-below"/><g class="yaxislayer-below"/><g class="overaxes-below"/><g class="overplot"><g class="xy" transform="translate(60,50)" clip-path="url(#clipe81041xyplot)"><g class="scatterlayer mlayer"><g class="trace scatter tracefd7a80" style="stroke-miterlimit: 2; opacity: 1;"><g class="fills"/><g class="errorbars"/><g class="lines"><path class="js-line" d="M0,140.83L4.09,120.6L8.18,118.45L12.27,111.9L16.35,103.85L20.44,86.19L24.53,75.36L28.62,76.61L32.71,62.4L36.8,61.13L40.88,61.1L44.97,64.6L49.06,65.05L53.15,77.78L57.24,71.49L61.33,65.99L65.41,46.09L69.5,45.74L73.59,35.55L77.68,31.48L81.77,33.3L85.86,34.09L89.94,21.59L94.03,23.08L98.12,27.06L102.21,27.35L106.3,38.35L110.39,38.32L114.47,32.42L118.56,29.62L122.65,32.32L126.74,23.57L130.83,39.28L134.92,40.83L139,31.61L143.09,22.69L147.18,21.22L151.27,24.75L155.36,24.06L159.45,20.19L163.53,19.25L167.62,28.44L171.71,31.51L175.8,26.05L179.89,29.39L183.98,32.56L188.06,39.71L192.15,40.53L196.24,45.85L200.33,28.94L204.42,29.22L208.51,29.11L212.59,35.63L216.68,29.24L220.77,45.97L224.86,33.43L228.95,30.16L237.12,36.49L241.21,37.73L245.3,57.56L249.39,33.28L253.48,29.11L257.57,30.17L261.65,29.98L265.74,38.88L269.83,34.87L273.92,34.75L278.01,30.65L282.1,30.82L290.27,40.92L294.36,35.29L298.45,30.3L302.54,30.01L306.63,32.39L310.71,29.59L314.8,40.95L318.89,37.92L322.98,32.69L327.07,29.66L331.16,42.59L335.24,35.54L339.33,34.19L343.42,36.1L347.51,31.78L351.6,31.35L355.69,44.83L359.78,39.55L367.95,42.87L372.04,41.84L376.13,43.47L380.22,43.81L384.31,41.31L388.39,41.07L392.48,42.35L396.57,41.49L400.66,46.08L404.75,48.97L408.84,44.76L412.92,45.87L417.01,50.02L421.1,51.09L425.19,50.47L429.28,59.79L433.37,67.43L437.45,52.28L441.54,49.19L445.63,66.64L449.72,65.23L453.81,68.34L457.9,82.67L461.98,73.37L466.07,63.94L470.16,85.21L474.25,78.55L478.34,64.92L482.43,64.05L486.51,72.79L490.6,64.19L494.69,64.58L498.78,81.37L502.87,73.06L506.96,71.92L511.04,76.56L515.13,84.49L519.22,83.5L523.31,78.97L527.4,76.47L531.49,78.95L535.57,90.74L539.66,86.05L543.75,86.63L547.84,85.24L551.93,96L556.02,109.29L560.1,90.52L564.19,105.96L568.28,101.3L572.37,92.29L576.46,103.54L580.55,127.14L584.63,103.34L588.72,112.92L592.81,105.6L596.9,121.08L600.99,121.92L605.08,127.15L609.16,121.13L613.25,142.15L617.34,136.62L621.43,128.33L625.52,137.48L629.61,136.12L633.69,137.5L637.78,139.18L641.87,134.26L650.05,142.01L654.14,149.23L658.22,155L662.31,148.08L666.4,151.16L670.49,166.88L674.58,161.82L678.67,155.48L682.76,169.79L686.84,161.73L690.93,159.23L695.02,160.81L699.11,166.95L703.2,159.93L707.29,167.04L711.37,171.19L715.46,165.3L719.55,168.15L723.64,175.55L727.73,173.74L731.82,177.62L735.9,179.55L739.99,188.53L744.08,186.35L748.17,188.43L752.26,197.63L756.35,190.34L760.43,196.75L764.52,189.14L768.61,189.81L772.7,203.51L776.79,207.16L784.96,202.28L789.05,207.16L793.14,205.16L797.23,200.79L801.32,208.66L805.41,208.61L809.49,212.2L813.58,226.85L817.67,233.63L821.76,229.84L825.85,231.99L829.94,224.06L834.02,229.45L838.11,226.09L842.2,220.1L846.29,233.6L850.38,233.11L854.47,234.03L858.55,245.69L862.64,244.96L866.73,240.31L870.82,258.17L874.91,258.07L879,256.79L883.08,263.5L887.17,275.72L891.26,269.77L895.35,270.09L899.44,273L903.53,272.92L907.61,281.67L911.7,282.54L915.79,277.07L919.88,284.32L923.97,286.47L928.06,284.02L932.14,290.29L936.23,289.16L940.32,292.07L944.41,298.37L948.5,295.34L952.59,297.61L960.76,309.69L964.85,305.84L968.94,309.26L973.03,313.82L977.12,310.9L981.2,311.85L985.29,317.32L989.38,318.72L993.47,318.59L997.56,328.07L1001.65,327.9L1005.73,331.01L1009.82,333.86L1013.91,338.19L1018,342.78" style="vector-effect: none; fill: none; stroke: rgb(124, 181, 236); stroke-opacity: 1; stroke-width: 2px; opacity: 1;"/></g><g class="points"/><g class="text"/></g><g class="trace scatter trace700016" style="stroke-miterlimit: 2; opacity: 1;"><g class="fills"/><g class="errorbars"/><g class="lines"><path class="js-line" d="M0,189.13L4.09,184.95L8.18,152.77L16.35,134.13L20.44,107.31L24.53,92.94L28.62,91.72L32.71,78.09L36.8,74.77L40.88,74.87L44.97,81.2L49.06,79.47L53.15,93.15L57.24,88.88L61.33,81.5L65.41,57.83L69.5,59.82L73.59,45.05L77.68,39.89L81.77,41.31L85.86,45.61L89.94,38.25L94.03,38.75L98.12,45.44L102.21,43.28L106.3,53.99L110.39,56.23L114.47,48.55L118.56,44.63L122.65,46.43L126.74,34.45L130.83,55.64L134.92,56.23L143.09,34.8L147.18,32.31L151.27,38.06L155.36,37.73L159.45,30.37L163.53,28.75L167.62,41.23L171.71,46.85L175.8,41.15L179.89,45.71L183.98,49.69L188.06,56.27L196.24,63.94L200.33,40.19L204.42,41.18L208.51,40.89L212.59,47.82L216.68,42.64L220.77,61.64L224.86,48.05L228.95,44.69L233.04,47.6L237.12,51.62L241.21,50.55L245.3,75.44L249.39,44.75L253.48,39.38L257.57,43.05L261.65,45.31L265.74,54.12L269.83,51.38L273.92,50.23L278.01,46.28L282.1,47.45L286.18,51.3L290.27,56.97L294.36,51.21L298.45,43.93L302.54,44.82L306.63,50.23L310.71,47.08L314.8,59.17L318.89,56.46L322.98,49.66L327.07,44.43L331.16,61.17L335.24,51.4L339.33,49.24L343.42,52.75L347.51,46.83L351.6,46.64L355.69,64.54L359.78,58.54L363.86,60.54L367.95,62.73L372.04,61L380.22,63.14L384.31,60.33L388.39,59.97L392.48,62.34L396.57,61.04L400.66,65.88L404.75,70.12L408.84,65.84L412.92,66.07L417.01,70.91L421.1,73.02L425.19,71L433.37,95.39L437.45,77.77L441.54,72.3L445.63,90.78L449.72,88.86L453.81,89.54L457.9,112.64L461.98,100.34L466.07,85.98L470.16,114.37L474.25,108.63L478.34,89.96L482.43,87.97L486.51,99.13L490.6,87.87L494.69,89.62L498.78,108.93L502.87,101.66L506.96,102.35L511.04,106.42L515.13,115.44L519.22,116.71L523.31,111.77L527.4,111.97L531.49,118.13L535.57,129.24L539.66,123.2L543.75,125.13L547.84,124.9L551.93,139.21L556.02,148.91L560.1,132.74L564.19,150.04L568.28,147.35L572.37,140.64L576.46,148.42L580.55,172.48L584.63,150.94L588.72,162.74L592.81,156.65L596.9,166.68L600.99,169.14L605.08,174.03L609.16,170.11L613.25,187.42L617.34,184.24L621.43,175.83L625.52,185.77L629.61,185.93L633.69,187.07L637.78,187.53L641.87,185.23L645.96,190.76L650.05,193.46L658.22,206.57L662.31,202.3L666.4,204.57L670.49,217.72L674.58,215.71L678.67,210.43L682.76,220.58L686.84,216.01L690.93,213.89L695.02,215.57L699.11,220.78L703.2,215.63L711.37,226.53L715.46,223.56L719.55,226.32L723.64,232.35L727.73,231.56L731.82,235.95L735.9,237.64L739.99,243.7L744.08,242.06L748.17,246.53L752.26,252.73L756.35,248.91L760.43,252.61L764.52,248.78L768.61,250.1L772.7,260.03L776.79,264.82L780.88,263.68L784.96,262.04L789.05,265.52L793.14,266.18L797.23,265.81L801.32,272.27L805.41,270.81L809.49,273.03L813.58,284.38L817.67,288.89L821.76,287.05L825.85,287.38L829.94,283.27L834.02,285.93L838.11,285.23L842.2,282.56L846.29,289.98L854.47,292.98L858.55,299.36L862.64,300.12L866.73,298.86L870.82,308.36L874.91,309.84L879,309.94L883.08,314.05L887.17,319.64L891.26,316.86L895.35,317.67L899.44,319.98L903.53,320.02L907.61,324.94L911.7,326.19L915.79,324.45L923.97,328.86L928.06,328.05L932.14,330.55L936.23,330.7L940.32,332.38L944.41,335.43L948.5,334.8L952.59,335.88L956.67,339.32L960.76,341.72L964.85,340.55L968.94,342.12L973.03,344.34L977.12,343.5L981.2,343.86L985.29,346.36L993.47,347.76L997.56,351.25L1005.73,352.92L1009.82,354.21L1018,357.61" style="vector-effect: none; fill: none; stroke: rgb(67, 67, 72); stroke-opacity: 1; stroke-width: 2px; opacity: 1;"/></g><g class="points"/><g class="text"/></g><g class="trace scatter tracee29fe6" style="stroke-miterlimit: 2; opacity: 1;"><g class="fills"/><g class="errorbars"/><g class="lines"><path class="js-line" d="M0,186.35L4.09,178.04L8.18,134.5L12.27,129.66L16.35,114.15L24.53,86.84L28.62,90.14L32.71,75.13L36.8,71.33L40.88,72.76L44.97,79.32L49.06,76.39L53.15,90.14L57.24,84.54L61.33,77.45L65.41,55.29L69.5,57.04L73.59,43.54L77.68,37.89L81.77,39.03L85.86,42.58L89.94,34.85L94.03,34.7L98.12,41.39L102.21,39.73L106.3,50.66L110.39,51.07L114.47,45.27L118.56,41.31L122.65,44.71L126.74,31.69L130.83,53.81L134.92,55.95L143.09,32.25L147.18,29.69L151.27,35.4L155.36,35.1L159.45,28.49L163.53,26.7L167.62,37.79L171.71,43.12L175.8,37.06L179.89,41.84L183.98,45.8L188.06,51.79L192.15,55.16L196.24,59.94L200.33,37.38L204.42,38.24L208.51,37.98L212.59,45.62L216.68,39.34L220.77,58.43L224.86,44.68L228.95,41.13L233.04,43.37L237.12,47.74L241.21,47.65L245.3,72.41L249.39,42.17L253.48,36.75L257.57,40.22L261.65,41.63L265.74,50.69L269.83,47.77L273.92,46.72L278.01,42.47L282.1,42.89L286.18,47.44L290.27,52.25L294.36,47.01L298.45,40.33L302.54,41.07L306.63,45.83L310.71,42.69L314.8,54.43L318.89,51.72L327.07,40.5L331.16,57.01L335.24,47.12L339.33,45.53L343.42,48.23L347.51,42.9L351.6,42.46L355.69,59.89L359.78,53.51L363.86,55.53L367.95,58.55L372.04,56.96L380.22,58.44L384.31,55.91L388.39,55.33L392.48,57.1L396.57,55.75L400.66,60.48L404.75,64.6L408.84,59.75L412.92,61.38L417.01,65.57L421.1,67.98L425.19,65.87L433.37,88.45L437.45,71.26L441.54,66.31L445.63,84.88L449.72,82.7L453.81,84.22L457.9,105.75L461.98,93.67L466.07,80.49L470.16,107.98L474.25,100.36L478.34,82.91L482.43,81.25L486.51,91.99L490.6,81.12L494.69,82.99L498.78,102.74L502.87,94.44L506.96,94.15L511.04,98.07L515.13,106.47L519.22,107.56L523.31,103.4L527.4,102.79L531.49,107.74L535.57,119.72L539.66,114.01L543.75,115.53L547.84,114.75L551.93,129.21L556.02,138.42L560.1,121.44L564.19,138.26L568.28,134.92L572.37,128.1L576.46,137.01L580.55,160.69L584.63,138.33L588.72,149.99L592.81,143.37L596.9,155.8L600.99,157.11L605.08,162.24L609.16,156.71L613.25,177.63L617.34,173.63L621.43,165.28L625.52,174.48L629.61,174.18L633.69,175.82L637.78,176.51L641.87,172.96L645.96,178.73L650.05,181.03L658.22,193.37L662.31,189.03L666.4,191.97L670.49,206.87L674.58,203.11L678.67,197.59L682.76,209.19L686.84,203.33L690.93,201.17L695.02,202.78L699.11,209.06L703.2,202.79L707.29,209.54L711.37,213.92L715.46,210.06L719.55,212.49L723.64,219.13L727.73,218.12L731.82,222.41L735.9,224.1L739.99,230.81L744.08,229.05L748.17,232.86L752.26,240.07L756.35,234.45L760.43,238.84L764.52,234.2L768.61,235.31L772.7,247.08L776.79,251.35L784.96,247.97L789.05,251.89L793.14,252.05L797.23,250.33L801.32,256.88L805.41,255.9L809.49,259.08L813.58,271.71L817.67,276.6L821.76,274.09L825.85,275.05L829.94,269.93L834.02,272.8L838.11,271.54L842.2,267.87L846.29,276.97L850.38,278.75L854.47,279.58L858.55,287.27L862.64,287.47L866.73,285.26L870.82,296.94L874.91,298.53L879,297.96L883.08,302.3L887.17,309.94L891.26,306.52L895.35,307.18L899.44,309.73L903.53,310.04L907.61,315.63L911.7,316.71L915.79,314.08L919.88,317.34L923.97,319.63L928.06,318.61L932.14,321.85L936.23,321.95L940.32,324.04L944.41,327.8L948.5,326.66L952.59,328.1L960.76,335.44L964.85,333.85L973.03,338.62L977.12,337.29L981.2,337.78L985.29,340.85L993.47,342.17L997.56,346.89L1001.65,347.2L1005.73,348.85L1013.91,352.81L1018,355.05" style="vector-effect: none; fill: none; stroke: rgb(144, 237, 125); stroke-opacity: 1; stroke-width: 2px; opacity: 1;"/></g><g class="points"/><g class="text"/></g><g class="trace scatter trace1790b6" style="stroke-miterlimit: 2; opacity: 1;"><g class="fills"/><g class="errorbars"/><g class="lines"><path class="js-line" d="M0,109.22L4.09,117.32L8.18,115.3L12.27,107.62L16.35,110.53L24.53,81.08L28.62,78.08L32.71,63.44L36.8,63.39L40.88,65.35L44.97,66.16L49.06,64.62L53.15,79.53L57.24,72.76L61.33,67.8L65.41,50.2L69.5,47.7L73.59,44.82L77.68,40.87L85.86,39.93L89.94,32.24L94.03,31.44L98.12,39.51L102.21,36.17L106.3,39.19L110.39,35.32L114.47,39.87L118.56,36.4L122.65,34.46L126.74,36.08L130.83,43.07L134.92,38.69L139,36.75L143.09,34.63L147.18,38.61L151.27,41.66L155.36,37.29L159.45,36.64L163.53,41.22L167.62,42.45L171.71,39.65L175.8,38.63L179.89,35.77L188.06,35.91L192.15,38.72L196.24,44.16L200.33,54.14L204.42,42.51L208.51,41.65L212.59,44.74L216.68,42.82L220.77,47.67L224.86,48.42L228.95,41.56L233.04,41.53L237.12,42.82L241.21,39.75L245.3,43.39L249.39,49.24L253.48,46.12L257.57,40.9L261.65,44.59L265.74,42.15L269.83,40.66L273.92,42.4L278.01,40.95L282.1,43.53L286.18,46.63L290.27,51.35L294.36,52.45L298.45,55.09L302.54,47.39L306.63,56.05L310.71,52.36L314.8,49.71L318.89,53.54L322.98,52.37L327.07,56.07L331.16,58.43L335.24,54.65L339.33,55.07L343.42,54.9L347.51,56.09L351.6,58.36L355.69,63.99L363.86,67.2L367.95,63.9L372.04,65.03L376.13,70.39L380.22,73.33L384.31,70.69L388.39,74.14L392.48,71.4L396.57,75.4L400.66,71.09L404.75,73.09L408.84,88.5L421.1,83.29L425.19,85.68L429.28,87.39L433.37,85.85L437.45,82.15L441.54,87.67L449.72,95.21L453.81,94.34L457.9,94.85L461.98,88.82L466.07,92.93L470.16,92.81L474.25,91.35L478.34,87.73L482.43,90.65L486.51,89.84L490.6,91.39L494.69,100.21L498.78,100.23L502.87,96.7L511.04,98.11L515.13,103.99L519.22,108.09L523.31,107.53L527.4,104.06L531.49,103.5L535.57,105.84L539.66,113.4L547.84,111.91L551.93,107.68L556.02,114.16L560.1,114.4L564.19,125.61L568.28,122.86L572.37,123.51L576.46,125.79L580.55,138L584.63,126.38L588.72,127.61L592.81,131.16L596.9,154.31L600.99,150.78L605.08,149.35L609.16,146.21L613.25,148.3L617.34,151.95L621.43,149.14L625.52,143.48L629.61,141.31L633.69,141.72L637.78,154.09L641.87,149.36L645.96,151.17L650.05,146.58L654.14,150.22L658.22,152.44L662.31,149.89L666.4,148.87L670.49,156.05L674.58,150.42L678.67,155.04L682.76,167.02L686.84,167.55L690.93,169.57L695.02,173.17L699.11,171.9L703.2,172.22L707.29,169.36L711.37,169.41L715.46,171.28L719.55,178.89L723.64,178.73L727.73,181.81L731.82,180.54L735.9,187L739.99,187.05L744.08,190.98L748.17,187.29L752.26,190.33L756.35,188.87L760.43,192.59L764.52,191.92L768.61,191.93L772.7,194.66L776.79,196.19L780.88,195.01L784.96,201.07L789.05,204.19L793.14,213.08L797.23,211.73L801.32,214.07L805.41,212.85L809.49,212.01L813.58,226.17L817.67,229.35L821.76,224.81L825.85,225.37L829.94,230.36L834.02,225.81L838.11,229.78L842.2,228.19L846.29,230.97L850.38,225.95L854.47,227.6L858.55,240.4L862.64,236.53L866.73,240.23L870.82,242.13L874.91,250.15L879,250.37L883.08,259.24L887.17,258.46L891.26,263.11L895.35,260.24L899.44,261L903.53,260.07L907.61,266.2L911.7,269.58L923.97,270.23L928.06,273.53L932.14,280.46L936.23,283.94L940.32,287.13L944.41,291.66L948.5,296.44L952.59,295.85L956.67,296.5L960.76,298L964.85,299.21L968.94,305.17L973.03,306.84L977.12,305.33L981.2,306.58L985.29,310.88L989.38,311.55L993.47,314.65L1009.82,324.32L1013.91,327.73L1018,333.23" style="vector-effect: none; fill: none; stroke: rgb(247, 163, 92); stroke-opacity: 1; stroke-width: 2px; opacity: 1;"/></g><g class="points"/><g class="text"/></g><g class="trace scatter trace1de5f7" style="stroke-miterlimit: 2; opacity: 1;"><g class="fills"/><g class="errorbars"/><g class="lines"><path class="js-line" d="M0,134.88L4.09,111.68L8.18,125.95L12.27,114.89L16.35,132.43L20.44,102.97L24.53,89.47L28.62,86.73L32.71,80.73L36.8,80.79L40.88,72.93L44.97,76.98L49.06,76.69L53.15,96.66L57.24,93.81L61.33,85.27L65.41,72.78L69.5,70.87L73.59,63.39L77.68,50.55L81.77,49.9L85.86,53.13L89.94,51.52L94.03,45.17L98.12,47.06L102.21,46.08L106.3,56.51L114.47,50.89L118.56,44.42L122.65,41.99L126.74,41.91L130.83,46.17L134.92,38.15L139,37.32L143.09,37.61L147.18,37.12L151.27,34.32L155.36,30.09L159.45,28.65L163.53,29.09L167.62,34.04L171.71,42.42L175.8,40.73L179.89,38.62L183.98,50.56L188.06,47.65L192.15,49.88L196.24,57.32L200.33,37.45L204.42,42.36L208.51,38.24L212.59,51.52L216.68,40.06L220.77,51.46L224.86,44.94L228.95,41.64L233.04,40.73L237.12,50.2L241.21,42.19L245.3,46.64L249.39,38.28L253.48,32.08L257.57,31.9L261.65,35.32L265.74,52.8L269.83,47.46L273.92,48.34L278.01,45.55L282.1,46.32L286.18,49.31L290.27,47.73L294.36,44.33L298.45,38.36L302.54,37.19L306.63,41.32L310.71,40.14L314.8,54.48L318.89,60.43L322.98,52.63L327.07,47.75L331.16,52.44L335.24,44.59L339.33,41.97L343.42,45.86L347.51,39.76L351.6,43.38L355.69,50.72L359.78,51.06L363.86,55.07L367.95,54.51L372.04,55.95L376.13,59.2L380.22,58.93L384.31,58.28L388.39,60.64L396.57,57.37L400.66,64.02L404.75,59.5L408.84,59.05L412.92,56.82L417.01,66.3L421.1,61.73L425.19,61.55L429.28,62.63L433.37,72.21L437.45,69.28L441.54,67.55L445.63,72.1L449.72,70.52L453.81,68.53L457.9,82.54L461.98,84.54L466.07,80.71L470.16,93.73L474.25,91.4L478.34,80.16L482.43,82.44L486.51,86.62L490.6,82.98L494.69,88.28L498.78,101.4L502.87,90.05L506.96,86.9L511.04,95.9L515.13,102.26L519.22,98.46L523.31,101.38L527.4,101.53L531.49,113.44L535.57,119.81L539.66,113.65L543.75,110.81L547.84,110.71L551.93,110.58L556.02,122.59L560.1,115.25L564.19,119.64L572.37,120.87L576.46,128.04L580.55,156.55L584.63,135.57L588.72,145.67L592.81,133.5L596.9,142.82L600.99,149.42L605.08,156.66L609.16,153.96L613.25,165.95L617.34,156.32L621.43,155.82L625.52,163.99L629.61,162.83L633.69,167.12L637.78,169.71L641.87,167.17L645.96,162.95L650.05,164.66L654.14,172.26L658.22,171.73L662.31,171.82L666.4,177.23L670.49,188.29L674.58,184.92L678.67,186.04L682.76,198.41L686.84,190.14L690.93,189.89L695.02,192.34L699.11,191.25L703.2,190.83L707.29,194.54L711.37,196.1L715.46,192.53L723.64,202.87L727.73,198.99L731.82,201.34L735.9,200.47L739.99,210.75L744.08,210.81L748.17,213.51L752.26,218.48L756.35,213.5L760.43,222.44L764.52,213.31L768.61,216.64L772.7,228.39L776.79,229.64L780.88,227.57L784.96,221.39L789.05,223.33L793.14,228.7L797.23,230.15L801.32,233.37L805.41,235.52L809.49,236.61L813.58,246L817.67,249.88L825.85,249.37L829.94,244.62L834.02,242.83L838.11,242.01L842.2,241.65L846.29,245.63L854.47,248.56L858.55,252.79L862.64,254.8L866.73,253.88L874.91,268.6L879,270.57L883.08,273.72L887.17,281.6L891.26,279.8L895.35,279.44L903.53,283.78L907.61,284.47L911.7,287.07L915.79,285.72L928.06,290.27L932.14,298.72L936.23,298.79L940.32,302.92L944.41,302.65L948.5,300.76L952.59,302.57L956.67,306.45L960.76,311.93L964.85,312.59L968.94,316.13L973.03,316.54L981.2,316.47L985.29,319.22L993.47,323.8L997.56,328.46L1001.65,330.85L1005.73,334.46L1009.82,335.31L1013.91,337.81L1018,341.62" style="vector-effect: none; fill: none; stroke: rgb(128, 133, 233); stroke-opacity: 1; stroke-width: 2px; opacity: 1;"/></g><g class="points"/><g class="text"/></g><g class="trace scatter trace317b66" style="stroke-miterlimit: 2; opacity: 1;"><g class="fills"/><g class="errorbars"/><g class="lines"><path class="js-line" d="M0,139.24L4.09,129.78L8.18,153.43L12.27,120.31L16.35,134.93L20.44,115.65L24.53,107.66L28.62,104.66L32.71,90.81L36.8,92.01L40.88,83.81L44.97,90.09L49.06,89.99L53.15,115.61L57.24,111.79L61.33,102.59L65.41,98.21L73.59,81.35L77.68,66.73L81.77,63.03L85.86,71.45L89.94,75.53L94.03,64.67L98.12,68.39L102.21,66.56L106.3,77.58L110.39,74.66L114.47,71.28L118.56,63.08L122.65,59.88L126.74,59.75L130.83,66.12L134.92,56.44L139,54.84L143.09,54.46L147.18,54.45L151.27,51.3L155.36,44.94L159.45,42.94L163.53,42.6L167.62,49.34L171.71,60.88L175.8,59.45L179.89,55.57L183.98,71.29L188.06,66.23L192.15,69.26L196.24,77.74L200.33,52.43L204.42,60.55L208.51,54.54L212.59,73.3L216.68,57.44L220.77,74.02L224.86,64.24L228.95,59.55L233.04,58.64L237.12,71.98L241.21,60.69L245.3,64.97L249.39,55.69L253.48,45.92L257.57,46.69L261.65,52.45L265.74,73.67L269.83,67.75L273.92,67.87L278.01,64.78L282.1,66.81L286.18,70.59L290.27,68.63L294.36,64.91L298.45,57.22L302.54,54.8L306.63,62.48L310.71,62.26L314.8,76.17L318.89,84.49L322.98,74.26L327.07,69.38L331.16,74.76L335.24,65.14L339.33,60.3L343.42,65.97L347.51,58.2L351.6,63.26L355.69,73.88L359.78,73.4L363.86,77.71L372.04,79.58L376.13,82.99L380.22,81.79L384.31,82.27L388.39,84.91L392.48,83.4L396.57,82.16L400.66,88.83L404.75,84.73L408.84,83.92L412.92,81.46L417.01,92.35L421.1,88.27L425.19,85.87L429.28,87.94L433.37,102.78L437.45,102.16L441.54,96.48L445.63,101.74L449.72,99.93L453.81,96.05L457.9,115.31L461.98,114.84L466.07,109.97L470.16,125.85L474.25,123.66L478.34,112.02L482.43,113.94L486.51,119.13L490.6,116.81L494.69,121.77L498.78,135.1L502.87,124.3L506.96,122.42L511.04,131.52L515.13,136.88L519.22,134.53L523.31,139.99L527.4,143.23L531.49,160.77L535.57,163.48L539.66,155.05L543.75,152.66L547.84,152.95L551.93,155.85L556.02,167.1L560.1,161.04L564.19,165.49L568.28,168.23L572.37,173.44L576.46,178.8L580.55,202.84L584.63,187.07L588.72,197.72L592.81,187.01L596.9,194.86L600.99,200.81L605.08,208.62L609.16,206.47L613.25,214.85L617.34,206.74L621.43,205.44L625.52,213.46L629.61,212.98L633.69,216.89L637.78,217.77L645.96,215.21L650.05,217.13L654.14,223.8L658.22,224.69L662.31,226.11L666.4,228.73L670.49,237.27L674.58,237.36L678.67,237.64L682.76,247.75L686.84,242.6L690.93,241.59L695.02,244.43L699.11,243.5L703.2,242.84L707.29,246.57L711.37,248.97L715.46,247.31L723.64,255.63L727.73,253.35L731.82,255.29L735.9,254.91L739.99,262.98L744.08,263.31L748.17,266.02L752.26,269.7L756.35,266.75L760.43,273.94L764.52,268.33L768.61,270.4L772.7,278.87L776.79,281.05L780.88,279.37L784.96,275.55L789.05,276.9L793.14,280.84L801.32,285.96L805.41,286.72L809.49,287.58L813.58,294.81L817.67,297.31L821.76,297.38L825.85,297.54L829.94,295.01L834.02,293.47L838.11,293.74L842.2,294.05L846.29,296.94L862.64,303.99L866.73,304.36L874.91,313.65L879,315.7L883.08,317.85L887.17,321.63L891.26,320.56L895.35,320.81L911.7,325.77L915.79,325.81L919.88,326.4L923.97,327.78L928.06,329L932.14,333.06L936.23,333.55L940.32,335.59L944.41,335.73L948.5,335.11L952.59,336.3L956.67,338.71L960.76,341.36L964.85,341.88L968.94,343.56L973.03,343.7L981.2,344.05L985.29,345.45L993.47,348.04L997.56,350.04L1009.82,353.72L1013.91,354.79L1018,356.4" style="vector-effect: none; fill: none; stroke: rgb(241, 92, 128); stroke-opacity: 1; stroke-width: 2px; opacity: 1;"/></g><g class="points"/><g class="text"/></g><g class="trace scatter trace7beb31" style="stroke-miterlimit: 2; opacity: 1;"><g class="fills"/><g class="errorbars"/><g class="lines"><path class="js-line" d="M0,153.17L4.09,122.8L8.18,149.41L12.27,138.82L16.35,169.48L20.44,121.64L24.53,116.96L32.71,87.59L36.8,95.21L40.88,85.51L44.97,90.29L49.06,91.04L53.15,113.95L57.24,114.66L61.33,102.69L65.41,96.36L69.5,94.44L73.59,83.96L77.68,66.62L81.77,61.6L85.86,68.83L89.94,75.8L94.03,62.19L98.12,66.7L102.21,63.14L106.3,75.93L110.39,74.39L114.47,69.58L118.56,61.64L122.65,58.3L126.74,56.35L130.83,67.14L134.92,56.31L139,51.85L143.09,54.03L147.18,53.42L151.27,51.68L155.36,43.65L159.45,41.28L163.53,42.41L167.62,48.2L171.71,62.35L175.8,58.52L179.89,55.23L183.98,69.05L188.06,63.45L192.15,67.66L196.24,74.8L200.33,50.34L204.42,57.46L208.51,52.06L212.59,68.11L216.68,55.32L220.77,70.43L224.86,61.36L228.95,57.21L233.04,55.65L237.12,67.14L241.21,57.6L245.3,62.66L249.39,52.57L253.48,43.54L257.57,43.44L261.65,49.7L265.74,70.06L269.83,64.91L273.92,65.69L278.01,62.59L282.1,64.58L286.18,66.4L290.27,63.9L294.36,60.34L298.45,53.03L302.54,50.98L306.63,58.29L310.71,57.51L314.8,72.87L318.89,80.09L322.98,70.07L327.07,64.54L331.16,69.93L335.24,60.25L339.33,56.88L343.42,61.44L347.51,54.52L351.6,59.18L355.69,70.28L359.78,70.3L363.86,73.97L376.13,78.08L380.22,78.32L388.39,80.36L392.48,79.59L396.57,78L400.66,84.4L404.75,80.4L408.84,79.54L412.92,77.68L417.01,88.01L421.1,84.06L425.19,81.8L429.28,84.04L433.37,99.12L437.45,96.43L441.54,91.47L445.63,94.46L449.72,92.28L453.81,88.83L457.9,109.64L461.98,109.47L466.07,103.92L470.16,121.39L474.25,118.86L478.34,104.61L482.43,105.35L486.51,110.53L490.6,107.46L494.69,114.22L498.78,128.62L502.87,117.31L506.96,114.9L511.04,123.89L515.13,129.57L519.22,128.13L523.31,133.8L527.4,135.99L531.49,153.18L535.57,156.95L539.66,148.13L543.75,145.55L547.84,145.79L551.93,149.04L556.02,160.09L560.1,153.76L564.19,156.5L568.28,160.36L572.37,165.74L576.46,170.91L580.55,196.61L584.63,180.3L588.72,191.09L592.81,179.98L596.9,188.12L600.99,192.75L605.08,200.94L609.16,199.79L613.25,211.15L617.34,202.27L621.43,201.56L625.52,209.31L629.61,208.85L633.69,213.14L637.78,214.86L645.96,211.31L650.05,213.86L654.14,221.23L658.22,220.8L662.31,222.73L666.4,226.48L670.49,236.49L674.58,235.37L678.67,236.22L682.76,246.09L686.84,240.79L690.93,240L695.02,242.12L699.11,242.02L703.2,241.32L707.29,245.36L711.37,248.06L715.46,246.19L719.55,248.96L723.64,252.9L727.73,251.84L731.82,253.24L735.9,253.33L739.99,261.44L744.08,262.07L748.17,265.22L752.26,269.52L756.35,265.35L760.43,272.02L764.52,266.65L768.61,268.71L772.7,277.49L776.79,279.93L780.88,278.1L784.96,274.89L789.05,276.21L793.14,280.83L797.23,283.23L801.32,286.04L805.41,286.26L809.49,287.26L813.58,294.29L817.67,296.9L821.76,296.65L825.85,295.61L829.94,293.5L834.02,292.36L838.11,292.21L842.2,292.71L846.29,295.7L862.64,302.77L866.73,303.07L874.91,312.91L879,314.73L883.08,316.92L887.17,320.57L891.26,319.46L895.35,319.79L911.7,324.75L915.79,324.56L928.06,327.96L932.14,332.32L936.23,332.81L940.32,334.71L944.41,334.9L948.5,334.08L952.59,335.13L956.67,337.33L960.76,340.01L964.85,340.46L968.94,342.42L973.03,342.83L981.2,343.08L985.29,344.43L993.47,347.22L997.56,349.35L1005.73,352.3L1009.82,352.85L1018,355.76" style="vector-effect: none; fill: none; stroke: rgb(228, 211, 84); stroke-opacity: 1; stroke-width: 2px; opacity: 1;"/></g><g class="points"/><g class="text"/></g><g class="trace scatter trace749e33" style="stroke-miterlimit: 2; opacity: 1;"><g class="fills"/><g class="errorbars"/><g class="lines"><path class="js-line" d="M0,153.12L4.09,154.71L8.18,136.26L12.27,134.5L16.35,130.61L20.44,120.5L24.53,104.4L28.62,107.78L32.71,93.36L36.8,87.8L40.88,90.47L44.97,97.59L49.06,93.63L53.15,109.32L57.24,104.76L61.33,99.01L65.41,89.85L69.5,86.13L73.59,73.7L77.68,63.76L81.77,65.57L85.86,67.39L89.94,63.55L94.03,62.27L98.12,73.38L102.21,70.48L106.3,78.73L110.39,69.8L114.47,76.52L118.56,72.32L122.65,66.36L126.74,60.45L130.83,74.45L134.92,72.06L139,67.56L143.09,63.76L147.18,63.83L151.27,71.15L155.36,66.9L159.45,57.9L163.53,57.29L167.62,63.42L171.71,62.64L175.8,62.18L179.89,64.08L183.98,74.66L188.06,79.36L196.24,100L200.33,80.93L204.42,74.16L208.51,71.46L212.59,83.03L216.68,77.02L220.77,89.8L224.86,90.49L228.95,86.1L233.04,83.11L237.12,84.65L241.21,75.4L245.3,84.08L249.39,78.39L253.48,74.53L257.57,75.3L261.65,77.01L265.74,86.58L269.83,91.41L273.92,94.65L278.01,94.07L282.1,94.82L286.18,92.09L290.27,91.61L294.36,100.93L298.45,96.59L302.54,95.09L306.63,95.97L310.71,95.1L314.8,104.12L318.89,99.8L322.98,97.92L327.07,94.7L331.16,102.98L335.24,96.24L339.33,95.23L343.42,105.71L347.51,99.82L351.6,97.58L355.69,108.48L359.78,105.22L363.86,121.94L367.95,124.74L372.04,117.83L376.13,118.58L380.22,118.48L384.31,114.8L388.39,112.83L392.48,114.45L396.57,120.46L400.66,116.68L404.75,125.28L408.84,123.07L412.92,127.08L417.01,130.3L421.1,129.09L425.19,125.35L429.28,127.24L433.37,130.46L437.45,123.93L445.63,137.56L449.72,133.8L453.81,131.23L457.9,150.64L461.98,147.12L466.07,137.39L470.16,159.37L474.25,155.47L478.34,140.93L482.43,141.14L486.51,151.94L490.6,143.66L494.69,149.33L498.78,160.57L502.87,157.25L506.96,156.59L511.04,162.25L515.13,173.36L523.31,176.03L527.4,175.27L531.49,173.09L535.57,187.3L543.75,190.95L547.84,180.53L551.93,184.12L556.02,196.46L560.1,191.81L564.19,202.16L568.28,197.25L572.37,197.28L576.46,205.42L580.55,230.59L584.63,217.06L588.72,222.79L592.81,214.22L596.9,229.6L600.99,230.88L605.08,233.17L609.16,228.66L613.25,235.64L617.34,232.55L621.43,230.47L625.52,233.23L629.61,233.09L633.69,236.13L637.78,237.42L641.87,239.01L645.96,242.41L650.05,242.87L654.14,246.84L658.22,246.75L662.31,243.82L666.4,244.22L670.49,255.73L674.58,253.12L678.67,255.5L682.76,265.29L686.84,261.16L690.93,267.16L695.02,265.24L699.11,272.79L703.2,268.14L711.37,269.67L715.46,270.06L719.55,270.97L723.64,278.03L735.9,277.54L739.99,283.02L744.08,282.73L748.17,281.1L752.26,286.6L756.35,284.22L760.43,287.69L764.52,286.05L768.61,287.51L772.7,293.69L776.79,295.54L780.88,292.7L784.96,292.85L789.05,295.88L801.32,301.31L805.41,302.06L809.49,304.92L813.58,312.39L817.67,314.07L821.76,314.09L825.85,312.37L829.94,312.06L834.02,310.65L838.11,310.39L842.2,310.3L846.29,312.74L850.38,312.67L854.47,314.59L858.55,320.13L862.64,318.97L866.73,319.39L870.82,322.41L874.91,325.2L879,326.61L883.08,330.49L887.17,331.42L895.35,331.34L899.44,332.03L903.53,334.33L907.61,337.77L915.79,338.29L919.88,338.76L923.97,340.41L928.06,340.43L932.14,342.28L936.23,343.16L944.41,345.65L948.5,345.47L964.85,349.04L968.94,351.15L981.2,352.54L985.29,353.45L993.47,354.5L997.56,355.61L1009.82,358.06L1013.91,358.73L1018,359.68" style="vector-effect: none; fill: none; stroke: rgb(43, 144, 143); stroke-opacity: 1; stroke-width: 2px; opacity: 1;"/></g><g class="points"/><g class="text"/></g><g class="trace scatter trace46a1cb" style="stroke-miterlimit: 2; opacity: 1;"><g class="fills"/><g class="errorbars"/><g class="lines"><path class="js-line" d="M0,109.86L4.09,112.56L8.18,108.95L12.27,108.98L16.35,113.63L20.44,92.87L24.53,78.99L28.62,77.49L32.71,62.51L36.8,61.08L40.88,62.8L44.97,64.31L49.06,62.78L53.15,78.77L57.24,71.51L61.33,66.73L65.41,53.99L69.5,47.32L73.59,43.48L77.68,36.85L81.77,39.55L85.86,38.84L89.94,27.27L94.03,24.66L98.12,31.27L102.21,29.31L106.3,38.08L110.39,29.51L114.47,32.6L118.56,33.13L122.65,29.57L126.74,25.43L130.83,34.27L134.92,31.54L139,32.87L143.09,29.27L147.18,28.32L151.27,30.05L155.36,27.26L159.45,21.11L163.53,21.19L167.62,23.26L171.71,22.92L175.8,22.31L179.89,25.45L183.98,32.76L188.06,30.85L192.15,41.61L196.24,48.79L200.33,34.9L204.42,31.95L208.51,30.47L212.59,42.33L216.68,34.5L220.77,43.54L224.86,41.81L228.95,38.71L233.04,35.77L237.12,38.72L241.21,31.7L245.3,37.86L249.39,31.37L253.48,29.86L261.65,30.73L265.74,38.94L273.92,43.81L278.01,43.23L282.1,46.91L286.18,41.66L290.27,38.37L294.36,41.44L298.45,38.17L302.54,37.53L310.71,36.17L314.8,44.69L318.89,41.84L322.98,41.16L327.07,38.44L331.16,46.32L335.24,40.55L339.33,39.34L343.42,43.55L347.51,37.89L351.6,37.72L355.69,43.47L359.78,42.45L363.86,51.88L367.95,58.03L372.04,54.63L376.13,55.95L380.22,56.29L384.31,50.84L388.39,53.22L392.48,52.19L396.57,55.52L400.66,54.43L404.75,58.26L408.84,53.48L412.92,57.38L417.01,62.56L421.1,61.45L425.19,59.19L429.28,55.21L433.37,56.87L437.45,50.91L441.54,55.69L445.63,62.49L449.72,59.11L453.81,57.51L457.9,73.73L461.98,74.54L466.07,66.58L470.16,84.48L474.25,79.97L478.34,65.5L482.43,65.67L486.51,74.1L490.6,65.16L494.69,71.51L498.78,80.06L502.87,76.75L506.96,72.84L511.04,81.3L515.13,88.95L519.22,85.38L523.31,86.59L527.4,84.82L531.49,81.63L535.57,96.12L539.66,99.43L543.75,101.39L547.84,85.65L551.93,87.25L556.02,104.93L560.1,97.08L564.19,107.7L568.28,98.31L572.37,92.12L576.46,100.53L580.55,139.04L584.63,113.64L588.72,118.29L592.81,106.51L596.9,128.96L600.99,126.51L605.08,129.16L609.16,120.55L613.25,135.93L617.34,125.66L621.43,122.12L625.52,125.32L629.61,126.36L633.69,135.52L637.78,131.99L641.87,129.73L645.96,133.76L650.05,132.37L654.14,136.29L658.22,135.1L662.31,128.45L666.4,128.56L670.49,146.66L674.58,140.49L678.67,139.8L682.76,168.27L686.84,151.16L690.93,153.04L695.02,151.01L699.11,173.13L703.2,155.39L707.29,160.01L711.37,157.93L715.46,152.58L719.55,148.86L723.64,173.29L727.73,166.23L731.82,161.37L735.9,159.29L739.99,170.59L744.08,171.16L748.17,167.24L752.26,175.78L756.35,163.69L760.43,171.54L764.52,162.8L768.61,164.95L772.7,190.94L776.79,188.35L780.88,176.85L784.96,176.98L789.05,179.61L793.14,179L797.23,179.35L801.32,182.58L805.41,181.49L809.49,191.7L813.58,212.84L817.67,211.11L821.76,213.77L825.85,211.2L829.94,204.65L838.11,195.01L842.2,190.48L846.29,200.19L850.38,193.18L854.47,198.01L858.55,218.22L862.64,209.1L866.73,204.4L870.82,217.47L874.91,222.01L879,222.12L883.08,233.25L887.17,236.14L891.26,235.68L895.35,232.68L899.44,234.27L903.53,240.28L907.61,252.55L911.7,244.68L915.79,244.66L919.88,250.74L923.97,254.3L928.06,252.81L932.14,257.94L936.23,260.02L940.32,260.93L944.41,264.78L948.5,261.17L956.67,266.67L960.76,275.45L964.85,274.05L968.94,284.35L973.03,285.03L977.12,286.76L985.29,296.01L989.38,295.53L993.47,295.37L997.56,305.86L1001.65,309.95L1005.73,312.87L1013.91,319.4L1018,325.72" style="vector-effect: none; fill: none; stroke: rgb(244, 91, 91); stroke-opacity: 1; stroke-width: 2px; opacity: 1;"/></g><g class="points"/><g class="text"/></g><g class="trace scatter tracedbc91e" style="stroke-miterlimit: 2; opacity: 1;"><g class="fills"/><g class="errorbars"/><g class="lines"><path class="js-line" d="M0,130.87L4.09,118.63L8.18,119.07L12.27,110.59L16.35,117.91L24.53,85.94L28.62,85.52L32.71,72.49L36.8,69.51L40.88,70.77L44.97,74.59L49.06,72.41L53.15,88.39L61.33,77.02L65.41,63.89L69.5,59.3L73.59,51.71L77.68,44L81.77,45.51L85.86,46.45L89.94,38.02L94.03,35.06L98.12,44.48L102.21,42.14L106.3,51.94L110.39,42.19L114.47,47.25L118.56,45.57L122.65,41.24L126.74,36.36L130.83,47.03L134.92,44.91L139,44.05L143.09,40.12L147.18,38.55L151.27,40.89L155.36,37.91L159.45,30.37L163.53,29.5L167.62,32.94L171.71,32.78L175.8,32.78L179.89,36.95L183.98,46.23L188.06,42.64L192.15,54.21L196.24,61.39L200.33,44.63L204.42,41.31L208.51,40L212.59,52.64L216.68,43.68L220.77,55.16L224.86,53.58L228.95,50.22L233.04,47.16L237.12,51.4L241.21,41.79L245.3,49.05L249.39,41.01L253.48,38.44L261.65,39.32L265.74,50.03L269.83,53.56L273.92,58.44L278.01,57.82L282.1,59.62L286.18,54.21L290.27,50.13L294.36,55.43L298.45,50.98L306.63,49.57L310.71,48.9L314.8,57.34L318.89,53.75L322.98,52.69L327.07,49.64L331.16,56.51L335.24,51.74L339.33,50.69L343.42,57.26L347.51,49.19L351.6,48.73L355.69,56.16L359.78,54.45L363.86,71.47L367.95,75.7L372.04,70.23L376.13,68.06L380.22,68.71L384.31,65.28L392.48,64.88L396.57,67.99L400.66,64.75L404.75,71.21L408.84,65.66L412.92,72.86L417.01,77.82L421.1,77.11L429.28,69.71L433.37,72.9L437.45,65.8L441.54,72.04L445.63,78.09L449.72,75.14L453.81,72.21L457.9,92.68L461.98,90.95L466.07,82.17L470.16,103.69L474.25,98.83L478.34,82.92L482.43,81.71L486.51,93.03L490.6,82.12L494.69,87.83L498.78,99.51L506.96,93.44L511.04,103.01L515.13,110.88L519.22,109.28L523.31,110.01L527.4,108.54L531.49,104.13L535.57,121.86L543.75,127.65L547.84,109.96L551.93,112.63L556.02,131.48L560.1,122.1L564.19,135.82L568.28,125.58L572.37,120.67L576.46,130.85L580.55,170.79L584.63,145.28L588.72,152.38L592.81,138.31L596.9,158.4L600.99,156L605.08,162.05L609.16,152.4L613.25,165.21L617.34,159.73L621.43,157.42L625.52,160.19L629.61,157.51L633.69,162.68L637.78,163.12L641.87,163.29L645.96,167.17L650.05,170.51L654.14,172.69L658.22,172.99L662.31,165.34L666.4,164.05L670.49,186.61L674.58,178.38L678.67,177.84L682.76,204.21L686.84,188.34L690.93,191.5L695.02,187.77L699.11,204.83L703.2,190.61L711.37,197.09L715.46,193.33L719.55,189.3L723.64,206.37L727.73,206.59L731.82,200.59L735.9,199.29L739.99,210.72L744.08,208.94L748.17,204.13L752.26,215.93L756.35,205.57L760.43,211.07L764.52,203.28L768.61,205.96L772.7,224.01L776.79,227.49L780.88,219.5L784.96,217.08L789.05,219.51L793.14,220.07L797.23,221.87L801.32,224.48L805.41,225.35L809.49,232.52L813.58,251.34L817.67,251.12L821.76,253.94L825.85,248.27L829.94,244.61L838.11,235.59L842.2,232.37L846.29,240.35L850.38,238.02L854.47,241.9L858.55,254.43L862.64,248.11L866.73,245.39L870.82,257.45L874.91,262.62L879,264.43L883.08,271.63L887.17,275.1L891.26,271.98L895.35,271.7L899.44,273.36L903.53,277.69L907.61,284.68L911.7,281.8L915.79,282.4L919.88,285.29L923.97,289.57L928.06,288.63L932.14,292.54L936.23,294.74L940.32,295.9L944.41,298.52L948.5,296.39L956.67,300.53L960.76,307.08L964.85,306.81L968.94,312.79L973.03,315.43L977.12,315.85L985.29,321.22L989.38,322.34L993.47,323.09L997.56,328.34L1001.65,332.01L1005.73,334.36L1013.91,339.02L1018,342.98" style="vector-effect: none; fill: none; stroke: rgb(145, 232, 225); stroke-opacity: 1; stroke-width: 2px; opacity: 1;"/></g><g class="points"/><g class="text"/></g></g></g></g><path class="xlines-above crisp" d="M0,0" style="fill: none;"/><path class="ylines-above crisp" d="M0,0" style="fill: none;"/><g class="overlines-above"/><g class="xaxislayer-above"><g class="xtick"><text text-anchor="middle" x="0" y="451" transform="translate(260.33000000000004,0)" style="font-family: 'Lucida Grande', 'Open Sans', verdana, arial, sans-serif; font-size: 10px; fill: rgb(0, 0, 0); fill-opacity: 1; white-space: pre; opacity: 1;">50</text></g><g class="xtick"><text text-anchor="middle" x="0" y="451" style="font-family: 'Lucida Grande', 'Open Sans', verdana, arial, sans-serif; font-size: 10px; fill: rgb(0, 0, 0); fill-opacity: 1; white-space: pre; opacity: 1;" transform="translate(464.75,0)">100</text></g><g class="xtick"><text text-anchor="middle" x="0" y="451" style="font-family: 'Lucida Grande', 'Open Sans', verdana, arial, sans-serif; font-size: 10px; fill: rgb(0, 0, 0); fill-opacity: 1; white-space: pre; opacity: 1;" transform="translate(669.16,0)">150</text></g><g class="xtick"><text text-anchor="middle" x="0" y="451" style="font-family: 'Lucida Grande', 'Open Sans', verdana, arial, sans-serif; font-size: 10px; fill: rgb(0, 0, 0); fill-opacity: 1; white-space: pre; opacity: 1;" transform="translate(873.58,0)">200</text></g><g class="xtick"><text text-anchor="middle" x="0" y="451" style="font-family: 'Lucida Grande', 'Open Sans', verdana, arial, sans-serif; font-size: 10px; fill: rgb(0, 0, 0); fill-opacity: 1; white-space: pre; opacity: 1;" transform="translate(1078,0)">250</text></g></g><g class="yaxislayer-above"><g class="ytick"><text text-anchor="end" x="54" y="3.5" transform="translate(0,435)" style="font-family: 'Lucida Grande', 'Open Sans', verdana, arial, sans-serif; font-size: 10px; fill: rgb(0, 0, 0); fill-opacity: 1; white-space: pre; opacity: 1;">0</text></g><g class="ytick"><text text-anchor="end" x="54" y="3.5" style="font-family: 'Lucida Grande', 'Open Sans', verdana, arial, sans-serif; font-size: 10px; fill: rgb(0, 0, 0); fill-opacity: 1; white-space: pre; opacity: 1;" transform="translate(0,385.91)">5</text></g><g class="ytick"><text text-anchor="end" x="54" y="3.5" style="font-family: 'Lucida Grande', 'Open Sans', verdana, arial, sans-serif; font-size: 10px; fill: rgb(0, 0, 0); fill-opacity: 1; white-space: pre; opacity: 1;" transform="translate(0,336.82)">10</text></g><g class="ytick"><text text-anchor="end" x="54" y="3.5" style="font-family: 'Lucida Grande', 'Open Sans', verdana, arial, sans-serif; font-size: 10px; fill: rgb(0, 0, 0); fill-opacity: 1; white-space: pre; opacity: 1;" transform="translate(0,287.73)">15</text></g><g class="ytick"><text text-anchor="end" x="54" y="3.5" style="font-family: 'Lucida Grande', 'Open Sans', verdana, arial, sans-serif; font-size: 10px; fill: rgb(0, 0, 0); fill-opacity: 1; white-space: pre; opacity: 1;" transform="translate(0,238.65)">20</text></g><g class="ytick"><text text-anchor="end" x="54" y="3.5" style="font-family: 'Lucida Grande', 'Open Sans', verdana, arial, sans-serif; font-size: 10px; fill: rgb(0, 0, 0); fill-opacity: 1; white-space: pre; opacity: 1;" transform="translate(0,189.56)">25</text></g><g class="ytick"><text text-anchor="end" x="54" y="3.5" style="font-family: 'Lucida Grande', 'Open Sans', verdana, arial, sans-serif; font-size: 10px; fill: rgb(0, 0, 0); fill-opacity: 1; white-space: pre; opacity: 1;" transform="translate(0,140.47)">30</text></g><g class="ytick"><text text-anchor="end" x="54" y="3.5" style="font-family: 'Lucida Grande', 'Open Sans', verdana, arial, sans-serif; font-size: 10px; fill: rgb(0, 0, 0); fill-opacity: 1; white-space: pre; opacity: 1;" transform="translate(0,91.38)">35</text></g></g><g class="overaxes-above"/></g></g><g class="polarlayer"/><g class="smithlayer"/><g class="ternarylayer"/><g class="geolayer"/><g class="funnelarealayer"/><g class="pielayer"/><g class="iciclelayer"/><g class="treemaplayer"/><g class="sunburstlayer"/><g class="glimages"/><defs id="topdefs-e81041"><g class="clips"/></defs><g class="layer-above"><g class="imagelayer"/><g class="shapelayer"/></g><g class="infolayer"><g class="g-gtitle"><text class="gtitle" x="550" y="25" text-anchor="middle" dy="0em" style="opacity: 1; font-family: 'Lucida Grande', 'Open Sans', verdana, arial, sans-serif; font-size: 20px; fill: rgb(42, 63, 95); fill-opacity: 1; white-space: pre;"><tspan class="line" dy="0em" x="550" y="25">Fastp: Sequence Quality</tspan><tspan class="line" dy="1.3em" x="550" y="25">​<tspan style="font-size:70%" dy="-0.6em">Read 2: Before filtering, 10 samples</tspan><tspan dy="0.42em">​</tspan></tspan></text></g><g class="g-xtitle"><text class="xtitle" x="569" y="472.3" text-anchor="middle" style="opacity: 0.3; font-family: 'Lucida Grande', 'Open Sans', verdana, arial, sans-serif; font-size: 14px; fill: rgb(0, 0, 0); fill-opacity: 1; white-space: pre;">Read Position</text></g><g class="g-ytitle"><text class="ytitle" transform="rotate(-90,26.865625,242.5)" x="26.865625" y="242.5" text-anchor="middle" style="opacity: 0.3; font-family: 'Lucida Grande', 'Open Sans', verdana, arial, sans-serif; font-size: 14px; fill: rgb(0, 0, 0); fill-opacity: 1; white-space: pre;">R2 Before filtering: Sequence Quality</text></g></g></svg>