<svg class="main-svg" xmlns="http://www.w3.org/2000/svg" xmlns:xlink="http://www.w3.org/1999/xlink" width="2200" height="1000" style="" viewBox="0 0 1100 500"><rect x="0" y="0" width="1100" height="500" style="fill: rgb(255, 255, 255); fill-opacity: 1;"/><defs id="defs-3a8f03"><g class="clips"><clipPath id="clip3a8f03xyplot" class="plotclip"><rect width="1007" height="385"/></clipPath><clipPath class="axesclip" id="clip3a8f03x"><rect x="71" y="0" width="1007" height="500"/></clipPath><clipPath class="axesclip" id="clip3a8f03y"><rect x="0" y="50" width="1100" height="385"/></clipPath><clipPath class="axesclip" id="clip3a8f03xy"><rect x="71" y="50" width="1007" height="385"/></clipPath></g><g class="gradients"/><g class="patterns"/></defs><g class="bglayer"/><g class="layer-below"><g class="imagelayer"/><g class="shapelayer"/></g><g class="cartesianlayer"><g class="subplot xy"><g class="layer-subplot"><g class="shapelayer"/><g class="imagelayer"/></g><g class="minor-gridlayer"><g class="x"/><g class="y"/></g><g class="gridlayer"><g class="x"><path class="xgrid crisp" transform="translate(269.15999999999997,0)" d="M0,50v385" style="stroke: rgb(0, 0, 0); stroke-opacity: 0.05; stroke-width: 1px;"/><path class="xgrid crisp" transform="translate(471.37,0)" d="M0,50v385" style="stroke: rgb(0, 0, 0); stroke-opacity: 0.05; stroke-width: 1px;"/><path class="xgrid crisp" transform="translate(673.58,0)" d="M0,50v385" style="stroke: rgb(0, 0, 0); stroke-opacity: 0.05; stroke-width: 1px;"/><path class="xgrid crisp" transform="translate(875.79,0)" d="M0,50v385" style="stroke: rgb(0, 0, 0); stroke-opacity: 0.05; stroke-width: 1px;"/></g><g class="y"><path class="ygrid crisp" transform="translate(0,358)" d="M71,0h1007" style="stroke: rgb(0, 0, 0); stroke-opacity: 0.05; stroke-width: 1px;"/><path class="ygrid crisp" transform="translate(0,281)" d="M71,0h1007" style="stroke: rgb(0, 0, 0); stroke-opacity: 0.05; stroke-width: 1px;"/><path class="ygrid crisp" transform="translate(0,204)" d="M71,0h1007" style="stroke: rgb(0, 0, 0); stroke-opacity: 0.05; stroke-width: 1px;"/><path class="ygrid crisp" transform="translate(0,127)" d="M71,0h1007" style="stroke: rgb(0, 0, 0); stroke-opacity: 0.05; stroke-width: 1px;"/></g></g><g class="zerolinelayer"><path class="yzl zl crisp" transform="translate(0,435)" d="M71,0h1007" style="stroke: rgb(0, 0, 0); stroke-opacity: 0.05; stroke-width: 2px;"/></g><g class="layer-between"><g class="shapelayer"/><g class="imagelayer"/></g><path class="xlines-below"/><path class="ylines-below"/><g class="overlines-below"/><g class="xaxislayer-below"/><g class="yaxislayer-below"/><g class="overaxes-below"/><g class="overplot"><g class="xy" transform="translate(71,50)" clip-path="url(#clip3a8f03xyplot)"><g class="scatterlayer mlayer"><g class="trace scatter trace9eee91" style="stroke-miterlimit: 2; opacity: 1;"><g class="fills"/><g class="errorbars"/><g class="lines"><path class="js-line" d="M0,15.47L4.04,366.75L8.09,48.05L12.13,40.02L16.18,379.21L20.22,47.95L24.27,26.7L28.31,355.62L32.35,23.23L36.4,32.38L40.44,377.72L44.49,10.53L48.53,42.94L52.57,363.89L56.62,25.02L60.66,8.54L64.71,376.71L68.75,14.47L72.8,375.2L76.84,9.06L80.88,360.53L84.93,6.65L88.97,7.01L93.02,101.33L97.06,25.26L101.1,14.82L105.15,369.66L109.19,32.37L113.24,182.48L117.28,48.58L121.33,94.75L125.37,370.07L129.41,22.27L137.5,355.04L141.55,86.9L145.59,257.65L149.63,360.23L153.68,45.03L157.72,11.26L161.77,7.96L165.81,282.7L169.86,81.3L173.9,7.08L177.94,68.27L181.99,105.6L186.03,116.98L190.08,16.68L194.12,372.05L198.16,7.96L202.21,137.14L206.25,16.32L210.3,373.87L214.34,20.05L218.39,370.58L222.43,162.45L226.47,160.33L230.52,51.72L234.56,375.21L238.61,39.91L242.65,371.25L246.69,8.36L250.74,14.9L254.78,374.62L258.83,9.27L262.87,179.44L266.92,242.33L270.96,188.31L275,169.72L279.05,61.03L283.09,89.34L287.14,162.67L291.18,372.32L295.22,13.55L299.27,357.41L303.31,10.76L307.36,14L311.4,323.74L315.45,300.03L319.49,310.75L323.53,20.61L327.58,351.78L331.62,50.45L335.67,76.77L339.71,310.59L343.76,370.62L347.8,102.57L351.84,331.05L355.89,74.5L359.93,172.26L363.98,263.74L368.02,154.93L372.06,137.58L376.11,318.18L380.15,306.22L384.2,225.62L388.24,195.63L392.29,132.99L396.33,204.54L400.37,311.61L404.42,340.63L408.46,58.36L412.51,173.71L416.55,202.69L420.59,87.49L424.64,337.35L428.68,46L432.73,8.5L436.77,76.51L440.82,316.97L444.86,17.87L448.9,59.97L452.95,17.96L456.99,116.16L461.04,53.82L465.08,360.75L469.12,43.45L473.17,54.91L477.21,60.97L481.26,172.58L485.3,16.33L489.35,56.69L493.39,263.66L497.43,13.23L501.48,17.02L505.52,138.57L509.57,195.18L513.61,309.7L517.65,215.89L521.7,14.1L525.74,18.87L529.79,91.54L533.83,59.95L537.88,354.49L541.92,135.57L545.96,12.25L550.01,318.93L554.05,37.13L558.1,309.32L562.14,67.72L566.18,16.66L570.23,182.46L574.27,361.03L578.32,66.19L582.36,129.36L586.41,19.72L590.45,225.51L594.49,211.62L598.54,198.92L602.58,178.22L606.63,297.26L610.67,308.96L614.71,161.86L618.76,305.86L622.8,221.25L626.85,180.06L630.89,189.25L634.94,146.69L638.98,264.88L643.02,213.19L647.07,261.94L651.11,262.62L655.16,181.61L659.2,130.65L663.24,237.14L667.29,171.05L671.33,114.96L675.38,294.89L679.42,197.57L683.47,220.66L687.51,178.04L691.55,259.09L695.6,179.52L699.64,253.59L703.69,299L707.73,241.24L711.78,125.68L715.82,323.57L719.86,314.12L723.91,177.01L727.95,118.64L732,111.2L736.04,195.71L740.08,105.42L744.13,232.6L748.17,44.21L752.22,254.82L756.26,155.84L760.31,111.13L764.35,234.85L768.39,299.48L772.44,96.91L776.48,154.91L780.53,283.51L784.57,92.54L788.61,62.11L792.66,97.32L796.7,60.32L800.75,183.17L804.79,96.49L808.84,192.52L812.88,200.41L816.92,258.24L820.97,59.02L825.01,287.12L829.06,115.37L833.1,63.74L837.14,330.28L841.19,278.86L845.23,78.19L849.28,324.51L853.32,100.05L857.37,98.87L861.41,246.01L865.45,83.26L869.5,129.02L873.54,100.37L877.59,299.31L881.63,62.94L885.67,281.19L893.76,134.87L897.81,277.36L901.85,79.7L905.9,60.43L909.94,293.32L913.98,225.61L918.03,64.08L922.07,293.73L930.16,108.52L934.2,316.51L938.25,124.88L942.29,164.11L946.34,87.17L950.38,189.62L954.43,70.81L958.47,265.51L962.51,317.22L966.56,150.19L970.6,163.51L974.65,320.1L978.69,54.26L982.73,60.12L986.78,316.99L990.82,178.54L994.87,233.19L998.91,266.98L1002.96,72.82L1007,269.54" style="vector-effect: none; fill: none; stroke: rgb(124, 181, 236); stroke-opacity: 1; stroke-width: 2px; opacity: 1;"/></g><g class="points"/><g class="text"/></g><g class="trace scatter trace1d68f2" style="stroke-miterlimit: 2; opacity: 1;"><g class="fills"/><g class="errorbars"/><g class="lines"><path class="js-line" d="M0,15.28L4.04,347.24L8.09,47.57L12.13,39.84L16.18,378.35L20.22,47.89L24.27,22.92L28.31,359.34L32.35,22.8L36.4,28.14L40.44,378.62L44.49,9.82L48.53,38.93L52.57,365.44L56.62,24.34L60.66,7.62L64.71,377.12L68.75,13.56L72.8,376.18L76.84,7.96L80.88,360.53L84.93,5.69L88.97,5.88L93.02,100.78L97.06,25.21L101.1,12.21L105.15,369.33L109.19,28.69L113.24,178.56L117.28,51.03L121.33,98.88L125.37,372.3L129.41,20.58L133.46,171.5L137.5,358.38L141.55,87.61L145.59,255.98L149.63,362.23L153.68,40.46L157.72,10.27L161.77,7.29L165.81,280.86L169.86,78.48L173.9,6L177.94,62.31L181.99,106.07L186.03,119.04L190.08,16.12L194.12,372.62L198.16,7.26L202.21,133.97L206.25,14.7L210.3,374.18L214.34,19.11L218.39,369.36L222.43,161.19L226.47,165.83L230.52,54.81L234.56,375.71L238.61,35.86L242.65,372.01L246.69,7.42L250.74,13.41L254.78,375.16L258.83,8.78L262.87,188.95L266.92,234.99L270.96,186.61L275,179.14L279.05,59.59L283.09,88.95L287.14,158.23L291.18,372.43L295.22,12.06L299.27,357.44L303.31,10.06L307.36,13.7L311.4,328.28L315.45,300.62L319.49,310.4L323.53,19.59L327.58,351.19L331.62,42.8L335.67,76.19L339.71,316.81L343.76,371.31L347.8,109.58L351.84,326.4L355.89,72.69L359.93,180.56L363.98,261.27L368.02,154.21L372.06,137.77L376.11,323.11L380.15,301.49L384.2,228.61L388.24,197.93L392.29,126.66L396.33,192.49L400.37,313.36L404.42,336.85L408.46,53.4L412.51,173.33L416.55,203.9L420.59,79.92L424.64,342.57L428.68,40.14L432.73,8.05L436.77,75.63L440.82,316.86L444.86,15.73L448.9,57.06L452.95,19.43L456.99,107.94L461.04,48.63L465.08,358.39L469.12,45.16L473.17,60.21L477.21,65.79L481.26,176.03L485.3,17.42L489.35,51.79L493.39,258.43L497.43,11.79L501.48,16.1L505.52,128.38L509.57,206.78L513.61,308.5L517.65,211L521.7,13.56L525.74,20.35L529.79,92.19L533.83,54.64L537.88,354.27L541.92,125.57L545.96,12.14L550.01,322.91L554.05,37.31L558.1,309.92L562.14,65.14L566.18,16.28L574.27,358.03L578.32,70.15L582.36,130.87L586.41,21.53L590.45,218.83L594.49,212.25L598.54,198.22L602.58,175.58L606.63,302.19L610.67,310.82L614.71,167.51L618.76,307.37L622.8,217.92L626.85,190.13L630.89,197.09L634.94,146.32L638.98,260.91L643.02,204.3L647.07,248.48L651.11,267.97L655.16,176.07L659.2,133.45L663.24,234.11L667.29,183.12L671.33,116.56L675.38,293.47L679.42,199.6L683.47,215.48L687.51,179.55L691.55,259.14L695.6,185.75L699.64,242.99L703.69,293.15L707.73,239.05L711.78,132.47L715.82,326.25L719.86,313.23L723.91,180.3L727.95,123.15L732,109.35L736.04,189.27L740.08,104.44L744.13,231.63L748.17,49.63L752.22,251.83L756.26,149.76L760.31,111.78L764.35,223.98L768.39,299.32L772.44,87.26L776.48,161.46L780.53,277.71L784.57,94.68L788.61,60.03L792.66,92.33L796.7,63.41L800.75,169.8L804.79,102.32L808.84,191.9L812.88,204.52L816.92,255L820.97,62.81L825.01,282.39L829.06,115.02L833.1,63.98L837.14,321.89L841.19,277.24L845.23,81.45L849.28,316.21L853.32,101.95L857.37,107.51L861.41,240.16L865.45,89.38L869.5,134.26L873.54,98.67L877.59,286.71L881.63,67.45L885.67,276.06L889.72,216.03L893.76,138L897.81,266.3L901.85,86.03L905.9,66.46L909.94,285.73L913.98,230.96L918.03,73.38L922.07,282.49L926.12,197.6L930.16,111.53L934.2,306.05L938.25,127.95L942.29,158.59L946.34,90.89L950.38,186.06L954.43,74.45L958.47,262.35L962.51,305.93L966.56,157.92L970.6,162.06L974.65,309.87L978.69,60.8L982.73,68.89L986.78,306.08L990.82,177.18L994.87,231.7L998.91,261.2L1002.96,75.48L1007,260.55" style="vector-effect: none; fill: none; stroke: rgb(67, 67, 72); stroke-opacity: 1; stroke-width: 2px; opacity: 1;"/></g><g class="points"/><g class="text"/></g><g class="trace scatter trace063259" style="stroke-miterlimit: 2; opacity: 1;"><g class="fills"/><g class="errorbars"/><g class="lines"><path class="js-line" d="M0,11.24L4.04,360.92L8.09,45.21L12.13,38.14L16.18,380.94L20.22,46.2L24.27,23.62L28.31,357.7L32.35,21.35L36.4,29.3L40.44,379.65L44.49,8.5L48.53,39.98L52.57,365.73L56.62,23.15L60.66,6.38L64.71,378.23L68.75,12.28L72.8,377.04L76.84,6.68L80.88,362.84L84.93,4.29L88.97,4.6L93.02,96.62L97.06,22.64L101.1,10.45L105.15,371.29L109.19,28.73L113.24,178.29L117.28,45.64L121.33,92.5L125.37,372.01L129.41,18.58L133.46,173.09L137.5,357.09L141.55,77.22L145.59,255.31L149.63,360.58L153.68,41.44L157.72,8.67L161.77,5.71L165.81,286.13L169.86,77.5L173.9,4.46L177.94,65.26L181.99,105.08L186.03,112.42L190.08,14.76L194.12,373.98L198.16,5.64L202.21,135.33L206.25,15.59L210.3,375.25L214.34,16.35L218.39,371.5L222.43,163.62L226.47,164.49L230.52,47.03L234.56,376.86L238.61,32.03L242.65,372.58L246.69,5.89L250.74,11.84L254.78,376.61L258.83,7L262.87,183.86L266.92,238.21L270.96,187.26L275,173.77L279.05,60.82L283.09,87.66L287.14,156L291.18,373.89L295.22,11.24L299.27,356.39L303.31,9L307.36,11.07L311.4,322.58L315.45,303.53L319.49,315.95L323.53,17.99L327.58,354.19L331.62,43.24L335.67,77.31L339.71,315.22L343.76,372.36L347.8,101.28L351.84,327.05L355.89,67.06L359.93,174.24L363.98,255.51L368.02,154.53L372.06,136.14L376.11,319.66L380.15,303.66L384.2,232.46L388.24,194.08L392.29,131.16L396.33,205.16L400.37,311.27L404.42,341.31L408.46,57.85L412.51,170.58L416.55,206.29L420.59,82.88L424.64,340.42L428.68,43.01L432.73,6.57L436.77,77.3L440.82,316.49L444.86,12.9L448.9,59.23L452.95,16.5L456.99,114.88L461.04,51.31L465.08,360.87L469.12,40.36L473.17,52.69L477.21,57.05L481.26,178.57L485.3,15.86L489.35,54.72L493.39,265.01L497.43,10.93L501.48,15.95L505.52,135.05L509.57,195.99L513.61,306.96L517.65,212.98L521.7,12.15L525.74,17.13L529.79,89.36L533.83,58.22L537.88,354.53L541.92,134.05L545.96,10.2L550.01,318.92L554.05,35.61L558.1,309.07L562.14,67.83L566.18,17.51L574.27,360.76L578.32,66.88L582.36,129.54L586.41,19.13L590.45,225.05L594.49,206.39L598.54,197.2L602.58,175.78L606.63,297.06L610.67,308.27L614.71,167.88L618.76,307.36L622.8,215.68L626.85,180.4L630.89,194.44L634.94,149.53L638.98,268.82L643.02,211.1L647.07,258.31L651.11,262.98L655.16,181.15L659.2,124.9L663.24,239.34L667.29,175.02L671.33,115.41L675.38,298.6L679.42,196.48L683.47,217.35L687.51,172.41L691.55,260.68L695.6,182.7L699.64,254.72L703.69,295.23L707.73,244.4L711.78,126.72L715.82,325.69L719.86,316.53L723.91,180.98L727.95,117.88L732,109.61L736.04,201.23L740.08,100.7L744.13,239.95L748.17,50.62L752.22,258.01L756.26,153.48L760.31,114.26L764.35,227.52L768.39,298.79L772.44,97.03L776.48,158.86L780.53,285.05L784.57,84.71L788.61,60.56L792.66,91.76L796.7,57.01L800.75,179.78L804.79,91.03L808.84,192.25L812.88,203.29L816.92,258.54L820.97,59.84L825.01,283.67L829.06,111.73L833.1,60.87L837.14,321.89L841.19,278.85L845.23,74.82L849.28,321.58L853.32,99.91L857.37,94.95L861.41,252.18L865.45,82.75L869.5,131.71L873.54,94.52L877.59,293.47L881.63,64.28L885.67,277.96L893.76,136.89L897.81,272.18L901.85,78.53L905.9,62.47L909.94,289.54L913.98,228.44L918.03,71.66L922.07,287.65L930.16,109.62L934.2,310.81L938.25,124.64L942.29,164.73L946.34,83.36L950.38,188.51L954.43,68.85L958.47,265.12L962.51,310.64L966.56,154.89L970.6,164.6L974.65,313.77L978.69,56.92L982.73,62.25L986.78,309.55L990.82,185.01L998.91,267.48L1002.96,76.21L1007,263.39" style="vector-effect: none; fill: none; stroke: rgb(144, 237, 125); stroke-opacity: 1; stroke-width: 2px; opacity: 1;"/></g><g class="points"/><g class="text"/></g><g class="trace scatter trace94e160" style="stroke-miterlimit: 2; opacity: 1;"><g class="fills"/><g class="errorbars"/><g class="lines"><path class="js-line" d="M0,17.09L4.04,364.83L8.09,41.46L12.13,36.81L16.18,377.53L20.22,49.75L24.27,33.15L28.31,350.66L32.35,18.8L36.4,36.42L40.44,374.46L44.49,18.22L48.53,54.95L52.57,356.61L56.62,21.22L60.66,12.22L64.71,369.91L68.75,18.23L72.8,322.84L76.84,51.01L80.88,301.34L84.93,18.65L88.97,33.31L93.02,112.09L97.06,98.95L101.1,99.44L105.15,172.87L109.19,155.27L113.24,159.33L117.28,163.5L121.33,119.13L125.37,198.33L129.41,121.6L133.46,178.81L137.5,220.54L141.55,104.64L145.59,153.67L149.63,243.83L153.68,94.64L157.72,96.12L161.77,149.32L165.81,184.81L169.86,186.06L173.9,161.59L177.94,109.71L181.99,133.31L186.03,139.24L190.08,105.39L194.12,174.59L198.16,141.49L202.21,139.87L206.25,140.58L210.3,188.43L214.34,84.39L218.39,204.59L222.43,141.29L226.47,125.91L234.56,199.1L238.61,116.97L242.65,179.8L246.69,186.36L250.74,92.83L254.78,205.55L262.87,115.26L266.92,153.43L270.96,166.21L275,120.51L279.05,110.12L283.09,145.7L287.14,158.56L291.18,207.8L295.22,147.95L299.27,191.43L303.31,181.55L307.36,110.74L311.4,195.26L315.45,230.6L319.49,237.87L323.53,127.62L327.58,176.58L331.62,98.19L335.67,187.82L339.71,215.54L343.76,243.64L347.8,128.09L351.84,213.18L355.89,160.16L359.93,126.24L363.98,235.54L368.02,168.79L372.06,220.96L376.11,184.9L380.15,165.5L384.2,155.46L388.24,96.36L392.29,230.45L396.33,107.66L400.37,149.23L404.42,259.95L408.46,165L412.51,136.1L416.55,139.17L420.59,131.18L424.64,192.69L428.68,114.35L432.73,92.76L436.77,167.38L440.82,175.57L444.86,123.19L452.95,153.4L456.99,133.87L461.04,188.66L465.08,200.24L469.12,93.09L473.17,95.55L477.21,156.56L481.26,152.6L485.3,152.49L489.35,174.87L493.39,155.59L497.43,151.17L501.48,187.89L505.52,157.34L509.57,138.95L513.61,166.01L517.65,165.32L521.7,124.14L525.74,117.75L529.79,135.21L533.83,147.14L537.88,256.23L545.96,125.47L550.01,240.11L554.05,82.91L558.1,174.36L562.14,170.5L566.18,105.78L570.23,151.28L574.27,247.88L578.32,102.41L582.36,143.06L586.41,144.22L590.45,153.66L594.49,154.25L598.54,162.71L602.58,106.69L606.63,186.93L610.67,220.22L614.71,191.96L618.76,190.41L622.8,194L626.85,102.54L630.89,182.75L634.94,160.52L638.98,234L643.02,163.94L647.07,236.62L651.11,175.48L655.16,164.67L659.2,99.17L663.24,180.11L667.29,156.84L671.33,159.49L675.38,194.03L679.42,148.5L683.47,188.21L687.51,149.84L695.6,211.72L699.64,226.24L703.69,223.58L707.73,183.15L711.78,171.96L715.82,211.51L719.86,191.71L723.91,126.82L727.95,173.1L732,148.51L736.04,206.97L740.08,165.38L744.13,197.81L748.17,169.32L752.22,163.05L756.26,140.36L764.35,230.04L768.39,141.12L772.44,110.52L776.48,128.74L780.53,199.56L784.57,159.5L788.61,123.51L792.66,154.68L796.7,106.22L800.75,134.86L804.79,126.63L808.84,215.41L812.88,138.76L816.92,161.27L820.97,101.77L825.01,153.81L829.06,186.94L833.1,156.33L837.14,193.65L841.19,169.09L845.23,99.86L849.28,234.88L853.32,158.27L857.37,151.83L861.41,159.73L865.45,171.17L869.5,94.78L873.54,152.89L877.59,190.42L881.63,127.57L889.72,195.55L893.76,127.24L897.81,172.59L901.85,139.42L905.9,136.77L909.94,188.18L913.98,172.5L918.03,172.12L922.07,194.41L926.12,169.28L930.16,137.91L934.2,199.13L938.25,137.21L942.29,166.48L946.34,103.91L950.38,147.06L954.43,92.43L958.47,233.97L962.51,226.08L966.56,174.09L970.6,133.64L974.65,237.31L978.69,144.18L982.73,127.93L986.78,221.58L990.82,181.34L994.87,154.94L998.91,212.02L1002.96,139.23L1007,193.3" style="vector-effect: none; fill: none; stroke: rgb(247, 163, 92); stroke-opacity: 1; stroke-width: 2px; opacity: 1;"/></g><g class="points"/><g class="text"/></g><g class="trace scatter tracec5e369" style="stroke-miterlimit: 2; opacity: 1;"><g class="fills"/><g class="errorbars"/><g class="lines"><path class="js-line" d="M0,22.71L4.04,370.73L8.09,45.57L12.13,47.91L16.18,378.41L20.22,38.72L24.27,51.46L28.31,334.43L32.35,19.3L36.4,55.1L40.44,377.62L44.49,12.8L48.53,62.27L52.57,355.69L56.62,20.73L60.66,9.26L64.71,375.46L68.75,19.04L72.8,374.99L76.84,10.33L80.88,332.51L84.93,8.12L88.97,9.18L93.02,86.06L97.06,33.38L101.1,10.8L105.15,371.18L109.19,36.89L113.24,186.31L117.28,68.88L121.33,76.52L125.37,373.39L129.41,18.15L137.5,359.47L141.55,54.27L145.59,298.55L149.63,358.51L153.68,56.44L157.72,10.62L161.77,9.53L165.81,296.08L169.86,108L173.9,9.75L177.94,88.59L181.99,129.38L186.03,123.47L190.08,13.89L194.12,371.26L198.16,8.82L202.21,110.07L206.25,14.34L210.3,374.11L214.34,20.33L218.39,372.3L222.43,165.31L226.47,140.04L230.52,33.56L234.56,374.56L238.61,46.37L242.65,372.41L246.69,10.69L250.74,17.57L254.78,374.94L258.83,9.43L262.87,132.04L266.92,264.66L270.96,184.92L275,154.41L279.05,74.77L283.09,119.28L287.14,154.87L291.18,370.67L295.22,15.63L299.27,359.85L303.31,11.9L307.36,13.87L311.4,316.78L315.45,250.48L319.49,271.71L323.53,19.88L327.58,361.76L331.62,44.34L335.67,87.65L339.71,302.53L343.76,371.45L347.8,67.93L351.84,347.42L355.89,70.02L359.93,161.42L363.98,297.54L368.02,136.31L372.06,182.68L376.11,295.15L380.15,273.62L384.2,283.04L388.24,138.69L392.29,106.45L400.37,322.71L404.42,353.02L408.46,42.71L412.51,215.63L416.55,198.96L420.59,109.08L424.64,318.52L428.68,61.28L432.73,15.67L436.77,89.52L440.82,289.36L444.86,27.25L448.9,91.78L452.95,17.58L456.99,146.78L461.04,85.61L465.08,363.15L469.12,29.6L473.17,32.34L477.21,41.17L481.26,162.41L485.3,29.06L489.35,91.32L493.39,254.86L497.43,19.85L501.48,25.39L505.52,169.84L509.57,134.11L513.61,278.88L517.65,246L521.7,23.24L525.74,18.58L529.79,78.11L533.83,92.78L537.88,353.7L541.92,158.3L545.96,14.52L550.01,289.29L554.05,29.83L558.1,281.58L562.14,97.97L566.18,16.33L574.27,362.1L578.32,54.18L582.36,142.11L586.41,20.96L590.45,234.7L594.49,165.8L598.54,186.1L602.58,183.4L606.63,268.49L610.67,284.73L614.71,162.82L618.76,295.47L622.8,252.92L626.85,139.23L630.89,196.78L634.94,159.67L638.98,283.54L643.02,232.87L647.07,281.8L651.11,241.87L655.16,241.5L659.2,153.94L663.24,246.81L667.29,147.55L671.33,103.61L675.38,286.8L679.42,212.95L683.47,197.04L687.51,190.49L691.55,236.63L695.6,158.72L699.64,277.81L703.69,312.7L707.73,253.19L711.78,112.68L715.82,330.84L719.86,319.22L723.91,145.47L732,116.2L736.04,215.61L740.08,118.7L744.13,266.16L748.17,38.91L752.22,263.31L756.26,152.63L760.31,125.62L764.35,256.79L768.39,286.35L772.44,99.44L776.48,136.94L780.53,306.62L784.57,69.69L792.66,112.92L796.7,67.92L800.75,223.13L804.79,67.41L808.84,242.13L812.88,179.24L816.92,261.7L820.97,78.94L825.01,267.33L829.06,132.84L833.1,73.46L837.14,338.15L841.19,279.49L845.23,114.16L849.28,341.64L853.32,125.72L857.37,85.99L861.41,250.84L865.45,79.18L869.5,133.56L873.54,95.71L877.59,322.22L881.63,74.08L885.67,227.73L889.72,245.56L893.76,151.06L897.81,302.39L901.85,68.57L905.9,63.62L909.94,303.98L918.03,72.14L922.07,303.08L930.16,113.35L934.2,329.12L938.25,139.31L942.29,188.93L946.34,78.31L950.38,225.64L954.43,70.75L958.47,281.98L962.51,327.75L966.56,146.37L970.6,183.97L974.65,313.91L978.69,52.16L982.73,53.92L986.78,320.59L990.82,191.46L998.91,288.16L1002.96,82.13L1007,281.62" style="vector-effect: none; fill: none; stroke: rgb(128, 133, 233); stroke-opacity: 1; stroke-width: 2px; opacity: 1;"/></g><g class="points"/><g class="text"/></g><g class="trace scatter trace4ac2c3" style="stroke-miterlimit: 2; opacity: 1;"><g class="fills"/><g class="errorbars"/><g class="lines"><path class="js-line" d="M0,19.66L4.04,369.21L8.09,48.85L12.13,44.15L16.18,377.34L20.22,39.86L24.27,38.99L28.31,344.46L32.35,18.6L36.4,41.39L40.44,377.61L44.49,12.76L48.53,49.46L52.57,357.76L56.62,23.03L60.66,9.37L64.71,373.69L68.75,20.32L72.8,374.32L76.84,10.84L80.88,337.7L84.93,8.64L88.97,9.41L93.02,76.3L97.06,39.3L101.1,10.99L105.15,371.5L109.19,32.16L113.24,205.06L117.28,65.25L121.33,76.59L125.37,372.86L129.41,19.24L137.5,357.67L141.55,58.99L145.59,294.56L149.63,356.61L153.68,43.19L157.72,11.47L161.77,9.69L165.81,303.66L169.86,90.14L173.9,9.61L181.99,142.43L186.03,112.59L190.08,13.81L194.12,371.07L198.16,8.83L202.21,120.82L206.25,14.75L210.3,372.93L214.34,20.4L218.39,371L222.43,180.93L226.47,133.35L230.52,41.38L234.56,374.11L238.61,51.67L242.65,371.93L246.69,10.69L250.74,17.99L254.78,375.18L258.83,9.57L266.92,265.01L270.96,204.93L275,148.09L279.05,65.01L283.09,103.49L287.14,170.39L291.18,370.7L295.22,15.39L299.27,358.25L303.31,12.51L307.36,13.9L311.4,328.98L315.45,243.49L319.49,265.18L323.53,21.41L327.58,360.85L331.62,50.51L335.67,77.89L339.71,315.37L343.76,370.4L347.8,69.81L351.84,345L355.89,69.41L359.93,163.63L363.98,298.28L368.02,146.13L372.06,172.85L376.11,295.96L384.2,280.49L388.24,139.96L392.29,102.74L396.33,221.27L400.37,325.64L404.42,353.77L408.46,43.39L412.51,213.98L416.55,201.78L420.59,102.1L424.64,332.72L428.68,47.39L432.73,16.65L436.77,74.74L440.82,305.02L444.86,27.32L448.9,74.18L452.95,16.86L456.99,156.42L461.04,70.07L465.08,362.81L469.12,30.22L473.17,37.16L477.21,47.99L481.26,145.28L485.3,29.9L489.35,76.04L493.39,263.35L497.43,19.78L501.48,24.43L505.52,180.2L509.57,136.96L513.61,293.62L517.65,247.68L521.7,22.72L525.74,18.6L529.79,73.5L533.83,78.29L537.88,354.21L541.92,171.08L545.96,15.85L550.01,302.57L554.05,31.76L558.1,296.33L562.14,81.67L566.18,18.54L574.27,359.91L578.32,49.83L582.36,122.37L586.41,21.11L590.45,241.8L594.49,165.53L598.54,177.07L602.58,170.5L606.63,279.89L610.67,299.73L614.71,145.24L618.76,305.22L622.8,257.13L626.85,145.42L630.89,184.05L634.94,145.49L638.98,279.34L643.02,226.13L647.07,278.91L651.11,231.31L655.16,234L659.2,166.83L663.24,253.26L667.29,147.03L671.33,92.34L675.38,275.62L679.42,221.99L683.47,191.17L687.51,199.16L691.55,235.86L695.6,145.23L699.64,273.46L703.69,307.38L707.73,240.3L711.78,115.61L715.82,332.73L719.86,320.66L723.91,153.84L727.95,122.6L732,100.83L736.04,221.47L740.08,103.05L744.13,268.16L748.17,41.01L752.22,263.62L756.26,156.93L760.31,109.74L764.35,256.25L768.39,300.22L772.44,90.34L776.48,139.44L780.53,297.45L784.57,82.43L788.61,76.16L792.66,99.4L796.7,72.37L800.75,210.04L804.79,74.21L808.84,242.39L812.88,169.88L816.92,275.29L820.97,86.27L825.01,271.43L829.06,124.45L833.1,78.83L837.14,327.2L841.19,293.28L845.23,124.67L849.28,337.76L853.32,117.9L857.37,93.28L861.41,233.63L865.45,87.1L869.5,130.55L873.54,85.12L877.59,311.77L881.63,77.72L885.67,230.7L889.72,240.46L893.76,160.2L897.81,301L901.85,75.1L905.9,74.82L909.94,289.23L918.03,75.32L922.07,294.64L930.16,109.59L934.2,318.49L938.25,131.87L942.29,186.26L946.34,83.52L950.38,210.07L954.43,78.22L958.47,288.44L962.51,320.97L966.56,154.95L970.6,186.65L974.65,312.16L978.69,62.21L982.73,59.87L986.78,306.93L990.82,182.82L994.87,230.85L998.91,289.18L1002.96,82.64L1007,270.7" style="vector-effect: none; fill: none; stroke: rgb(241, 92, 128); stroke-opacity: 1; stroke-width: 2px; opacity: 1;"/></g><g class="points"/><g class="text"/></g><g class="trace scatter tracea8ecec" style="stroke-miterlimit: 2; opacity: 1;"><g class="fills"/><g class="errorbars"/><g class="lines"><path class="js-line" d="M0,24.6L4.04,370.02L8.09,50.97L12.13,49.26L16.18,378.58L20.22,40.02L24.27,54.58L28.31,335.84L32.35,18.99L36.4,54.61L40.44,377.92L44.49,12.67L48.53,62.16L52.57,354.68L56.62,22.08L60.66,9.12L64.71,374.57L68.75,19.36L72.8,374.51L76.84,10.58L80.88,340.37L84.93,8.22L88.97,9.45L93.02,82.94L97.06,32.16L101.1,10.83L105.15,371.25L109.19,37.07L113.24,191.1L117.28,59.94L121.33,76.87L125.37,373.51L129.41,18.25L137.5,358.88L141.55,56.1L145.59,292.75L149.63,358.76L153.68,55.15L157.72,10.67L161.77,9.16L165.81,297.65L169.86,98.73L173.9,9.16L177.94,84.33L181.99,134.95L186.03,113.51L190.08,14.02L194.12,371.28L198.16,8.5L202.21,113.64L206.25,14.17L210.3,373.48L214.34,20.92L218.39,371.52L222.43,167.4L226.47,143.75L230.52,32.8L234.56,374.43L238.61,46.97L242.65,372.45L246.69,10.39L250.74,17.36L254.78,375.19L258.83,9.26L262.87,135.99L266.92,261.97L270.96,190.17L275,149.85L279.05,76.03L283.09,110.02L287.14,158.79L291.18,371L295.22,15.23L299.27,359.93L303.31,11.9L307.36,13.71L311.4,317.73L315.45,255.9L319.49,277.05L323.53,20.79L327.58,361.43L331.62,45.39L335.67,87.28L339.71,305.41L343.76,370.92L347.8,68.51L351.84,344.11L355.89,70.25L359.93,161.73L363.98,291.61L368.02,140.65L372.06,177.65L376.11,294.97L380.15,279.46L384.2,282.36L388.24,136.71L392.29,107.21L400.37,323.38L404.42,355.65L408.46,44.38L412.51,209.92L416.55,198.13L420.59,107.52L424.64,320.29L428.68,60.71L432.73,16L436.77,82.17L440.82,296.25L444.86,26.52L448.9,83.79L452.95,16.1L456.99,151.04L461.04,78.87L465.08,363.71L469.12,30.55L473.17,31.52L477.21,39.17L481.26,164.5L485.3,30.49L489.35,84.72L493.39,262.02L497.43,18.84L501.48,22.99L505.52,172.36L509.57,134.04L513.61,284.89L517.65,241.93L521.7,21.6L525.74,17.74L529.79,78.13L533.83,87.05L537.88,355.05L541.92,164.13L545.96,14.85L550.01,293.59L554.05,29.32L558.1,288.36L562.14,90.32L566.18,17.44L574.27,362.04L578.32,53.26L582.36,137.49L586.41,19.83L590.45,240.63L594.49,159.86L598.54,181.76L602.58,181.41L606.63,272.59L610.67,291.67L614.71,161.31L618.76,295.83L622.8,250.52L626.85,139.98L630.89,187.26L634.94,151.59L638.98,287.69L643.02,232.58L647.07,280.44L651.11,237.45L655.16,240.96L659.2,152.74L663.24,251.74L667.29,139.31L671.33,103.6L675.38,285.73L679.42,214.29L683.47,194.78L687.51,193.63L691.55,232.69L695.6,156.86L699.64,280.62L703.69,304.52L707.73,252.09L711.78,115.31L715.82,329.15L719.86,314.35L723.91,152.55L727.95,123.18L732,110.19L736.04,224.2L740.08,111.18L744.13,268.74L748.17,41.73L752.22,267.45L756.26,154.82L760.31,128.11L764.35,251.45L768.39,291.57L772.44,102.92L776.48,137.56L780.53,305.06L784.57,68.2L788.61,82.46L792.66,107.88L796.7,64.96L800.75,220.56L804.79,68.03L808.84,243.4L812.88,177.94L816.92,268.93L820.97,76.45L825.01,270.68L829.06,124.7L833.1,73.69L837.14,330.39L841.19,286.52L845.23,117.48L849.28,338.12L853.32,121.55L857.37,82.4L861.41,247.68L865.45,78.2L869.5,131.57L873.54,94.11L877.59,314.45L881.63,75.56L885.67,227.68L889.72,241.44L893.76,158.23L897.81,297.85L901.85,74.24L905.9,68.1L909.94,296.01L918.03,75.51L922.07,295.67L930.16,115.92L934.2,321.82L938.25,137.17L942.29,193.06L946.34,81.39L950.38,221.09L954.43,74.68L958.47,281.04L962.51,320.02L966.56,151.86L970.6,183.11L974.65,313.56L978.69,58.89L982.73,57.97L986.78,310.03L990.82,197.2L994.87,231.15L998.91,289.57L1002.96,86.49L1007,275.08" style="vector-effect: none; fill: none; stroke: rgb(228, 211, 84); stroke-opacity: 1; stroke-width: 2px; opacity: 1;"/></g><g class="points"/><g class="text"/></g><g class="trace scatter trace652edf" style="stroke-miterlimit: 2; opacity: 1;"><g class="fills"/><g class="errorbars"/><g class="lines"><path class="js-line" d="M0,20.42L4.04,364.46L8.09,46.35L12.13,36.71L16.18,374.38L20.22,44.88L24.27,17.64L28.31,365.32L32.35,21.64L36.4,18.84L40.44,375.33L44.49,15.04L48.53,33.59L52.57,363.94L56.62,23.43L60.66,10.25L64.71,369.18L68.75,17.35L72.8,358.15L76.84,21.31L80.88,324.05L84.93,11.32L88.97,16.85L93.02,54.34L97.06,48.42L101.1,41.46L105.15,304.2L109.19,56.12L113.24,129.57L117.28,94.22L121.33,141.53L125.37,314.38L129.41,48.82L133.46,136.35L137.5,326.32L141.55,66.13L145.59,184.89L149.63,292.62L153.68,44.31L157.72,48.79L161.77,46.42L165.81,278.54L169.86,92.56L173.9,53.65L177.94,66.12L181.99,90.99L186.03,96.15L190.08,41.07L194.12,270.07L198.16,52.43L202.21,121.12L206.25,52.23L210.3,309.85L214.34,42.95L218.39,312.21L222.43,130.7L226.47,186.18L230.52,125.54L234.56,321.15L238.61,101.47L242.65,311.48L246.69,63.83L250.74,37.27L254.78,318.54L258.83,58.38L262.87,189.26L266.92,211.62L270.96,161.05L275,220.29L279.05,103.6L283.09,83.7L287.14,126.35L291.18,254.28L295.22,53.17L299.27,310.39L303.31,57.77L307.36,44.1L311.4,309.23L315.45,297.7L319.49,306.4L323.53,102.9L327.58,304L331.62,95.46L335.67,73.03L339.71,316.26L343.76,330.46L347.8,121.57L351.84,253.12L355.89,61.46L359.93,183.76L363.98,238.13L368.02,160.42L372.06,168.29L376.11,278.7L380.15,268.84L384.2,208.72L388.24,208.91L392.29,140.29L396.33,140.3L400.37,301.82L404.42,320.71L408.46,113.44L412.51,186.55L416.55,171.86L420.59,122.62L424.64,312.63L428.68,48.98L432.73,33.71L436.77,96.46L440.82,280.63L444.86,51.58L448.9,71.93L452.95,56.57L456.99,106.88L461.04,83.3L465.08,309.63L469.12,36.62L473.17,57.43L477.21,61.54L481.26,192.22L485.3,58.65L489.35,90.31L493.39,264.14L497.43,58.91L501.48,68.94L509.57,203.13L513.61,279.98L517.65,150.29L521.7,46.46L525.74,50.27L529.79,64.58L533.83,82.87L537.88,329.11L541.92,123.33L545.96,48.31L550.01,286.5L554.05,49.43L558.1,281.96L562.14,84.58L566.18,44.6L570.23,140.86L574.27,314.38L578.32,60.51L582.36,89.88L586.41,50.27L590.45,169.51L594.49,249.69L598.54,224.47L602.58,129.74L606.63,266.14L610.67,286.63L614.71,200.37L618.76,293.74L622.8,220.89L626.85,114.54L630.89,145.49L634.94,198.26L638.98,278.91L643.02,164.93L647.07,287.21L651.11,179.23L655.16,146.98L659.2,81.35L663.24,269.78L667.29,186.02L671.33,82.3L675.38,279.26L679.42,101.84L683.47,200.47L687.51,89.46L691.55,265.97L695.6,169.37L699.64,261.23L703.69,297.35L707.73,263.69L711.78,126.67L715.82,278.65L719.86,280.07L723.91,224.59L727.95,101.03L732,165.06L736.04,173.3L740.08,101.72L744.13,263.03L748.17,70.91L752.22,237.49L756.26,135.84L760.31,154.58L764.35,180.6L768.39,257.36L772.44,108.2L780.53,274.39L784.57,80.56L788.61,63.23L792.66,71.88L796.7,60.63L800.75,151.3L804.79,79.49L808.84,244.12L812.88,185.9L816.92,241.11L820.97,83.37L825.01,254.88L829.06,112.16L833.1,88.3L837.14,283.82L841.19,261.25L845.23,73.8L849.28,287.64L853.32,98.93L857.37,113.03L861.41,244.7L865.45,89.56L869.5,167.13L873.54,85.62L877.59,269.58L881.63,104L885.67,253.17L889.72,223.85L893.76,114.36L897.81,196.29L901.85,83.99L905.9,69.81L909.94,268.42L913.98,198.87L918.03,85.49L922.07,272.04L926.12,195.49L930.16,84.28L934.2,258.26L938.25,124.96L942.29,217.46L946.34,132.33L950.38,212.79L954.43,72.14L958.47,264.88L962.51,287.34L966.56,190.85L970.6,122.65L974.65,259.86L978.69,78.35L982.73,81.37L986.78,272.86L990.82,187.41L994.87,216.26L998.91,260.92L1002.96,77.38L1007,244.95" style="vector-effect: none; fill: none; stroke: rgb(43, 144, 143); stroke-opacity: 1; stroke-width: 2px; opacity: 1;"/></g><g class="points"/><g class="text"/></g><g class="trace scatter trace9eae4f" style="stroke-miterlimit: 2; opacity: 1;"><g class="fills"/><g class="errorbars"/><g class="lines"><path class="js-line" d="M0,16.92L4.04,367.7L8.09,43.68L12.13,36.27L16.18,376.74L20.22,41.35L24.27,20.28L28.31,364.48L32.35,21.48L36.4,22.46L40.44,376.94L44.49,10.92L48.53,36.06L52.57,367.39L56.62,22.64L60.66,9.21L64.71,374.8L68.75,14.36L72.8,371.49L76.84,12.04L80.88,323.55L84.93,8.48L88.97,10.1L93.02,33.78L97.06,27.14L101.1,15.21L105.15,332.86L109.19,32.69L113.24,139.63L117.28,79.87L121.33,107L125.37,360.64L129.41,30.8L133.46,133.66L137.5,362.44L141.55,69.19L145.59,267.89L149.63,330.21L153.68,23.77L157.72,19.29L161.77,21.49L165.81,339.36L169.86,87.98L173.9,17.95L177.94,85.79L181.99,69.48L186.03,93.2L190.08,20.54L194.12,310.3L198.16,19.89L202.21,131.78L206.25,18.61L210.3,356.8L214.34,26.76L218.39,358.83L222.43,138.2L226.47,172.08L230.52,55.86L234.56,361.22L238.61,49.01L242.65,353.27L246.69,23.54L250.74,18.49L254.78,358.55L258.83,22.04L262.87,174.62L266.92,228.56L270.96,150.2L275,228.16L279.05,127.83L283.09,87.85L287.14,136.39L291.18,329.06L295.22,26.04L299.27,356.75L303.31,21.85L307.36,22.13L311.4,342.8L315.45,313.98L319.49,320.71L323.53,125.66L327.58,346.75L331.62,123.08L335.67,49.78L339.71,347.73L343.76,362.9L347.8,62.86L351.84,324.31L355.89,34.04L363.98,211.2L368.02,111.41L372.06,135.04L376.11,294.07L380.15,247.39L384.2,219.45L388.24,215.2L392.29,139.25L396.33,197.74L400.37,341.97L404.42,355.9L408.46,130.39L412.51,168.92L416.55,251.93L420.59,93.44L424.64,340.68L428.68,32.32L432.73,16.65L436.77,76.69L440.82,297.47L444.86,20.14L448.9,83.03L452.95,23.7L456.99,128.87L461.04,84.7L465.08,359.38L469.12,25.47L473.17,42.8L477.21,28.46L481.26,184.49L485.3,21.37L489.35,87.92L493.39,283.19L497.43,53.12L501.48,27.2L505.52,184.1L509.57,181.07L513.61,289.01L517.65,168.06L521.7,19.75L525.74,25.19L529.79,36.94L533.83,78.79L537.88,357.49L541.92,134.93L545.96,17.67L550.01,292.81L554.05,51.39L558.1,314.03L562.14,78.41L566.18,19.33L570.23,139.92L574.27,361.14L578.32,42.69L582.36,148.9L586.41,24.7L590.45,221.81L594.49,270.36L598.54,185.95L602.58,151.62L606.63,282.52L610.67,297.26L614.71,190.93L618.76,309.77L622.8,224.49L626.85,157.14L630.89,174.07L634.94,174L638.98,301.3L643.02,234.72L647.07,321.72L651.11,172.49L655.16,193.49L659.2,79.34L663.24,254.79L667.29,152.57L671.33,72.79L675.38,324.94L679.42,90.85L683.47,145.34L687.51,71.13L691.55,285.4L695.6,124.85L699.64,284.53L703.69,342.26L707.73,280.87L711.78,120.76L715.82,312.52L719.86,330.42L723.91,207.83L727.95,85.65L732,130.86L736.04,227.68L740.08,107.59L744.13,325.89L748.17,37.28L752.22,266.9L756.26,143.33L760.31,108.14L764.35,206.92L768.39,279.84L772.44,168.64L776.48,190.85L780.53,328.38L784.57,33.65L788.61,49.81L792.66,71.35L796.7,26.84L800.75,203.82L804.79,55.32L808.84,269.43L812.88,174.46L816.92,272.98L820.97,60.53L825.01,286.29L829.06,96.72L833.1,52.14L837.14,342.23L841.19,293.79L845.23,36.73L849.28,339.85L853.32,90.37L857.37,94.45L861.41,318.54L865.45,55.04L869.5,183L873.54,82.79L877.59,330.21L881.63,67.08L885.67,284.42L889.72,225.24L893.76,106.58L897.81,259.64L901.85,47.36L905.9,39.32L909.94,295.4L913.98,231.41L918.03,57.99L922.07,332.29L926.12,187.97L930.16,64.52L934.2,314.46L938.25,113.2L942.29,241.81L946.34,80.31L950.38,229.27L954.43,69.06L958.47,316.19L962.51,338.07L966.56,170.83L970.6,96.1L974.65,274.44L978.69,38.61L982.73,49.31L986.78,329.99L990.82,163.74L994.87,205.01L998.91,310.12L1002.96,39.44L1007,255.72" style="vector-effect: none; fill: none; stroke: rgb(244, 91, 91); stroke-opacity: 1; stroke-width: 2px; opacity: 1;"/></g><g class="points"/><g class="text"/></g><g class="trace scatter trace21d566" style="stroke-miterlimit: 2; opacity: 1;"><g class="fills"/><g class="errorbars"/><g class="lines"><path class="js-line" d="M0,17.78L4.04,367.45L8.09,45.52L12.13,35.76L16.18,377.88L20.22,41.46L24.27,15.42L28.31,369.45L32.35,21.61L36.4,17.22L40.44,377.15L44.49,11.14L48.53,32.66L52.57,368.52L56.62,23.43L60.66,8.62L64.71,374.64L68.75,14.31L72.8,370.64L76.84,11.71L80.88,329.95L84.93,8.31L88.97,9.76L97.06,40.25L101.1,17.5L105.15,339.17L109.19,21.33L113.24,137.26L117.28,68.76L121.33,121.3L125.37,356.32L129.41,20.42L133.46,136.63L137.5,359.68L141.55,68.26L145.59,222.84L149.63,336.66L153.68,24.71L157.72,28.43L161.77,18.64L165.81,345.47L169.86,75.26L173.9,20.56L177.94,75.41L181.99,91.73L186.03,79.32L190.08,16.89L194.12,293.63L198.16,19.19L202.21,126.32L206.25,24.4L210.3,352.86L214.34,25.28L218.39,355.7L222.43,136.42L226.47,195.67L230.52,69.25L234.56,358.12L238.61,70.94L242.65,358.13L246.69,23.25L250.74,16.44L254.78,355.21L258.83,24.87L262.87,188.1L266.92,216.67L270.96,172.06L275,232.05L279.05,120.47L283.09,78.12L287.14,135.68L291.18,314.82L295.22,21.03L299.27,346.53L303.31,25.19L307.36,18.96L311.4,348.62L315.45,337.12L319.49,337.31L323.53,119.44L327.58,353.29L331.62,118.97L335.67,42.97L339.71,347.44L343.76,365.47L347.8,71.52L351.84,289.34L355.89,33.03L359.93,140.4L363.98,239.47L368.02,118.52L372.06,149.94L376.11,288.9L380.15,264.38L384.2,227.06L388.24,197.09L392.29,144.86L396.33,175.76L400.37,333.82L404.42,357.59L408.46,132.42L412.51,169.97L416.55,219.71L420.59,111.22L424.64,345.92L428.68,26.97L432.73,18.94L436.77,77.26L440.82,301.62L444.86,17.08L448.9,68.34L452.95,23.6L456.99,123.56L461.04,63.73L465.08,355.31L469.12,21.73L473.17,52.01L477.21,20.81L481.26,193.15L485.3,24.23L489.35,72.76L493.39,290.42L497.43,34.22L501.48,25.36L505.52,169.87L509.57,192.73L513.61,302.51L521.7,17.49L525.74,18.35L529.79,34.97L533.83,64.87L537.88,361.89L541.92,132.14L545.96,19.78L550.01,304.56L554.05,34.01L558.1,317.65L562.14,71.48L566.18,16.91L570.23,142.42L574.27,353.18L578.32,38.04L582.36,121.14L586.41,23.97L590.45,241.52L594.49,253.47L598.54,197.73L602.58,119.77L606.63,280.36L610.67,303.01L614.71,199.99L618.76,330.94L622.8,212.46L626.85,137.49L630.89,154.9L634.94,195.84L638.98,302.97L643.02,201.83L647.07,309.13L651.11,164.35L655.16,177.97L659.2,56L663.24,313.22L667.29,146.64L671.33,46.73L675.38,335.47L679.42,95.6L683.47,166L687.51,74.25L691.55,305.35L695.6,137.52L699.64,263.73L703.69,323L707.73,300.76L711.78,101.29L715.82,309.48L719.86,334.85L723.91,229.09L727.95,76.43L732,123.06L736.04,240.21L740.08,88.23L744.13,321.69L748.17,35.05L752.22,276.71L756.26,137.67L760.31,113.65L764.35,188.01L768.39,289.87L772.44,163.97L776.48,200.65L780.53,335.37L784.57,36.35L788.61,50.17L792.66,50.46L796.7,33.12L800.75,184.56L804.79,38.76L808.84,239.1L812.88,188.95L816.92,282.37L820.97,57.22L825.01,290.35L829.06,89.1L833.1,58.6L837.14,339.07L841.19,319.48L845.23,47.16L849.28,335.3L853.32,82.59L857.37,90.6L861.41,318.59L865.45,54.33L869.5,173.76L873.54,57.97L877.59,322.11L881.63,80.99L885.67,282.86L889.72,233.12L893.76,136.32L897.81,270.79L901.85,39.95L905.9,50.32L909.94,301.89L913.98,237.13L918.03,50.6L922.07,327.96L930.16,58.06L934.2,311.61L938.25,103.24L942.29,233.82L946.34,87.54L950.38,228.83L954.43,71.67L958.47,320.07L962.51,332.44L966.56,189.08L970.6,133.55L974.65,283.09L978.69,40.27L982.73,42.11L986.78,318.56L990.82,186.12L994.87,215.39L998.91,296.63L1002.96,47.12L1007,246.52" style="vector-effect: none; fill: none; stroke: rgb(145, 232, 225); stroke-opacity: 1; stroke-width: 2px; opacity: 1;"/></g><g class="points"/><g class="text"/></g></g></g></g><path class="xlines-above crisp" d="M0,0" style="fill: none;"/><path class="ylines-above crisp" d="M0,0" style="fill: none;"/><g class="overlines-above"/><g class="xaxislayer-above"><g class="xtick"><text text-anchor="middle" x="0" y="451" transform="translate(269.15999999999997,0)" style="font-family: 'Lucida Grande', 'Open Sans', verdana, arial, sans-serif; font-size: 10px; fill: rgb(0, 0, 0); fill-opacity: 1; white-space: pre; opacity: 1;">50</text></g><g class="xtick"><text text-anchor="middle" x="0" y="451" style="font-family: 'Lucida Grande', 'Open Sans', verdana, arial, sans-serif; font-size: 10px; fill: rgb(0, 0, 0); fill-opacity: 1; white-space: pre; opacity: 1;" transform="translate(471.37,0)">100</text></g><g class="xtick"><text text-anchor="middle" x="0" y="451" style="font-family: 'Lucida Grande', 'Open Sans', verdana, arial, sans-serif; font-size: 10px; fill: rgb(0, 0, 0); fill-opacity: 1; white-space: pre; opacity: 1;" transform="translate(673.58,0)">150</text></g><g class="xtick"><text text-anchor="middle" x="0" y="451" style="font-family: 'Lucida Grande', 'Open Sans', verdana, arial, sans-serif; font-size: 10px; fill: rgb(0, 0, 0); fill-opacity: 1; white-space: pre; opacity: 1;" transform="translate(875.79,0)">200</text></g><g class="xtick"><text text-anchor="middle" x="0" y="451" style="font-family: 'Lucida Grande', 'Open Sans', verdana, arial, sans-serif; font-size: 10px; fill: rgb(0, 0, 0); fill-opacity: 1; white-space: pre; opacity: 1;" transform="translate(1078,0)">250</text></g></g><g class="yaxislayer-above"><g class="ytick"><text text-anchor="end" x="65" y="3.5" transform="translate(0,435)" style="font-family: 'Lucida Grande', 'Open Sans', verdana, arial, sans-serif; font-size: 10px; fill: rgb(0, 0, 0); fill-opacity: 1; white-space: pre; opacity: 1;">0%</text></g><g class="ytick"><text text-anchor="end" x="65" y="3.5" style="font-family: 'Lucida Grande', 'Open Sans', verdana, arial, sans-serif; font-size: 10px; fill: rgb(0, 0, 0); fill-opacity: 1; white-space: pre; opacity: 1;" transform="translate(0,358)">20%</text></g><g class="ytick"><text text-anchor="end" x="65" y="3.5" style="font-family: 'Lucida Grande', 'Open Sans', verdana, arial, sans-serif; font-size: 10px; fill: rgb(0, 0, 0); fill-opacity: 1; white-space: pre; opacity: 1;" transform="translate(0,281)">40%</text></g><g class="ytick"><text text-anchor="end" x="65" y="3.5" style="font-family: 'Lucida Grande', 'Open Sans', verdana, arial, sans-serif; font-size: 10px; fill: rgb(0, 0, 0); fill-opacity: 1; white-space: pre; opacity: 1;" transform="translate(0,204)">60%</text></g><g class="ytick"><text text-anchor="end" x="65" y="3.5" style="font-family: 'Lucida Grande', 'Open Sans', verdana, arial, sans-serif; font-size: 10px; fill: rgb(0, 0, 0); fill-opacity: 1; white-space: pre; opacity: 1;" transform="translate(0,127)">80%</text></g><g class="ytick"><text text-anchor="end" x="65" y="3.5" style="font-family: 'Lucida Grande', 'Open Sans', verdana, arial, sans-serif; font-size: 10px; fill: rgb(0, 0, 0); fill-opacity: 1; white-space: pre; opacity: 1;" transform="translate(0,50)">100%</text></g></g><g class="overaxes-above"/></g></g><g class="polarlayer"/><g class="smithlayer"/><g class="ternarylayer"/><g class="geolayer"/><g class="funnelarealayer"/><g class="pielayer"/><g class="iciclelayer"/><g class="treemaplayer"/><g class="sunburstlayer"/><g class="glimages"/><defs id="topdefs-3a8f03"><g class="clips"/></defs><g class="layer-above"><g class="imagelayer"/><g class="shapelayer"/></g><g class="infolayer"><g class="g-gtitle"><text class="gtitle" x="550" y="25" text-anchor="middle" dy="0em" style="opacity: 1; font-family: 'Lucida Grande', 'Open Sans', verdana, arial, sans-serif; font-size: 20px; fill: rgb(42, 63, 95); fill-opacity: 1; white-space: pre;"><tspan class="line" dy="0em" x="550" y="25">Fastp: Read GC Content</tspan><tspan class="line" dy="1.3em" x="550" y="25">​<tspan style="font-size:70%" dy="-0.6em">Read 2: Before filtering, 10 samples</tspan><tspan dy="0.42em">​</tspan></tspan></text></g><g class="g-xtitle"><text class="xtitle" x="574.5" y="472.3" text-anchor="middle" style="opacity: 0.3; font-family: 'Lucida Grande', 'Open Sans', verdana, arial, sans-serif; font-size: 14px; fill: rgb(0, 0, 0); fill-opacity: 1; white-space: pre;">Read Position</text></g><g class="g-ytitle"><text class="ytitle" transform="rotate(-90,22.00625,242.5)" x="22.00625" y="242.5" text-anchor="middle" style="opacity: 0.3; font-family: 'Lucida Grande', 'Open Sans', verdana, arial, sans-serif; font-size: 14px; fill: rgb(0, 0, 0); fill-opacity: 1; white-space: pre;">R2 Before filtering: Base Content Percent</text></g></g></svg>