<svg class="main-svg" xmlns="http://www.w3.org/2000/svg" xmlns:xlink="http://www.w3.org/1999/xlink" width="2200" height="1000" style="" viewBox="0 0 1100 500"><rect x="0" y="0" width="1100" height="500" style="fill: rgb(255, 255, 255); fill-opacity: 1;"/><defs id="defs-b65203"><g class="clips"><clipPath id="clipb65203xyplot" class="plotclip"><rect width="1018" height="385"/></clipPath><clipPath class="axesclip" id="clipb65203x"><rect x="60" y="0" width="1018" height="500"/></clipPath><clipPath class="axesclip" id="clipb65203y"><rect x="0" y="50" width="1100" height="385"/></clipPath><clipPath class="axesclip" id="clipb65203xy"><rect x="60" y="50" width="1018" height="385"/></clipPath></g><g class="gradients"/><g class="patterns"/></defs><g class="bglayer"/><g class="layer-below"><g class="imagelayer"/><g class="shapelayer"/></g><g class="cartesianlayer"><g class="subplot xy"><g class="layer-subplot"><g class="shapelayer"/><g class="imagelayer"/></g><g class="minor-gridlayer"><g class="x"/><g class="y"/></g><g class="gridlayer"><g class="x"><path class="xgrid crisp" transform="translate(260.33000000000004,0)" d="M0,50v385" style="stroke: rgb(0, 0, 0); stroke-opacity: 0.05; stroke-width: 1px;"/><path class="xgrid crisp" transform="translate(464.75,0)" d="M0,50v385" style="stroke: rgb(0, 0, 0); stroke-opacity: 0.05; stroke-width: 1px;"/><path class="xgrid crisp" transform="translate(669.16,0)" d="M0,50v385" style="stroke: rgb(0, 0, 0); stroke-opacity: 0.05; stroke-width: 1px;"/><path class="xgrid crisp" transform="translate(873.58,0)" d="M0,50v385" style="stroke: rgb(0, 0, 0); stroke-opacity: 0.05; stroke-width: 1px;"/></g><g class="y"><path class="ygrid crisp" transform="translate(0,384.99)" d="M60,0h1018" style="stroke: rgb(0, 0, 0); stroke-opacity: 0.05; stroke-width: 1px;"/><path class="ygrid crisp" transform="translate(0,334.97)" d="M60,0h1018" style="stroke: rgb(0, 0, 0); stroke-opacity: 0.05; stroke-width: 1px;"/><path class="ygrid crisp" transform="translate(0,284.96000000000004)" d="M60,0h1018" style="stroke: rgb(0, 0, 0); stroke-opacity: 0.05; stroke-width: 1px;"/><path class="ygrid crisp" transform="translate(0,234.94)" d="M60,0h1018" style="stroke: rgb(0, 0, 0); stroke-opacity: 0.05; stroke-width: 1px;"/><path class="ygrid crisp" transform="translate(0,184.93)" d="M60,0h1018" style="stroke: rgb(0, 0, 0); stroke-opacity: 0.05; stroke-width: 1px;"/><path class="ygrid crisp" transform="translate(0,134.91)" d="M60,0h1018" style="stroke: rgb(0, 0, 0); stroke-opacity: 0.05; stroke-width: 1px;"/><path class="ygrid crisp" transform="translate(0,84.9)" d="M60,0h1018" style="stroke: rgb(0, 0, 0); stroke-opacity: 0.05; stroke-width: 1px;"/></g></g><g class="zerolinelayer"><path class="yzl zl crisp" transform="translate(0,435)" d="M60,0h1018" style="stroke: rgb(0, 0, 0); stroke-opacity: 0.05; stroke-width: 2px;"/></g><g class="layer-between"><g class="shapelayer"/><g class="imagelayer"/></g><path class="xlines-below"/><path class="ylines-below"/><g class="overlines-below"/><g class="xaxislayer-below"/><g class="yaxislayer-below"/><g class="overaxes-below"/><g class="overplot"><g class="xy" transform="translate(60,50)" clip-path="url(#clipb65203xyplot)"><g class="scatterlayer mlayer"><g class="trace scatter trace961343" style="stroke-miterlimit: 2; opacity: 1;"><g class="fills"/><g class="errorbars"/><g class="lines"><path class="js-line" d="M0,376.56L4.09,385L8.18,385L1018,384.98" style="vector-effect: none; fill: none; stroke: rgb(124, 181, 236); stroke-opacity: 1; stroke-width: 2px; opacity: 1;"/></g><g class="points"/><g class="text"/></g><g class="trace scatter trace86764f" style="stroke-miterlimit: 2; opacity: 1;"><g class="fills"/><g class="errorbars"/><g class="lines"><path class="js-line" d="M0,376.58L4.09,385L8.18,385L1018,384.94" style="vector-effect: none; fill: none; stroke: rgb(67, 67, 72); stroke-opacity: 1; stroke-width: 2px; opacity: 1;"/></g><g class="points"/><g class="text"/></g><g class="trace scatter traceff8a37" style="stroke-miterlimit: 2; opacity: 1;"><g class="fills"/><g class="errorbars"/><g class="lines"><path class="js-line" d="M0,376.72L4.09,385L8.18,385L1018,384.97" style="vector-effect: none; fill: none; stroke: rgb(144, 237, 125); stroke-opacity: 1; stroke-width: 2px; opacity: 1;"/></g><g class="points"/><g class="text"/></g><g class="trace scatter tracea00a0f" style="stroke-miterlimit: 2; opacity: 1;"><g class="fills"/><g class="errorbars"/><g class="lines"><path class="js-line" d="M0,384.84L20.44,384.92L24.53,384.76L49.06,385L53.15,381.75L61.33,381.43L65.41,382.38L77.68,382.07L81.77,385L547.84,384.44L551.93,383.18L560.1,383.81L564.19,383.18L572.37,383.57L576.46,383.57L580.55,383.26L584.63,384.29L592.81,383.89L596.9,18.33L600.99,383.97L605.08,384.05L609.16,382.86L613.25,382.46L617.34,382.3L621.43,382.94L633.69,384.29L637.78,383.81L645.96,383.49L650.05,383.41L666.4,382.15L670.49,383.1L699.11,383.26L703.2,383.81L711.37,383.57L715.46,384.37L719.55,383.49L723.64,383.97L752.26,382.86L756.35,383.57L760.43,383.02L764.52,383.26L772.7,383.49L776.79,383.26L784.96,383.65L789.05,383.18L809.49,383.26L813.58,383.26L817.67,383.57L821.76,382.94L829.94,383.41L834.02,383.26L870.82,383.26L874.91,383.18L879,383.33L883.08,381.83L887.17,382.78L891.26,381.99L899.44,382.38L903.53,382.3L915.79,383.81L919.88,383.81L923.97,383.49L928.06,384.13L932.14,383.33L936.23,383.81L944.41,383.41L948.5,383.49L956.67,382.54L960.76,383.1L964.85,382.86L968.94,380.4L977.12,382.62L981.2,382.07L993.47,382.38L997.56,383.18L1013.91,383.18L1018,383.65" style="vector-effect: none; fill: none; stroke: rgb(247, 163, 92); stroke-opacity: 1; stroke-width: 2px; opacity: 1;"/></g><g class="points"/><g class="text"/></g><g class="trace scatter trace86d0a4" style="stroke-miterlimit: 2; opacity: 1;"><g class="fills"/><g class="errorbars"/><g class="lines"><path class="js-line" d="M0,384.33L4.09,384.95L8.18,384.61L12.27,384.29L16.35,384.86L20.44,384.22L24.53,384.73L159.45,383.93L163.53,384.02L200.33,384.58L204.42,384.61L237.12,384.65L241.21,384.45L273.92,384.49L278.01,384.42L318.89,384.31L322.98,384.35L396.57,384.51L400.66,384.34L461.98,384.44L466.07,384.58L842.2,383.92L846.29,384.29L1018,383.61" style="vector-effect: none; fill: none; stroke: rgb(128, 133, 233); stroke-opacity: 1; stroke-width: 2px; opacity: 1;"/></g><g class="points"/><g class="text"/></g><g class="trace scatter tracef12a4c" style="stroke-miterlimit: 2; opacity: 1;"><g class="fills"/><g class="errorbars"/><g class="lines"><path class="js-line" d="M0,384.36L4.09,384.94L8.18,384.64L12.27,384.32L16.35,384.82L20.44,384.27L24.53,384.77L196.24,384.29L200.33,384.5L265.74,384.57L269.83,384.41L302.54,384.41L306.63,384.32L556.02,384.37L560.1,384.23L592.81,384.24L596.9,384.14L748.17,384.23L752.26,384.07L780.88,384L784.96,384.12L932.14,383.93L936.23,383.56L944.41,384L948.5,383.78L1013.91,383.6L1018,383.66" style="vector-effect: none; fill: none; stroke: rgb(241, 92, 128); stroke-opacity: 1; stroke-width: 2px; opacity: 1;"/></g><g class="points"/><g class="text"/></g><g class="trace scatter tracee369c9" style="stroke-miterlimit: 2; opacity: 1;"><g class="fills"/><g class="errorbars"/><g class="lines"><path class="js-line" d="M0,384.32L4.09,384.96L8.18,384.62L12.27,384.33L16.35,384.84L20.44,384.23L24.53,384.72L183.98,384.09L188.06,384.15L208.51,384.63L212.59,384.76L233.04,384.55L237.12,384.6L257.57,384.54L261.65,384.52L282.1,384.35L286.18,384.3L834.02,384.25L838.11,383.77L862.64,384.27L866.73,384.24L883.08,384.06L887.17,384.18L936.23,383.61L940.32,383.9L960.76,383.81L964.85,383.54L981.2,383.61L985.29,383.74L1018,383.71" style="vector-effect: none; fill: none; stroke: rgb(228, 211, 84); stroke-opacity: 1; stroke-width: 2px; opacity: 1;"/></g><g class="points"/><g class="text"/></g><g class="trace scatter trace5c3a51" style="stroke-miterlimit: 2; opacity: 1;"><g class="fills"/><g class="errorbars"/><g class="lines"><path class="js-line" d="M0,384.94L49.06,385L53.15,382.66L61.33,382.41L65.41,383.22L77.68,383.11L81.77,385L547.84,384.49L551.93,384.04L592.81,384.32L596.9,38.4L600.99,384.38L605.08,384.43L613.25,382.51L617.34,383.02L621.43,383.15L625.52,384.24L637.78,384.36L641.87,384.13L658.22,383.87L662.31,383.32L666.4,383.17L670.49,383.9L735.9,384.3L739.99,383.83L879,383.81L883.08,382.17L887.17,382.85L891.26,382.41L899.44,383.07L903.53,382.94L915.79,384.15L919.88,384.17L932.14,383.81L936.23,384.06L944.41,383.81L948.5,384.06L956.67,383L960.76,383.75L964.85,383.09L968.94,381.56L977.12,382.73L981.2,382.54L993.47,382.7L997.56,383.39L1001.65,383.13L1005.73,383.66L1013.91,383.28L1018,383.87" style="vector-effect: none; fill: none; stroke: rgb(43, 144, 143); stroke-opacity: 1; stroke-width: 2px; opacity: 1;"/></g><g class="points"/><g class="text"/></g><g class="trace scatter trace03d408" style="stroke-miterlimit: 2; opacity: 1;"><g class="fills"/><g class="errorbars"/><g class="lines"><path class="js-line" d="M0,384.83L44.97,384.96L49.06,385L53.15,381.87L57.24,381.78L61.33,381.59L65.41,382.66L77.68,382.47L81.77,385L159.45,384.98L163.53,384.98L183.98,384.85L188.06,384.92L245.3,384.87L249.39,384.91L547.84,384.47L551.93,384.11L576.46,384.36L580.55,384.08L588.72,384.49L592.81,384.49L596.9,33.35L600.99,384.47L605.08,384.45L609.16,382.66L613.25,382.04L617.34,382.44L621.43,382.51L625.52,384.21L654.14,384L658.22,383.94L666.4,382.79L670.49,383.81L739.99,383.89L744.08,383.85L784.96,384.28L789.05,383.76L817.67,384.17L821.76,383.59L829.94,383.96L834.02,383.7L850.38,383.96L854.47,383.81L879,383.57L883.08,381.72L887.17,382.78L891.26,381.95L895.35,382.83L899.44,382.78L907.61,383.36L911.7,384.1L952.59,383.28L956.67,382.76L960.76,383.53L964.85,382.81L968.94,381.06L973.03,381.8L977.12,382.45L981.2,382.12L993.47,382.13L997.56,383.11L1001.65,382.91L1005.73,383.47L1013.91,383.08L1018,383.55" style="vector-effect: none; fill: none; stroke: rgb(244, 91, 91); stroke-opacity: 1; stroke-width: 2px; opacity: 1;"/></g><g class="points"/><g class="text"/></g><g class="trace scatter trace2e4b03" style="stroke-miterlimit: 2; opacity: 1;"><g class="fills"/><g class="errorbars"/><g class="lines"><path class="js-line" d="M0,384.84L49.06,384.97L53.15,382.36L61.33,382.09L65.41,382.97L77.68,382.82L81.77,384.98L433.37,384.61L437.45,384.83L457.9,384.49L461.98,384.74L547.84,384.43L551.93,384.08L592.81,384.3L596.9,44.6L600.99,384.32L605.08,384.26L609.16,382.71L613.25,382.05L621.43,382.53L625.52,384.06L645.96,384.02L650.05,384.02L666.4,382.83L670.49,383.58L699.11,383.89L703.2,384.3L719.55,383.93L723.64,384.26L739.99,383.71L744.08,383.68L784.96,384.03L789.05,383.43L805.41,383.47L809.49,383.46L829.94,383.64L834.02,383.46L870.82,383.38L874.91,383.28L879,383.34L883.08,381.78L887.17,382.62L891.26,382.1L899.44,382.84L903.53,382.67L915.79,383.97L919.88,383.95L932.14,383.38L936.23,383.9L944.41,383.44L948.5,383.8L956.67,382.71L960.76,383.45L964.85,382.72L968.94,381.1L977.12,382.56L981.2,382.25L993.47,382.19L997.56,383.12L1001.65,382.86L1005.73,383.38L1018,383.59" style="vector-effect: none; fill: none; stroke: rgb(145, 232, 225); stroke-opacity: 1; stroke-width: 2px; opacity: 1;"/></g><g class="points"/><g class="text"/></g></g></g></g><path class="xlines-above crisp" d="M0,0" style="fill: none;"/><path class="ylines-above crisp" d="M0,0" style="fill: none;"/><g class="overlines-above"/><g class="xaxislayer-above"><g class="xtick"><text text-anchor="middle" x="0" y="451" transform="translate(260.33000000000004,0)" style="font-family: 'Lucida Grande', 'Open Sans', verdana, arial, sans-serif; font-size: 10px; fill: rgb(0, 0, 0); fill-opacity: 1; white-space: pre; opacity: 1;">50</text></g><g class="xtick"><text text-anchor="middle" x="0" y="451" style="font-family: 'Lucida Grande', 'Open Sans', verdana, arial, sans-serif; font-size: 10px; fill: rgb(0, 0, 0); fill-opacity: 1; white-space: pre; opacity: 1;" transform="translate(464.75,0)">100</text></g><g class="xtick"><text text-anchor="middle" x="0" y="451" style="font-family: 'Lucida Grande', 'Open Sans', verdana, arial, sans-serif; font-size: 10px; fill: rgb(0, 0, 0); fill-opacity: 1; white-space: pre; opacity: 1;" transform="translate(669.16,0)">150</text></g><g class="xtick"><text text-anchor="middle" x="0" y="451" style="font-family: 'Lucida Grande', 'Open Sans', verdana, arial, sans-serif; font-size: 10px; fill: rgb(0, 0, 0); fill-opacity: 1; white-space: pre; opacity: 1;" transform="translate(873.58,0)">200</text></g><g class="xtick"><text text-anchor="middle" x="0" y="451" style="font-family: 'Lucida Grande', 'Open Sans', verdana, arial, sans-serif; font-size: 10px; fill: rgb(0, 0, 0); fill-opacity: 1; white-space: pre; opacity: 1;" transform="translate(1078,0)">250</text></g></g><g class="yaxislayer-above"><g class="ytick"><text text-anchor="end" x="54" y="3.5" transform="translate(0,435)" style="font-family: 'Lucida Grande', 'Open Sans', verdana, arial, sans-serif; font-size: 10px; fill: rgb(0, 0, 0); fill-opacity: 1; white-space: pre; opacity: 1;">0%</text></g><g class="ytick"><text text-anchor="end" x="54" y="3.5" style="font-family: 'Lucida Grande', 'Open Sans', verdana, arial, sans-serif; font-size: 10px; fill: rgb(0, 0, 0); fill-opacity: 1; white-space: pre; opacity: 1;" transform="translate(0,384.99)">1%</text></g><g class="ytick"><text text-anchor="end" x="54" y="3.5" style="font-family: 'Lucida Grande', 'Open Sans', verdana, arial, sans-serif; font-size: 10px; fill: rgb(0, 0, 0); fill-opacity: 1; white-space: pre; opacity: 1;" transform="translate(0,334.97)">2%</text></g><g class="ytick"><text text-anchor="end" x="54" y="3.5" style="font-family: 'Lucida Grande', 'Open Sans', verdana, arial, sans-serif; font-size: 10px; fill: rgb(0, 0, 0); fill-opacity: 1; white-space: pre; opacity: 1;" transform="translate(0,284.96000000000004)">3%</text></g><g class="ytick"><text text-anchor="end" x="54" y="3.5" style="font-family: 'Lucida Grande', 'Open Sans', verdana, arial, sans-serif; font-size: 10px; fill: rgb(0, 0, 0); fill-opacity: 1; white-space: pre; opacity: 1;" transform="translate(0,234.94)">4%</text></g><g class="ytick"><text text-anchor="end" x="54" y="3.5" style="font-family: 'Lucida Grande', 'Open Sans', verdana, arial, sans-serif; font-size: 10px; fill: rgb(0, 0, 0); fill-opacity: 1; white-space: pre; opacity: 1;" transform="translate(0,184.93)">5%</text></g><g class="ytick"><text text-anchor="end" x="54" y="3.5" style="font-family: 'Lucida Grande', 'Open Sans', verdana, arial, sans-serif; font-size: 10px; fill: rgb(0, 0, 0); fill-opacity: 1; white-space: pre; opacity: 1;" transform="translate(0,134.91)">6%</text></g><g class="ytick"><text text-anchor="end" x="54" y="3.5" style="font-family: 'Lucida Grande', 'Open Sans', verdana, arial, sans-serif; font-size: 10px; fill: rgb(0, 0, 0); fill-opacity: 1; white-space: pre; opacity: 1;" transform="translate(0,84.9)">7%</text></g></g><g class="overaxes-above"/></g></g><g class="polarlayer"/><g class="smithlayer"/><g class="ternarylayer"/><g class="geolayer"/><g class="funnelarealayer"/><g class="pielayer"/><g class="iciclelayer"/><g class="treemaplayer"/><g class="sunburstlayer"/><g class="glimages"/><defs id="topdefs-b65203"><g class="clips"/></defs><g class="layer-above"><g class="imagelayer"/><g class="shapelayer"/></g><g class="infolayer"><g class="g-gtitle"><text class="gtitle" x="550" y="25" text-anchor="middle" dy="0em" style="opacity: 1; font-family: 'Lucida Grande', 'Open Sans', verdana, arial, sans-serif; font-size: 20px; fill: rgb(42, 63, 95); fill-opacity: 1; white-space: pre;"><tspan class="line" dy="0em" x="550" y="25">Fastp: Read N Content</tspan><tspan class="line" dy="1.3em" x="550" y="25">​<tspan style="font-size:70%" dy="-0.6em">Read 2: Before filtering, 10 samples</tspan><tspan dy="0.42em">​</tspan></tspan></text></g><g class="g-xtitle"><text class="xtitle" x="569" y="472.3" text-anchor="middle" style="opacity: 0.3; font-family: 'Lucida Grande', 'Open Sans', verdana, arial, sans-serif; font-size: 14px; fill: rgb(0, 0, 0); fill-opacity: 1; white-space: pre;">Read Position</text></g><g class="g-ytitle"><text class="ytitle" transform="rotate(-90,23.725,242.5)" x="23.725" y="242.5" text-anchor="middle" style="opacity: 0.3; font-family: 'Lucida Grande', 'Open Sans', verdana, arial, sans-serif; font-size: 14px; fill: rgb(0, 0, 0); fill-opacity: 1; white-space: pre;">R2 Before filtering: Base Content Percent</text></g></g></svg>